<svg width="40" height="53" viewBox="0 0 40 53" fill="none" xmlns="http://www.w3.org/2000/svg">
<g filter="url(#filter0_d)">
<path d="M20 2C12.26 2 6 8.26 6 16C6 26.5 20 42 20 42C20 42 34 26.5 34 16C34 8.26 27.74 2 20 2ZM20 21C17.24 21 15 18.76 15 16C15 13.24 17.24 11 20 11C22.76 11 25 13.24 25 16C25 18.76 22.76 21 20 21Z" fill="#1ECD96"/>
<path d="M20 42L19.2579 42.6703L20 43.4919L20.7421 42.6703L20 42ZM20 42C20.7421 42.6703 20.7423 42.6701 20.7425 42.6699L20.7432 42.6691L20.7455 42.6665L20.754 42.657L20.7859 42.6215C20.7972 42.6088 20.8108 42.5936 20.8264 42.576C20.8489 42.5507 20.8757 42.5205 20.9067 42.4854C21.0118 42.3664 21.1649 42.1916 21.3592 41.9662C21.7476 41.5153 22.3008 40.8613 22.964 40.0442C24.2893 38.4112 26.0582 36.1214 27.829 33.4968C29.5978 30.8751 31.3811 27.9011 32.7251 24.901C34.0633 21.914 35 18.8273 35 16C35 7.70772 28.2923 1 20 1C11.7077 1 5 7.70772 5 16C5 18.8273 5.93673 21.914 7.2749 24.901C8.61894 27.9011 10.4022 30.8751 12.171 33.4968C13.9418 36.1214 15.7107 38.4112 17.036 40.0442C17.6992 40.8613 18.2524 41.5153 18.6408 41.9662C18.8351 42.1916 18.9882 42.3664 19.0933 42.4854C19.1458 42.5449 19.1864 42.5905 19.2141 42.6215L19.246 42.657L19.2545 42.6665L19.2568 42.6691L19.2575 42.6699C19.2577 42.6701 19.2579 42.6703 20 42ZM20 20C17.7923 20 16 18.2077 16 16C16 13.7923 17.7923 12 20 12C22.2077 12 24 13.7923 24 16C24 18.2077 22.2077 20 20 20Z" stroke="white" stroke-width="2"/>
</g>
<circle cx="19.75" cy="15.75" r="6.25" fill="#2BA37D"/>
<defs>
<filter id="filter0_d" x="0" y="0" width="40" height="52.9838" filterUnits="userSpaceOnUse" color-interpolation-filters="sRGB">
<feFlood flood-opacity="0" result="BackgroundImageFix"/>
<feColorMatrix in="SourceAlpha" type="matrix" values="0 0 0 0 0 0 0 0 0 0 0 0 0 0 0 0 0 0 127 0"/>
<feOffset dy="4"/>
<feGaussianBlur stdDeviation="2"/>
<feColorMatrix type="matrix" values="0 0 0 0 0 0 0 0 0 0 0 0 0 0 0 0 0 0 0.25 0"/>
<feBlend mode="normal" in2="BackgroundImageFix" result="effect1_dropShadow"/>
<feBlend mode="normal" in="SourceGraphic" in2="effect1_dropShadow" result="shape"/>
</filter>
</defs>
</svg>
