<svg width="52" height="69" viewBox="0 0 52 69" fill="none" xmlns="http://www.w3.org/2000/svg">
  <path d="M1.01276 5.59558H50.9872V67.7891H1.01276V5.59558Z" fill="#D9D9DC"/>
  <path d="M7.02444 11.3029H44.9761V61.8092H7.02444V11.3029Z" fill="#F5F5F5"/>
  <path d="M36.1177 11.3029V3.54808C36.1179 3.21495 36.0525 2.88503 35.9251 2.57722C35.7977 2.2694 35.6108 1.98973 35.3752 1.75419C35.1397 1.51865 34.8599 1.33188 34.5521 1.20455C34.2442 1.07722 33.9143 1.01184 33.5812 1.01215H18.4188C17.7467 1.01215 17.1021 1.27914 16.6269 1.7544C16.1516 2.22965 15.8846 2.87424 15.8846 3.54635V11.3011L36.1177 11.3029Z" fill="#D9D9DC"/>
  <path d="M13.0674 32.0053H22.1689V41.1068H13.0674V32.0053Z" fill="#1ECD96"/>
  <path d="M13.0674 46.9073H22.1689V56.0087H13.0674V46.9073Z" fill="#1ECD96"/>
  <path d="M13.0674 17.1034H22.1689V26.2049H13.0674V17.1034Z" fill="#1ECD96"/>
  <path d="M1.01275 58.712C1.28135 58.712 1.53895 58.6053 1.72888 58.4153C1.91881 58.2254 2.02551 57.9678 2.02551 57.6992V55.095C2.02551 54.8264 1.91881 54.5688 1.72888 54.3789C1.53895 54.1889 1.28135 54.0822 1.01275 54.0822C0.744155 54.0822 0.486557 54.1889 0.296629 54.3789C0.106701 54.5688 1.65555e-07 54.8264 1.65555e-07 55.095V57.6992C-7.591e-05 57.8322 0.0260673 57.964 0.076936 58.0869C0.127805 58.2098 0.202401 58.3215 0.296459 58.4155C0.390517 58.5096 0.502193 58.5842 0.6251 58.635C0.748007 58.6859 0.879736 58.7121 1.01275 58.712Z" fill="black"/>
  <path d="M50.9872 17.2527C50.8542 17.2526 50.7225 17.2788 50.5996 17.3296C50.4767 17.3805 50.365 17.4551 50.271 17.5491C50.1769 17.6432 50.1023 17.7549 50.0514 17.8778C50.0006 18.0007 49.9744 18.1324 49.9745 18.2654V66.7758H2.02551V62.4684C2.02551 62.1998 1.91881 61.9422 1.72888 61.7523C1.53895 61.5623 1.28135 61.4556 1.01275 61.4556C0.744155 61.4556 0.486558 61.5623 0.296629 61.7523C0.106701 61.9422 1.65555e-07 62.1998 1.65555e-07 62.4684V67.7926C-7.591e-05 67.9256 0.0260673 68.0573 0.076936 68.1802C0.127805 68.3031 0.202401 68.4148 0.296459 68.5089C0.390517 68.6029 0.502193 68.6775 0.6251 68.7284C0.748007 68.7793 0.879736 68.8054 1.01275 68.8053H50.9872C51.1203 68.8054 51.252 68.7793 51.3749 68.7284C51.4978 68.6775 51.6095 68.6029 51.7035 68.5089C51.7976 68.4148 51.8722 68.3031 51.9231 68.1802C51.9739 68.0573 52.0001 67.9256 52 67.7926V18.2654C52.0001 18.1324 51.9739 18.0007 51.9231 17.8778C51.8722 17.7549 51.7976 17.6432 51.7035 17.5491C51.6095 17.4551 51.4978 17.3805 51.3749 17.3296C51.252 17.2788 51.1203 17.2526 50.9872 17.2527Z" fill="#25282B"/>
  <path d="M50.9872 4.58286H37.1305V3.54695C37.1295 2.60612 36.7552 1.70413 36.0897 1.03908C35.4243 0.374027 34.522 0.000306259 33.5812 0H18.4188C17.4784 0.000919286 16.5767 0.37491 15.9118 1.03989C15.2468 1.70488 14.8728 2.60653 14.8719 3.54695V4.58286H1.01275C0.879736 4.58278 0.748007 4.60892 0.6251 4.65979C0.502193 4.71066 0.390517 4.78526 0.296459 4.87932C0.202401 4.97337 0.127805 5.08505 0.076936 5.20796C0.0260673 5.33086 -7.591e-05 5.46259 1.65555e-07 5.59561V50.0839C1.65555e-07 50.3525 0.106701 50.6101 0.296629 50.8C0.486558 50.9899 0.744155 51.0966 1.01275 51.0966C1.28135 51.0966 1.53895 50.9899 1.72888 50.8C1.91881 50.6101 2.02551 50.3525 2.02551 50.0839V6.60836H14.8695V10.2907H7.02388C6.75528 10.2907 6.49769 10.3974 6.30776 10.5874C6.11783 10.7773 6.01113 11.0349 6.01113 11.3035V61.8092C6.01113 62.0778 6.11783 62.3354 6.30776 62.5254C6.49769 62.7153 6.75528 62.822 7.02388 62.822H44.9755C45.1086 62.8221 45.2403 62.7959 45.3632 62.7451C45.4861 62.6942 45.5978 62.6196 45.6918 62.5255C45.7859 62.4315 45.8605 62.3198 45.9114 62.1969C45.9622 62.074 45.9884 61.9423 45.9883 61.8092V11.3035C45.9884 11.1705 45.9622 11.0387 45.9114 10.9158C45.8605 10.7929 45.7859 10.6813 45.6918 10.5872C45.5978 10.4931 45.4861 10.4185 45.3632 10.3677C45.2403 10.3168 45.1086 10.2907 44.9755 10.2907H37.1305V6.60836H49.9745V13.8221C49.9745 14.0907 50.0812 14.3483 50.2711 14.5382C50.461 14.7281 50.7186 14.8348 50.9872 14.8348C51.2558 14.8348 51.5134 14.7281 51.7034 14.5382C51.8933 14.3483 52 14.0907 52 13.8221V5.59561C52.0001 5.46259 51.9739 5.33086 51.9231 5.20796C51.8722 5.08505 51.7976 4.97337 51.7035 4.87932C51.6095 4.78526 51.4978 4.71066 51.3749 4.65979C51.252 4.60892 51.1203 4.58278 50.9872 4.58286ZM43.9628 60.7965H8.03664V12.3162H43.9628V60.7965ZM16.8951 10.2907V3.54695C16.8955 3.14318 17.0563 2.75611 17.342 2.47082C17.6277 2.18553 18.015 2.02535 18.4188 2.02551H33.5812C33.9846 2.02597 34.3713 2.18641 34.6565 2.47164C34.9417 2.75686 35.1022 3.14358 35.1026 3.54695V10.2907H16.8951Z" fill="#25282B"/>
  <path d="M25.9421 21.6544C25.9423 21.923 26.049 22.1805 26.2389 22.3704C26.4288 22.5603 26.6863 22.667 26.9549 22.6672H38.9326C39.2012 22.6672 39.4588 22.5605 39.6487 22.3705C39.8386 22.1806 39.9453 21.923 39.9453 21.6544C39.9453 21.3858 39.8386 21.1282 39.6487 20.9383C39.4588 20.7484 39.2012 20.6417 38.9326 20.6417H26.956C26.823 20.6415 26.6911 20.6676 26.5681 20.7184C26.4451 20.7693 26.3333 20.8438 26.2392 20.9379C26.145 21.0319 26.0703 21.1436 26.0193 21.2666C25.9684 21.3895 25.9421 21.5213 25.9421 21.6544Z" fill="#25282B"/>
  <path d="M38.9326 35.5436H26.956C26.6874 35.5436 26.4298 35.6503 26.2399 35.8403C26.05 36.0302 25.9433 36.2878 25.9433 36.5564C25.9433 36.825 26.05 37.0826 26.2399 37.2725C26.4298 37.4625 26.6874 37.5691 26.956 37.5691H38.9326C39.2012 37.5691 39.4588 37.4625 39.6487 37.2725C39.8386 37.0826 39.9453 36.825 39.9453 36.5564C39.9453 36.2878 39.8386 36.0302 39.6487 35.8403C39.4588 35.6503 39.2012 35.5436 38.9326 35.5436Z" fill="#25282B"/>
  <path d="M38.9326 50.4456H26.956C26.6874 50.4456 26.4298 50.5523 26.2399 50.7422C26.05 50.9321 25.9433 51.1897 25.9433 51.4583C25.9433 51.7269 26.05 51.9845 26.2399 52.1745C26.4298 52.3644 26.6874 52.4711 26.956 52.4711H38.9326C39.2012 52.4711 39.4588 52.3644 39.6487 52.1745C39.8386 51.9845 39.9453 51.7269 39.9453 51.4583C39.9453 51.1897 39.8386 50.9321 39.6487 50.7422C39.4588 50.5523 39.2012 50.4456 38.9326 50.4456Z" fill="#25282B"/>
  <path d="M23.7882 15.1647L22.7054 16.2475C22.545 16.1455 22.359 16.0911 22.1689 16.0906H13.0674C12.7989 16.0908 12.5414 16.1975 12.3515 16.3874C12.1616 16.5773 12.0548 16.8348 12.0547 17.1034V26.2054C12.0547 26.474 12.1614 26.7316 12.3513 26.9216C12.5412 27.1115 12.7988 27.2182 13.0674 27.2182H22.1689C22.3019 27.2183 22.4337 27.1921 22.5566 27.1413C22.6795 27.0904 22.7912 27.0158 22.8852 26.9217C22.9793 26.8277 23.0539 26.716 23.1047 26.5931C23.1556 26.4702 23.1817 26.3385 23.1817 26.2054V18.6352L25.2205 16.5964C25.4049 16.4054 25.507 16.1495 25.5046 15.884C25.5022 15.6185 25.3957 15.3645 25.2079 15.1767C25.0201 14.989 24.766 14.8825 24.5005 14.8803C24.2349 14.878 23.9791 14.9802 23.7882 15.1647ZM21.1562 25.1927H14.0785V18.1161H20.8361L17.6248 21.3274L16.8175 20.5201C16.7241 20.4234 16.6124 20.3462 16.4888 20.2931C16.3653 20.24 16.2324 20.212 16.0979 20.2108C15.9635 20.2096 15.8301 20.2352 15.7056 20.2861C15.5811 20.337 15.4681 20.4122 15.3729 20.5073C15.2778 20.6024 15.2026 20.7154 15.1517 20.8399C15.1007 20.9643 15.0751 21.0977 15.0762 21.2321C15.0773 21.3666 15.1053 21.4995 15.1583 21.6231C15.2114 21.7467 15.2885 21.8584 15.3852 21.9519L16.909 23.4756C17.003 23.5698 17.1146 23.6444 17.2375 23.6954C17.3604 23.7463 17.4921 23.7725 17.6251 23.7725C17.7582 23.7725 17.8899 23.7463 18.0128 23.6954C18.1356 23.6444 18.2473 23.5698 18.3413 23.4756L21.1562 20.6608V25.1927Z" fill="#25282B"/>
  <path d="M23.7882 30.0666L22.7054 31.1493C22.545 31.0474 22.359 30.993 22.1689 30.9925H13.0674C12.7989 30.9927 12.5414 31.0994 12.3515 31.2893C12.1616 31.4792 12.0548 31.7367 12.0547 32.0053V41.1073C12.0547 41.3759 12.1614 41.6335 12.3513 41.8235C12.5412 42.0134 12.7988 42.1201 13.0674 42.1201H22.1689C22.3019 42.1202 22.4337 42.094 22.5566 42.0431C22.6795 41.9923 22.7912 41.9177 22.8852 41.8236C22.9793 41.7296 23.0539 41.6179 23.1047 41.495C23.1556 41.3721 23.1817 41.2403 23.1817 41.1073V33.5371L25.2205 31.4983C25.4049 31.3073 25.507 31.0514 25.5046 30.7859C25.5022 30.5203 25.3957 30.2664 25.2079 30.0786C25.0201 29.8909 24.766 29.7844 24.5005 29.7822C24.2349 29.7799 23.9791 29.8821 23.7882 30.0666ZM21.1562 40.0946H14.0785V33.018H20.8361L17.6248 36.2293L16.8175 35.422C16.6266 35.2375 16.3708 35.1354 16.1052 35.1376C15.8397 35.1399 15.5856 35.2463 15.3978 35.4341C15.21 35.6218 15.1035 35.8758 15.1011 36.1413C15.0987 36.4069 15.2008 36.6627 15.3852 36.8538L16.909 38.3775C17.003 38.4716 17.1146 38.5463 17.2375 38.5973C17.3604 38.6482 17.4921 38.6744 17.6251 38.6744C17.7582 38.6744 17.8899 38.6482 18.0128 38.5973C18.1356 38.5463 18.2473 38.4716 18.3413 38.3775L21.1562 35.5626V40.0946Z" fill="#25282B"/>
  <path d="M23.7882 44.9686L22.7054 46.0514C22.545 45.9494 22.359 45.8951 22.1689 45.8946H13.0674C12.7989 45.8947 12.5414 46.0015 12.3515 46.1914C12.1616 46.3813 12.0548 46.6388 12.0547 46.9073V56.0094C12.0547 56.278 12.1614 56.5356 12.3513 56.7255C12.5412 56.9154 12.7988 57.0221 13.0674 57.0221H22.1689C22.3019 57.0222 22.4337 56.9961 22.5566 56.9452C22.6795 56.8943 22.7912 56.8197 22.8852 56.7257C22.9793 56.6316 23.0539 56.5199 23.1047 56.397C23.1556 56.2741 23.1818 56.1424 23.1817 56.0094V48.4392L25.2205 46.4004C25.3172 46.3069 25.3943 46.1952 25.4474 46.0716C25.5004 45.948 25.5283 45.8151 25.5295 45.6807C25.5306 45.5462 25.505 45.4128 25.454 45.2884C25.4031 45.1639 25.3279 45.0509 25.2328 44.9558C25.1376 44.8607 25.0246 44.7855 24.9001 44.7346C24.7756 44.6837 24.6422 44.6581 24.5078 44.6593C24.3733 44.6605 24.2404 44.6885 24.1169 44.7416C23.9933 44.7947 23.8816 44.8719 23.7882 44.9686ZM21.1562 54.9966H14.0785V47.9201H20.8361L17.6248 51.1314L16.8175 50.3241C16.6266 50.1396 16.3708 50.0374 16.1052 50.0397C15.8397 50.0419 15.5856 50.1484 15.3978 50.3361C15.21 50.5239 15.1035 50.7778 15.1011 51.0434C15.0987 51.3089 15.2008 51.5648 15.3852 51.7558L16.909 53.2796C17.003 53.3737 17.1146 53.4484 17.2375 53.4993C17.3604 53.5503 17.4921 53.5765 17.6251 53.5765C17.7582 53.5765 17.8899 53.5503 18.0128 53.4993C18.1356 53.4484 18.2473 53.3737 18.3413 53.2796L21.1562 50.4647V54.9966Z" fill="#25282B"/>
</svg>
