<svg xmlns="http://www.w3.org/2000/svg" width="77" height="81" viewBox="0 0 77 81" fill="none">
<path d="M7.46963 74.2523C15.1803 81.7612 27.1864 81.3954 34.4716 73.4302C41.7567 65.4645 41.6408 52.8295 34.2109 45.0134C26.781 37.1972 14.7704 37.0753 7.19892 44.7392C-0.373225 52.403 -0.721003 65.0333 6.41689 73.1455C6.74838 73.5344 7.09929 73.9035 7.46963 74.2523Z" fill="#DEF4EC"/>
<path d="M75.7167 12.1502C75.7167 9.16795 73.4182 6.75 70.5834 6.75H11.5502C8.71533 6.75 6.41687 9.16795 6.41687 12.1502V20.2505H75.7167V12.1502Z" fill="#DEF4EC"/>
<path d="M70.5834 5.40018H68.0167V1.35004C68.0167 0.604488 67.4421 0 66.7334 0C66.0247 0 65.45 0.604488 65.45 1.35004V5.40018H55.1834V1.35004C55.1834 0.604488 54.6088 0 53.9001 0C53.1913 0 52.6167 0.604488 52.6167 1.35004V5.40018H42.3501V1.35004C42.3501 0.604488 41.7755 0 41.0668 0C40.3581 0 39.7834 0.604488 39.7834 1.35004V5.40018H29.5168V1.35004C29.5168 0.604488 28.9422 0 28.2335 0C27.5248 0 26.9501 0.604488 26.9501 1.35004V5.40018H16.6835V1.35004C16.6835 0.604488 16.1089 0 15.4002 0C14.6915 0 14.1168 0.604488 14.1168 1.35004V5.40018H11.5502C8.00849 5.40479 5.13791 8.42394 5.13352 12.1504V45.1645C-1.83456 53.4474 -1.69294 65.9399 5.46062 74.0461C5.81717 74.4647 6.19503 74.8629 6.59294 75.238L6.60422 75.2505H6.61174C14.3155 82.7792 26.1919 82.9322 34.0674 75.6025H70.5834C74.1257 75.5979 76.9956 72.5787 77 68.8523V12.1504C76.9956 8.42394 74.1257 5.40479 70.5834 5.40018ZM7.70018 12.1504C7.70018 9.91373 9.42403 8.10027 11.5502 8.10027H14.1168V12.1504C14.1168 12.896 14.6915 13.5004 15.4002 13.5004C16.1089 13.5004 16.6835 12.896 16.6835 12.1504V8.10027H26.9501V12.1504C26.9501 12.896 27.5248 13.5004 28.2335 13.5004C28.9422 13.5004 29.5168 12.896 29.5168 12.1504V8.10027H39.7834V12.1504C39.7834 12.896 40.3581 13.5004 41.0668 13.5004C41.7755 13.5004 42.3501 12.896 42.3501 12.1504V8.10027H52.6167V12.1504C52.6167 12.896 53.1913 13.5004 53.9001 13.5004C54.6088 13.5004 55.1834 12.896 55.1834 12.1504V8.10027H65.45V12.1504C65.45 12.896 66.0247 13.5004 66.7334 13.5004C67.4421 13.5004 68.0167 12.896 68.0167 12.1504V8.10027H70.5834C72.7095 8.10027 74.4333 9.91373 74.4333 12.1504V18.9006H7.70018V12.1504ZM8.32681 73.2478C7.9853 72.9255 7.66071 72.584 7.35491 72.2247C0.693253 64.6499 1.02161 52.8581 8.09371 45.7064C15.1664 38.5547 26.3793 38.6747 33.3116 45.9773C40.2434 53.2793 40.343 65.0751 33.5353 72.5056C26.7277 79.9367 15.5186 80.2663 8.32681 73.2478ZM74.4333 68.8523C74.4333 71.0889 72.7095 72.9024 70.5834 72.9024H36.5494C36.7061 72.6987 36.8433 72.4812 36.9912 72.2722C37.1384 72.0626 37.2657 71.8912 37.3954 71.6941C37.6817 71.261 37.9487 70.8141 38.2025 70.3592C38.277 70.2241 38.3604 70.1008 38.4312 69.9676C38.7476 69.375 39.0365 68.7679 39.2972 68.1463C39.3636 67.9881 39.4175 67.8252 39.4808 67.6657C39.6669 67.1957 39.8411 66.7204 39.994 66.2385C40.0673 66.0118 40.13 65.7824 40.1945 65.553C40.3223 65.1192 40.4289 64.6822 40.5254 64.2405C40.578 63.9992 40.6294 63.7586 40.6758 63.5141C40.7603 63.0526 40.828 62.5852 40.8844 62.1159C40.9101 61.8997 40.9439 61.6848 40.964 61.4679C41.0273 60.783 41.0668 60.0948 41.0668 59.402C41.0536 47.4783 31.8685 37.8158 20.5335 37.8013C19.8755 37.8013 19.2207 37.8434 18.5703 37.9094C18.3635 37.9311 18.1592 37.966 17.953 37.9931C17.5075 38.0537 17.0645 38.1282 16.6246 38.2132C16.3921 38.2614 16.1628 38.3154 15.9328 38.3708C15.5142 38.473 15.1006 38.5883 14.6921 38.7182C14.4709 38.7868 14.2503 38.8527 14.0322 38.9298C13.5817 39.0893 13.1337 39.27 12.7 39.4605C12.5384 39.531 12.3754 39.5956 12.2163 39.6642C11.631 39.9344 11.0614 40.2383 10.4993 40.5686C10.3571 40.6523 10.2217 40.7499 10.0807 40.8388C9.66654 41.0979 9.25798 41.3669 8.8607 41.649C8.66394 41.7921 8.47532 41.9456 8.28295 42.0959C8.09057 42.2456 7.8888 42.3913 7.70018 42.5534V21.6007H74.4333V68.8523Z" fill="#A3ABCC"/>
<path d="M20.5335 44.5518C19.8248 44.5518 19.2501 45.1562 19.2501 45.9018V58.0522H12.8335C12.1248 58.0522 11.5502 58.6567 11.5502 59.4022C11.5502 60.1478 12.1248 60.7523 12.8335 60.7523H20.5335C21.2422 60.7523 21.8168 60.1478 21.8168 59.4022V45.9018C21.8168 45.1562 21.2422 44.5518 20.5335 44.5518Z" fill="#1ECD96"/>
</svg>