<svg width="32" height="32" viewBox="0 0 32 32" fill="none" xmlns="http://www.w3.org/2000/svg">
<circle cx="16" cy="16" r="16" fill="white"/>
<path fill-rule="evenodd" clip-rule="evenodd" d="M18.115 10.001H21.25C22.075 10.001 22.75 10.676 22.75 11.501V22.001C22.75 22.826 22.075 23.501 21.25 23.501H10.75C10.645 23.501 10.5475 23.4935 10.45 23.4785C10.1575 23.4185 9.895 23.2685 9.6925 23.066C9.5575 22.9235 9.445 22.766 9.37 22.586C9.295 22.406 9.25 22.2035 9.25 22.001V11.501C9.25 11.291 9.295 11.096 9.37 10.9235C9.445 10.7435 9.5575 10.5785 9.6925 10.4435C9.895 10.241 10.1575 10.091 10.45 10.031C10.5475 10.0085 10.645 10.001 10.75 10.001H13.885C14.2 9.13098 15.025 8.50098 16 8.50098C16.975 8.50098 17.8 9.13098 18.115 10.001ZM12.2488 13.001H19.7488V14.501H12.2488V13.001ZM19.7488 15.9998H12.2488V17.4998H19.7488V15.9998ZM17.4988 19.0021H12.2488V20.5021H17.4988V19.0021ZM16 9.8123C16.3075 9.8123 16.5625 10.0673 16.5625 10.3748C16.5625 10.6823 16.3075 10.9373 16 10.9373C15.6925 10.9373 15.4375 10.6823 15.4375 10.3748C15.4375 10.0673 15.6925 9.8123 16 9.8123ZM10.7512 21.9998H21.2512V11.4998H10.7512V21.9998Z" fill="#535B6C"/>
</svg>
