<svg width="59" height="59" viewBox="0 0 59 59" fill="none" xmlns="http://www.w3.org/2000/svg">
  <path d="M51.625 19.2357L57.8477 23.7382V53.2382C57.8477 55.7839 55.7839 57.8476 53.2383 57.8476H5.76172C3.21608 57.8476 1.15234 55.7839 1.15234 53.2382V23.7382L7.375 19.2357H51.625Z" fill="#1ECD96"/>
  <path d="M7.375 45.0568V3.45703C7.375 2.18415 8.40681 1.15234 9.67969 1.15234H43.365L51.625 9.48414V45.0569H7.375V45.0568Z" fill="#F5F5F5"/>
  <path d="M31.9007 42.9912C30.475 44.049 28.5251 44.049 27.0994 42.9912L1.15234 23.7383V53.2383C1.15234 55.7839 3.21608 57.8477 5.76172 57.8477H53.2383C55.7839 57.8477 57.8477 55.7839 57.8477 53.2383V23.7383L31.9007 42.9912Z" fill="#D9D9DC"/>
  <path d="M53.2383 57.8477C54.5705 57.8477 55.7701 57.2817 56.6115 56.3781L38.4011 38.1677L31.9006 42.9912C30.4749 44.049 28.525 44.049 27.0993 42.9912L20.8669 38.3666L2.62192 56.6115C3.44504 57.3781 4.54829 57.8477 5.76171 57.8477H53.2383Z" fill="#D9D9DC"/>
  <path d="M51.625 9.48414H51.2184H45.6712C44.3983 9.48414 43.3665 8.45233 43.3665 7.17945V1.55566L51.625 9.48414Z" fill="#1ECD96"/>
  <path d="M42.6367 15.1794V27.6888C42.6367 30.0895 40.6905 32.0356 38.2899 32.0356H27.0215L22.4131 36.5871V32.0356H20.7102C18.3095 32.0356 16.3633 30.0895 16.3633 27.6888V15.1794C16.3633 12.7787 18.3095 10.8325 20.7102 10.8325H38.29C40.6905 10.8325 42.6367 12.7787 42.6367 15.1794Z" fill="#1ECD96"/>
  <path d="M29.4631 16.6825C29.1601 16.6825 28.8628 16.5593 28.6484 16.3449C28.4342 16.1305 28.3108 15.8332 28.3108 15.5302C28.3108 15.2271 28.4341 14.9298 28.6484 14.7156C28.8628 14.5012 29.1601 14.3778 29.4631 14.3778C29.7662 14.3778 30.0635 14.5011 30.2778 14.7156C30.4921 14.9298 30.6155 15.2271 30.6155 15.5302C30.6155 15.8332 30.4922 16.1305 30.2778 16.3449C30.0635 16.5592 29.7662 16.6825 29.4631 16.6825Z" fill="#25282B"/>
  <path d="M58.5232 22.8047L52.7773 18.6471V9.48413C52.7773 9.18026 52.6573 8.8886 52.4434 8.67288L44.1834 0.341094C43.967 0.122725 43.6723 0 43.365 0H9.67969C7.77348 0 6.22266 1.55082 6.22266 3.45703V18.6471L0.47684 22.8047C0.177346 23.0214 0 23.3686 0 23.7383V53.2383C0 56.4153 2.58471 59 5.76172 59H53.2383C56.4153 59 59 56.4153 59 53.2383V23.7383C59 23.3686 58.8227 23.0214 58.5232 22.8047ZM55.8981 23.75L52.7773 26.0656V21.4919L55.8981 23.75ZM44.5188 3.953L48.8598 8.33179H45.6712C45.0358 8.33179 44.5188 7.81485 44.5188 7.17945V3.953ZM9.67969 2.30469H42.2142V7.17945C42.2142 9.08565 43.765 10.6365 45.6712 10.6365H50.4727V27.7757L31.214 42.0657C30.1889 42.8266 28.8109 42.8264 27.786 42.0658L8.52734 27.7757V3.45703C8.52734 2.82163 9.04428 2.30469 9.67969 2.30469ZM6.22266 26.0657L3.10188 23.75L6.22266 21.4919V26.0657ZM5.76172 56.6953C3.85551 56.6953 2.30469 55.1445 2.30469 53.2383V26.0282L19.1265 38.5103L9.61124 48.0255C9.16125 48.4755 9.16125 49.2052 9.61124 49.6553C9.83629 49.8802 10.1312 49.9928 10.4261 49.9928C10.7209 49.9928 11.0158 49.8802 11.2409 49.6553L20.9974 39.8988L26.4125 43.9169C27.3359 44.6018 28.4178 44.9444 29.4999 44.9444C30.5819 44.9444 31.6639 44.6018 32.5872 43.9167L56.6953 26.0282V53.2383C56.6953 53.7328 56.5902 54.2029 56.4024 54.6286L46.5197 44.7459C46.0696 44.296 45.3401 44.296 44.8899 44.7459C44.4399 45.1958 44.4399 45.9255 44.8899 46.3756L54.8232 56.3089C54.3481 56.5553 53.8094 56.6953 53.2383 56.6953H5.76172Z" fill="#25282B"/>
  <path d="M42.5157 41.2193C42.2125 41.2193 41.9153 41.3425 41.701 41.557C41.4867 41.7714 41.3634 42.0685 41.3634 42.3717C41.3634 42.6747 41.4866 42.972 41.701 43.1863C41.9153 43.4006 42.2125 43.524 42.5157 43.524C42.8188 43.524 43.1161 43.4007 43.3303 43.1863C43.5458 42.972 43.6681 42.6747 43.6681 42.3717C43.6681 42.0685 43.5458 41.7713 43.3303 41.557C43.1161 41.3426 42.8188 41.2193 42.5157 41.2193Z" fill="black"/>
  <path d="M7.23672 50.8771C6.93366 50.8771 6.63635 51.0004 6.42202 51.2148C6.2078 51.4291 6.08438 51.7264 6.08438 52.0295C6.08438 52.3326 6.20768 52.6299 6.42202 52.8442C6.63751 53.0584 6.93366 53.1818 7.23672 53.1818C7.53979 53.1818 7.8371 53.0585 8.05143 52.8442C8.26692 52.6299 8.39011 52.3326 8.39011 52.0295C8.39011 51.7264 8.26692 51.4291 8.05143 51.2148C7.8371 51.0004 7.54083 50.8771 7.23672 50.8771Z" fill="black"/>
  <path d="M27.4 27.7317H31.5262C32.1625 27.7317 32.6785 27.2157 32.6785 26.5794C32.6785 25.943 32.1625 25.427 31.5262 25.427H30.6155V19.5287C30.6155 18.8924 30.0994 18.3764 29.4631 18.3764H27.9408C27.3044 18.3764 26.7884 18.8924 26.7884 19.5287C26.7884 20.1651 27.3044 20.6811 27.9408 20.6811H28.3108V25.427H27.4001C26.7638 25.427 26.2477 25.943 26.2477 26.5794C26.2477 27.2157 26.7636 27.7317 27.4 27.7317Z" fill="#25282B"/>
  <path d="M20.7102 33.188H21.2607V36.5871C21.2607 37.0518 21.54 37.4711 21.9689 37.6503C22.1123 37.7104 22.2633 37.7394 22.413 37.7394C22.7104 37.7394 23.003 37.6243 23.223 37.4069L27.4947 33.188H38.29C41.3221 33.188 43.7892 30.7211 43.7892 27.6888V15.1794C43.7892 12.1472 41.3222 9.68018 38.29 9.68018H20.7102C17.678 9.68018 15.2109 12.1471 15.2109 15.1794V27.6889C15.2109 30.7211 17.6779 33.188 20.7102 33.188ZM17.5156 15.1794C17.5156 13.4179 18.9487 11.9849 20.7102 11.9849H38.29C40.0514 11.9849 41.4845 13.4179 41.4845 15.1794V27.6889C41.4845 29.4504 40.0514 30.8834 38.29 30.8834H27.0217C26.7185 30.8834 26.4276 31.0028 26.2119 31.2159L23.5654 33.8294V32.0356C23.5654 31.3993 23.0494 30.8833 22.4131 30.8833H20.7102C18.9487 30.8833 17.5156 29.4502 17.5156 27.6888V15.1794Z" fill="#25282B"/>
</svg>
