<svg width="97" height="25" viewBox="0 0 97 25" fill="none" xmlns="http://www.w3.org/2000/svg">
<path fill-rule="evenodd" clip-rule="evenodd" d="M92.3866 24.7786C94.5713 24.7786 96.3423 23.0076 96.3423 20.8229C96.3423 18.6382 94.5713 16.8672 92.3866 16.8672C90.2019 16.8672 88.4309 18.6382 88.4309 20.8229C88.4309 23.0076 90.2019 24.7786 92.3866 24.7786Z" fill="#1ECD96"/>
<path d="M19.8101 22.1203C20.0844 22.8165 20.4008 23.3228 20.7595 23.6392C21.1181 23.9557 21.4662 24.1245 21.8038 24.1456V24.7785C20.538 24.7152 18.9346 24.6835 16.9937 24.6835C14.8418 24.6835 13.2384 24.7152 12.1835 24.7785V24.1456C12.9852 24.1034 13.5549 24.0084 13.8924 23.8608C14.23 23.692 14.3987 23.4072 14.3987 23.0063C14.3987 22.6266 14.2722 22.1203 14.019 21.4873L12.1203 16.2975H5.22152L4.39873 18.481C3.80802 20 3.51266 21.1709 3.51266 21.9937C3.51266 22.7743 3.74473 23.3228 4.20886 23.6392C4.69409 23.9346 5.40084 24.1034 6.32911 24.1456V24.7785C4.89452 24.7152 3.5865 24.6835 2.40506 24.6835C1.4346 24.6835 0.632911 24.7152 0 24.7785V24.1456C1.03376 23.9557 1.94093 22.8481 2.72152 20.8228L9.93671 2.31013C10.1688 2.33122 10.538 2.34177 11.0443 2.34177C11.5506 2.34177 11.9093 2.33122 12.1203 2.31013L19.8101 22.1203ZM11.8987 15.6646L8.76582 7.12025L5.47468 15.6646H11.8987Z" fill="#1ECD96"/>
<path d="M28.7972 21.8354C28.7972 22.7004 28.9449 23.3017 29.2403 23.6392C29.5356 23.9557 30.063 24.1139 30.8225 24.1139V24.7785C28.6284 24.6941 27.2149 24.6519 26.582 24.6519C25.8647 24.6519 24.409 24.6941 22.2149 24.7785V24.1139C22.9533 24.1139 23.4702 23.9557 23.7656 23.6392C24.082 23.3017 24.2403 22.7004 24.2403 21.8354V3.79747C24.2403 2.827 24.082 2.12025 23.7656 1.67722C23.4702 1.23418 22.9533 1.01266 22.2149 1.01266V0.348103C22.89 0.411393 23.5441 0.443038 24.177 0.443038C26.0124 0.443038 27.5525 0.295359 28.7972 0V21.8354Z" fill="#1ECD96"/>
<path d="M36.2829 0.253165C37.169 0.253165 37.8652 0.474684 38.3715 0.917722C38.8989 1.33966 39.1626 1.93038 39.1626 2.68987C39.1626 3.44937 38.8989 4.05063 38.3715 4.49367C37.8652 4.91561 37.169 5.12658 36.2829 5.12658C35.3968 5.12658 34.6901 4.91561 34.1626 4.49367C33.6563 4.05063 33.4031 3.44937 33.4031 2.68987C33.4031 1.93038 33.6563 1.33966 34.1626 0.917722C34.6901 0.474684 35.3968 0.253165 36.2829 0.253165ZM38.7512 21.8354C38.7512 22.7004 38.8989 23.3017 39.1943 23.6392C39.5107 23.9557 40.0382 24.1139 40.7766 24.1139V24.7785C38.6668 24.6941 37.2639 24.6519 36.5677 24.6519C35.9137 24.6519 34.4474 24.6941 32.169 24.7785V24.1139C32.9285 24.1139 33.4559 23.9557 33.7512 23.6392C34.0466 23.3017 34.1943 22.7004 34.1943 21.8354V11.8671C34.1943 10.8966 34.0466 10.1899 33.7512 9.74684C33.4559 9.3038 32.9285 9.08228 32.169 9.08228V8.41772C32.8441 8.48101 33.4981 8.51266 34.131 8.51266C36.0086 8.51266 37.5487 8.36498 38.7512 8.06962V21.8354Z" fill="#1ECD96"/>
<path d="M54.8754 8.51266C55.9513 8.51266 56.7636 8.48101 57.3121 8.41772V9.05063C56.8691 9.17722 56.4682 9.45148 56.1096 9.87342C55.772 10.2743 55.445 10.9072 55.1286 11.7722L50.5083 24.8418C50.2762 24.8207 49.9281 24.8101 49.464 24.8101C49.021 24.8101 48.6834 24.8207 48.4513 24.8418L42.8184 10.8544C42.5231 10.1371 42.2172 9.66245 41.9007 9.43038C41.6054 9.19831 41.2994 9.08228 40.983 9.08228V8.41772C42.4598 8.52321 43.9577 8.57595 45.4767 8.57595C46.8058 8.57595 48.1771 8.52321 49.5906 8.41772V9.08228C48.8733 9.08228 48.3564 9.13502 48.04 9.24051C47.7446 9.3249 47.5969 9.57806 47.5969 10C47.5969 10.1688 47.6497 10.4325 47.7551 10.7911L51.3627 20.3797L53.6412 14.1139C53.9788 13.1224 54.1475 12.2679 54.1475 11.5506C54.1475 10.0105 53.3775 9.17722 51.8374 9.05063V8.41772C52.8079 8.48101 53.8205 8.51266 54.8754 8.51266Z" fill="#1ECD96"/>
<path d="M62.2112 0.253165C63.0973 0.253165 63.7935 0.474684 64.2998 0.917722C64.8273 1.33966 65.091 1.93038 65.091 2.68987C65.091 3.44937 64.8273 4.05063 64.2998 4.49367C63.7935 4.91561 63.0973 5.12658 62.2112 5.12658C61.3252 5.12658 60.6184 4.91561 60.091 4.49367C59.5847 4.05063 59.3315 3.44937 59.3315 2.68987C59.3315 1.93038 59.5847 1.33966 60.091 0.917722C60.6184 0.474684 61.3252 0.253165 62.2112 0.253165ZM64.6796 21.8354C64.6796 22.7004 64.8273 23.3017 65.1226 23.6392C65.4391 23.9557 65.9665 24.1139 66.7049 24.1139V24.7785C64.5952 24.6941 63.1922 24.6519 62.496 24.6519C61.842 24.6519 60.3758 24.6941 58.0973 24.7785V24.1139C58.8568 24.1139 59.3842 23.9557 59.6796 23.6392C59.9749 23.3017 60.1226 22.7004 60.1226 21.8354V11.8671C60.1226 10.8966 59.9749 10.1899 59.6796 9.74684C59.3842 9.3038 58.8568 9.08228 58.0973 9.08228V8.41772C58.7724 8.48101 59.4264 8.51266 60.0593 8.51266C61.937 8.51266 63.4771 8.36498 64.6796 8.06962V21.8354Z" fill="#1ECD96"/>
<path d="M72.2565 25C70.9063 25 69.8936 24.6519 69.2185 23.9557C68.5645 23.2595 68.2375 22.3418 68.2375 21.2025C68.2375 20.2532 68.4801 19.4726 68.9653 18.8608C69.4717 18.2278 70.0729 17.7426 70.7691 17.4051C71.4864 17.0675 72.3936 16.7089 73.4907 16.3291C74.651 15.9283 75.4949 15.5696 76.0223 15.2532C76.5708 14.9156 76.8451 14.462 76.8451 13.8924V11.4241C76.8451 10.538 76.6341 9.85232 76.2122 9.36709C75.8113 8.86076 75.1784 8.6076 74.3134 8.6076C73.3008 8.6076 72.5307 8.86076 72.0033 9.36709C72.594 9.57806 73.0476 9.89452 73.3641 10.3165C73.7016 10.7384 73.8704 11.2342 73.8704 11.8038C73.8704 12.5211 73.6278 13.0907 73.1426 13.5127C72.6573 13.9346 72.0666 14.1456 71.3704 14.1456C70.632 14.1456 70.0624 13.9135 69.6615 13.4494C69.2607 12.9852 69.0603 12.4051 69.0603 11.7089C69.0603 11.1181 69.1974 10.6224 69.4717 10.2215C69.767 9.79958 70.2101 9.40928 70.8008 9.05063C71.3704 8.71308 72.0666 8.44937 72.8894 8.25949C73.7333 8.06962 74.651 7.97468 75.6426 7.97468C76.6763 7.97468 77.5729 8.08017 78.3324 8.29114C79.0919 8.50211 79.7248 8.86076 80.2312 9.36709C80.6953 9.83122 81.0012 10.4008 81.1489 11.076C81.3177 11.7511 81.402 12.6688 81.402 13.8291V22.4367C81.402 22.943 81.4442 23.3017 81.5286 23.5127C81.6341 23.7236 81.824 23.8291 82.0983 23.8291C82.4147 23.8291 82.7944 23.6498 83.2375 23.2911L83.5539 23.8291C82.6046 24.6097 81.4442 25 80.0729 25C78.9126 25 78.1004 24.7679 77.6362 24.3038C77.1721 23.8397 76.9295 23.2173 76.9084 22.4367C75.8535 24.1456 74.3029 25 72.2565 25ZM74.6932 22.9747C75.516 22.9747 76.2333 22.5422 76.8451 21.6772V15.1899C76.5919 15.6118 76.0539 16.076 75.2312 16.5823C74.4084 17.1097 73.786 17.6371 73.3641 18.1646C72.9421 18.692 72.7312 19.4515 72.7312 20.443C72.7312 21.308 72.9105 21.9515 73.2691 22.3734C73.6278 22.7743 74.1025 22.9747 74.6932 22.9747Z" fill="#1ECD96"/>
</svg>
