<svg xmlns="http://www.w3.org/2000/svg" width="14" height="15" viewBox="0 0 14 15" fill="none">
<path fill-rule="evenodd" clip-rule="evenodd" d="M4.16737 0.666504C3.89123 0.666504 3.66737 0.890362 3.66737 1.1665V1.99984H2.16732C1.1548 1.99984 0.333984 2.82065 0.333984 3.83317V13.1665C0.333984 14.179 1.1548 14.9998 2.16732 14.9998H11.5007C12.5132 14.9998 13.334 14.179 13.334 13.1665V3.83317C13.334 2.82065 12.5132 1.99984 11.5007 1.99984H10.0006V1.1665C10.0006 0.890361 9.77676 0.666504 9.50062 0.666504C9.22448 0.666504 9.00062 0.890361 9.00062 1.1665V1.99984H4.66737V1.1665C4.66737 0.890362 4.44351 0.666504 4.16737 0.666504ZM1.33398 3.83317C1.33398 3.37293 1.70708 2.99984 2.16732 2.99984H3.66737V3.83317C3.66737 4.10931 3.89123 4.33317 4.16737 4.33317C4.44351 4.33317 4.66737 4.10931 4.66737 3.83317V2.99984H9.00062V3.83317C9.00062 4.10931 9.22448 4.33317 9.50062 4.33317C9.77676 4.33317 10.0006 4.10931 10.0006 3.83317V2.99984H11.5007C11.9609 2.99984 12.334 3.37293 12.334 3.83317V5.99984H1.33398V3.83317ZM1.33398 13.1665V6.99984H12.334V13.1665C12.334 13.6267 11.9609 13.9998 11.5007 13.9998H2.16732C1.70708 13.9998 1.33398 13.6267 1.33398 13.1665Z" fill="#1ECD96"/>
</svg>