<svg width="64" height="62" viewBox="0 0 64 62" fill="none" xmlns="http://www.w3.org/2000/svg">
<g clip-path="url(#clip0)">
<path d="M50.4859 37.9261C47.3291 43.7103 45.7074 50.1639 41.5293 54.0843C37.3459 57.9705 30.5433 59.368 25.8329 56.6789C21.1225 53.9899 18.4702 47.2194 14.4385 42.3694C10.4462 37.5482 5.06934 34.6134 3.85842 30.6179C2.61338 26.6277 5.56844 21.5716 8.46849 16.8377C11.3686 12.1038 14.2871 7.71545 18.2772 6.19406C22.2672 4.67264 27.3628 6.01283 32.8255 6.56451C38.2593 7.15551 44.026 6.96331 49.1482 9.37983C54.2757 11.8303 58.7193 16.8608 58.5663 21.9727C58.4081 27.0505 53.6769 32.1365 50.4859 37.9261Z" fill="#DEF4EC" fill-opacity="0.6"/>
<path d="M14.209 47.5206C14.2952 47.6068 14.3857 47.693 14.4771 47.7792C17.1899 50.211 23.0767 49.2697 25.6835 46.6586L19.5855 35.1022L15.9925 36.5228C15.8865 36.5653 15.7732 36.5863 15.659 36.5845C15.5448 36.5828 15.4321 36.5584 15.3275 36.5128C15.2228 36.4672 15.1283 36.4012 15.0493 36.3187C14.9704 36.2362 14.9086 36.1389 14.8676 36.0323C13.413 32.0191 13.4188 27.6216 14.8839 23.6122C14.9637 23.4046 15.1206 23.2358 15.3219 23.1412C15.5232 23.0466 15.7533 23.0334 15.9641 23.1045L20.4466 24.5872L25.6861 12.167C23.0767 9.55765 17.1899 9.4792 14.4796 11.9084C14.3883 11.9877 14.2969 12.0808 14.2116 12.167C14.1262 12.2532 14.0348 12.3437 13.9529 12.4351C9.42078 17.0968 6.88525 23.3422 6.88525 29.8438C6.88525 36.3455 9.42078 42.5909 13.9529 47.2525C14.0323 47.3431 14.1236 47.4353 14.209 47.5206ZM15.4468 36.7866L15.44 36.7927L15.4468 36.7866Z" fill="white"/>
<path d="M41.0673 45.7914C44.1362 45.7914 47.1362 44.8814 49.6879 43.1764C52.2396 41.4714 54.2284 39.0481 55.4028 36.2128C56.5772 33.3775 56.8845 30.2576 56.2858 27.2477C55.687 24.2378 54.2092 21.473 52.0392 19.303C49.8692 17.1329 47.1044 15.6551 44.0945 15.0564C41.0846 14.4577 37.9647 14.765 35.1294 15.9394C32.2941 17.1138 29.8708 19.1026 28.1658 21.6543C26.4608 24.206 25.5508 27.206 25.5508 30.2748C25.5508 34.3901 27.1856 38.3368 30.0955 41.2467C33.0054 44.1566 36.9521 45.7914 41.0673 45.7914ZM31.585 27.6887C31.585 27.4601 31.6758 27.2409 31.8375 27.0792C31.9991 26.9175 32.2184 26.8267 32.447 26.8267H36.7572C36.9858 26.8267 37.2051 26.7359 37.3667 26.5742C37.5284 26.4126 37.6192 26.1933 37.6192 25.9647V21.6545C37.6192 21.4259 37.71 21.2066 37.8717 21.045C38.0334 20.8833 38.2526 20.7925 38.4812 20.7925H43.6534C43.8821 20.7925 44.1013 20.8833 44.263 21.045C44.4246 21.2066 44.5155 21.4259 44.5155 21.6545V25.9647C44.5155 26.1933 44.6063 26.4126 44.768 26.5742C44.9296 26.7359 45.1489 26.8267 45.3775 26.8267H49.6877C49.9163 26.8267 50.1355 26.9175 50.2972 27.0792C50.4589 27.2409 50.5497 27.4601 50.5497 27.6887V32.8609C50.5497 33.0896 50.4589 33.3088 50.2972 33.4705C50.1355 33.6321 49.9163 33.723 49.6877 33.723H45.3775C45.1489 33.723 44.9296 33.8138 44.768 33.9754C44.6063 34.1371 44.5155 34.3564 44.5155 34.585V38.8952C44.5155 39.1238 44.4246 39.343 44.263 39.5047C44.1013 39.6664 43.8821 39.7572 43.6534 39.7572H38.4812C38.2526 39.7572 38.0334 39.6664 37.8717 39.5047C37.71 39.343 37.6192 39.1238 37.6192 38.8952V34.585C37.6192 34.3564 37.5284 34.1371 37.3667 33.9754C37.2051 33.8138 36.9858 33.723 36.7572 33.723H32.447C32.2184 33.723 31.9991 33.6321 31.8375 33.4705C31.6758 33.3088 31.585 33.0896 31.585 32.8609V27.6887Z" fill="white"/>
<path d="M26.7448 46.8181L19.9865 34.016L15.6763 35.7401C14.2909 31.9227 14.2964 27.7389 15.6919 23.9251L20.9304 25.6578L26.706 11.9713L26.2957 11.561C23.3743 8.63785 17.0039 8.48786 13.9135 11.261C13.8075 11.3532 13.3963 11.7644 13.3377 11.8343C8.62092 16.6323 5.97488 23.0894 5.96827 29.8176C5.96167 36.5459 8.59501 43.0081 13.3023 47.8154C13.3954 47.9232 13.8075 48.3327 13.9057 48.4189C14.9984 49.333 16.3503 49.8814 17.7711 49.9869L17.784 50.5102L15.5936 51.9704C15.4552 52.0632 15.3467 52.1942 15.2812 52.3473C15.2157 52.5005 15.196 52.6694 15.2244 52.8336C15.2529 52.9977 15.3283 53.1501 15.4415 53.2723C15.5548 53.3945 15.701 53.4813 15.8625 53.5221L17.5538 53.9445L15.5514 55.4461C15.421 55.5439 15.3211 55.6765 15.2631 55.8288C15.2051 55.981 15.1914 56.1465 15.2236 56.3062C15.2558 56.4659 15.3326 56.6131 15.4451 56.731C15.5575 56.8488 15.7011 56.9324 15.8591 56.9719L17.4168 57.3616L16.4522 58.0047C16.3341 58.0834 16.2374 58.1901 16.1705 58.3152C16.1035 58.4403 16.0685 58.58 16.0686 58.7219V59.5839C16.0686 59.8125 16.1594 60.0318 16.3211 60.1934C16.4827 60.3551 16.702 60.4459 16.9306 60.4459C17.1592 60.4459 17.3785 60.3551 17.5401 60.1934C17.7018 60.0318 17.7926 59.8125 17.7926 59.5839V59.183L19.9951 57.7176C20.1335 57.6248 20.242 57.4939 20.3075 57.3407C20.373 57.1875 20.3928 57.0186 20.3643 56.8545C20.3358 56.6903 20.2604 56.5379 20.1472 56.4157C20.0339 56.2935 19.8877 56.2068 19.7262 56.1659L18.0349 55.7435L20.0339 54.2393C20.1642 54.1416 20.2642 54.0089 20.3222 53.8567C20.3802 53.7045 20.3939 53.5389 20.3617 53.3793C20.3295 53.2196 20.2527 53.0723 20.1402 52.9545C20.0277 52.8366 19.8842 52.7531 19.7262 52.7135L18.1685 52.3239L19.1331 51.6808C19.2542 51.6001 19.3529 51.49 19.42 51.3608C19.4871 51.2316 19.5203 51.0875 19.5167 50.942L19.4926 50.0197C22.0105 49.9182 24.4152 48.9456 26.2957 47.2681L26.7448 46.8181ZM15.0436 47.1267C14.9669 47.0603 14.6712 46.7646 14.5712 46.6517C10.1622 42.1586 7.69489 36.1133 7.70085 29.8183C7.70682 23.5234 10.1856 17.4827 14.6031 12.998C14.6678 12.923 14.9634 12.6273 15.0496 12.5523C16.4296 11.4786 18.1455 10.9289 19.8925 11.0007C21.5867 10.9503 23.2526 11.4422 24.6475 12.4049L19.9624 23.5182L16.2341 22.2847C15.8107 22.1463 15.3503 22.176 14.9483 22.3678C14.5463 22.5596 14.2335 22.8987 14.0747 23.3148C12.5394 27.5148 12.5333 32.1214 14.0575 36.3254C14.1346 36.539 14.2541 36.7347 14.409 36.9008C14.5638 37.0669 14.7506 37.1999 14.9583 37.2918C15.1702 37.3864 15.3989 37.438 15.6309 37.4435C15.863 37.4489 16.0938 37.4082 16.3099 37.3237L19.184 36.1866L24.6087 46.4646C22.1381 48.4266 17.284 49.1352 15.0436 47.1267Z" fill="#535B6C"/>
<path d="M41.0676 46.6534C37.8282 46.6534 34.6616 45.6928 31.9681 43.8931C29.2747 42.0934 27.1754 39.5354 25.9357 36.5427C24.6961 33.5499 24.3717 30.2567 25.0037 27.0795C25.6357 23.9024 27.1956 20.984 29.4862 18.6934C31.7767 16.4028 34.6951 14.8429 37.8723 14.211C41.0494 13.579 44.3426 13.9033 47.3354 15.143C50.3282 16.3827 52.8862 18.4819 54.6859 21.1754C56.4856 23.8688 57.4462 27.0355 57.4462 30.2748C57.4414 34.6172 55.7142 38.7804 52.6437 41.851C49.5731 44.9215 45.41 46.6486 41.0676 46.6534ZM41.0676 15.6203C38.1692 15.6203 35.3359 16.4798 32.9259 18.09C30.516 19.7003 28.6377 21.989 27.5285 24.6668C26.4194 27.3446 26.1292 30.2911 26.6946 33.1338C27.2601 35.9765 28.6558 38.5877 30.7052 40.6372C32.7547 42.6866 35.3659 44.0823 38.2086 44.6478C41.0513 45.2132 43.9978 44.923 46.6756 43.8139C49.3534 42.7047 51.6421 40.8264 53.2524 38.4165C54.8626 36.0065 55.7221 33.1732 55.7221 30.2748C55.7178 26.3895 54.1724 22.6646 51.4251 19.9173C48.6778 17.17 44.9529 15.6246 41.0676 15.6203Z" fill="#535B6C"/>
<path d="M49.6878 25.9647H45.3777V21.6545C45.3777 21.1973 45.196 20.7588 44.8727 20.4354C44.5494 20.1121 44.1109 19.9305 43.6536 19.9305H38.4814C38.0242 19.9305 37.5857 20.1121 37.2623 20.4354C36.939 20.7588 36.7574 21.1973 36.7574 21.6545V25.9647H32.4472C31.99 25.9647 31.5514 26.1463 31.2281 26.4697C30.9048 26.793 30.7231 27.2315 30.7231 27.6887V32.8609C30.7231 33.3182 30.9048 33.7567 31.2281 34.08C31.5514 34.4034 31.99 34.585 32.4472 34.585H36.7574V38.8952C36.7574 39.3524 36.939 39.7909 37.2623 40.1143C37.5857 40.4376 38.0242 40.6192 38.4814 40.6192H43.6536C44.1109 40.6192 44.5494 40.4376 44.8727 40.1143C45.196 39.7909 45.3777 39.3524 45.3777 38.8952V34.585H49.6878C50.1451 34.585 50.5836 34.4034 50.9069 34.08C51.2303 33.7567 51.4119 33.3182 51.4119 32.8609V27.6887C51.4119 27.2315 51.2303 26.793 50.9069 26.4697C50.5836 26.1463 50.1451 25.9647 49.6878 25.9647ZM49.6878 32.8609H45.3777C44.9204 32.8609 44.4819 33.0426 44.1586 33.3659C43.8353 33.6892 43.6536 34.1277 43.6536 34.585V38.8952H38.4814V34.585C38.4814 34.1277 38.2998 33.6892 37.9765 33.3659C37.6531 33.0426 37.2146 32.8609 36.7574 32.8609H32.4472V27.6887H36.7574C37.2146 27.6887 37.6531 27.5071 37.9765 27.1838C38.2998 26.8605 38.4814 26.4219 38.4814 25.9647V21.6545H43.6536V25.9647C43.6536 26.4219 43.8353 26.8605 44.1586 27.1838C44.4819 27.5071 44.9204 27.6887 45.3777 27.6887H49.6878V32.8609Z" fill="#535B6C"/>
</g>
<defs>
<clipPath id="clip0">
<rect width="64" height="62" fill="white"/>
</clipPath>
</defs>
</svg>
