<svg width="28" height="28" viewBox="0 0 28 28" fill="none" xmlns="http://www.w3.org/2000/svg">
<path fill-rule="evenodd" clip-rule="evenodd" d="M23.83 10.9518L18.9467 10.249L19.4093 12.8982C20.7919 12.9368 22.1783 12.9758 23.5721 13.0144C23.7844 12.2993 23.83 11.6869 23.83 10.9518ZM13.293 23.2867C14.6176 23.7763 15.0044 25.4847 13.9952 26.4935C13.234 27.2547 12.0002 27.2547 11.2389 26.4935C10.2297 25.4847 10.6167 23.7763 11.9412 23.2867H11.0012C9.18496 23.2867 7.95965 21.4147 8.74048 19.7618C8.95029 19.3176 9.26989 18.9576 9.67206 18.7125L5.80923 8.15982L4.69936 7.3563C3.88495 7.75919 2.9054 7.49269 2.40094 6.74113C1.84431 5.91214 2.06666 4.79015 2.89513 4.23393C3.72423 3.6774 4.84632 3.89965 5.40244 4.72812C5.67397 5.13276 5.78201 5.65314 5.66021 6.15811L6.74585 6.94438L7.92936 7.11455V5.01332C7.92936 4.58927 8.2734 4.24543 8.69755 4.24543H11.0018V1.58254C11.0018 1.15829 11.3459 0.814453 11.7701 0.814453H20.6288C21.0528 0.814453 21.3967 1.15829 21.3967 1.58254V4.50126H23.2403C23.6643 4.50126 24.0083 4.8451 24.0083 5.26955V9.42806L24.662 9.52234C25.0564 9.55469 25.3663 9.88507 25.3663 10.2877V11.2274C25.3663 15.1359 22.501 18.3952 18.6173 18.8942L10.8425 19.8934C10.1741 19.9788 9.81728 20.7257 10.1784 21.301C10.363 21.5956 10.651 21.7503 11.0012 21.7503H24.8428C25.2671 21.7503 25.6109 22.0942 25.6109 22.5184C25.6109 22.9425 25.2671 23.2867 24.8428 23.2867H23.041C24.3656 23.7763 24.7525 25.4847 23.7434 26.4935C22.9822 27.2547 21.7482 27.2547 20.987 26.4935C19.9777 25.4847 20.3647 23.7763 21.6894 23.2867H13.293ZM12.9092 24.8233C12.6499 24.5642 12.204 24.748 12.204 25.1154C12.204 25.4829 12.6499 25.6667 12.9092 25.4075C13.0704 25.2462 13.0704 24.9845 12.9092 24.8233ZM22.6572 24.8233C22.3982 24.5642 21.9521 24.748 21.9521 25.1154C21.9521 25.4829 22.3982 25.6667 22.6572 25.4075C22.8185 25.2462 22.8185 24.9845 22.6572 24.8233ZM17.3484 10.0192L13.0128 9.39519L13.9833 12.7452L17.8432 12.8539L17.3484 10.0192ZM19.8607 8.83137V2.35084H12.5381V4.24543H15.7384C16.1627 4.24543 16.5065 4.58927 16.5065 5.01332V8.34869C17.6247 8.50962 18.7425 8.67065 19.8607 8.83137ZM19.6779 14.4369L20.1104 16.9149C21.2642 16.4165 22.2318 15.5802 22.8903 14.5267C21.816 14.4969 20.7458 14.4668 19.6779 14.4369ZM18.6274 17.3466L18.1118 14.393L14.4306 14.2894L15.4363 17.76C16.4885 17.6247 17.5843 17.5148 18.6274 17.3466ZM11.3497 9.15611L7.61027 8.61786L9.07086 12.6079C10.1771 12.6387 11.2785 12.6697 12.3766 12.7005L11.3497 9.15611ZM13.8998 17.9572L12.8238 14.2444C11.7647 14.2146 10.7033 14.1849 9.63714 14.155L11.1581 18.3095L13.8998 17.9572ZM22.4722 9.20705V6.03764H21.3967V9.05238L22.4722 9.20705ZM14.9705 8.12778V5.78141H9.46574V7.33556L14.9705 8.12778ZM4.1303 5.58042C4.0008 5.38776 3.68181 5.43192 3.63293 5.68056C3.56268 6.03857 4.10103 6.14198 4.17025 5.7886C4.18545 5.71188 4.16891 5.63804 4.1303 5.58042Z" fill="white"/>
</svg>
