<svg width="56" height="56" viewBox="0 0 56 56" fill="none" xmlns="http://www.w3.org/2000/svg">
<g id="001-add" clip-path="url(#clip0)">
<g id="Group">
<path id="Vector" d="M32.4534 41.3782H11.1299L11.8837 48.0173C11.987 48.9493 12.7754 49.6547 13.7138 49.6538H15.7459C15.7459 47.1148 17.8044 45.0562 20.3434 45.0562C22.8824 45.0562 24.941 47.1148 24.941 49.6538H34.366C32.6478 47.2616 31.959 44.2813 32.4534 41.3782Z" fill="white"/>
<path id="Vector_2" d="M8.21484 15.6317L11.1296 41.3782H32.4531C32.6668 40.0833 33.1122 38.8369 33.7682 37.7001C35.7406 34.2838 39.3863 32.1803 43.3311 32.183C44.7795 32.179 46.2144 32.4632 47.5515 33.0199L52.5262 15.6317H8.21484Z" fill="white"/>
<path id="Vector_3" d="M54.3651 13.7927C54.3651 12.7771 53.5417 11.9537 52.5261 11.9537H7.80078L8.21474 15.6317H52.5261C53.5417 15.6317 54.3651 14.8083 54.3651 13.7927Z" fill="white"/>
</g>
<path id="Vector_4" d="M48.6527 32.513L53.2503 16.4426C54.5829 16.0821 55.4418 14.7899 55.2591 13.4214C55.0759 12.0529 53.9072 11.0319 52.5266 11.0342H8.62066L7.64862 2.45684C7.49731 1.05646 6.31334 -0.00358275 4.90489 9.10063e-06H1.03377C0.525974 9.10063e-06 0.114258 0.411725 0.114258 0.919524C0.114258 1.42732 0.525974 1.83904 1.03377 1.83904H4.90489C5.37677 1.83634 5.77412 2.19104 5.8244 2.66023L10.9738 48.1165C11.1251 49.5151 12.3068 50.5751 13.7139 50.5733H14.9091C15.3554 53.2268 17.6528 55.17 20.3436 55.17C23.0343 55.17 25.3318 53.2268 25.778 50.5733H33.9311C36.9563 54.4386 42.0379 56.0603 46.7428 54.6613C51.4477 53.2623 54.8177 49.1276 55.2398 44.2377C55.6613 39.3474 53.0487 34.6969 48.6527 32.513ZM46.9394 31.8153C46.9138 31.8068 46.8882 31.8023 46.8622 31.7942C46.7832 31.7691 46.7033 31.7507 46.6234 31.7278C46.3602 31.6523 46.0953 31.5854 45.8269 31.5284C45.7146 31.5046 45.6028 31.4831 45.4897 31.4629C45.2387 31.4171 44.9846 31.3802 44.73 31.3511C44.6231 31.3389 44.5176 31.3241 44.4099 31.3151C44.0534 31.2837 43.6991 31.2635 43.3314 31.2635C39.2547 31.2725 35.4612 33.3499 33.2581 36.7806H19.4241C18.9163 36.7806 18.5045 37.1923 18.5045 37.7001C18.5045 38.2079 18.9163 38.6196 19.4241 38.6196H32.2972C32.2438 38.7485 32.1935 38.8782 32.1446 39.0084C32.1024 39.1225 32.0629 39.2365 32.0234 39.3515C31.9551 39.5522 31.8936 39.7551 31.8393 39.9603C31.807 40.0743 31.7742 40.1884 31.7472 40.3042C31.7347 40.3558 31.7181 40.4061 31.7059 40.4587H11.953L9.24519 16.5513H51.3071L46.9394 31.8153ZM8.83034 12.8732H52.5266C53.0344 12.8732 53.4461 13.2849 53.4461 13.7927C53.4461 14.3005 53.0344 14.7122 52.5266 14.7122H9.03372L8.83034 12.8732ZM12.7971 47.9131L12.16 42.2977H31.4163C31.3926 42.6048 31.3777 42.9119 31.3777 43.2172C31.3746 45.1384 31.8375 47.0313 32.7265 48.7343H25.778C25.3318 46.0808 23.0343 44.1376 20.3436 44.1376C17.6528 44.1376 15.3554 46.0808 14.9091 48.7343H13.7139C13.2434 48.7356 12.8474 48.3814 12.7971 47.9131ZM20.3436 53.3319C18.3124 53.3319 16.6655 51.685 16.6655 49.6538C16.6655 47.6226 18.3124 45.9757 20.3436 45.9757C22.3748 45.9757 24.0216 47.6226 24.0216 49.6538C24.0216 51.685 22.3748 53.3319 20.3436 53.3319ZM43.3314 53.3319C40.0745 53.3269 37.0174 51.7591 35.1128 49.1168C33.8736 47.3999 33.2096 45.3346 33.2168 43.2172C33.2177 42.6519 33.2657 42.0876 33.3604 41.5299C33.5557 40.3433 33.9634 39.202 34.5637 38.1599C36.3789 35.0345 39.7176 33.1088 43.3314 33.1025C43.6911 33.1034 44.0507 33.1232 44.4081 33.1614C45.3684 33.2597 46.3095 33.4981 47.2007 33.8694C51.6627 35.7134 54.1995 40.4542 53.2579 45.1896C52.3164 49.925 48.1593 53.3346 43.3314 53.3319Z" fill="#535B6C"/>
<path id="Vector_5" d="M44.2508 35.8611C44.2508 35.3533 43.8391 34.9416 43.3313 34.9416C42.8235 34.9416 42.4118 35.3533 42.4118 35.8611V42.2977H35.9752C35.4674 42.2977 35.0557 42.7094 35.0557 43.2172C35.0557 43.725 35.4674 44.1367 35.9752 44.1367H42.4118V50.5733C42.4118 51.0811 42.8235 51.4928 43.3313 51.4928C43.8391 51.4928 44.2508 51.0811 44.2508 50.5733V44.1367H50.6874C51.1952 44.1367 51.6069 43.725 51.6069 43.2172C51.6069 42.7094 51.1952 42.2977 50.6874 42.2977H44.2508V35.8611Z" fill="#535B6C"/>
<path id="Vector_6" d="M13.9068 38.6196H15.7458C16.2536 38.6196 16.6654 38.2079 16.6654 37.7001C16.6654 37.1923 16.2536 36.7806 15.7458 36.7806H13.9068C13.399 36.7806 12.9873 37.1923 12.9873 37.7001C12.9873 38.2079 13.399 38.6196 13.9068 38.6196Z" fill="#535B6C"/>
</g>
<defs>
<clipPath id="clip0">
<rect width="55.17" height="55.17" fill="white"/>
</clipPath>
</defs>
</svg>
