<svg xmlns="http://www.w3.org/2000/svg" width="24" height="24" viewBox="0 0 24 24" fill="none">
<path d="M7.45455 12.9091H2V2H18.3636V9.42818" stroke="#2C7BFD" stroke-width="1.5" stroke-miterlimit="10"/>
<path d="M11.0908 12V15.6364C11.0908 17.1427 13.5326 18.3636 16.5454 18.3636C19.5581 18.3636 21.9999 17.1427 21.9999 15.6364V12" stroke="#2C7BFD" stroke-width="1.5" stroke-miterlimit="10"/>
<path d="M11.0908 15.6364V19.2727C11.0908 20.7791 13.5326 22 16.5454 22C19.5581 22 21.9999 20.7791 21.9999 19.2727V15.6364" stroke="#2C7BFD" stroke-width="1.5" stroke-miterlimit="10"/>
<path d="M16.5454 14.7273C19.5578 14.7273 21.9999 13.5062 21.9999 12C21.9999 10.4937 19.5578 9.27271 16.5454 9.27271C13.5329 9.27271 11.0908 10.4937 11.0908 12C11.0908 13.5062 13.5329 14.7273 16.5454 14.7273Z" stroke="#2C7BFD" stroke-width="1.5" stroke-miterlimit="10" stroke-linecap="square"/>
<path d="M10.182 8.36359C10.6841 8.36359 11.0911 7.95658 11.0911 7.4545C11.0911 6.95242 10.6841 6.54541 10.182 6.54541C9.67996 6.54541 9.27295 6.95242 9.27295 7.4545C9.27295 7.95658 9.67996 8.36359 10.182 8.36359Z" stroke="#2C7BFD" stroke-width="1.5" stroke-miterlimit="10" stroke-linecap="square"/>
</svg>