<svg width="32" height="32" viewBox="0 0 32 32" fill="none" xmlns="http://www.w3.org/2000/svg">
<circle cx="16" cy="16" r="16" fill="white"/>
<path fill-rule="evenodd" clip-rule="evenodd" d="M16.0013 7.66797C11.4013 7.66797 7.66797 11.4013 7.66797 16.0013C7.66797 20.6013 11.4013 24.3346 16.0013 24.3346C20.6013 24.3346 24.3346 20.6013 24.3346 16.0013C24.3346 11.4013 20.6013 7.66797 16.0013 7.66797ZM16.0026 22.6693C12.3276 22.6693 9.33594 19.6776 9.33594 16.0026C9.33594 12.3276 12.3276 9.33594 16.0026 9.33594C19.6776 9.33594 22.6693 12.3276 22.6693 16.0026C22.6693 19.6776 19.6776 22.6693 16.0026 22.6693ZM14.3115 13.893C14.3115 14.5013 14.7865 14.9096 16.2615 15.2846C17.7281 15.668 19.3031 16.3013 19.3115 18.1346C19.3031 19.4763 18.3031 20.2013 17.0365 20.443V21.8346H15.0865V20.418C13.8365 20.1596 12.7865 19.3596 12.7031 17.943H14.1365C14.2115 18.7096 14.7365 19.3096 16.0698 19.3096C17.4948 19.3096 17.8198 18.593 17.8198 18.1513C17.8198 17.5513 17.4948 16.9763 15.8698 16.593C14.0615 16.1596 12.8198 15.4096 12.8198 13.918C12.8198 12.6596 13.8281 11.843 15.0865 11.5763V10.168H17.0281V11.593C18.3781 11.9263 19.0615 12.9513 19.1031 14.068H17.6781C17.6448 13.2513 17.2115 12.7013 16.0615 12.7013C14.9698 12.7013 14.3115 13.193 14.3115 13.893Z" fill="#535B6C"/>
</svg>
