<svg width="83" height="83" viewBox="0 0 83 83" fill="none" xmlns="http://www.w3.org/2000/svg">
<path d="M57.6586 40.3984C52.5963 40.3984 48.4775 36.4761 48.4775 31.6548C48.4775 30.805 49.2014 30.1152 50.0945 30.1152C50.9876 30.1152 51.7114 30.805 51.7114 31.6548C51.7114 34.7784 54.3793 37.3193 57.6586 37.3193C60.9386 37.3193 63.6065 34.7784 63.6065 31.6548C63.6065 30.805 64.3303 30.1152 65.2234 30.1152C66.1159 30.1152 66.8404 30.805 66.8404 31.6548C66.8404 36.4761 62.7216 40.3984 57.6586 40.3984Z" fill="#1ECD96"/>
<path d="M25.3403 40.3984C20.2779 40.3984 16.1592 36.4761 16.1592 31.6548C16.1592 30.805 16.883 30.1152 17.7761 30.1152C18.6692 30.1152 19.393 30.805 19.393 31.6548C19.393 34.7784 22.061 37.3193 25.3403 37.3193C28.6202 37.3193 31.2882 34.7784 31.2882 31.6548C31.2882 30.805 32.012 30.1152 32.9051 30.1152C33.7982 30.1152 34.522 30.805 34.522 31.6548C34.5214 36.4761 30.4033 40.3984 25.3403 40.3984Z" fill="#1ECD96"/>
<path d="M57.1161 66.1057C56.5476 66.1057 55.9946 65.8239 55.6898 65.3204C52.7671 60.4949 47.33 57.4973 41.5 57.4973C35.6707 57.4973 30.2336 60.4949 27.3109 65.3204C26.8556 66.072 25.8486 66.3286 25.0614 65.8939C24.2743 65.4598 24.0055 64.4982 24.4608 63.7467C27.97 57.9529 34.499 54.3535 41.5006 54.3535C48.5016 54.3535 55.0306 57.9529 58.5398 63.7467C58.9951 64.4982 58.7263 65.4598 57.9392 65.8939C57.6794 66.0376 57.3958 66.1057 57.1161 66.1057Z" fill="#1ECD96"/>
<path d="M60.2295 59.4954C56.5847 59.4954 53.6191 56.3714 53.6191 52.5315C53.6191 49.0894 58.2045 44.0593 59.1238 43.086C59.4162 42.7761 59.8146 42.6016 60.2295 42.6016C60.6443 42.6016 61.0427 42.7761 61.3351 43.086C62.2544 44.0593 66.8404 49.0894 66.8404 52.5315C66.8404 56.3714 63.8748 59.4954 60.2295 59.4954ZM60.2295 46.6449C58.397 48.8199 56.7382 51.3709 56.7382 52.5315C56.7382 54.5602 58.3044 56.2104 60.2295 56.2104C62.1545 56.2104 63.7213 54.5602 63.7213 52.5315C63.7213 51.3709 62.0625 48.8199 60.2295 46.6449Z" fill="#1ECD96"/>
<path d="M41.4997 83C30.4149 83 19.9933 78.6832 12.1552 70.845C4.31648 63.0067 0 52.5849 0 41.5C0 30.4151 4.31648 19.9939 12.1552 12.155C19.9933 4.3168 30.4149 0 41.4997 0C49.9825 0 58.1398 2.54246 65.0899 7.35191C65.8259 7.86167 66.0096 8.87169 65.5004 9.60751C64.9905 10.344 63.9802 10.5276 63.2443 10.0179C56.8389 5.58517 49.32 3.24219 41.4997 3.24219C20.405 3.24219 3.24291 20.4043 3.24291 41.5C3.24291 62.5957 20.405 79.7578 41.4997 79.7578C62.595 79.7578 79.7571 62.5957 79.7571 41.5C79.7571 33.8327 77.4978 26.4365 73.2238 20.1104C72.7228 19.3689 72.9179 18.3608 73.6602 17.8599C74.4019 17.3584 75.4096 17.554 75.9112 18.2956C80.5488 25.1599 83 33.1837 83 41.5C83 52.5849 78.6835 63.0061 70.8448 70.845C63.0067 78.6832 52.5851 83 41.4997 83Z" fill="#1ECD96"/>
<path d="M69.778 15.4245C69.1615 15.4245 68.6036 14.9288 68.3945 14.2053C68.1893 13.4941 68.3646 12.6721 68.8265 12.1836C69.3092 11.6728 70.017 11.6096 70.5543 12.0248C71.0685 12.4221 71.3391 13.2052 71.2196 13.946C71.0829 14.7952 70.4715 15.4245 69.778 15.4245Z" fill="#1ECD96"/>
</svg>
