<svg width="46" height="46" viewBox="0 0 46 46" fill="none" xmlns="http://www.w3.org/2000/svg">
<circle cx="23" cy="23" r="22.5" fill="#DEF4EC" stroke="#1ECD96"/>
<g clip-path="url(#clip0)">
<path d="M15.7705 17.3374C17.0634 17.3374 18.1152 18.1639 18.1152 19.2913H20.5205C20.5205 17.0364 18.3897 15.333 15.7705 15.333C13.1513 15.333 11.0205 17.0364 11.0205 19.2913H13.4258C13.4258 18.1639 14.4778 17.3374 15.7705 17.3374Z" fill="#1ECD96"/>
<path d="M30.0205 17.3374C31.3134 17.3374 32.3652 18.1639 32.3652 19.2913H34.7705C34.7705 17.0364 32.6397 15.333 30.0205 15.333C27.4013 15.333 25.2705 17.0364 25.2705 19.2913H27.6758C27.6758 18.1639 28.7277 17.3374 30.0205 17.3374Z" fill="#1ECD96"/>
<path d="M22.8553 33.541C27.2923 33.541 31.5445 31.3206 33.9792 27.6341L32.0528 26.416C29.8172 29.8013 25.7265 31.6907 21.6328 31.2282C18.4418 30.8681 15.4908 29.0691 13.7387 26.416L11.8125 27.6341C13.9325 30.8446 17.5055 33.0215 21.37 33.4576C21.8661 33.5137 22.3615 33.541 22.8553 33.541Z" fill="#1ECD96"/>
</g>
<defs>
<clipPath id="clip0">
<rect x="11.0205" y="15.333" width="23.9583" height="18.2083" fill="white"/>
</clipPath>
</defs>
</svg>
