<svg width="48" height="48" viewBox="0 0 48 48" fill="none" xmlns="http://www.w3.org/2000/svg">
<path d="M37.781 10.687C41.7892 12.3678 44.7836 17.4844 43.8175 21.6369C42.8517 25.7895 37.9259 28.9286 33.9176 31.7958C29.9093 34.663 26.8428 37.2337 23.1484 37.8516C19.4541 38.4696 15.1802 37.1348 11.2926 34.2676C7.42926 31.4004 3.9522 27.0254 4.0005 22.675C4.04879 18.3247 7.62242 14.0486 11.4858 12.3926C15.3733 10.7118 19.5506 11.6758 24.1625 11.2555C28.7745 10.8353 33.7727 9.03097 37.781 10.687Z" fill="#E9FAF5"/>
<path fill-rule="evenodd" clip-rule="evenodd" d="M33.6863 21.4972C33.8343 21.3583 34.0642 21.3684 34.2 21.5199C35.389 22.8463 35.8387 24.6781 35.4028 26.4197C35.0597 27.7906 34.2154 28.9427 33.0256 29.6638C32.2164 30.1542 31.3132 30.4053 30.3968 30.4053C29.9657 30.4053 29.5317 30.3497 29.1032 30.2374C28.9782 30.2047 28.8551 30.1672 28.7337 30.1255C28.6736 30.1914 28.6112 30.2568 28.5467 30.3209L25.9762 32.8701V35.6448C25.9762 35.8503 25.8135 36.0168 25.6127 36.0168C25.4119 36.0168 25.2491 35.8503 25.2491 35.6448V33.5054C24.9075 33.7551 24.5382 33.9634 24.1444 34.1268C23.501 34.3934 22.8226 34.5286 22.128 34.5286C20.9957 34.5286 19.9126 34.1699 19.0072 33.5064V35.6448C19.0072 35.8503 18.8445 36.0168 18.6437 36.0168C18.4429 36.0168 18.2802 35.8503 18.2802 35.6448V32.8701L17.2062 31.8048C17.062 31.6619 17.0584 31.4263 17.1982 31.2787C17.3378 31.1312 17.568 31.1274 17.7122 31.2705L18.8966 32.4453C19.7676 33.3089 20.9152 33.7845 22.128 33.7845C22.7286 33.7845 23.3152 33.6677 23.8712 33.4371C24.4281 33.2061 24.9289 32.8724 25.3597 32.4452L28.0133 29.8136C27.484 29.5347 27.0051 29.1642 26.5956 28.7122L24.8824 28.7763C24.7476 28.7816 24.621 28.7095 24.5538 28.5897C24.4866 28.4698 24.4899 28.3218 24.5622 28.2051L25.4657 26.7482C25.1595 25.7912 25.1269 24.7726 25.3727 23.7905C25.7102 22.4419 26.5329 21.3054 27.6923 20.5823H19.4861C19.2854 20.5823 19.1226 20.4157 19.1226 20.2103C19.1226 20.0048 19.2854 19.8382 19.4861 19.8382H28.0531C28.2027 19.8382 28.3371 19.9321 28.3916 20.0747L28.438 20.196C29.0738 19.93 29.7491 19.7983 30.431 19.8054C30.4025 15.1445 26.6891 11.3617 22.1282 11.3617C17.5566 11.3617 13.836 15.1623 13.8246 19.8382H14.4404C14.6412 19.8382 14.804 20.0048 14.804 20.2103V22.8486L15.8646 20.0746C15.9192 19.932 16.0535 19.8381 16.2032 19.8381H17.7911C17.9919 19.8381 18.1546 20.0047 18.1546 20.2102C18.1546 20.4157 17.9919 20.5823 17.7911 20.5823H16.4514L14.804 24.8906V26.374C14.804 27.6533 15.3186 28.8971 16.216 29.7867L16.4847 30.0532C16.6289 30.1962 16.6326 30.4317 16.4928 30.5793C16.4216 30.6546 16.3266 30.6924 16.2317 30.6924C16.1406 30.6924 16.0494 30.6576 15.9787 30.5876L15.71 30.3211C14.6722 29.2923 14.0769 27.8536 14.0769 26.374V25.1926H13.4611C12.7206 25.1926 12.1182 24.5761 12.1182 23.8183V21.2125C12.1182 20.5836 12.5332 20.0525 13.0975 19.8898V19.8595C13.0975 14.7635 17.1486 10.6176 22.1282 10.6176C27.1077 10.6176 31.1588 14.7635 31.1589 19.8594V19.8656C31.3306 19.8924 31.5019 19.928 31.6724 19.9727C32.0494 20.0715 32.4147 20.2132 32.7581 20.3937C32.9366 20.4876 33.007 20.7119 32.9153 20.8947C32.8235 21.0774 32.6044 21.1494 32.4257 21.0556C32.1306 20.9004 31.8164 20.7786 31.4919 20.6936C29.1152 20.0705 26.686 21.5425 26.0771 23.9751C25.8529 24.8712 25.8981 25.8024 26.2081 26.668C26.2471 26.7767 26.2343 26.8977 26.1737 26.9954L25.5465 28.0069L26.7394 27.9623C26.8497 27.9578 26.9553 28.0053 27.0274 28.0904C27.6216 28.7922 28.4018 29.2854 29.2837 29.5166C30.4351 29.8185 31.6324 29.6433 32.6551 29.0235C33.6778 28.4037 34.4035 27.4134 34.6984 26.2351C35.0731 24.738 34.6865 23.1633 33.6642 22.0229C33.5285 21.8714 33.5383 21.6361 33.6863 21.4972ZM14.0768 24.4485V20.5824H13.4611C13.1215 20.5824 12.8453 20.8651 12.8453 21.2125V23.8183C12.8453 24.1658 13.1215 24.4485 13.4611 24.4485H14.0768ZM17.7213 27.3261C17.9377 27.3261 18.113 27.1467 18.113 26.9253C18.113 26.7038 17.9377 26.5244 17.7213 26.5244C17.505 26.5244 17.3296 26.7038 17.3296 26.9253C17.3296 27.1467 17.505 27.3261 17.7213 27.3261ZM17.7213 29.8317C17.9377 29.8317 18.113 29.6522 18.113 29.4308C18.113 29.2094 17.9377 29.03 17.7213 29.03C17.505 29.03 17.3296 29.2094 17.3296 29.4308C17.3296 29.6522 17.505 29.8317 17.7213 29.8317ZM19.386 28.4285C19.386 28.6499 19.2106 28.8294 18.9943 28.8294C18.7779 28.8294 18.6025 28.6499 18.6025 28.4285C18.6025 28.2071 18.7779 28.0276 18.9943 28.0276C19.2106 28.0276 19.386 28.2071 19.386 28.4285ZM16.4479 28.3284C16.6642 28.3284 16.8396 28.1489 16.8396 27.9275C16.8396 27.7061 16.6642 27.5267 16.4479 27.5267C16.2315 27.5267 16.0562 27.7061 16.0562 27.9275C16.0562 28.1489 16.2315 28.3284 16.4479 28.3284ZM26.4839 25.1049C26.4839 27.3079 28.2352 29.1002 30.3878 29.1002C32.5404 29.1002 34.2917 27.3079 34.2917 25.1049C34.2917 22.902 32.5404 21.1097 30.3878 21.1097C28.2352 21.1097 26.4839 22.902 26.4839 25.1049ZM33.5646 25.1049C33.5646 26.8975 32.1395 28.356 30.3878 28.356C28.6361 28.356 27.211 26.8976 27.211 25.1049C27.211 23.3122 28.6361 21.8538 30.3878 21.8538C32.1395 21.8538 33.5646 23.3123 33.5646 25.1049ZM30.5004 24.6253C29.8949 24.6253 29.4023 24.1211 29.4023 23.5015C29.4023 22.8818 29.8949 22.3777 30.5004 22.3777C31.1058 22.3777 31.5984 22.8818 31.5984 23.5015C31.5984 24.1211 31.1058 24.6253 30.5004 24.6253ZM30.8713 23.5015C30.8713 23.2922 30.7049 23.1219 30.5004 23.1219C30.2958 23.1219 30.1294 23.2921 30.1294 23.5015C30.1294 23.7108 30.2959 23.8811 30.5004 23.8811C30.7049 23.8811 30.8713 23.7108 30.8713 23.5015ZM30.4794 26.057C30.4794 26.6767 30.9719 27.1807 31.5774 27.1807C32.1829 27.1807 32.6755 26.6766 32.6755 26.057C32.6755 25.4374 32.1829 24.9333 31.5774 24.9333C30.972 24.9333 30.4794 25.4374 30.4794 26.057ZM31.9484 26.057C31.9484 26.2664 31.782 26.4366 31.5774 26.4366C31.3729 26.4366 31.2065 26.2663 31.2065 26.057C31.2065 25.8477 31.3729 25.6774 31.5774 25.6774C31.782 25.6774 31.9484 25.8477 31.9484 26.057ZM27.8353 25.7063C27.8353 25.0867 28.3279 24.5826 28.9334 24.5826C29.5388 24.5826 30.0314 25.0867 30.0314 25.7063C30.0314 26.3259 29.5388 26.83 28.9334 26.83C28.3279 26.83 27.8353 26.3259 27.8353 25.7063ZM28.5624 25.7063C28.5624 25.9156 28.7288 26.0859 28.9334 26.0859C29.1379 26.0859 29.3043 25.9156 29.3043 25.7063C29.3043 25.497 29.1379 25.3267 28.9334 25.3267C28.7288 25.3267 28.5624 25.497 28.5624 25.7063Z" fill="#676F8F"/>
<path d="M34.2 21.5199L34.2745 21.4531L34.2745 21.4531L34.2 21.5199ZM33.6863 21.4972L33.7548 21.5701L33.7548 21.5701L33.6863 21.4972ZM35.4028 26.4197L35.4998 26.444V26.444L35.4028 26.4197ZM33.0256 29.6638L32.9738 29.5782L33.0256 29.6638ZM29.1032 30.2374L29.1286 30.1407L29.1286 30.1407L29.1032 30.2374ZM28.7337 30.1255L28.7662 30.0309L28.7041 30.0095L28.6598 30.0581L28.7337 30.1255ZM28.5467 30.3209L28.6171 30.3919L28.6171 30.3919L28.5467 30.3209ZM25.9762 32.8701L25.9058 32.7991L25.8762 32.8284V32.8701H25.9762ZM25.2491 33.5054H25.3491V33.3084L25.1901 33.4246L25.2491 33.5054ZM24.1444 34.1268L24.1827 34.2192L24.1827 34.2192L24.1444 34.1268ZM19.0072 33.5064L19.0664 33.4257L18.9072 33.3091V33.5064H19.0072ZM18.2802 32.8701H18.3802V32.8284L18.3506 32.7991L18.2802 32.8701ZM17.2062 31.8048L17.2766 31.7338L17.2766 31.7338L17.2062 31.8048ZM17.1982 31.2787L17.2708 31.3475L17.2708 31.3475L17.1982 31.2787ZM17.7122 31.2705L17.6418 31.3415L17.6418 31.3415L17.7122 31.2705ZM18.8966 32.4453L18.8262 32.5163L18.8262 32.5163L18.8966 32.4453ZM23.8712 33.4371L23.9095 33.5295L23.9096 33.5295L23.8712 33.4371ZM25.3597 32.4452L25.4301 32.5162L25.4301 32.5162L25.3597 32.4452ZM28.0133 29.8136L28.0837 29.8846L28.1804 29.7886L28.0599 29.7251L28.0133 29.8136ZM26.5956 28.7122L26.6697 28.6451L26.6384 28.6106L26.5919 28.6123L26.5956 28.7122ZM24.8824 28.7763L24.8787 28.6764L24.8785 28.6764L24.8824 28.7763ZM24.5538 28.5897L24.4666 28.6385L24.4666 28.6386L24.5538 28.5897ZM24.5622 28.2051L24.4772 28.1524L24.4772 28.1524L24.5622 28.2051ZM25.4657 26.7482L25.5507 26.8009L25.575 26.7617L25.561 26.7177L25.4657 26.7482ZM25.3727 23.7905L25.2757 23.7662L25.2757 23.7662L25.3727 23.7905ZM27.6923 20.5823L27.7452 20.6672L28.0416 20.4823H27.6923V20.5823ZM28.3916 20.0747L28.2982 20.1104L28.2982 20.1104L28.3916 20.0747ZM28.438 20.196L28.3446 20.2317L28.3815 20.3281L28.4766 20.2882L28.438 20.196ZM30.431 19.8054L30.4299 19.9054L30.5316 19.9065L30.531 19.8048L30.431 19.8054ZM13.8246 19.8382L13.7246 19.8379L13.7244 19.9382H13.8246V19.8382ZM14.804 22.8486H14.704L14.8974 22.8844L14.804 22.8486ZM15.8646 20.0746L15.958 20.1103L15.958 20.1103L15.8646 20.0746ZM16.4514 20.5823V20.4823H16.3825L16.358 20.5466L16.4514 20.5823ZM14.804 24.8906L14.7106 24.8549L14.704 24.8721V24.8906H14.804ZM16.216 29.7867L16.2864 29.7156L16.2864 29.7156L16.216 29.7867ZM16.4847 30.0532L16.5551 29.9822L16.5551 29.9821L16.4847 30.0532ZM16.4928 30.5793L16.4202 30.5105L16.4202 30.5106L16.4928 30.5793ZM15.9787 30.5876L15.9083 30.6586L15.9083 30.6586L15.9787 30.5876ZM15.71 30.3211L15.7805 30.2501L15.7804 30.25L15.71 30.3211ZM14.0769 25.1926H14.1769V25.0926H14.0769V25.1926ZM13.0975 19.8898L13.1252 19.9859L13.1975 19.965V19.8898H13.0975ZM31.1589 19.8594H31.2589V19.8594L31.1589 19.8594ZM31.1589 19.8656H31.0589V19.9512L31.1434 19.9644L31.1589 19.8656ZM31.6724 19.9727L31.647 20.0694L31.647 20.0694L31.6724 19.9727ZM32.7581 20.3937L32.8046 20.3052L32.8046 20.3052L32.7581 20.3937ZM32.9153 20.8947L33.0046 20.9396L33.0046 20.9395L32.9153 20.8947ZM32.4257 21.0556L32.3792 21.1441L32.3792 21.1441L32.4257 21.0556ZM31.4919 20.6936L31.4666 20.7903L31.4666 20.7903L31.4919 20.6936ZM26.0771 23.9751L25.9801 23.9508V23.9508L26.0771 23.9751ZM26.2081 26.668L26.114 26.7017L26.114 26.7017L26.2081 26.668ZM26.1737 26.9954L26.2587 27.0481L26.2587 27.0481L26.1737 26.9954ZM25.5465 28.0069L25.4615 27.9542L25.3625 28.1138L25.5502 28.1068L25.5465 28.0069ZM26.7394 27.9623L26.7431 28.0622L26.7434 28.0622L26.7394 27.9623ZM27.0274 28.0904L26.9511 28.155L26.9511 28.1551L27.0274 28.0904ZM29.2837 29.5166L29.309 29.4198H29.309L29.2837 29.5166ZM32.6551 29.0235L32.6033 28.938V28.938L32.6551 29.0235ZM34.6984 26.2351L34.7954 26.2594V26.2594L34.6984 26.2351ZM33.6642 22.0229L33.5897 22.0896L33.5897 22.0896L33.6642 22.0229ZM14.0768 20.5824H14.1768V20.4824H14.0768V20.5824ZM14.0768 24.4485V24.5485H14.1768V24.4485H14.0768ZM34.2745 21.4531C34.1014 21.26 33.8069 21.2468 33.6179 21.4243L33.7548 21.5701C33.8616 21.4697 34.0271 21.4768 34.1256 21.5866L34.2745 21.4531ZM35.4998 26.444C35.9437 24.6704 35.4859 22.8045 34.2745 21.4531L34.1256 21.5866C35.2922 22.8881 35.7337 24.6857 35.3058 26.3954L35.4998 26.444ZM33.0775 29.7493C34.2902 29.0143 35.1504 27.84 35.4998 26.444L35.3058 26.3954C34.969 27.7412 34.1407 28.8711 32.9738 29.5782L33.0775 29.7493ZM30.3968 30.5053C31.3317 30.5053 32.2528 30.2491 33.0775 29.7493L32.9738 29.5782C32.18 30.0593 31.2947 30.3053 30.3968 30.3053V30.5053ZM29.0779 30.3341C29.5146 30.4486 29.9571 30.5053 30.3968 30.5053V30.3053C29.9743 30.3053 29.5489 30.2508 29.1286 30.1407L29.0779 30.3341ZM28.7012 30.22C28.8248 30.2625 28.9504 30.3007 29.0779 30.3342L29.1286 30.1407C29.0061 30.1086 28.8853 30.0718 28.7662 30.0309L28.7012 30.22ZM28.6171 30.3919C28.6829 30.3265 28.7465 30.2599 28.8076 30.1928L28.6598 30.0581C28.6007 30.1229 28.5394 30.1871 28.4762 30.25L28.6171 30.3919ZM26.0466 32.9411L28.6171 30.3919L28.4762 30.2499L25.9058 32.7991L26.0466 32.9411ZM26.0762 35.6448V32.8701H25.8762V35.6448H26.0762ZM25.6127 36.1168C25.8709 36.1168 26.0762 35.9033 26.0762 35.6448H25.8762C25.8762 35.7972 25.7561 35.9168 25.6127 35.9168V36.1168ZM25.1491 35.6448C25.1491 35.9033 25.3545 36.1168 25.6127 36.1168V35.9168C25.4693 35.9168 25.3491 35.7972 25.3491 35.6448H25.1491ZM25.1491 33.5054V35.6448H25.3491V33.5054H25.1491ZM24.1827 34.2192C24.584 34.0527 24.9601 33.8405 25.3081 33.5861L25.1901 33.4246C24.8548 33.6697 24.4925 33.8741 24.1061 34.0345L24.1827 34.2192ZM22.128 34.6286C22.8358 34.6286 23.5271 34.4908 24.1827 34.2192L24.1061 34.0345C23.4748 34.296 22.8094 34.4286 22.128 34.4286V34.6286ZM18.9481 33.587C19.8705 34.2631 20.9743 34.6286 22.128 34.6286V34.4286C21.0171 34.4286 19.9547 34.0768 19.0664 33.4257L18.9481 33.587ZM19.1072 35.6448V33.5064H18.9072V35.6448H19.1072ZM18.6437 36.1168C18.9019 36.1168 19.1072 35.9033 19.1072 35.6448H18.9072C18.9072 35.7972 18.7871 35.9168 18.6437 35.9168V36.1168ZM18.1802 35.6448C18.1802 35.9033 18.3855 36.1168 18.6437 36.1168V35.9168C18.5003 35.9168 18.3802 35.7972 18.3802 35.6448H18.1802ZM18.1802 32.8701V35.6448H18.3802V32.8701H18.1802ZM17.1358 31.8758L18.2097 32.9411L18.3506 32.7991L17.2766 31.7338L17.1358 31.8758ZM17.1255 31.21C16.9485 31.397 16.953 31.6946 17.1358 31.8758L17.2766 31.7338C17.1711 31.6292 17.1683 31.4557 17.2708 31.3475L17.1255 31.21ZM17.7826 31.1995C17.5985 31.0168 17.3037 31.0217 17.1255 31.21L17.2708 31.3475C17.3719 31.2407 17.5374 31.238 17.6418 31.3415L17.7826 31.1995ZM18.9671 32.3743L17.7826 31.1995L17.6418 31.3415L18.8262 32.5163L18.9671 32.3743ZM22.128 33.6845C20.9419 33.6845 19.8195 33.2196 18.967 32.3743L18.8262 32.5163C19.7157 33.3982 20.8885 33.8845 22.128 33.8845V33.6845ZM23.8329 33.3448C23.289 33.5703 22.7154 33.6845 22.128 33.6845V33.8845C22.7418 33.8845 23.3413 33.7651 23.9095 33.5295L23.8329 33.3448ZM25.2893 32.3742C24.8677 32.7923 24.3777 33.1187 23.8329 33.3448L23.9096 33.5295C24.4784 33.2935 24.9902 32.9525 25.4301 32.5162L25.2893 32.3742ZM27.9429 29.7426L25.2893 32.3742L25.4301 32.5162L28.0837 29.8846L27.9429 29.7426ZM26.5215 28.7794C26.9388 29.2399 27.4271 29.6177 27.9667 29.902L28.0599 29.7251C27.541 29.4517 27.0713 29.0884 26.6697 28.6451L26.5215 28.7794ZM24.8861 28.8762L26.5993 28.8122L26.5919 28.6123L24.8787 28.6764L24.8861 28.8762ZM24.4666 28.6386C24.5516 28.7903 24.713 28.883 24.8863 28.8762L24.8785 28.6764C24.7823 28.6802 24.6903 28.6287 24.641 28.5407L24.4666 28.6386ZM24.4772 28.1524C24.3857 28.3001 24.3816 28.487 24.4666 28.6385L24.641 28.5408C24.5916 28.4527 24.594 28.3436 24.6472 28.2578L24.4772 28.1524ZM25.3807 26.6955L24.4772 28.1524L24.6472 28.2578L25.5507 26.8009L25.3807 26.6955ZM25.2757 23.7662C25.0254 24.7663 25.0585 25.8039 25.3705 26.7787L25.561 26.7177C25.2604 25.7786 25.2284 24.7789 25.4697 23.8147L25.2757 23.7662ZM27.6393 20.4975C26.4577 21.2345 25.6194 22.3929 25.2757 23.7662L25.4697 23.8147C25.8011 22.4909 26.6082 21.3763 27.7452 20.6672L27.6393 20.4975ZM19.4861 20.6823H27.6923V20.4823H19.4861V20.6823ZM19.0226 20.2103C19.0226 20.4688 19.228 20.6823 19.4861 20.6823V20.4823C19.3427 20.4823 19.2226 20.3627 19.2226 20.2103H19.0226ZM19.4861 19.7382C19.228 19.7382 19.0226 19.9518 19.0226 20.2103H19.2226C19.2226 20.0578 19.3428 19.9382 19.4861 19.9382V19.7382ZM28.0531 19.7382H19.4861V19.9382H28.0531V19.7382ZM28.485 20.039C28.4161 19.8587 28.2453 19.7382 28.0531 19.7382V19.9382C28.1602 19.9382 28.2581 20.0054 28.2982 20.1104L28.485 20.039ZM28.5314 20.1603L28.485 20.0389L28.2982 20.1104L28.3446 20.2317L28.5314 20.1603ZM30.432 19.7054C29.7365 19.6982 29.0477 19.8325 28.3994 20.1038L28.4766 20.2882C29.0999 20.0274 29.7618 19.8985 30.4299 19.9054L30.432 19.7054ZM22.1282 11.4617C26.6319 11.4617 30.3028 15.1979 30.331 19.806L30.531 19.8048C30.5021 15.0912 26.7463 11.2617 22.1282 11.2617V11.4617ZM13.9246 19.8384C13.9359 15.2155 17.6139 11.4617 22.1282 11.4617V11.2617C17.4992 11.2617 13.7361 15.1091 13.7246 19.8379L13.9246 19.8384ZM14.4404 19.7382H13.8246V19.9382H14.4404V19.7382ZM14.904 20.2103C14.904 19.9518 14.6986 19.7382 14.4404 19.7382V19.9382C14.5838 19.9382 14.704 20.0578 14.704 20.2103H14.904ZM14.904 22.8486V20.2103H14.704V22.8486H14.904ZM15.7712 20.0389L14.7106 22.8129L14.8974 22.8844L15.958 20.1103L15.7712 20.0389ZM16.2032 19.7381C16.0109 19.7381 15.8402 19.8587 15.7712 20.0389L15.958 20.1103C15.9982 20.0054 16.0961 19.9381 16.2032 19.9381V19.7381ZM17.7911 19.7381H16.2032V19.9381H17.7911V19.7381ZM18.2546 20.2102C18.2546 19.9517 18.0493 19.7381 17.7911 19.7381V19.9381C17.9345 19.9381 18.0546 20.0578 18.0546 20.2102H18.2546ZM17.7911 20.6823C18.0493 20.6823 18.2546 20.4687 18.2546 20.2102H18.0546C18.0546 20.3627 17.9345 20.4823 17.7911 20.4823V20.6823ZM16.4514 20.6823H17.7911V20.4823H16.4514V20.6823ZM14.8974 24.9263L16.5448 20.618L16.358 20.5466L14.7106 24.8549L14.8974 24.9263ZM14.904 26.374V24.8906H14.704V26.374H14.904ZM16.2864 29.7156C15.4082 28.8452 14.904 27.627 14.904 26.374H14.704C14.704 27.6796 15.229 28.9491 16.1456 29.8577L16.2864 29.7156ZM16.5551 29.9821L16.2864 29.7156L16.1455 29.8577L16.4143 30.1242L16.5551 29.9821ZM16.5654 30.648C16.7425 30.4611 16.738 30.1634 16.5551 29.9822L16.4143 30.1242C16.5199 30.2289 16.5226 30.4023 16.4202 30.5105L16.5654 30.648ZM16.2317 30.7924C16.3533 30.7924 16.4748 30.7438 16.5654 30.648L16.4202 30.5106C16.3683 30.5653 16.3 30.5924 16.2317 30.5924V30.7924ZM15.9083 30.6586C15.9982 30.7477 16.1149 30.7924 16.2317 30.7924V30.5924C16.1662 30.5924 16.1005 30.5675 16.0491 30.5166L15.9083 30.6586ZM15.6396 30.3921L15.9083 30.6586L16.0491 30.5166L15.7805 30.2501L15.6396 30.3921ZM13.9769 26.374C13.9769 27.8799 14.5826 29.3443 15.6396 30.3921L15.7804 30.25C14.7618 29.2403 14.1769 27.8273 14.1769 26.374H13.9769ZM13.9769 25.1926V26.374H14.1769V25.1926H13.9769ZM13.4611 25.2926H14.0769V25.0926H13.4611V25.2926ZM12.0182 23.8183C12.0182 24.6291 12.6632 25.2926 13.4611 25.2926V25.0926C12.778 25.0926 12.2182 24.523 12.2182 23.8183H12.0182ZM12.0182 21.2125V23.8183H12.2182V21.2125H12.0182ZM13.0698 19.7937C12.4627 19.9688 12.0182 20.5391 12.0182 21.2125H12.2182C12.2182 20.6282 12.6037 20.1362 13.1252 19.9859L13.0698 19.7937ZM12.9975 19.8595V19.8898H13.1975V19.8595H12.9975ZM22.1282 10.5176C17.0912 10.5176 12.9975 14.7104 12.9975 19.8595H13.1975C13.1975 14.8165 17.206 10.7176 22.1282 10.7176V10.5176ZM31.2589 19.8594C31.2588 14.7104 27.1651 10.5176 22.1282 10.5176V10.7176C27.0503 10.7176 31.0588 14.8165 31.0589 19.8594L31.2589 19.8594ZM31.2589 19.8656V19.8594H31.0589V19.8656H31.2589ZM31.6978 19.876C31.524 19.8304 31.3493 19.7941 31.1743 19.7668L31.1434 19.9644C31.3119 19.9907 31.4799 20.0256 31.647 20.0694L31.6978 19.876ZM32.8046 20.3052C32.4545 20.1211 32.082 19.9767 31.6977 19.876L31.647 20.0694C32.0167 20.1663 32.3749 20.3052 32.7115 20.4822L32.8046 20.3052ZM33.0046 20.9395C33.1203 20.7092 33.0325 20.4251 32.8046 20.3052L32.7115 20.4822C32.8408 20.5502 32.8938 20.7146 32.8259 20.8498L33.0046 20.9395ZM32.3792 21.1441C32.6085 21.2646 32.8883 21.1711 33.0046 20.9396L32.8259 20.8498C32.7587 20.9837 32.6002 21.0343 32.4722 20.967L32.3792 21.1441ZM31.4666 20.7903C31.7838 20.8735 32.0908 20.9925 32.3792 21.1441L32.4722 20.967C32.1703 20.8083 31.8491 20.6838 31.5173 20.5969L31.4666 20.7903ZM26.1742 23.9993C26.77 21.6189 29.1455 20.1818 31.4666 20.7903L31.5173 20.5969C29.0848 19.9591 26.602 21.4661 25.9801 23.9508L26.1742 23.9993ZM26.3023 26.6342C25.999 25.7874 25.9547 24.8764 26.1742 23.9993L25.9801 23.9508C25.7511 24.866 25.7973 25.8174 26.114 26.7017L26.3023 26.6342ZM26.2587 27.0481C26.3355 26.9244 26.3514 26.7715 26.3022 26.6342L26.114 26.7017C26.1427 26.7818 26.1332 26.871 26.0888 26.9427L26.2587 27.0481ZM25.6315 28.0596L26.2587 27.0481L26.0888 26.9427L25.4615 27.9542L25.6315 28.0596ZM26.7357 27.8623L25.5428 27.9069L25.5502 28.1068L26.7431 28.0622L26.7357 27.8623ZM27.1038 28.0258C27.0123 27.9178 26.8772 27.8566 26.7354 27.8623L26.7434 28.0622C26.8221 28.059 26.8984 28.0928 26.9511 28.155L27.1038 28.0258ZM29.309 29.4198C28.4472 29.1939 27.6847 28.7121 27.1038 28.0258L26.9511 28.1551C27.5584 28.8724 28.3564 29.3768 29.2583 29.6133L29.309 29.4198ZM32.6033 28.938C31.6036 29.5438 30.4341 29.7148 29.309 29.4198L29.2583 29.6133C30.4361 29.9221 31.6612 29.7428 32.707 29.109L32.6033 28.938ZM34.6014 26.2108C34.3128 27.364 33.6031 28.3321 32.6033 28.938L32.707 29.109C33.7526 28.4753 34.4942 27.4628 34.7954 26.2594L34.6014 26.2108ZM33.5897 22.0896C34.5897 23.2051 34.9681 24.7456 34.6014 26.2108L34.7954 26.2594C35.1781 24.7304 34.7833 23.1215 33.7386 21.9561L33.5897 22.0896ZM33.6179 21.4243C33.4301 21.6005 33.4179 21.8978 33.5897 22.0896L33.7387 21.9561C33.639 21.845 33.6465 21.6717 33.7548 21.5701L33.6179 21.4243ZM13.9768 20.5824V24.4485H14.1768V20.5824H13.9768ZM13.4611 20.6824H14.0768V20.4824H13.4611V20.6824ZM12.9453 21.2125C12.9453 20.9181 13.1789 20.6824 13.4611 20.6824V20.4824C13.0641 20.4824 12.7453 20.812 12.7453 21.2125H12.9453ZM12.9453 23.8183V21.2125H12.7453V23.8183H12.9453ZM13.4611 24.3485C13.1789 24.3485 12.9453 24.1128 12.9453 23.8183H12.7453C12.7453 24.2189 13.0641 24.5485 13.4611 24.5485V24.3485ZM14.0768 24.3485H13.4611V24.5485H14.0768V24.3485ZM18.013 26.9253C18.013 27.0936 17.8803 27.2261 17.7213 27.2261V27.4261C17.9951 27.4261 18.213 27.1997 18.213 26.9253H18.013ZM17.7213 26.6244C17.8803 26.6244 18.013 26.7569 18.013 26.9253H18.213C18.213 26.6508 17.9951 26.4244 17.7213 26.4244V26.6244ZM17.4296 26.9253C17.4296 26.7569 17.5624 26.6244 17.7213 26.6244V26.4244C17.4476 26.4244 17.2296 26.6508 17.2296 26.9253H17.4296ZM17.7213 27.2261C17.5624 27.2261 17.4296 27.0936 17.4296 26.9253H17.2296C17.2296 27.1997 17.4476 27.4261 17.7213 27.4261V27.2261ZM18.013 29.4308C18.013 29.5992 17.8803 29.7317 17.7213 29.7317V29.9317C17.9951 29.9317 18.213 29.7053 18.213 29.4308H18.013ZM17.7213 29.13C17.8803 29.13 18.013 29.2625 18.013 29.4308H18.213C18.213 29.1564 17.9951 28.93 17.7213 28.93V29.13ZM17.4296 29.4308C17.4296 29.2625 17.5624 29.13 17.7213 29.13V28.93C17.4476 28.93 17.2296 29.1564 17.2296 29.4308H17.4296ZM17.7213 29.7317C17.5624 29.7317 17.4296 29.5992 17.4296 29.4308H17.2296C17.2296 29.7053 17.4476 29.9317 17.7213 29.9317V29.7317ZM18.9943 28.9294C19.268 28.9294 19.486 28.7029 19.486 28.4285H19.286C19.286 28.5968 19.1532 28.7294 18.9943 28.7294V28.9294ZM18.5025 28.4285C18.5025 28.7029 18.7206 28.9294 18.9943 28.9294V28.7294C18.8353 28.7294 18.7025 28.5968 18.7025 28.4285H18.5025ZM18.9943 27.9276C18.7205 27.9276 18.5025 28.1541 18.5025 28.4285H18.7025C18.7025 28.2601 18.8353 28.1276 18.9943 28.1276V27.9276ZM19.486 28.4285C19.486 28.1541 19.268 27.9276 18.9943 27.9276V28.1276C19.1532 28.1276 19.286 28.2601 19.286 28.4285H19.486ZM16.7396 27.9275C16.7396 28.0959 16.6068 28.2284 16.4479 28.2284V28.4284C16.7216 28.4284 16.9396 28.202 16.9396 27.9275H16.7396ZM16.4479 27.6267C16.6068 27.6267 16.7396 27.7592 16.7396 27.9275H16.9396C16.9396 27.6531 16.7216 27.4267 16.4479 27.4267V27.6267ZM16.1562 27.9275C16.1562 27.7592 16.2889 27.6267 16.4479 27.6267V27.4267C16.1741 27.4267 15.9562 27.6531 15.9562 27.9275H16.1562ZM16.4479 28.2284C16.2889 28.2284 16.1562 28.0959 16.1562 27.9275H15.9562C15.9562 28.202 16.1741 28.4284 16.4479 28.4284V28.2284ZM30.3878 29.0002C28.2926 29.0002 26.5839 27.2549 26.5839 25.1049H26.3839C26.3839 27.361 28.1778 29.2002 30.3878 29.2002V29.0002ZM34.1917 25.1049C34.1917 27.2549 32.483 29.0002 30.3878 29.0002V29.2002C32.5978 29.2002 34.3917 27.361 34.3917 25.1049H34.1917ZM30.3878 21.2097C32.483 21.2097 34.1917 22.955 34.1917 25.1049H34.3917C34.3917 22.8489 32.5978 21.0097 30.3878 21.0097V21.2097ZM26.5839 25.1049C26.5839 22.955 28.2926 21.2097 30.3878 21.2097V21.0097C28.1778 21.0097 26.3839 22.8489 26.3839 25.1049H26.5839ZM30.3878 28.456C32.1969 28.456 33.6646 26.9506 33.6646 25.1049H33.4646C33.4646 26.8445 32.0821 28.256 30.3878 28.256V28.456ZM27.111 25.1049C27.111 26.9506 28.5787 28.456 30.3878 28.456V28.256C28.6935 28.256 27.311 26.8446 27.311 25.1049H27.111ZM30.3878 21.7538C28.5787 21.7538 27.111 23.2592 27.111 25.1049H27.311C27.311 23.3652 28.6935 21.9538 30.3878 21.9538V21.7538ZM33.6646 25.1049C33.6646 23.2593 32.1969 21.7538 30.3878 21.7538V21.9538C32.0821 21.9538 33.4646 23.3653 33.4646 25.1049H33.6646ZM29.3023 23.5015C29.3023 24.1742 29.8375 24.7253 30.5004 24.7253V24.5253C29.9523 24.5253 29.5023 24.0681 29.5023 23.5015H29.3023ZM30.5004 22.2777C29.8375 22.2777 29.3023 22.8288 29.3023 23.5015H29.5023C29.5023 22.9349 29.9523 22.4777 30.5004 22.4777V22.2777ZM31.6984 23.5015C31.6984 22.8288 31.1632 22.2777 30.5004 22.2777V22.4777C31.0484 22.4777 31.4984 22.9349 31.4984 23.5015H31.6984ZM30.5004 24.7253C31.1632 24.7253 31.6984 24.1742 31.6984 23.5015H31.4984C31.4984 24.0681 31.0484 24.5253 30.5004 24.5253V24.7253ZM30.5004 23.2219C30.6475 23.2219 30.7713 23.3452 30.7713 23.5015H30.9713C30.9713 23.2392 30.7623 23.0219 30.5004 23.0219V23.2219ZM30.2294 23.5015C30.2294 23.3452 30.3532 23.2219 30.5004 23.2219V23.0219C30.2384 23.0219 30.0294 23.2391 30.0294 23.5015H30.2294ZM30.5004 23.7811C30.3533 23.7811 30.2294 23.6578 30.2294 23.5015H30.0294C30.0294 23.7639 30.2385 23.9811 30.5004 23.9811V23.7811ZM30.7713 23.5015C30.7713 23.6578 30.6475 23.7811 30.5004 23.7811V23.9811C30.7623 23.9811 30.9713 23.7638 30.9713 23.5015H30.7713ZM31.5774 27.0807C31.0293 27.0807 30.5794 26.6236 30.5794 26.057H30.3794C30.3794 26.7297 30.9145 27.2807 31.5774 27.2807V27.0807ZM32.5755 26.057C32.5755 26.6236 32.1255 27.0807 31.5774 27.0807V27.2807C32.2403 27.2807 32.7755 26.7296 32.7755 26.057H32.5755ZM31.5774 25.0333C32.1255 25.0333 32.5755 25.4904 32.5755 26.057H32.7755C32.7755 25.3844 32.2403 24.8333 31.5774 24.8333V25.0333ZM30.5794 26.057C30.5794 25.4904 31.0294 25.0333 31.5774 25.0333V24.8333C30.9146 24.8333 30.3794 25.3844 30.3794 26.057H30.5794ZM31.5774 26.5366C31.8394 26.5366 32.0484 26.3194 32.0484 26.057H31.8484C31.8484 26.2133 31.7246 26.3366 31.5774 26.3366V26.5366ZM31.1065 26.057C31.1065 26.3194 31.3156 26.5366 31.5774 26.5366V26.3366C31.4303 26.3366 31.3065 26.2133 31.3065 26.057H31.1065ZM31.5774 25.5774C31.3155 25.5774 31.1065 25.7947 31.1065 26.057H31.3065C31.3065 25.9008 31.4303 25.7774 31.5774 25.7774V25.5774ZM32.0484 26.057C32.0484 25.7947 31.8394 25.5774 31.5774 25.5774V25.7774C31.7246 25.7774 31.8484 25.9007 31.8484 26.057H32.0484ZM28.9334 24.4826C28.2705 24.4826 27.7353 25.0337 27.7353 25.7063H27.9353C27.9353 25.1397 28.3853 24.6826 28.9334 24.6826V24.4826ZM30.1314 25.7063C30.1314 25.0337 29.5962 24.4826 28.9334 24.4826V24.6826C29.4814 24.6826 29.9314 25.1397 29.9314 25.7063H30.1314ZM28.9334 26.93C29.5962 26.93 30.1314 26.379 30.1314 25.7063H29.9314C29.9314 26.2729 29.4814 26.73 28.9334 26.73V26.93ZM27.7353 25.7063C27.7353 26.379 28.2705 26.93 28.9334 26.93V26.73C28.3853 26.73 27.9353 26.2729 27.9353 25.7063H27.7353ZM28.9334 25.9859C28.7862 25.9859 28.6624 25.8626 28.6624 25.7063H28.4624C28.4624 25.9686 28.6714 26.1859 28.9334 26.1859V25.9859ZM29.2043 25.7063C29.2043 25.8626 29.0805 25.9859 28.9334 25.9859V26.1859C29.1953 26.1859 29.4043 25.9686 29.4043 25.7063H29.2043ZM28.9334 25.4267C29.0805 25.4267 29.2043 25.55 29.2043 25.7063H29.4043C29.4043 25.444 29.1953 25.2267 28.9334 25.2267V25.4267ZM28.6624 25.7063C28.6624 25.55 28.7862 25.4267 28.9334 25.4267V25.2267C28.6715 25.2267 28.4624 25.444 28.4624 25.7063H28.6624Z" fill="#676F8F"/>
</svg>
