<svg width="88" height="88" viewBox="0 0 88 88" fill="none" xmlns="http://www.w3.org/2000/svg">
<path d="M63.6364 76.0827H36.8147C36.5871 75.9114 36.5363 75.6759 36.5332 75.4068C36.5179 73.5427 36.5332 71.6771 36.5332 69.8131C36.5512 69.5859 36.5919 69.361 36.6547 69.1418C36.8716 68.8237 37.2084 68.9384 37.4945 68.9369C40.6552 68.9262 43.8173 68.9369 46.978 68.9292C48.4468 68.9292 48.6698 68.6891 48.6083 67.2227C48.5729 66.3648 48.3222 66.0942 47.4532 66.0804C45.5569 66.0513 43.6605 66.0727 41.7625 66.0697C40.306 66.0697 38.8495 66.0697 37.3945 66.0697C37.1392 66.0697 36.8485 66.1523 36.6517 65.8892C36.454 64.701 36.454 63.4885 36.6517 62.3003C36.8455 61.9501 37.19 62.0786 37.4699 62.077C40.6305 62.0648 43.7912 62.077 46.9518 62.0694C48.4499 62.0694 48.6791 61.8232 48.6037 60.3246C48.5622 59.505 48.3099 59.2389 47.4702 59.2205C45.9767 59.1884 44.4818 59.2114 42.9868 59.2098C41.1289 59.2098 39.2709 59.2098 37.413 59.2098C37.1561 59.2098 36.8701 59.2878 36.6532 59.0569C36.5536 58.6347 36.5097 58.2013 36.5225 57.7678C36.5225 52.6706 36.5189 47.5703 36.5117 42.467C36.5117 42.0679 36.7501 41.6596 36.4963 41.2651C36.3425 41.0586 36.5363 40.8935 36.5594 40.7084C37.3745 40.1197 37.8359 39.2282 38.4542 38.4743C40.6321 35.8197 42.7607 33.1222 44.9247 30.4584C45.0339 30.3239 45.1308 30.1817 45.2323 30.0486C45.5092 29.7015 45.4769 29.3911 45.137 29.1036C44.7725 28.7978 44.4018 28.4919 44.0158 28.2121C43.522 27.8527 43.3406 27.8634 42.9514 28.3298C42.0563 29.4002 41.1996 30.4951 40.3245 31.5778C39.3647 32.7659 38.4142 33.9602 37.453 35.1453C37.0515 35.6377 36.8501 35.65 36.5425 35.2524C36.4932 34.5474 36.5209 33.844 36.5209 33.1406C36.5209 28.2697 36.5209 23.3988 36.5209 18.5279C36.5209 18.1746 36.4471 17.7969 36.7347 17.4972C36.9331 17.3917 37.1484 17.4452 37.3499 17.4452C43.2775 17.4452 49.204 17.4452 55.1296 17.4452C56.0678 17.4452 56.0801 17.4529 56.0801 18.4009V46.3618C56.0688 46.705 56.076 47.0485 56.1016 47.3909C56.1677 48.0026 56.4092 48.2365 57.006 48.3084C57.2923 48.3334 57.5799 48.3416 57.8673 48.3329H68.5689C68.7996 48.3329 69.0303 48.3329 69.2595 48.3482C69.3262 48.3454 69.3928 48.3563 69.4551 48.3804C69.5173 48.4044 69.5739 48.441 69.6213 48.4878C69.6687 48.5346 69.7058 48.5906 69.7303 48.6524C69.7549 48.7142 69.7663 48.7803 69.7639 48.8467C69.7639 48.9996 69.7762 49.1525 69.7762 49.3054C69.7762 55.7891 69.7762 62.2723 69.7762 68.7549C69.7762 70.3835 69.4686 71.9585 68.4781 73.3026C67.6368 74.4388 66.6617 75.4542 65.219 75.838C64.7115 75.9726 64.1655 75.9772 63.6364 76.0827Z" fill="#E9FAF5"/>
<path d="M36.8142 69.2373C36.8142 71.5188 36.8142 73.8004 36.8142 76.0819H25.1928C24.836 75.958 24.4561 75.9779 24.0885 75.929C21.8384 75.6017 20.285 74.2392 19.0269 72.496C18.0702 71.1687 17.6027 69.6578 17.5073 68.0079C17.4365 66.7677 17.4273 65.5321 17.4258 64.2935C17.4258 49.1374 17.4258 33.9808 17.4258 18.8237C17.4258 17.1584 17.4258 17.4475 18.7854 17.4475C24.5961 17.4383 30.4062 17.4383 36.2159 17.4475C36.4174 17.4475 36.6373 17.3695 36.8311 17.5163C36.8383 23.4729 36.845 29.4295 36.8511 35.3861C36.9249 35.4305 37.0049 35.458 37.0526 35.539C37.0618 35.6155 37.0926 35.7057 37.0418 35.7623C35.7853 37.1538 34.6902 38.6784 33.5044 40.122C32.2739 41.6114 31.082 43.1268 29.87 44.6299C29.3671 45.2538 28.8518 45.8701 28.3689 46.5108C27.9921 47.0109 28.0136 47.2127 28.495 47.6195C28.8164 47.8901 29.1502 48.147 29.4809 48.4085C30.01 48.8245 30.1391 48.8214 30.5575 48.3015L33.469 44.685C34.3672 43.5687 35.2531 42.4417 36.1744 41.3438C36.3082 41.1817 36.4297 40.9064 36.7081 41.1801C36.8108 41.4683 36.8527 41.7744 36.8311 42.0793C36.8311 47.6862 36.8311 53.2932 36.8311 58.9001C36.8511 59.1494 36.6665 59.1647 36.4958 59.1892C36.2863 59.2098 36.0756 59.2159 35.8652 59.2075H26.7909C26.5217 59.2075 26.2541 59.2075 25.9865 59.2182C25.8325 59.2167 25.6794 59.2421 25.5343 59.2931C24.6945 59.6571 24.9606 60.4079 24.9544 61.0379C24.9483 61.6679 25.1851 61.9248 25.7004 62.0242C26.0059 62.0678 26.3149 62.0822 26.6232 62.067C29.7839 62.067 32.9461 62.067 36.1067 62.0762C36.3712 62.0762 36.745 61.9233 36.8434 62.382V65.7722C36.8634 66.0199 36.6789 66.0352 36.5081 66.0597C36.2987 66.0808 36.0879 66.0875 35.8775 66.0796H26.8032C26.534 66.0796 26.2664 66.0796 25.9988 66.0903C25.8448 66.0888 25.6917 66.1141 25.5466 66.1652C24.7068 66.5292 24.9729 67.28 24.9667 67.91C24.9606 68.54 25.1975 68.7969 25.7127 68.8963C26.0182 68.9399 26.3272 68.9542 26.6355 68.9391C29.7962 68.9391 32.9584 68.9391 36.119 68.9483C36.3405 68.9376 36.7142 68.7847 36.8142 69.2373Z" fill="#E9FAF5"/>
<path d="M36.813 62.3717L25.833 62.3503C25.6223 62.3503 25.41 62.3396 25.2008 62.3503C24.8394 62.3626 24.6656 62.1852 24.6641 61.8365C24.6641 61.0368 24.6641 60.2355 24.6641 59.4357C24.6641 58.9449 24.9978 58.9173 25.3746 58.9189C27.7893 58.9189 30.2041 58.9189 32.6188 58.9189C34.0168 58.9189 35.4149 58.9051 36.8145 58.8975L47.5561 58.9204C47.8053 58.9204 48.0545 58.9296 48.3036 58.9204C48.6758 58.9204 48.8834 59.0733 48.885 59.4602C48.885 60.2411 48.885 61.022 48.885 61.8029C48.885 62.3243 48.522 62.3473 48.1314 62.3473C45.489 62.3473 42.8462 62.3473 40.2028 62.3473C39.0708 62.3503 37.9404 62.3641 36.813 62.3717Z" fill="#1ECD96"/>
<path d="M36.8145 69.2375L25.833 69.213C25.6223 69.213 25.41 69.2039 25.2008 69.213C24.8394 69.2253 24.6656 69.0479 24.6641 68.6992C24.6641 67.8995 24.6641 67.0997 24.6641 66.2985C24.6641 65.8076 24.9978 65.7801 25.3746 65.7816C27.7893 65.7816 30.2041 65.7816 32.6188 65.7816C34.0168 65.7816 35.4149 65.7678 36.8145 65.7617L47.5561 65.7847C47.8053 65.7847 48.0544 65.7923 48.3036 65.7847C48.6758 65.7847 48.8834 65.9376 48.885 66.326C48.885 67.1059 48.885 67.8862 48.885 68.6671C48.885 69.1886 48.522 69.2115 48.1313 69.2115C45.489 69.2115 42.8462 69.2115 40.2028 69.2115C39.0723 69.213 37.9419 69.2299 36.8145 69.2375Z" fill="#1ECD96"/>
<path d="M48.8164 46.9092C48.8103 47.9221 48.5024 48.9105 47.9314 49.7494C47.3605 50.5883 46.5522 51.2401 45.6088 51.6224C44.6654 52.0047 43.6291 52.1004 42.631 51.8973C41.633 51.6942 40.7178 51.2015 40.0013 50.4814C39.2848 49.7613 38.7991 48.8462 38.6055 47.8517C38.412 46.8573 38.5193 45.8281 38.914 44.8943C39.3086 43.9604 39.9728 43.1639 40.8227 42.6053C41.6725 42.0467 42.6699 41.7511 43.6886 41.7559C44.3657 41.7593 45.0355 41.8953 45.6597 42.1562C46.2839 42.4171 46.8503 42.7976 47.3265 43.2762C47.8027 43.7548 48.1794 44.322 48.435 44.9453C48.6907 45.5687 48.8203 46.236 48.8164 46.9092Z" fill="#676F8F"/>
<path d="M36.6935 41.1727C34.7607 43.5622 32.8284 45.9533 30.8967 48.346C30.7564 48.5024 30.6255 48.6668 30.5045 48.8384C30.2415 49.2604 29.9754 49.2191 29.6278 48.9209C29.0772 48.4484 28.5112 47.9882 27.9206 47.5661C27.493 47.2603 27.5361 47.011 27.8375 46.6394C29.8831 44.1178 31.9118 41.5825 33.9466 39.0532C34.892 37.8788 35.8399 36.7065 36.7904 35.5361C37.1119 35.5361 37.0857 35.7976 37.0888 35.9857C37.1149 37.3513 37.1242 38.7168 37.0888 40.0824C37.0888 40.3454 36.9042 40.5732 36.935 40.8469L36.6935 41.1727Z" fill="#676F8F"/>
<path d="M36.9383 40.8409C36.7998 40.5351 36.8152 40.2139 36.8121 39.8943L36.7891 35.5332L36.8414 35.3802C38.2041 33.7073 39.5662 32.0349 40.9279 30.363C41.6262 29.5021 42.3275 28.6443 43.0058 27.7635C43.2673 27.427 43.4841 27.3383 43.8409 27.6457C44.4208 28.1442 45.0175 28.6259 45.6374 29.0724C46.0849 29.3966 45.9588 29.6566 45.6773 30.0037C43.1816 33.0936 40.6885 36.1876 38.1979 39.2857C37.7842 39.8072 37.3597 40.3225 36.9383 40.8409Z" fill="#676F8F"/>
<path d="M35.0046 29.7607C34.9945 30.7729 34.683 31.7596 34.1092 32.5959C33.5354 33.4322 32.7252 34.0806 31.781 34.4594C30.8367 34.8381 29.8007 34.9301 28.8039 34.7237C27.8071 34.5173 26.8941 34.0218 26.1804 33.2998C25.4667 32.5778 24.9842 31.6617 24.7939 30.6672C24.6036 29.6727 24.714 28.6445 25.1112 27.7123C25.5084 26.7802 26.1745 25.986 27.0255 25.4301C27.8764 24.8742 28.874 24.5815 29.8922 24.589C30.5696 24.5942 31.2393 24.7322 31.8631 24.995C32.4868 25.2578 33.0523 25.6404 33.5271 26.1207C34.002 26.6011 34.3769 27.1698 34.6304 27.7944C34.8839 28.419 35.0111 29.0872 35.0046 29.7607Z" fill="#676F8F"/>
<path d="M45.3602 46.8872C45.3586 47.218 45.259 47.5409 45.0737 47.8157C44.8885 48.0905 44.6259 48.3048 44.3188 48.432C44.0116 48.5591 43.6736 48.5934 43.347 48.5306C43.0203 48.4678 42.7196 48.3106 42.4823 48.0787C42.2451 47.8468 42.0819 47.5505 42.0131 47.2268C41.9443 46.9032 41.9731 46.5666 42.0957 46.2591C42.2183 45.9516 42.4294 45.6869 42.7026 45.4981C42.9758 45.3092 43.2989 45.2047 43.6315 45.1975C43.857 45.194 44.0809 45.2352 44.2903 45.3185C44.4997 45.4018 44.6904 45.5257 44.8512 45.6829C45.0121 45.8401 45.1399 46.0275 45.2273 46.2343C45.3146 46.441 45.3598 46.6629 45.3602 46.8872Z" fill="#E9FAF5"/>
<path d="M31.5473 29.7471C31.5401 30.0781 31.4347 30.3997 31.2444 30.6714C31.0542 30.9432 30.7875 31.153 30.4778 31.2747C30.1681 31.3964 29.8291 31.4246 29.5034 31.3556C29.1777 31.2866 28.8797 31.1236 28.6468 30.8869C28.4138 30.6503 28.2563 30.3506 28.194 30.0253C28.1316 29.7 28.1672 29.3637 28.2963 29.0585C28.4254 28.7533 28.6421 28.4927 28.9195 28.3095C29.1969 28.1262 29.5225 28.0284 29.8555 28.0283C30.0808 28.0283 30.3039 28.073 30.5116 28.1598C30.7193 28.2466 30.9074 28.3738 31.065 28.5339C31.2226 28.694 31.3465 28.8838 31.4293 29.0921C31.5121 29.3005 31.5522 29.5231 31.5473 29.7471Z" fill="#E9FAF5"/>
<path d="M56.1421 47.4635C60.7223 47.4635 65.3026 47.4742 69.8828 47.4482C70.4627 47.4482 70.575 47.6256 70.5734 48.1486C70.558 54.9197 70.5734 61.6894 70.5596 68.4605C70.5596 71.9531 68.8124 74.5772 65.8148 75.6476C64.7289 76.0391 63.6061 76.1171 62.4634 76.0437C61.0207 75.7378 59.658 75.2561 58.5552 74.2576C57.1526 72.9899 56.1682 71.4531 56.1575 69.5493C56.1144 62.1879 56.1405 54.8249 56.1421 47.4635Z" fill="#B6EFDD"/>
<path d="M71.0879 46.9392C70.7157 46.5707 70.2205 46.5325 69.8806 46.5309C66.3769 46.5508 62.8056 46.5493 59.3681 46.5462H57.0196C57.0196 46.4835 57.0196 46.4224 57.0196 46.3612V18.3881C57.0196 17.7765 57.0196 17.2994 56.6274 16.9079C56.2352 16.5164 55.7553 16.5149 55.1462 16.5149H53.0376C47.8144 16.5149 42.5913 16.5149 37.3681 16.5149H37.2697C37.116 16.5022 36.9614 16.5052 36.8083 16.5241C36.6372 16.4977 36.4634 16.4947 36.2915 16.5149C36.268 16.5164 36.2443 16.5164 36.2208 16.5149C29.761 16.5149 24.3625 16.5057 18.7887 16.5149C18.6011 16.5149 18.4442 16.5149 18.3073 16.5042C17.8321 16.4889 17.3399 16.4721 16.94 16.8544C16.5063 17.2718 16.5078 17.7856 16.5078 18.8148C16.5078 25.9652 16.5078 33.1145 16.5078 40.2629C16.5078 48.2716 16.5078 56.2789 16.5078 64.2846C16.5078 65.4208 16.5155 66.742 16.5909 68.0509C16.7016 69.9456 17.2707 71.6185 18.2827 73.0207C19.9207 75.2946 21.7248 76.5042 23.9611 76.8284C24.1149 76.8498 24.2687 76.862 24.3964 76.8712C24.5643 76.8763 24.731 76.9009 24.8932 76.9446C24.9921 76.9784 25.0961 76.9954 25.2008 76.995H63.6516C63.7124 76.9948 63.7732 76.9892 63.833 76.9782C63.8715 76.969 63.9115 76.9629 63.9515 76.9553C64.36 76.9282 64.7661 76.8719 65.1665 76.7871C65.2542 76.7702 65.3665 76.7473 65.4849 76.7152C65.5341 76.703 65.5818 76.6877 65.6279 76.6739L65.6572 76.6647L65.7171 76.6464L65.7433 76.6387L65.7817 76.6265L65.8079 76.6189C65.9202 76.5837 66.034 76.5485 66.1462 76.5088C69.5438 75.2854 71.4955 72.354 71.5001 68.4577C71.5001 65.5176 71.5001 62.5775 71.5001 59.6374C71.5001 55.8711 71.5001 51.9763 71.5094 48.1473C71.5001 47.9103 71.5001 47.346 71.0879 46.9392ZM24.5348 75.0469C24.4225 75.0377 24.3149 75.0301 24.2272 75.0163C22.4984 74.7655 21.1265 73.822 19.7823 71.958C18.9656 70.8264 18.5242 69.5113 18.4334 67.9515C18.3611 66.6915 18.355 65.4009 18.3535 64.2907C18.3535 56.284 18.3535 48.2767 18.3535 40.269C18.3535 33.1206 18.3535 25.9687 18.3535 18.8132C18.3535 18.6527 18.3535 18.4906 18.3535 18.3545C18.4811 18.3545 18.6272 18.3637 18.7903 18.3545C24.3625 18.3453 29.7518 18.3545 36.2177 18.3545C36.31 18.3545 36.3946 18.3545 36.4592 18.3407H36.4699C36.6688 18.4114 36.8862 18.4114 37.0851 18.3407H37.1605C37.2312 18.3407 37.3035 18.3407 37.3712 18.3484C42.5944 18.3484 47.817 18.3484 53.0391 18.3484H55.177V46.3612C55.177 46.4346 55.177 46.5141 55.177 46.5814C55.1694 46.8671 55.1776 47.153 55.2016 47.4377C55.1949 47.4797 55.1913 47.5221 55.1908 47.5647C55.1908 49.5618 55.1908 51.5578 55.1908 53.5529C55.1908 58.8117 55.1785 64.2571 55.2093 69.5984C55.2216 71.5558 56.1321 73.3617 57.9116 74.9689C57.987 75.0362 58.0654 75.1019 58.1408 75.1646H25.3315C25.0704 75.0996 24.8036 75.0601 24.5348 75.0469ZM69.6437 59.642C69.6437 62.5811 69.6437 65.5202 69.6437 68.4592C69.6437 71.5374 68.1318 73.8449 65.5095 74.7869C65.4249 74.8175 65.3403 74.8435 65.2465 74.871L65.2234 74.8787L65.1327 74.9062H65.1127L65.0681 74.92L64.9958 74.9414C64.9312 74.9597 64.8635 74.9719 64.7974 74.9857H64.7743C64.4444 75.0557 64.1097 75.1012 63.7731 75.1218C63.7457 75.1233 63.7185 75.1263 63.6915 75.131L63.5547 75.1539H62.5949C61.0415 74.8251 59.9803 74.345 59.1497 73.5987C57.747 72.3341 57.0626 71.019 57.0534 69.577C57.0226 64.2341 57.0288 58.7995 57.0349 53.5437C57.0349 51.8188 57.0349 50.0944 57.0349 48.3705H59.3681C62.7395 48.3705 66.2216 48.3705 69.6545 48.3568C69.6437 52.1292 69.6437 55.9476 69.6437 59.642Z" fill="#676F8F"/>
</svg>
