<svg xmlns="http://www.w3.org/2000/svg" width="40" height="40" viewBox="0 0 40 40" fill="none">
<path d="M34.7037 33.1668C32.0162 35.99 28.0543 37.4153 24.12 38.5391C20.158 39.6355 16.2237 40.403 12.2894 39.7726C8.35516 39.1421 4.42089 37.0864 2.28751 33.8794C0.154113 30.6999 -0.178366 26.3691 0.070987 22.2302C0.348049 18.0913 1.26237 14.1717 3.61739 11.6225C5.94469 9.07337 9.76815 7.92215 13.8687 5.67454C17.9969 3.39952 22.4576 0.0555052 26.9183 0.000680863C31.3513 -0.0541367 35.812 3.20765 38.0562 7.42878C40.2727 11.65 40.3004 16.8304 39.58 21.5175C38.8597 26.2046 37.419 30.371 34.7037 33.1668Z" fill="#E9FAF5"/>
<path d="M20 9.87564C23.6288 9.87564 26.5803 12.8243 26.5803 16.4448C26.5803 20.0656 23.6288 23.0142 20 23.0142C16.3712 23.0142 13.4197 20.0656 13.4197 16.4448C13.4197 12.8243 16.3711 9.87564 20 9.87564Z" stroke="#1ECD96" stroke-width="1.5"/>
<mask id="path-3-outside-1_1262_517" maskUnits="userSpaceOnUse" x="8" y="5" width="24" height="30" fill="black">
<rect fill="white" x="8" y="5" width="24" height="30"/>
<path d="M30.9157 30.014L27.0641 23.2622L27.7388 23.046C28.5518 22.7858 29.0884 22.0095 29.0439 21.1582L28.9928 20.1805C28.9771 19.8846 29.0876 19.5936 29.2957 19.3824L29.9835 18.6845C30.5821 18.0767 30.6959 17.1404 30.2604 16.4073L29.76 15.5654C29.6085 15.3105 29.571 15.0017 29.6568 14.7179L29.9409 13.7808C30.1883 12.9649 29.8533 12.0831 29.1265 11.6362L28.2915 11.1227C28.0388 10.9674 27.8617 10.7115 27.8058 10.4203L27.6211 9.45875C27.4604 8.62154 26.7534 7.99606 25.9017 7.93754L24.9233 7.87047C24.6272 7.8502 24.3514 7.70554 24.1666 7.47376L23.5554 6.7079C23.0235 6.04138 22.1061 5.81579 21.325 6.15907L20.4275 6.55365C20.4275 6.55365 20.4275 6.55365 20.4273 6.55365C20.1558 6.67305 19.8443 6.67305 19.5726 6.55365L18.6751 6.15907C17.8937 5.81579 16.9766 6.04138 16.4445 6.70806L15.8335 7.47371C15.6487 7.70549 15.3728 7.85009 15.0768 7.87042L14.0984 7.93749C13.2467 7.99601 12.5396 8.62154 12.3789 9.4587L12.1942 10.4202C12.1382 10.7112 11.9612 10.9673 11.7086 11.1226L10.8736 11.636C10.1468 12.0829 9.81176 12.9649 10.0591 13.7807L10.343 14.7179C10.429 15.0016 10.3915 15.3103 10.2401 15.5651L9.73965 16.4072C9.30404 17.1401 9.41785 18.0767 10.0165 18.6842L10.7043 19.3823C10.9123 19.5936 11.0229 19.8844 11.0073 20.1802L10.9561 21.1582C10.9116 22.0092 11.4482 22.7856 12.261 23.046L12.936 23.2619L9.08437 30.014C8.96797 30.218 8.97225 30.4688 9.09573 30.6687C9.2192 30.8687 9.44277 30.9857 9.6766 30.9729L12.8959 30.8065L14.3945 33.6565C14.5039 33.8641 14.7178 33.9959 14.9529 33.9998C14.9565 33.9998 14.9602 34 14.9638 34C15.1947 34 15.4082 33.8765 15.5227 33.6757L19.4424 26.8043C19.6238 26.8605 19.8118 26.8897 20.0001 26.8897C20.1884 26.8897 20.3763 26.8605 20.5579 26.8043L24.4776 33.6757C24.5921 33.8765 24.8054 34 25.0362 34C25.0398 34 25.0437 34 25.0473 33.9998C25.2825 33.9959 25.4964 33.8643 25.6057 33.6565L27.1042 30.8065L30.3236 30.9729C30.5594 30.9853 30.781 30.8685 30.9043 30.6687C31.0276 30.4688 31.0321 30.218 30.9157 30.014ZM14.9702 32.9868L13.6052 30.3913L14.4112 28.9788C14.5235 28.7818 14.4548 28.5314 14.2576 28.4193C14.0607 28.3074 13.8098 28.376 13.6974 28.5727L12.8915 29.9854L9.95966 30.137L13.6613 23.6482C13.7311 23.7262 13.7901 23.8144 13.8346 23.9109L14.2446 24.8007C14.4572 25.2623 14.8406 25.6046 15.2935 25.7744L14.6517 26.8998C14.5394 27.0965 14.6083 27.3471 14.8053 27.4592C14.8695 27.4955 14.9394 27.5129 15.0083 27.5129C15.151 27.5129 15.2899 27.4385 15.3657 27.3056L16.1784 25.881C16.2118 25.8769 16.2452 25.8724 16.2786 25.8665L17.2448 25.6979C17.5368 25.6468 17.8393 25.7214 18.0744 25.9021L18.7259 26.4031L14.9702 32.9868ZM20.5341 25.9248C20.5326 25.9257 20.5313 25.9261 20.53 25.9269C20.5279 25.9282 20.5257 25.9297 20.5236 25.931C20.1995 26.1149 19.8007 26.1149 19.4765 25.931C19.4744 25.9297 19.4725 25.9282 19.4701 25.9269C19.4689 25.9261 19.4675 25.9257 19.4663 25.9248C19.4273 25.9022 19.3892 25.8778 19.3529 25.8498L18.5758 25.2524C18.2449 24.9977 17.8386 24.8618 17.4257 24.8618C17.3183 24.8618 17.2105 24.8713 17.1033 24.8898L16.1371 25.0584C16.0748 25.0693 16.0126 25.0742 15.951 25.074C15.9458 25.0738 15.9409 25.0736 15.936 25.0736C15.5348 25.0665 15.1634 24.8322 14.991 24.4577L14.5811 23.5681C14.4059 23.1877 14.1074 22.8786 13.7401 22.6872C13.7392 22.6867 13.7386 22.6861 13.7377 22.6857C13.7354 22.6844 13.733 22.6833 13.7309 22.6823C13.7221 22.6778 13.7133 22.6733 13.7045 22.669C13.7024 22.6679 13.7007 22.6671 13.6985 22.6662C13.6173 22.6263 13.5329 22.5919 13.4459 22.5639L12.512 22.2651C12.054 22.1183 11.7514 21.6808 11.7767 21.2012L11.8278 20.2233C11.8552 19.6982 11.6593 19.1821 11.29 18.8074L10.6024 18.1092C10.265 17.7668 10.2008 17.2391 10.4462 16.826L10.9466 15.9839C11.2154 15.5317 11.2821 14.9837 11.1295 14.4805L10.8454 13.5433C10.7059 13.0836 10.8949 12.5865 11.3045 12.3349L12.1395 11.8213C12.588 11.5455 12.9021 11.0914 13.0011 10.5749L13.1858 9.61333C13.2763 9.14165 13.6748 8.78916 14.1547 8.75606L15.1331 8.689C15.6583 8.65289 16.1478 8.39634 16.476 7.9851L17.087 7.21946C17.387 6.84368 17.9039 6.71661 18.3442 6.91014L19.2415 7.3045C19.7235 7.51639 20.2765 7.51639 20.7583 7.3045L21.6558 6.91014C22.0963 6.71661 22.613 6.84373 22.9127 7.21946L23.5239 7.98532C23.8519 8.39656 24.3417 8.65289 24.8669 8.689L25.8453 8.75628C26.3252 8.78916 26.7237 9.14165 26.8142 9.61333L26.9989 10.5751C27.0981 11.0914 27.4122 11.5458 27.8604 11.8214L28.6955 12.3349C29.1052 12.5868 29.2941 13.0837 29.1546 13.5434L28.8705 14.4807C28.7179 14.9838 28.7847 15.5317 29.0534 15.9842L29.5538 16.8261C29.7992 17.2393 29.7352 17.7669 29.3976 18.1093L28.71 18.8075C28.3407 19.1822 28.1448 19.6983 28.1721 20.2236L28.2233 21.2013C28.2485 21.6809 27.946 22.1184 27.4879 22.2652L26.5541 22.564C26.467 22.592 26.3827 22.6264 26.3014 22.6662C26.2993 22.6673 26.2974 22.6681 26.2955 22.669C26.2867 22.6735 26.2777 22.678 26.269 22.6824C26.2668 22.6837 26.2645 22.6846 26.2623 22.6858C26.2614 22.6863 26.2608 22.6867 26.2602 22.6871C25.8926 22.8785 25.5942 23.1878 25.419 23.5683L25.009 24.4581C24.8368 24.8321 24.4658 25.0664 24.0649 25.0737C24.0591 25.0737 24.0531 25.074 24.0473 25.0744C23.9861 25.0744 23.9245 25.0695 23.8627 25.0586L22.8967 24.8901C22.3779 24.7995 21.8411 24.9317 21.4239 25.2526L20.6471 25.8501C20.6109 25.8778 20.5728 25.9022 20.5341 25.9248ZM27.1086 29.9854L26.296 28.5611C26.1837 28.3642 25.9327 28.2956 25.7359 28.4078C25.5386 28.5199 25.4699 28.7703 25.5823 28.9673L26.3946 30.3913L25.0299 32.9868L21.2743 26.4031L21.9255 25.9022C22.1607 25.7215 22.4632 25.6469 22.7555 25.698L23.7214 25.8665C23.7548 25.8725 23.7883 25.877 23.8217 25.881L24.6341 27.3052C24.7098 27.4379 24.8486 27.5125 24.9914 27.5125C25.0602 27.5125 25.1302 27.4952 25.1944 27.4587C25.3915 27.3465 25.4601 27.0962 25.348 26.8992L24.7064 25.7745C25.1593 25.6045 25.5427 25.2625 25.7554 24.8008L26.1653 23.9111C26.2098 23.8145 26.2688 23.7263 26.3386 23.6483L30.0403 30.137L27.1086 29.9854Z"/>
</mask>
<path d="M30.9157 30.014L27.0641 23.2622L27.7388 23.046C28.5518 22.7858 29.0884 22.0095 29.0439 21.1582L28.9928 20.1805C28.9771 19.8846 29.0876 19.5936 29.2957 19.3824L29.9835 18.6845C30.5821 18.0767 30.6959 17.1404 30.2604 16.4073L29.76 15.5654C29.6085 15.3105 29.571 15.0017 29.6568 14.7179L29.9409 13.7808C30.1883 12.9649 29.8533 12.0831 29.1265 11.6362L28.2915 11.1227C28.0388 10.9674 27.8617 10.7115 27.8058 10.4203L27.6211 9.45875C27.4604 8.62154 26.7534 7.99606 25.9017 7.93754L24.9233 7.87047C24.6272 7.8502 24.3514 7.70554 24.1666 7.47376L23.5554 6.7079C23.0235 6.04138 22.1061 5.81579 21.325 6.15907L20.4275 6.55365C20.4275 6.55365 20.4275 6.55365 20.4273 6.55365C20.1558 6.67305 19.8443 6.67305 19.5726 6.55365L18.6751 6.15907C17.8937 5.81579 16.9766 6.04138 16.4445 6.70806L15.8335 7.47371C15.6487 7.70549 15.3728 7.85009 15.0768 7.87042L14.0984 7.93749C13.2467 7.99601 12.5396 8.62154 12.3789 9.4587L12.1942 10.4202C12.1382 10.7112 11.9612 10.9673 11.7086 11.1226L10.8736 11.636C10.1468 12.0829 9.81176 12.9649 10.0591 13.7807L10.343 14.7179C10.429 15.0016 10.3915 15.3103 10.2401 15.5651L9.73965 16.4072C9.30404 17.1401 9.41785 18.0767 10.0165 18.6842L10.7043 19.3823C10.9123 19.5936 11.0229 19.8844 11.0073 20.1802L10.9561 21.1582C10.9116 22.0092 11.4482 22.7856 12.261 23.046L12.936 23.2619L9.08437 30.014C8.96797 30.218 8.97225 30.4688 9.09573 30.6687C9.2192 30.8687 9.44277 30.9857 9.6766 30.9729L12.8959 30.8065L14.3945 33.6565C14.5039 33.8641 14.7178 33.9959 14.9529 33.9998C14.9565 33.9998 14.9602 34 14.9638 34C15.1947 34 15.4082 33.8765 15.5227 33.6757L19.4424 26.8043C19.6238 26.8605 19.8118 26.8897 20.0001 26.8897C20.1884 26.8897 20.3763 26.8605 20.5579 26.8043L24.4776 33.6757C24.5921 33.8765 24.8054 34 25.0362 34C25.0398 34 25.0437 34 25.0473 33.9998C25.2825 33.9959 25.4964 33.8643 25.6057 33.6565L27.1042 30.8065L30.3236 30.9729C30.5594 30.9853 30.781 30.8685 30.9043 30.6687C31.0276 30.4688 31.0321 30.218 30.9157 30.014ZM14.9702 32.9868L13.6052 30.3913L14.4112 28.9788C14.5235 28.7818 14.4548 28.5314 14.2576 28.4193C14.0607 28.3074 13.8098 28.376 13.6974 28.5727L12.8915 29.9854L9.95966 30.137L13.6613 23.6482C13.7311 23.7262 13.7901 23.8144 13.8346 23.9109L14.2446 24.8007C14.4572 25.2623 14.8406 25.6046 15.2935 25.7744L14.6517 26.8998C14.5394 27.0965 14.6083 27.3471 14.8053 27.4592C14.8695 27.4955 14.9394 27.5129 15.0083 27.5129C15.151 27.5129 15.2899 27.4385 15.3657 27.3056L16.1784 25.881C16.2118 25.8769 16.2452 25.8724 16.2786 25.8665L17.2448 25.6979C17.5368 25.6468 17.8393 25.7214 18.0744 25.9021L18.7259 26.4031L14.9702 32.9868ZM20.5341 25.9248C20.5326 25.9257 20.5313 25.9261 20.53 25.9269C20.5279 25.9282 20.5257 25.9297 20.5236 25.931C20.1995 26.1149 19.8007 26.1149 19.4765 25.931C19.4744 25.9297 19.4725 25.9282 19.4701 25.9269C19.4689 25.9261 19.4675 25.9257 19.4663 25.9248C19.4273 25.9022 19.3892 25.8778 19.3529 25.8498L18.5758 25.2524C18.2449 24.9977 17.8386 24.8618 17.4257 24.8618C17.3183 24.8618 17.2105 24.8713 17.1033 24.8898L16.1371 25.0584C16.0748 25.0693 16.0126 25.0742 15.951 25.074C15.9458 25.0738 15.9409 25.0736 15.936 25.0736C15.5348 25.0665 15.1634 24.8322 14.991 24.4577L14.5811 23.5681C14.4059 23.1877 14.1074 22.8786 13.7401 22.6872C13.7392 22.6867 13.7386 22.6861 13.7377 22.6857C13.7354 22.6844 13.733 22.6833 13.7309 22.6823C13.7221 22.6778 13.7133 22.6733 13.7045 22.669C13.7024 22.6679 13.7007 22.6671 13.6985 22.6662C13.6173 22.6263 13.5329 22.5919 13.4459 22.5639L12.512 22.2651C12.054 22.1183 11.7514 21.6808 11.7767 21.2012L11.8278 20.2233C11.8552 19.6982 11.6593 19.1821 11.29 18.8074L10.6024 18.1092C10.265 17.7668 10.2008 17.2391 10.4462 16.826L10.9466 15.9839C11.2154 15.5317 11.2821 14.9837 11.1295 14.4805L10.8454 13.5433C10.7059 13.0836 10.8949 12.5865 11.3045 12.3349L12.1395 11.8213C12.588 11.5455 12.9021 11.0914 13.0011 10.5749L13.1858 9.61333C13.2763 9.14165 13.6748 8.78916 14.1547 8.75606L15.1331 8.689C15.6583 8.65289 16.1478 8.39634 16.476 7.9851L17.087 7.21946C17.387 6.84368 17.9039 6.71661 18.3442 6.91014L19.2415 7.3045C19.7235 7.51639 20.2765 7.51639 20.7583 7.3045L21.6558 6.91014C22.0963 6.71661 22.613 6.84373 22.9127 7.21946L23.5239 7.98532C23.8519 8.39656 24.3417 8.65289 24.8669 8.689L25.8453 8.75628C26.3252 8.78916 26.7237 9.14165 26.8142 9.61333L26.9989 10.5751C27.0981 11.0914 27.4122 11.5458 27.8604 11.8214L28.6955 12.3349C29.1052 12.5868 29.2941 13.0837 29.1546 13.5434L28.8705 14.4807C28.7179 14.9838 28.7847 15.5317 29.0534 15.9842L29.5538 16.8261C29.7992 17.2393 29.7352 17.7669 29.3976 18.1093L28.71 18.8075C28.3407 19.1822 28.1448 19.6983 28.1721 20.2236L28.2233 21.2013C28.2485 21.6809 27.946 22.1184 27.4879 22.2652L26.5541 22.564C26.467 22.592 26.3827 22.6264 26.3014 22.6662C26.2993 22.6673 26.2974 22.6681 26.2955 22.669C26.2867 22.6735 26.2777 22.678 26.269 22.6824C26.2668 22.6837 26.2645 22.6846 26.2623 22.6858C26.2614 22.6863 26.2608 22.6867 26.2602 22.6871C25.8926 22.8785 25.5942 23.1878 25.419 23.5683L25.009 24.4581C24.8368 24.8321 24.4658 25.0664 24.0649 25.0737C24.0591 25.0737 24.0531 25.074 24.0473 25.0744C23.9861 25.0744 23.9245 25.0695 23.8627 25.0586L22.8967 24.8901C22.3779 24.7995 21.8411 24.9317 21.4239 25.2526L20.6471 25.8501C20.6109 25.8778 20.5728 25.9022 20.5341 25.9248ZM27.1086 29.9854L26.296 28.5611C26.1837 28.3642 25.9327 28.2956 25.7359 28.4078C25.5386 28.5199 25.4699 28.7703 25.5823 28.9673L26.3946 30.3913L25.0299 32.9868L21.2743 26.4031L21.9255 25.9022C22.1607 25.7215 22.4632 25.6469 22.7555 25.698L23.7214 25.8665C23.7548 25.8725 23.7883 25.877 23.8217 25.881L24.6341 27.3052C24.7098 27.4379 24.8486 27.5125 24.9914 27.5125C25.0602 27.5125 25.1302 27.4952 25.1944 27.4587C25.3915 27.3465 25.4601 27.0962 25.348 26.8992L24.7064 25.7745C25.1593 25.6045 25.5427 25.2625 25.7554 24.8008L26.1653 23.9111C26.2098 23.8145 26.2688 23.7263 26.3386 23.6483L30.0403 30.137L27.1086 29.9854Z" fill="#676F8F"/>
<path d="M30.9157 30.014L27.0641 23.2622L27.7388 23.046C28.5518 22.7858 29.0884 22.0095 29.0439 21.1582L28.9928 20.1805C28.9771 19.8846 29.0876 19.5936 29.2957 19.3824L29.9835 18.6845C30.5821 18.0767 30.6959 17.1404 30.2604 16.4073L29.76 15.5654C29.6085 15.3105 29.571 15.0017 29.6568 14.7179L29.9409 13.7808C30.1883 12.9649 29.8533 12.0831 29.1265 11.6362L28.2915 11.1227C28.0388 10.9674 27.8617 10.7115 27.8058 10.4203L27.6211 9.45875C27.4604 8.62154 26.7534 7.99606 25.9017 7.93754L24.9233 7.87047C24.6272 7.8502 24.3514 7.70554 24.1666 7.47376L23.5554 6.7079C23.0235 6.04138 22.1061 5.81579 21.325 6.15907L20.4275 6.55365C20.4275 6.55365 20.4275 6.55365 20.4273 6.55365C20.1558 6.67305 19.8443 6.67305 19.5726 6.55365L18.6751 6.15907C17.8937 5.81579 16.9766 6.04138 16.4445 6.70806L15.8335 7.47371C15.6487 7.70549 15.3728 7.85009 15.0768 7.87042L14.0984 7.93749C13.2467 7.99601 12.5396 8.62154 12.3789 9.4587L12.1942 10.4202C12.1382 10.7112 11.9612 10.9673 11.7086 11.1226L10.8736 11.636C10.1468 12.0829 9.81176 12.9649 10.0591 13.7807L10.343 14.7179C10.429 15.0016 10.3915 15.3103 10.2401 15.5651L9.73965 16.4072C9.30404 17.1401 9.41785 18.0767 10.0165 18.6842L10.7043 19.3823C10.9123 19.5936 11.0229 19.8844 11.0073 20.1802L10.9561 21.1582C10.9116 22.0092 11.4482 22.7856 12.261 23.046L12.936 23.2619L9.08437 30.014C8.96797 30.218 8.97225 30.4688 9.09573 30.6687C9.2192 30.8687 9.44277 30.9857 9.6766 30.9729L12.8959 30.8065L14.3945 33.6565C14.5039 33.8641 14.7178 33.9959 14.9529 33.9998C14.9565 33.9998 14.9602 34 14.9638 34C15.1947 34 15.4082 33.8765 15.5227 33.6757L19.4424 26.8043C19.6238 26.8605 19.8118 26.8897 20.0001 26.8897C20.1884 26.8897 20.3763 26.8605 20.5579 26.8043L24.4776 33.6757C24.5921 33.8765 24.8054 34 25.0362 34C25.0398 34 25.0437 34 25.0473 33.9998C25.2825 33.9959 25.4964 33.8643 25.6057 33.6565L27.1042 30.8065L30.3236 30.9729C30.5594 30.9853 30.781 30.8685 30.9043 30.6687C31.0276 30.4688 31.0321 30.218 30.9157 30.014ZM14.9702 32.9868L13.6052 30.3913L14.4112 28.9788C14.5235 28.7818 14.4548 28.5314 14.2576 28.4193C14.0607 28.3074 13.8098 28.376 13.6974 28.5727L12.8915 29.9854L9.95966 30.137L13.6613 23.6482C13.7311 23.7262 13.7901 23.8144 13.8346 23.9109L14.2446 24.8007C14.4572 25.2623 14.8406 25.6046 15.2935 25.7744L14.6517 26.8998C14.5394 27.0965 14.6083 27.3471 14.8053 27.4592C14.8695 27.4955 14.9394 27.5129 15.0083 27.5129C15.151 27.5129 15.2899 27.4385 15.3657 27.3056L16.1784 25.881C16.2118 25.8769 16.2452 25.8724 16.2786 25.8665L17.2448 25.6979C17.5368 25.6468 17.8393 25.7214 18.0744 25.9021L18.7259 26.4031L14.9702 32.9868ZM20.5341 25.9248C20.5326 25.9257 20.5313 25.9261 20.53 25.9269C20.5279 25.9282 20.5257 25.9297 20.5236 25.931C20.1995 26.1149 19.8007 26.1149 19.4765 25.931C19.4744 25.9297 19.4725 25.9282 19.4701 25.9269C19.4689 25.9261 19.4675 25.9257 19.4663 25.9248C19.4273 25.9022 19.3892 25.8778 19.3529 25.8498L18.5758 25.2524C18.2449 24.9977 17.8386 24.8618 17.4257 24.8618C17.3183 24.8618 17.2105 24.8713 17.1033 24.8898L16.1371 25.0584C16.0748 25.0693 16.0126 25.0742 15.951 25.074C15.9458 25.0738 15.9409 25.0736 15.936 25.0736C15.5348 25.0665 15.1634 24.8322 14.991 24.4577L14.5811 23.5681C14.4059 23.1877 14.1074 22.8786 13.7401 22.6872C13.7392 22.6867 13.7386 22.6861 13.7377 22.6857C13.7354 22.6844 13.733 22.6833 13.7309 22.6823C13.7221 22.6778 13.7133 22.6733 13.7045 22.669C13.7024 22.6679 13.7007 22.6671 13.6985 22.6662C13.6173 22.6263 13.5329 22.5919 13.4459 22.5639L12.512 22.2651C12.054 22.1183 11.7514 21.6808 11.7767 21.2012L11.8278 20.2233C11.8552 19.6982 11.6593 19.1821 11.29 18.8074L10.6024 18.1092C10.265 17.7668 10.2008 17.2391 10.4462 16.826L10.9466 15.9839C11.2154 15.5317 11.2821 14.9837 11.1295 14.4805L10.8454 13.5433C10.7059 13.0836 10.8949 12.5865 11.3045 12.3349L12.1395 11.8213C12.588 11.5455 12.9021 11.0914 13.0011 10.5749L13.1858 9.61333C13.2763 9.14165 13.6748 8.78916 14.1547 8.75606L15.1331 8.689C15.6583 8.65289 16.1478 8.39634 16.476 7.9851L17.087 7.21946C17.387 6.84368 17.9039 6.71661 18.3442 6.91014L19.2415 7.3045C19.7235 7.51639 20.2765 7.51639 20.7583 7.3045L21.6558 6.91014C22.0963 6.71661 22.613 6.84373 22.9127 7.21946L23.5239 7.98532C23.8519 8.39656 24.3417 8.65289 24.8669 8.689L25.8453 8.75628C26.3252 8.78916 26.7237 9.14165 26.8142 9.61333L26.9989 10.5751C27.0981 11.0914 27.4122 11.5458 27.8604 11.8214L28.6955 12.3349C29.1052 12.5868 29.2941 13.0837 29.1546 13.5434L28.8705 14.4807C28.7179 14.9838 28.7847 15.5317 29.0534 15.9842L29.5538 16.8261C29.7992 17.2393 29.7352 17.7669 29.3976 18.1093L28.71 18.8075C28.3407 19.1822 28.1448 19.6983 28.1721 20.2236L28.2233 21.2013C28.2485 21.6809 27.946 22.1184 27.4879 22.2652L26.5541 22.564C26.467 22.592 26.3827 22.6264 26.3014 22.6662C26.2993 22.6673 26.2974 22.6681 26.2955 22.669C26.2867 22.6735 26.2777 22.678 26.269 22.6824C26.2668 22.6837 26.2645 22.6846 26.2623 22.6858C26.2614 22.6863 26.2608 22.6867 26.2602 22.6871C25.8926 22.8785 25.5942 23.1878 25.419 23.5683L25.009 24.4581C24.8368 24.8321 24.4658 25.0664 24.0649 25.0737C24.0591 25.0737 24.0531 25.074 24.0473 25.0744C23.9861 25.0744 23.9245 25.0695 23.8627 25.0586L22.8967 24.8901C22.3779 24.7995 21.8411 24.9317 21.4239 25.2526L20.6471 25.8501C20.6109 25.8778 20.5728 25.9022 20.5341 25.9248ZM27.1086 29.9854L26.296 28.5611C26.1837 28.3642 25.9327 28.2956 25.7359 28.4078C25.5386 28.5199 25.4699 28.7703 25.5823 28.9673L26.3946 30.3913L25.0299 32.9868L21.2743 26.4031L21.9255 25.9022C22.1607 25.7215 22.4632 25.6469 22.7555 25.698L23.7214 25.8665C23.7548 25.8725 23.7883 25.877 23.8217 25.881L24.6341 27.3052C24.7098 27.4379 24.8486 27.5125 24.9914 27.5125C25.0602 27.5125 25.1302 27.4952 25.1944 27.4587C25.3915 27.3465 25.4601 27.0962 25.348 26.8992L24.7064 25.7745C25.1593 25.6045 25.5427 25.2625 25.7554 24.8008L26.1653 23.9111C26.2098 23.8145 26.2688 23.7263 26.3386 23.6483L30.0403 30.137L27.1086 29.9854Z" stroke="#676F8F" stroke-width="0.2" mask="url(#path-3-outside-1_1262_517)"/>
<path d="M23.9778 15.0214C23.9175 14.8269 23.7456 14.6963 23.5501 14.6963H21.1648L20.4278 12.3249C20.3673 12.1305 20.1954 12 20 12C19.8046 12 19.6327 12.1305 19.5722 12.3249L18.8352 14.6965H16.4499C16.2544 14.6965 16.0825 14.827 16.0222 15.0213C15.9618 15.2156 16.0275 15.4269 16.1855 15.5469L18.1152 17.0126L17.3782 19.3841C17.3179 19.5784 17.3834 19.7898 17.5416 19.9099C17.6996 20.03 17.9122 20.03 18.0704 19.9099L20 18.4442L21.9297 19.9099C22.0089 19.97 22.1015 20 22.1941 20C22.2868 20 22.3795 19.97 22.4585 19.9099C22.6167 19.7898 22.6822 19.5784 22.6219 19.3841L21.8847 17.0126L23.8144 15.5469C23.9725 15.4269 24.0382 15.2157 23.9778 15.0214Z" fill="#676F8F"/>
</svg>