<svg width="65" height="65" viewBox="0 0 65 65" fill="none" xmlns="http://www.w3.org/2000/svg">
  <path d="M61.9531 11.1719V59.9219C61.9515 60.4601 61.737 60.9758 61.3564 61.3564C60.9758 61.737 60.4601 61.9515 59.9219 61.9531H5.07812C4.5399 61.9515 4.02418 61.737 3.64359 61.3564C3.263 60.9758 3.04848 60.4601 3.04688 59.9219V11.1719H61.9531Z" fill="#D9D9DC"/>
  <path d="M61.9531 5.07812V11.1719H3.04688V5.07812C3.04848 4.5399 3.263 4.02418 3.64359 3.64359C4.02418 3.263 4.5399 3.04848 5.07812 3.04688H59.9219C60.4601 3.04848 60.9758 3.263 61.3564 3.64359C61.737 4.02418 61.9515 4.5399 61.9531 5.07812Z" fill="#F5F5F5"/>
  <path d="M57.7688 50.7812L56.875 54.8438H8.12501L7.23126 50.7812H29.4531V51.7969H35.5469V50.7812H57.7688Z" fill="#535B6C"/>
  <path d="M57.7687 50.7812L56.875 54.8438H52.8125L53.7063 50.7812H57.7687Z" fill="#57565C"/>
  <path d="M9.14062 22.3438H55.8594V51.7969H9.14062V22.3438Z" fill="#1ECD96"/>
  <path d="M51.7969 37.5781V38.5938C51.7969 38.8631 51.6899 39.1214 51.4994 39.3119C51.3089 39.5024 51.0506 39.6094 50.7812 39.6094H48.75V36.5625H50.7812C51.0506 36.5625 51.3089 36.6695 51.4994 36.86C51.6899 37.0504 51.7969 37.3088 51.7969 37.5781Z" fill="#1ECD96"/>
  <path d="M51.7969 32.5V33.5156L48.75 36.5625V33.5156L40.625 31.4844L36.5625 33.5156V36.5625L33.5156 33.5156V32.5C33.5156 30.8838 34.1576 29.3339 35.3004 28.1911C36.4432 27.0483 37.9932 26.4063 39.6094 26.4062H45.7031C47.3193 26.4062 48.8693 27.0483 50.0121 28.1911C51.1549 29.3339 51.7969 30.8838 51.7969 32.5Z" fill="#D9D9DC"/>
  <path d="M48.75 33.5156V39.6094C48.7504 40.6783 48.469 41.7284 47.9341 42.6539C47.3991 43.5793 46.6296 44.3473 45.7031 44.8805C44.7781 45.4192 43.7267 45.7031 42.6562 45.7031C41.5858 45.7031 40.5344 45.4192 39.6094 44.8805C38.6829 44.3473 37.9134 43.5793 37.3784 42.6539C36.8435 41.7284 36.5621 40.6783 36.5625 39.6094V33.5156L40.625 31.4844L48.75 33.5156Z" fill="#D9D9DC"/>
  <path d="M48.4148 50.7812H36.8976L39.6094 48.75V44.8804C40.5344 45.4192 41.5857 45.703 42.6562 45.703C43.7267 45.703 44.7781 45.4192 45.7031 44.8804V48.75L48.4148 50.7812Z" fill="#D9D9DC"/>
  <path d="M36.5625 36.5625V39.6094H34.5312C34.2619 39.6094 34.0036 39.5024 33.8131 39.3119C33.6226 39.1214 33.5156 38.8631 33.5156 38.5938V37.5781C33.5156 37.3088 33.6226 37.0504 33.8131 36.86C34.0036 36.6695 34.2619 36.5625 34.5312 36.5625H36.5625Z" fill="#1ECD96"/>
  <path d="M29.4531 22.3438V32.5C29.4515 33.0382 29.237 33.5539 28.8564 33.9345C28.4758 34.3151 27.9601 34.5296 27.4219 34.5312H24.375V38.5938L20.3125 34.5312H9.14062C8.6024 34.5296 8.08668 34.3151 7.70609 33.9345C7.3255 33.5539 7.11098 33.0382 7.10938 32.5V20.3125C7.11098 19.7743 7.3255 19.2585 7.70609 18.878C8.08668 18.4974 8.6024 18.2829 9.14062 18.2812H27.4219C27.9601 18.2829 28.4758 18.4974 28.8564 18.878C29.237 19.2585 29.4515 19.7743 29.4531 20.3125V22.3438Z" fill="#F5F5F5"/>
  <path d="M51.7969 32.5V33.5156L48.75 36.5625V33.5156L47.7344 33.2617V32.5C47.7344 30.8838 47.0924 29.3339 45.9496 28.1911C44.8068 27.0483 43.2568 26.4062 41.6406 26.4062H45.7031C47.3193 26.4062 48.8693 27.0483 50.0121 28.1911C51.1549 29.3339 51.7969 30.8838 51.7969 32.5Z" fill="#D9D9DC"/>
  <path d="M48.75 33.5156V39.6094C48.7504 40.6783 48.469 41.7284 47.9341 42.6539C47.3991 43.5793 46.6296 44.3473 45.7031 44.8805C45.0777 45.251 44.389 45.5024 43.6719 45.6219V44.8805C44.5984 44.3473 45.3679 43.5793 45.9028 42.6539C46.4378 41.7284 46.7192 40.6783 46.7187 39.6094V33.5156L39.9445 31.8195L40.625 31.4844L48.75 33.5156Z" fill="#D9D9DC"/>
  <path d="M59.9219 2.03125H5.07812C4.27079 2.03366 3.4972 2.35544 2.92632 2.92632C2.35544 3.4972 2.03366 4.27079 2.03125 5.07812V59.9219C2.03366 60.7292 2.35544 61.5028 2.92632 62.0737C3.4972 62.6446 4.27079 62.9663 5.07812 62.9688H59.9219C60.7292 62.9663 61.5028 62.6446 62.0737 62.0737C62.6446 61.5028 62.9663 60.7292 62.9688 59.9219V5.07812C62.9663 4.27079 62.6446 3.4972 62.0737 2.92632C61.5028 2.35544 60.7292 2.03366 59.9219 2.03125ZM60.9375 59.9219C60.9375 60.1912 60.8305 60.4496 60.64 60.64C60.4496 60.8305 60.1912 60.9375 59.9219 60.9375H5.07812C4.80876 60.9375 4.55044 60.8305 4.35997 60.64C4.1695 60.4496 4.0625 60.1912 4.0625 59.9219V12.1875H60.9375V59.9219ZM60.9375 10.1562H4.0625V5.07812C4.0625 4.80876 4.1695 4.55044 4.35997 4.35997C4.55044 4.1695 4.80876 4.0625 5.07812 4.0625H59.9219C60.1912 4.0625 60.4496 4.1695 60.64 4.35997C60.8305 4.55044 60.9375 4.80876 60.9375 5.07812V10.1562Z" fill="#25282B"/>
  <path d="M6.09375 6.09375H8.125V8.125H6.09375V6.09375Z" fill="#25282B"/>
  <path d="M10.1562 6.09375H12.1875V8.125H10.1562V6.09375Z" fill="#25282B"/>
  <path d="M14.2188 6.09375H16.25V8.125H14.2188V6.09375Z" fill="black"/>
  <path d="M58.5508 50.1414C58.4563 50.0249 58.3371 49.9308 58.2019 49.8658C58.0667 49.8008 57.9188 49.7666 57.7688 49.7656H56.875V22.3438C56.875 22.0744 56.768 21.8161 56.5775 21.6256C56.3871 21.4351 56.1287 21.3281 55.8594 21.3281H30.4688V20.3125C30.4663 19.5052 30.1446 18.7316 29.5737 18.1607C29.0028 17.5898 28.2292 17.268 27.4219 17.2656H9.14063C8.33329 17.268 7.5597 17.5898 6.98882 18.1607C6.41794 18.7316 6.09616 19.5052 6.09375 20.3125V32.5C6.09699 33.1283 6.29372 33.7403 6.65717 34.2527C7.02063 34.7652 7.53315 35.1533 8.125 35.3641V49.7656H7.23125C7.08124 49.7666 6.9333 49.8008 6.79809 49.8658C6.66287 49.9308 6.54373 50.0249 6.44922 50.1414C6.35306 50.259 6.28482 50.3969 6.24963 50.5446C6.21445 50.6924 6.21324 50.8462 6.24609 50.9945L7.12969 55.057C7.17856 55.2846 7.30408 55.4884 7.48526 55.6345C7.66644 55.7805 7.89228 55.8599 8.125 55.8594H56.875C57.1077 55.8599 57.3336 55.7805 57.5147 55.6345C57.6959 55.4884 57.8214 55.2846 57.8703 55.057L58.7539 50.9945C58.7868 50.8462 58.7856 50.6924 58.7504 50.5446C58.7152 50.3969 58.6469 50.259 58.5508 50.1414ZM30.4688 32.5V23.3594H54.8438V49.7656H48.75L46.7188 48.2422V45.4391C47.5158 44.8819 48.1901 44.1672 48.7002 43.3392C49.2103 42.5112 49.5452 41.5875 49.6844 40.625H50.7813C51.3195 40.6234 51.8352 40.4089 52.2158 40.0283C52.5964 39.6477 52.8109 39.132 52.8125 38.5938V37.5781C52.8117 37.107 52.6471 36.6508 52.3469 36.2877C52.0468 35.9245 51.6297 35.677 51.1672 35.5875L52.518 34.2367C52.705 34.0431 52.8105 33.7849 52.8125 33.5156V32.5C52.8104 30.6151 52.0606 28.8081 50.7278 27.4753C49.395 26.1425 47.588 25.3928 45.7031 25.3906H39.6094C37.7245 25.3928 35.9175 26.1425 34.5847 27.4753C33.2519 28.8081 32.5022 30.6151 32.5 32.5V33.5156C32.502 33.7849 32.6075 34.0431 32.7945 34.2367L34.1453 35.5875C33.6828 35.677 33.2657 35.9245 32.9656 36.2877C32.6654 36.6508 32.5008 37.107 32.5 37.5781V38.5938C32.5016 39.132 32.7161 39.6477 33.0967 40.0283C33.4773 40.4089 33.993 40.6234 34.5313 40.625H35.6281C35.7673 41.5875 36.1022 42.5112 36.6123 43.3392C37.1224 44.1672 37.7967 44.8819 38.5938 45.4391V48.2422L36.5625 49.7656H35.5469C35.2775 49.7656 35.0192 49.8726 34.8287 50.0631C34.6383 50.2536 34.5313 50.5119 34.5313 50.7813H30.4688C30.4688 50.5119 30.3617 50.2536 30.1713 50.0631C29.9808 49.8726 29.7225 49.7656 29.4531 49.7656H10.1563V35.5469H19.8961L23.6539 39.3148C23.846 39.5043 24.1052 39.6102 24.375 39.6094C24.5082 39.6129 24.6404 39.5851 24.7609 39.5281C24.9474 39.4534 25.1072 39.3244 25.2195 39.1578C25.3318 38.9912 25.3914 38.7947 25.3906 38.5938V35.5469H27.4219C28.2292 35.5445 29.0028 35.2227 29.5737 34.6518C30.1446 34.0809 30.4663 33.3073 30.4688 32.5ZM45.0938 49.5625L45.368 49.7656H39.9445L40.2188 49.5625C40.3449 49.4679 40.4473 49.3452 40.5178 49.2042C40.5883 49.0632 40.625 48.9077 40.625 48.75V46.4242C41.9507 46.8169 43.3618 46.8169 44.6875 46.4242V48.75C44.6875 48.9077 44.7242 49.0632 44.7947 49.2042C44.8652 49.3452 44.9676 49.4679 45.0938 49.5625ZM42.6563 44.6875C41.3095 44.6875 40.0178 44.1525 39.0655 43.2002C38.1131 42.2478 37.5781 40.9562 37.5781 39.6094V34.1453L40.7469 32.5609L47.7344 34.3078V39.6094C47.7344 40.9562 47.1994 42.2478 46.247 43.2002C45.2947 44.1525 44.0031 44.6875 42.6563 44.6875ZM34.5313 33.0992V32.5C34.5313 31.1532 35.0663 29.8616 36.0186 28.9092C36.9709 27.9569 38.2626 27.4219 39.6094 27.4219H45.7031C47.0499 27.4219 48.3416 27.9569 49.2939 28.9092C50.2462 29.8616 50.7813 31.1532 50.7813 32.5V33.0992L49.7656 34.1148V33.5156C49.7655 33.2888 49.6894 33.0686 49.5495 32.89C49.4096 32.7115 49.2139 32.5849 48.9938 32.5305L40.8688 30.4992C40.6331 30.4396 40.3838 30.4686 40.168 30.5805L36.1055 32.6117C35.9371 32.695 35.7955 32.8239 35.6967 32.9837C35.598 33.1435 35.546 33.3278 35.5469 33.5156V34.1148L34.5313 33.0992ZM35.5469 37.5781V38.5938H34.5313V37.5781H35.5469ZM50.7813 37.5781V38.5938H49.7656V37.5781H50.7813ZM8.125 32.5V20.3125C8.125 20.0431 8.232 19.7848 8.42247 19.5943C8.61294 19.4039 8.87126 19.2969 9.14063 19.2969H27.4219C27.6912 19.2969 27.9496 19.4039 28.14 19.5943C28.3305 19.7848 28.4375 20.0431 28.4375 20.3125V32.5C28.4375 32.7694 28.3305 33.0277 28.14 33.2182C27.9496 33.4086 27.6912 33.5156 27.4219 33.5156H24.375C24.1056 33.5156 23.8473 33.6226 23.6568 33.8131C23.4664 34.0036 23.3594 34.2619 23.3594 34.5313V36.1461L21.0336 33.8102C20.8399 33.6231 20.5818 33.5176 20.3125 33.5156H9.14063C8.87126 33.5156 8.61294 33.4086 8.42247 33.2182C8.232 33.0277 8.125 32.7694 8.125 32.5ZM56.0625 53.8281H8.9375L8.50078 51.7969H28.4375C28.4375 52.0662 28.5445 52.3246 28.735 52.515C28.9254 52.7055 29.1838 52.8125 29.4531 52.8125H35.5469C35.8162 52.8125 36.0746 52.7055 36.265 52.515C36.4555 52.3246 36.5625 52.0662 36.5625 51.7969H56.4992L56.0625 53.8281Z" fill="#25282B"/>
  <path d="M39.6094 35.5469H41.6406V37.5781H39.6094V35.5469Z" fill="black"/>
  <path d="M43.6719 35.5469H45.7031V37.5781H43.6719V35.5469Z" fill="black"/>
  <path d="M10.1562 21.3281H12.1875V23.3594H10.1562V21.3281Z" fill="black"/>
  <path d="M14.2188 21.3281H26.4062V23.3594H14.2188V21.3281Z" fill="#25282B"/>
  <path d="M10.1562 25.3906H26.4062V27.4219H10.1562V25.3906Z" fill="#25282B"/>
  <path d="M10.1562 29.4531H26.4062V31.4844H10.1562V29.4531Z" fill="#25282B"/>
</svg>
