<svg width="48" height="48" viewBox="0 0 48 48" fill="none" xmlns="http://www.w3.org/2000/svg">
<path d="M38.1814 18.4167C41.7411 21.9725 46.3519 25.9098 45.9974 28.7333C45.6431 31.5567 40.3834 33.2895 35.9666 35.8995C31.5796 38.5211 28.0652 42.0315 23.5108 42.4132C18.9469 42.8176 13.3429 40.0933 9.05423 36.543C4.76562 32.9927 1.80189 28.5938 1.71484 24.7606C1.66699 20.9165 4.47553 17.6039 6.90388 13.9605C9.33227 10.317 11.3413 6.3537 15.0678 5.38871C18.7944 4.42372 24.179 6.43399 28.1561 9.07738C32.1129 11.6867 34.6217 14.861 38.1814 18.4167Z" fill="#E9FAF5"/>
<path fill-rule="evenodd" clip-rule="evenodd" d="M32.7935 23.8417C33.1434 23.1635 33.3266 22.417 33.3288 21.66C33.937 20.5693 34.2443 19.347 34.2216 18.1097C34.2216 16.4033 33.5326 14.6813 31.9931 14.6813C30.9124 14.6838 29.9361 15.3027 29.5078 16.2568C29.0198 16.078 28.5038 15.9801 27.9818 15.9669C26.468 15.9669 25.7512 16.5414 25.4661 17.0852C24.7116 16.8411 23.8851 16.9131 23.1884 17.2834C22.5196 15.222 20.7699 14.2527 17.7308 14.2527C13.6103 14.2527 7.47986 17.3343 7.47986 25.8237C7.47986 33.9593 13.8937 36.1089 17.2851 36.1089C20.8798 36.1089 22.5199 34.6339 23.9668 33.3325L23.9669 33.3325C25.1229 32.2927 26.1211 31.3949 27.9818 31.3949C29.1874 31.3949 29.8925 32.6592 30.5741 33.8819L30.5747 33.883L30.5747 33.883C31.2134 35.0278 31.8166 36.1089 32.8844 36.1089C33.2865 36.1089 34.2215 35.9001 34.2215 33.9662V26.1928C34.223 25.5055 33.9371 24.8465 33.428 24.3642C33.2269 24.1787 33.015 24.0043 32.7935 23.8417ZM23.5146 19.3214L23.5142 19.3029C23.5136 19.2885 23.5126 19.2749 23.5117 19.2612C23.5108 19.2493 23.51 19.2373 23.5093 19.2249C23.5036 19.1053 23.4968 18.9874 23.4876 18.8734L23.487 18.8643L23.4837 18.8149C23.4821 18.7972 23.48 18.7802 23.4778 18.7632C23.476 18.7487 23.4742 18.7343 23.4728 18.7194C23.4626 18.615 23.451 18.5121 23.4376 18.4121C23.4306 18.3602 23.4235 18.3092 23.4157 18.2585C23.4133 18.2431 23.4112 18.2273 23.4091 18.2115L23.4091 18.2115C23.4064 18.1911 23.4036 18.1706 23.4003 18.1509C24.0206 17.7252 24.8404 17.6811 25.5061 18.0378C25.6428 18.1254 25.8187 18.1336 25.9636 18.0591C26.1086 17.9845 26.199 17.8392 26.199 17.6812C26.199 17.4429 26.5193 16.8241 27.9818 16.8241C28.5308 16.8505 29.0691 16.9809 29.5656 17.2076C29.6863 17.2647 29.8273 17.2667 29.9496 17.2128C30.0719 17.159 30.1625 17.0551 30.1963 16.9299C30.212 16.873 30.5893 15.5384 31.993 15.5384C33.0507 15.5384 33.3301 17.2204 33.3301 18.1097C33.3577 19.2242 33.0759 20.3256 32.5136 21.3004C32.4648 21.3708 32.4387 21.4535 32.4387 21.5381C32.4655 22.3088 32.2597 23.0705 31.8463 23.7313C30.7556 25.365 28.4492 25.3949 28.4272 25.3951C28.2877 25.3954 28.1565 25.4585 28.0723 25.5654C27.9882 25.6724 27.9608 25.8111 27.9985 25.9402C28.0289 26.0452 28.7107 28.5044 26.1358 29.2518C24.1987 29.2366 23.3983 28.5243 23.3942 28.5205C23.285 28.4159 23.1274 28.3728 22.9774 28.4067C22.8273 28.4405 22.706 28.5465 22.6567 28.6868C22.6238 28.7799 21.8251 30.9662 19.5136 30.9662C18.8279 30.9777 18.1828 30.6547 17.7995 30.1078C17.7609 30.0597 17.7119 30.0202 17.6558 29.992C17.6412 29.9847 17.626 29.9781 17.6105 29.9724C17.5662 29.9547 17.5192 29.9442 17.4713 29.9411C17.4663 29.9408 17.4617 29.9392 17.457 29.9377C17.4518 29.936 17.4466 29.9343 17.4411 29.9343C17.4385 29.9343 17.436 29.9351 17.4336 29.9358C17.4312 29.9366 17.4288 29.9373 17.4264 29.9373C17.3681 29.9382 17.3106 29.9502 17.2572 29.9726C17.159 30.0153 17.0566 30.0483 16.9515 30.0713C16.9357 30.0748 16.9197 30.0765 16.9037 30.0781H16.9037C16.8921 30.0793 16.8804 30.0805 16.8688 30.0824C16.7934 30.096 16.7171 30.1041 16.6404 30.1065C16.6108 30.1069 16.581 30.1045 16.5513 30.102H16.5513H16.5513H16.5512C16.5388 30.1009 16.5263 30.0999 16.5138 30.0991C16.4565 30.0966 16.3994 30.091 16.3428 30.0825C16.2957 30.0742 16.2484 30.061 16.2012 30.0479L16.1826 30.0427C16.1317 30.0301 16.0817 30.0152 16.0324 29.9977C16.0206 29.9932 16.009 29.9883 15.9974 29.9833L15.985 29.978C15.8124 29.9045 15.6549 29.8017 15.5204 29.6743L15.5088 29.6632C15.2994 29.46 15.155 29.2034 15.0924 28.9238C15.0821 28.866 15.075 28.8078 15.0713 28.7492C15.0698 28.734 15.0677 28.719 15.0657 28.7041L15.0657 28.704L15.0657 28.704C15.0619 28.6768 15.0581 28.6496 15.0579 28.6215C15.057 28.522 15.0662 28.4226 15.0856 28.3249C15.0882 28.3118 15.0925 28.2993 15.0967 28.2868L15.0967 28.2868C15.1 28.277 15.1033 28.2673 15.1058 28.2573C15.1229 28.1856 15.1456 28.1154 15.1737 28.047C15.1838 28.0234 15.1962 28.0009 15.2086 27.9785C15.2146 27.9678 15.2205 27.957 15.2262 27.9461C15.2539 27.8915 15.285 27.8385 15.3195 27.7875C15.3399 27.7582 15.3627 27.7304 15.3854 27.7026L15.3922 27.6943C15.4316 27.6461 15.4741 27.6002 15.5193 27.557C15.5465 27.5311 15.5742 27.5058 15.6034 27.482C15.6551 27.4402 15.7096 27.4017 15.7664 27.3667L15.7904 27.3514C15.8107 27.3383 15.831 27.3253 15.8525 27.3137C15.9185 27.2792 15.987 27.2492 16.0575 27.2241C16.0683 27.2201 16.0788 27.2157 16.0893 27.2112L16.0893 27.2112L16.0893 27.2112L16.0894 27.2112C16.1043 27.2049 16.1192 27.1985 16.1349 27.1937C16.2312 27.1635 16.3303 27.1424 16.4309 27.1306C16.4331 27.1304 16.4352 27.1299 16.4373 27.1293C16.4394 27.1288 16.4414 27.1283 16.4436 27.1281C16.4483 27.1276 16.4524 27.1258 16.4566 27.1241C16.4602 27.1226 16.4639 27.1211 16.4678 27.1204C16.6662 27.0865 16.8152 26.9272 16.8292 26.7339C16.8337 26.7164 16.8371 26.6986 16.8393 26.6807C16.8393 26.6503 16.8371 26.6166 16.8328 26.5651L16.8348 26.5506C16.8449 26.465 16.8679 26.3814 16.9031 26.3023L16.9072 26.293C16.9446 26.2135 16.9936 26.1395 17.0525 26.073L17.0654 26.0585C17.1266 25.9927 17.1951 25.9335 17.2696 25.8821L17.2806 25.8744C17.2903 25.8677 17.3003 25.8607 17.313 25.8523C17.3952 25.7989 17.4818 25.7519 17.5719 25.7119C17.5889 25.7045 17.6094 25.6959 17.6311 25.6869C17.735 25.6437 17.8416 25.6067 17.9502 25.5761C17.972 25.5701 17.9944 25.5644 18.0169 25.5588C18.1336 25.5282 18.2574 25.5015 18.3897 25.4794L18.4368 25.4709C18.5768 25.449 18.7271 25.4329 18.8835 25.4205L18.9256 25.4175C18.9486 25.4158 18.9718 25.414 18.9965 25.4126C19.1615 25.4021 19.3319 25.395 19.5134 25.395C22.5371 25.395 23.5247 21.2517 23.5247 19.8238C23.5249 19.6504 23.5209 19.4839 23.5146 19.3214ZM33.3301 33.9662C33.3301 34.5854 33.1908 35.2518 32.8844 35.2518C32.35 35.2518 31.8463 34.3495 31.3598 33.4767L31.3595 33.4762C30.6292 32.167 29.7204 30.5377 27.9818 30.5377C25.7692 30.5377 24.5433 31.6403 23.3579 32.7066C21.9666 33.958 20.528 35.2518 17.2851 35.2518C17.1959 35.2518 8.3712 35.144 8.3712 25.8237C8.3712 17.963 13.9685 15.1099 17.7308 15.1099C21.3721 15.1099 22.1723 16.5925 22.4747 18.0433L22.4748 18.0449C22.4785 18.0626 22.4815 18.0813 22.4845 18.0999L22.4845 18.0999L22.4846 18.0999L22.4846 18.1L22.4846 18.1L22.4846 18.1C22.487 18.1149 22.4894 18.1298 22.4922 18.1442C22.5407 18.4005 22.5757 18.6591 22.5972 18.9188C22.5996 18.9477 22.6014 18.9777 22.6031 19.0077L22.6031 19.0079C22.6042 19.0269 22.6053 19.046 22.6066 19.0647L22.6102 19.1159C22.6153 19.1886 22.6205 19.2613 22.6234 19.3353C22.6295 19.4956 22.6334 19.658 22.6334 19.8239C22.6334 20.8221 21.8533 24.538 19.5136 24.538C19.3638 24.538 19.2209 24.5412 19.0847 24.5476L19.0471 24.5502C19.017 24.5517 18.9882 24.5539 18.9594 24.556H18.9594H18.9594L18.9119 24.5595C18.8352 24.564 18.7581 24.5686 18.6846 24.5755L18.6048 24.585C18.5728 24.5886 18.5419 24.5924 18.5108 24.5963L18.498 24.5979C18.4367 24.6049 18.3753 24.6122 18.317 24.6211L18.2112 24.6397L18.2114 24.6402C18.1768 24.6461 18.1425 24.6522 18.109 24.6585L18.1057 24.6591L18.1056 24.6591C18.0625 24.6668 18.0195 24.6745 17.9771 24.6837L17.8398 24.7173L17.8321 24.7194C17.8053 24.7261 17.7791 24.7329 17.753 24.74L17.7274 24.7465L17.7274 24.7465L17.7273 24.7465L17.7273 24.7465C17.7074 24.7515 17.6875 24.7565 17.669 24.7619L17.5399 24.8031L17.5247 24.8083L17.5106 24.8132C17.4873 24.8211 17.4639 24.8289 17.4413 24.837L17.4181 24.8449C17.4058 24.849 17.3936 24.8531 17.3818 24.8575L17.2753 24.9011C17.2674 24.9044 17.2596 24.9078 17.2519 24.9113L17.2316 24.9202L17.217 24.9266L17.2169 24.9266C17.1992 24.9342 17.1814 24.9419 17.1642 24.9498L17.147 24.9572C17.139 24.9607 17.1309 24.9641 17.1232 24.9678L17.0302 25.0157C17.023 25.0195 17.0161 25.0235 17.0091 25.0274C17.0028 25.031 16.9966 25.0345 16.9901 25.038L16.9747 25.0464L16.9747 25.0464C16.9553 25.0569 16.9359 25.0675 16.9174 25.0783L16.9114 25.0817L16.9041 25.0856C16.8986 25.0886 16.893 25.0916 16.8877 25.0948L16.8111 25.144C16.8049 25.148 16.7993 25.152 16.7937 25.156C16.7888 25.1595 16.784 25.1629 16.7789 25.1663L16.7759 25.1683L16.7759 25.1684C16.7515 25.1849 16.7272 25.2014 16.7042 25.2183C16.7008 25.2208 16.6971 25.2232 16.6934 25.2257C16.6887 25.2288 16.684 25.232 16.6799 25.2352L16.6141 25.2875C16.6098 25.2911 16.6058 25.2947 16.6018 25.2983C16.5983 25.3014 16.5947 25.3046 16.5909 25.3077C16.568 25.327 16.5456 25.3462 16.5242 25.3658C16.5201 25.3695 16.5158 25.3731 16.5115 25.3768L16.5115 25.3768C16.5058 25.3815 16.5001 25.3863 16.4951 25.3911L16.4442 25.4417L16.4407 25.4454L16.435 25.4517L16.4305 25.4568L16.4273 25.4604C16.4079 25.4807 16.3897 25.501 16.3717 25.5215C16.367 25.5269 16.3619 25.5323 16.3569 25.5377C16.3502 25.5448 16.3436 25.5519 16.3377 25.5589L16.2994 25.6068C16.2978 25.6089 16.2963 25.6111 16.2949 25.6133C16.2934 25.6154 16.292 25.6175 16.2904 25.6196C16.2778 25.6362 16.2664 25.6527 16.255 25.6693L16.255 25.6693L16.2549 25.6693L16.247 25.6808C16.2419 25.688 16.2366 25.6952 16.2314 25.7024L16.2313 25.7025L16.2313 25.7025C16.2216 25.7157 16.212 25.7288 16.2035 25.7422L16.1785 25.7828C16.1541 25.8233 16.1304 25.8684 16.1015 25.9276L16.0961 25.9387C16.0917 25.9479 16.0884 25.9538 16.0836 25.964C16.0683 25.9982 16.0538 26.0354 16.0388 26.0765L16.0357 26.0852L16.0308 26.099L16.0307 26.0992L16.0307 26.0992C16.0249 26.1152 16.0191 26.1313 16.0126 26.1508C16.0107 26.1569 16.0092 26.1637 16.0076 26.1704C16.0063 26.1762 16.005 26.182 16.0035 26.1872C15.9909 26.2308 15.9804 26.2729 15.972 26.3135C15.9711 26.3178 15.9701 26.3215 15.969 26.3252L15.969 26.3252C15.9685 26.3271 15.968 26.329 15.9675 26.331C15.9668 26.3335 15.9662 26.3362 15.9656 26.3392L15.9642 26.3465C15.8301 26.3821 15.6996 26.4287 15.5738 26.4856L15.569 26.488L15.5644 26.4907C15.5617 26.4923 15.5589 26.4939 15.5559 26.4953C15.4397 26.5485 15.328 26.6104 15.2219 26.6805C15.206 26.6911 15.1913 26.703 15.1766 26.715L15.1765 26.715L15.1765 26.715L15.1765 26.715C15.1653 26.7241 15.1541 26.7332 15.1424 26.7416C15.0616 26.7984 14.9844 26.8599 14.9114 26.9258C14.8885 26.947 14.8677 26.9701 14.8468 26.9932C14.835 27.0063 14.8232 27.0194 14.811 27.0321C14.7528 27.0911 14.6978 27.1529 14.6463 27.2173C14.6421 27.2226 14.6375 27.2275 14.6329 27.2323L14.6328 27.2323C14.6278 27.2375 14.6228 27.2427 14.6185 27.2485C14.5624 27.3246 14.511 27.4037 14.4647 27.4856C14.4611 27.4919 14.4579 27.4984 14.4546 27.5049L14.45 27.514L14.4462 27.5213C14.3939 27.6167 14.3486 27.7155 14.3107 27.817L14.3042 27.8334C14.301 27.8415 14.2978 27.8496 14.2949 27.8579C14.2555 27.9692 14.2251 28.0833 14.2039 28.1991C14.2022 28.2083 14.2009 28.2176 14.1996 28.2269L14.1968 28.2459C14.1781 28.3596 14.1681 28.4745 14.1668 28.5897C14.1668 28.593 14.1664 28.5963 14.166 28.5995C14.1656 28.6027 14.1652 28.606 14.1652 28.6093L14.1656 28.6188C14.1658 28.6502 14.168 28.6818 14.1702 28.7134L14.1724 28.7473L14.1743 28.7824C14.1757 28.8099 14.1771 28.8374 14.1801 28.8645C14.1849 28.907 14.1925 28.9496 14.2001 28.9923L14.2001 28.9923L14.2001 28.9923L14.2001 28.9923L14.2044 29.0167C14.2062 29.0266 14.2077 29.0365 14.2093 29.0464L14.2093 29.0464C14.2118 29.0622 14.2143 29.0781 14.2177 29.0937C14.219 29.1001 14.22 29.1065 14.221 29.1129C14.2221 29.1206 14.2233 29.1282 14.225 29.1358C14.2311 29.1627 14.2396 29.1888 14.2481 29.2149C14.2531 29.2301 14.258 29.2454 14.2625 29.2608L14.2694 29.2845L14.2694 29.2845L14.2695 29.2846C14.2737 29.2993 14.278 29.314 14.2828 29.3285C14.3045 29.3947 14.3293 29.4593 14.357 29.5229L14.3603 29.5302C14.4823 29.8073 14.6591 30.0591 14.8806 30.2716L14.8879 30.2786C14.9423 30.3305 14.9984 30.3802 15.0577 30.4271L15.0602 30.4289C15.1638 30.5102 15.2742 30.5832 15.3903 30.647C15.3987 30.6518 15.4071 30.6567 15.4155 30.6616C15.4293 30.6698 15.4431 30.6779 15.4574 30.6853C15.4892 30.7016 15.5219 30.7161 15.5547 30.7307L15.5547 30.7307L15.5728 30.7388C15.6262 30.7631 15.6805 30.7857 15.736 30.8064C15.7428 30.8089 15.7493 30.8118 15.7559 30.8147C15.7633 30.818 15.7707 30.8213 15.7786 30.824C15.7835 30.8257 15.7885 30.8268 15.7935 30.828C15.7983 30.8291 15.8031 30.8302 15.8078 30.8317C15.9208 30.8704 16.0365 30.9008 16.1542 30.9229C16.1574 30.9235 16.1605 30.9239 16.1637 30.9244L16.1637 30.9244L16.1638 30.9244L16.172 30.9255C16.2794 30.9442 16.388 30.9559 16.4971 30.9606L16.5209 30.9619C16.5366 30.9628 16.5524 30.9637 16.5682 30.964L16.5796 30.9645L16.5905 30.9652C16.5991 30.9658 16.6078 30.9664 16.6166 30.9664C16.6662 30.9664 16.7153 30.9618 16.7645 30.9572H16.7645H16.7645H16.7645H16.7645C16.7821 30.9555 16.7997 30.9539 16.8173 30.9525C16.833 30.9512 16.8487 30.9504 16.8645 30.9497C16.8895 30.9485 16.9146 30.9473 16.9395 30.944C17.0604 30.9286 17.18 30.9042 17.2971 30.8714C17.7771 31.4079 18.4552 31.7439 19.1881 31.8085C19.2944 31.8185 19.4029 31.8235 19.5136 31.8235C21.1289 31.7886 22.5848 30.8789 23.2741 29.4738C24.1759 29.9244 25.1834 30.1432 26.199 30.1093C26.2404 30.1093 26.2817 30.1037 26.3215 30.0928C28.77 29.4202 29.1422 27.4809 28.9646 26.2132C29.0572 26.2019 29.161 26.1864 29.2709 26.1676L29.3078 26.1615C29.4146 26.1425 29.5289 26.1188 29.6478 26.0911L29.6676 26.0865L29.7048 26.0778C29.8239 26.0489 29.9476 26.0148 30.0749 25.9756L30.1023 25.967L30.1379 25.9557C30.2673 25.9142 30.399 25.8672 30.5328 25.8133C30.5449 25.8084 30.5569 25.8033 30.5689 25.7981L30.5899 25.7892C30.7282 25.7317 30.8674 25.6683 31.0064 25.5955L31.0143 25.5912L31.0207 25.5877C31.0268 25.5842 31.0328 25.5807 31.039 25.5774C31.1848 25.5001 31.3262 25.4154 31.4627 25.3236L31.4762 25.315C31.6163 25.2189 31.7504 25.1149 31.8779 25.0037C31.8848 24.9976 31.8919 24.9917 31.899 24.9858C31.908 24.9783 31.917 24.9708 31.9258 24.9629C32.0524 24.8491 32.1715 24.7278 32.2824 24.5997C32.2878 24.5936 32.2934 24.5882 32.2991 24.5827C32.3051 24.577 32.3112 24.5713 32.3168 24.5647C32.4874 24.6951 32.6506 24.8331 32.8064 24.9789C33.1436 25.2995 33.3323 25.737 33.33 26.1929V33.9662H33.3301ZM19.6441 23.5554C19.7276 23.6359 19.841 23.6811 19.9592 23.6809C20.1395 23.6809 20.302 23.5765 20.3709 23.4164C20.4399 23.2563 20.4018 23.0719 20.2743 22.9494L20.274 22.9491C19.8524 22.5435 19.0678 21.7888 19.0678 19.824C19.0393 18.7984 19.4804 17.8125 20.2743 17.1271C20.4457 16.9593 20.4444 16.6901 20.2715 16.5239C20.0986 16.3576 19.8186 16.3564 19.6441 16.5212C18.6803 17.3656 18.1449 18.5706 18.1765 19.824C18.1765 22.1442 19.1678 23.0974 19.6441 23.5554ZM18.6287 27.8969C18.6686 27.664 18.8969 27.506 19.1393 27.5436C20.4998 27.7426 21.8065 26.953 22.2104 25.6881C22.2713 25.5135 22.4411 25.3957 22.6326 25.3951C22.7782 25.3947 26.1988 25.3562 26.1988 22.8238C26.1988 22.5871 26.3983 22.3953 26.6445 22.3953C26.8906 22.3953 27.0902 22.5871 27.0902 22.8238C27.0902 25.3614 24.5377 26.1518 22.9464 26.243C22.3944 27.5877 21.0302 28.4598 19.5271 28.4289C19.3486 28.4296 19.1705 28.4163 18.9943 28.3891C18.7522 28.35 18.5887 28.1298 18.6287 27.8969ZM28.4746 23.0155C28.5847 23.2272 28.8524 23.313 29.0726 23.2072C29.1522 23.169 30.9472 22.2851 31.0926 20.485C31.6957 20.0094 32.0296 19.2876 31.9931 18.5383C31.9931 18.3016 31.7936 18.1098 31.5475 18.1098C31.3013 18.1098 31.1018 18.3016 31.1018 18.5383C31.152 19.0613 30.9055 19.5698 30.4568 19.8692C30.3057 19.9418 30.2104 20.0902 30.2104 20.2525C30.2104 21.6684 28.7 22.4277 28.6731 22.4409C28.4535 22.5472 28.3648 22.8041 28.4746 23.0155ZM27.331 20.2387C26.7514 21.0048 25.8458 21.4815 24.8622 21.5382C24.6161 21.5389 24.416 21.3476 24.4153 21.1109C24.4146 20.8742 24.6135 20.6818 24.8597 20.6811C25.6248 20.6193 26.3146 20.2134 26.7199 19.5863C26.8025 19.467 26.9417 19.3954 27.0908 19.3954C27.0999 19.3954 28.1645 19.372 28.4748 18.7752C28.5853 18.5641 28.8525 18.4788 29.0724 18.5844C29.2922 18.6901 29.3816 18.9469 29.2722 19.1586C28.8357 19.9978 27.8026 20.1933 27.331 20.2387Z" fill="#676F8F"/>
<path d="M33.3288 21.66L33.2852 21.6356L33.2789 21.6469L33.2788 21.6598L33.3288 21.66ZM32.7935 23.8417L32.7491 23.8188L32.7295 23.8567L32.7639 23.882L32.7935 23.8417ZM34.2216 18.1097H34.1715L34.1716 18.1106L34.2216 18.1097ZM31.9931 14.6813V14.6313L31.993 14.6313L31.9931 14.6813ZM29.5078 16.2568L29.4906 16.3037L29.5344 16.3198L29.5534 16.2773L29.5078 16.2568ZM27.9818 15.9669L27.9831 15.9169H27.9818V15.9669ZM25.4661 17.0852L25.4507 17.1328L25.4908 17.1458L25.5104 17.1084L25.4661 17.0852ZM23.1884 17.2834L23.1409 17.2989L23.1593 17.3556L23.2119 17.3276L23.1884 17.2834ZM23.9668 33.3325L23.9336 33.2952L23.9334 33.2954L23.9668 33.3325ZM23.9669 33.3325L24.0001 33.3699L24.0003 33.3697L23.9669 33.3325ZM30.5741 33.8819L30.6178 33.8576L30.6178 33.8575L30.5741 33.8819ZM30.5747 33.883L30.6195 33.8606L30.6184 33.8587L30.5747 33.883ZM30.5747 33.883L30.53 33.9054L30.5311 33.9074L30.5747 33.883ZM34.2215 26.1928L34.1715 26.1927V26.1928H34.2215ZM33.428 24.3642L33.4624 24.3279L33.4619 24.3274L33.428 24.3642ZM23.5142 19.3029L23.5642 19.3019L23.5642 19.3008L23.5142 19.3029ZM23.5146 19.3214L23.4646 19.3223L23.4646 19.3233L23.5146 19.3214ZM23.5117 19.2612L23.5615 19.2577V19.2577L23.5117 19.2612ZM23.5093 19.2249L23.4594 19.2272L23.4594 19.2273L23.5093 19.2249ZM23.4876 18.8734L23.4376 18.8766L23.4377 18.8774L23.4876 18.8734ZM23.487 18.8643L23.5369 18.8611L23.5369 18.861L23.487 18.8643ZM23.4837 18.8149L23.5336 18.8116L23.5335 18.8106L23.4837 18.8149ZM23.4778 18.7632L23.5275 18.7569V18.7569L23.4778 18.7632ZM23.4728 18.7194L23.5225 18.7145V18.7145L23.4728 18.7194ZM23.4376 18.4121L23.4871 18.4054V18.4054L23.4376 18.4121ZM23.4157 18.2585L23.4651 18.251L23.4651 18.2509L23.4157 18.2585ZM23.4091 18.2115L23.3593 18.2164L23.3595 18.2182L23.4091 18.2115ZM23.4091 18.2115L23.4589 18.2066L23.4587 18.2048L23.4091 18.2115ZM23.4003 18.1509L23.372 18.1097L23.3458 18.1278L23.351 18.1592L23.4003 18.1509ZM25.5061 18.0378L25.5332 17.9955L25.5297 17.9937L25.5061 18.0378ZM25.9636 18.0591L25.9865 18.1035V18.1035L25.9636 18.0591ZM27.9818 16.8241L27.9842 16.7741H27.9818V16.8241ZM29.5656 17.2076L29.587 17.1624L29.5864 17.1621L29.5656 17.2076ZM29.9496 17.2128L29.9697 17.2586L29.9698 17.2586L29.9496 17.2128ZM30.1963 16.9299L30.1481 16.9167L30.148 16.9169L30.1963 16.9299ZM33.3301 18.1097H33.2801L33.2801 18.111L33.3301 18.1097ZM32.5136 21.3004L32.5548 21.329L32.5569 21.3254L32.5136 21.3004ZM32.4387 21.5381L32.3887 21.5381L32.3887 21.5399L32.4387 21.5381ZM31.8463 23.7313L31.8879 23.7591L31.8887 23.7578L31.8463 23.7313ZM28.4272 25.3951L28.4273 25.4451L28.4277 25.4451L28.4272 25.3951ZM28.0723 25.5654L28.1116 25.5964L28.0723 25.5654ZM27.9985 25.9402L28.0465 25.9263L28.0465 25.9262L27.9985 25.9402ZM26.1358 29.2518L26.1354 29.3018L26.1427 29.3019L26.1497 29.2999L26.1358 29.2518ZM23.3942 28.5205L23.3596 28.5566L23.3603 28.5573L23.3942 28.5205ZM22.9774 28.4067L22.9664 28.3579L22.9664 28.3579L22.9774 28.4067ZM22.6567 28.6868L22.7038 28.7035L22.7039 28.7034L22.6567 28.6868ZM19.5136 30.9662V30.9162L19.5127 30.9162L19.5136 30.9662ZM17.7995 30.1078L17.8406 30.0791L17.8385 30.0766L17.7995 30.1078ZM17.6558 29.992L17.6334 30.0367L17.6334 30.0367L17.6558 29.992ZM17.6105 29.9724L17.5919 30.0189L17.5933 30.0194L17.6105 29.9724ZM17.4713 29.9411L17.468 29.991L17.468 29.991L17.4713 29.9411ZM17.457 29.9377L17.4726 29.8902H17.4726L17.457 29.9377ZM17.4336 29.9358L17.4189 29.888L17.4189 29.888L17.4336 29.9358ZM17.4264 29.9373L17.4272 29.9873L17.4277 29.9873L17.4264 29.9373ZM17.2572 29.9726L17.2378 29.9265L17.2372 29.9268L17.2572 29.9726ZM16.9515 30.0713L16.9408 30.0225L16.9407 30.0225L16.9515 30.0713ZM16.9037 30.0781V30.1284L16.9088 30.1278L16.9037 30.0781ZM16.9037 30.0781V30.0278L16.8986 30.0284L16.9037 30.0781ZM16.8688 30.0824L16.8607 30.0331L16.8599 30.0332L16.8688 30.0824ZM16.6404 30.1065L16.6411 30.1565L16.6419 30.1565L16.6404 30.1065ZM16.5513 30.102L16.5554 30.052H16.5513V30.102ZM16.5512 30.102L16.5471 30.152H16.5512V30.102ZM16.5138 30.0991L16.5171 30.0492L16.516 30.0491L16.5138 30.0991ZM16.3428 30.0825L16.3341 30.1317L16.3353 30.1319L16.3428 30.0825ZM16.2012 30.0479L16.2146 29.9997L16.2146 29.9997L16.2012 30.0479ZM16.1826 30.0427L16.196 29.9945L16.1945 29.9941L16.1826 30.0427ZM16.0324 29.9977L16.0147 30.0445L16.0157 30.0449L16.0324 29.9977ZM15.9974 29.9833L16.0172 29.9373L16.0171 29.9373L15.9974 29.9833ZM15.985 29.978L16.0047 29.932L16.0046 29.932L15.985 29.978ZM15.5204 29.6743L15.4857 29.7103L15.486 29.7106L15.5204 29.6743ZM15.5088 29.6632L15.474 29.6991L15.4742 29.6992L15.5088 29.6632ZM15.0924 28.9238L15.0432 28.9327L15.0436 28.9347L15.0924 28.9238ZM15.0713 28.7492L15.1212 28.746L15.1211 28.7443L15.0713 28.7492ZM15.0657 28.7041L15.1152 28.6972L15.1152 28.697L15.0657 28.7041ZM15.0657 28.704L15.016 28.7102L15.0162 28.7111L15.0657 28.704ZM15.0657 28.704L15.1153 28.6978L15.1152 28.6972L15.0657 28.704ZM15.0579 28.6215L15.1079 28.6211L15.1079 28.621L15.0579 28.6215ZM15.0856 28.3249L15.0366 28.315L15.0365 28.3152L15.0856 28.3249ZM15.0967 28.2868L15.0498 28.2692L15.0493 28.2708L15.0967 28.2868ZM15.0967 28.2868L15.1435 28.3043L15.1441 28.3027L15.0967 28.2868ZM15.1058 28.2573L15.1543 28.2696L15.1544 28.2689L15.1058 28.2573ZM15.1737 28.047L15.1277 28.0274L15.1275 28.028L15.1737 28.047ZM15.2086 27.9785L15.2524 28.0027L15.2524 28.0027L15.2086 27.9785ZM15.2262 27.9461L15.2705 27.9693L15.2708 27.9687L15.2262 27.9461ZM15.3195 27.7875L15.2784 27.759L15.2781 27.7595L15.3195 27.7875ZM15.3854 27.7026L15.4241 27.7343L15.4241 27.7343L15.3854 27.7026ZM15.3922 27.6943L15.4309 27.726L15.431 27.726L15.3922 27.6943ZM15.5193 27.557L15.4849 27.5207L15.4848 27.5208L15.5193 27.557ZM15.6034 27.482L15.5719 27.4431L15.5717 27.4433L15.6034 27.482ZM15.7664 27.3667L15.7926 27.4093L15.7932 27.4089L15.7664 27.3667ZM15.7904 27.3514L15.8173 27.3935L15.8174 27.3934L15.7904 27.3514ZM15.8525 27.3137L15.8293 27.2694L15.8288 27.2697L15.8525 27.3137ZM16.0575 27.2241L16.0743 27.2712L16.0747 27.271L16.0575 27.2241ZM16.0893 27.2112L16.0707 27.1648L16.0698 27.1652L16.0893 27.2112ZM16.0893 27.2112L16.1079 27.2577L16.11 27.2567L16.0893 27.2112ZM16.0894 27.2112L16.0699 27.1651L16.0687 27.1657L16.0894 27.2112ZM16.1349 27.1937L16.1497 27.2414L16.1498 27.2414L16.1349 27.1937ZM16.4309 27.1306L16.4367 27.1803L16.4368 27.1803L16.4309 27.1306ZM16.4373 27.1293L16.4492 27.1779L16.4493 27.1779L16.4373 27.1293ZM16.4436 27.1281L16.4382 27.0783L16.4378 27.0784L16.4436 27.1281ZM16.4566 27.1241L16.4756 27.1704L16.4756 27.1704L16.4566 27.1241ZM16.4678 27.1204L16.4594 27.0711L16.4591 27.0712L16.4678 27.1204ZM16.8292 26.7339L16.78 26.7211L16.7793 26.7303L16.8292 26.7339ZM16.8393 26.6807L16.8893 26.6868V26.6807H16.8393ZM16.8328 26.5651L16.782 26.5581L16.783 26.5693L16.8328 26.5651ZM16.8348 26.5506L16.8843 26.5574L16.8844 26.5564L16.8348 26.5506ZM16.9031 26.3023L16.9488 26.3227L16.9491 26.3221L16.9031 26.3023ZM16.9072 26.293L16.8619 26.2717L16.8613 26.2732L16.9072 26.293ZM17.0525 26.073L17.0151 26.0398L17.015 26.0399L17.0525 26.073ZM17.0654 26.0585L17.0288 26.0245L17.028 26.0253L17.0654 26.0585ZM17.2696 25.8821L17.298 25.9232L17.2981 25.9231L17.2696 25.8821ZM17.2806 25.8744L17.3092 25.9155L17.3092 25.9154L17.2806 25.8744ZM17.313 25.8523L17.2857 25.8104L17.2854 25.8106L17.313 25.8523ZM17.5719 25.7119L17.552 25.666L17.5516 25.6662L17.5719 25.7119ZM17.6311 25.6869L17.6119 25.6407L17.6118 25.6407L17.6311 25.6869ZM17.9502 25.5761L17.937 25.5278L17.9366 25.5279L17.9502 25.5761ZM18.0169 25.5588L18.029 25.6073L18.0296 25.6072L18.0169 25.5588ZM18.3897 25.4794L18.3979 25.5287L18.3985 25.5286L18.3897 25.4794ZM18.4368 25.4709L18.429 25.4215L18.4279 25.4217L18.4368 25.4709ZM18.8835 25.4205L18.8799 25.3706L18.8796 25.3707L18.8835 25.4205ZM18.9256 25.4175L18.9292 25.4673L18.9293 25.4673L18.9256 25.4175ZM18.9965 25.4126L18.9995 25.4625L18.9997 25.4625L18.9965 25.4126ZM23.5247 19.8238L23.4747 19.8238V19.8238H23.5247ZM33.3301 33.9662H33.3801V33.9162H33.3301V33.9662ZM31.3598 33.4767L31.4034 33.4524L31.4034 33.4523L31.3598 33.4767ZM31.3595 33.4762L31.3158 33.5006L31.3159 33.5007L31.3595 33.4762ZM23.3579 32.7066L23.3914 32.7438L23.3914 32.7438L23.3579 32.7066ZM22.4747 18.0433L22.5251 18.0405L22.5236 18.0331L22.4747 18.0433ZM22.4748 18.0449L22.4243 18.0477L22.4258 18.0551L22.4748 18.0449ZM22.4845 18.0999L22.4352 18.108L22.4355 18.1097L22.4845 18.0999ZM22.4845 18.0999L22.5339 18.0917L22.5336 18.0901L22.4845 18.0999ZM22.4846 18.0999L22.5341 18.0929L22.5339 18.0917L22.4846 18.0999ZM22.4846 18.1L22.4351 18.107L22.4351 18.1076L22.4846 18.1ZM22.4846 18.1L22.4351 18.1076L22.4352 18.108L22.4846 18.1ZM22.4922 18.1442L22.5413 18.1349L22.5413 18.1348L22.4922 18.1442ZM22.5972 18.9188L22.5474 18.9229L22.5474 18.923L22.5972 18.9188ZM22.6031 19.0077L22.653 19.0052L22.653 19.0048L22.6031 19.0077ZM22.6031 19.0079L22.5532 19.0104L22.5532 19.0108L22.6031 19.0079ZM22.6066 19.0647L22.5567 19.0681L22.5567 19.0682L22.6066 19.0647ZM22.6102 19.1159L22.5603 19.1194L22.5603 19.1195L22.6102 19.1159ZM22.6234 19.3353L22.6734 19.3334L22.6734 19.3333L22.6234 19.3353ZM19.0847 24.5476L19.0823 24.4977L19.0812 24.4977L19.0847 24.5476ZM19.0471 24.5502L19.0496 24.6001L19.0505 24.6001L19.0471 24.5502ZM18.9594 24.556V24.6062L18.9632 24.6059L18.9594 24.556ZM18.9594 24.556V24.5059L18.9558 24.5062L18.9594 24.556ZM18.9119 24.5595L18.9149 24.6094L18.9155 24.6093L18.9119 24.5595ZM18.6846 24.5755L18.68 24.5257L18.6787 24.5258L18.6846 24.5755ZM18.6048 24.585L18.6103 24.6348L18.6107 24.6347L18.6048 24.585ZM18.5108 24.5963L18.517 24.6459L18.517 24.6459L18.5108 24.5963ZM18.498 24.5979L18.5037 24.6476L18.5042 24.6475L18.498 24.5979ZM18.317 24.6211L18.3094 24.5717L18.3083 24.5718L18.317 24.6211ZM18.2112 24.6397L18.2026 24.5904L18.1481 24.6L18.1631 24.6532L18.2112 24.6397ZM18.2114 24.6402L18.2199 24.6894L18.2745 24.68L18.2595 24.6266L18.2114 24.6402ZM18.109 24.6585L18.1178 24.7078L18.1184 24.7077L18.109 24.6585ZM18.1057 24.6591L18.1144 24.7084L18.1145 24.7084L18.1057 24.6591ZM18.1056 24.6591L18.0969 24.6099L18.0968 24.6099L18.1056 24.6591ZM17.9771 24.6837L17.9665 24.6348L17.9652 24.6351L17.9771 24.6837ZM17.8398 24.7173L17.8279 24.6688L17.8271 24.669L17.8398 24.7173ZM17.8321 24.7194L17.8443 24.7679L17.8447 24.7677L17.8321 24.7194ZM17.753 24.74L17.7653 24.7884L17.7661 24.7882L17.753 24.74ZM17.7274 24.7465L17.7372 24.7956L17.7397 24.795L17.7274 24.7465ZM17.7273 24.7465L17.7175 24.6974L17.7151 24.698L17.7273 24.7465ZM17.669 24.7619L17.6551 24.7138L17.6538 24.7142L17.669 24.7619ZM17.5399 24.8031L17.5247 24.7555L17.5237 24.7558L17.5399 24.8031ZM17.5247 24.8083L17.5085 24.7611L17.5084 24.7611L17.5247 24.8083ZM17.5106 24.8132L17.5265 24.8606L17.5269 24.8605L17.5106 24.8132ZM17.4413 24.837L17.4574 24.8843L17.458 24.8841L17.4413 24.837ZM17.4181 24.8449L17.434 24.8923L17.4342 24.8922L17.4181 24.8449ZM17.3818 24.8575L17.3641 24.8107L17.3628 24.8113L17.3818 24.8575ZM17.2753 24.9011L17.2564 24.8548L17.256 24.8549L17.2753 24.9011ZM17.2519 24.9113L17.272 24.9571L17.2723 24.957L17.2519 24.9113ZM17.2316 24.9202L17.2514 24.9661L17.2517 24.966L17.2316 24.9202ZM17.217 24.9266L17.2367 24.9725L17.2368 24.9725L17.217 24.9266ZM17.2169 24.9266L17.1972 24.8806L17.1971 24.8807L17.2169 24.9266ZM17.1642 24.9498L17.1842 24.9956L17.1851 24.9952L17.1642 24.9498ZM17.147 24.9572L17.1666 25.0032L17.167 25.0031L17.147 24.9572ZM17.1232 24.9678L17.1017 24.9226L17.1002 24.9234L17.1232 24.9678ZM17.0302 25.0157L17.0073 24.9713L17.0068 24.9715L17.0302 25.0157ZM17.0091 25.0274L16.9845 24.9839L16.9845 24.9839L17.0091 25.0274ZM16.9901 25.038L16.9665 24.9939L16.9662 24.9941L16.9901 25.038ZM16.9747 25.0464L16.9984 25.0904L16.9987 25.0902L16.9747 25.0464ZM16.9747 25.0464L16.951 25.0023L16.9508 25.0025L16.9747 25.0464ZM16.9174 25.0783L16.9419 25.1219L16.9426 25.1215L16.9174 25.0783ZM16.9114 25.0817L16.9352 25.1256L16.9359 25.1253L16.9114 25.0817ZM16.9041 25.0856L16.9278 25.1297L16.9279 25.1296L16.9041 25.0856ZM16.8877 25.0948L16.8619 25.0519L16.8607 25.0527L16.8877 25.0948ZM16.8111 25.144L16.784 25.1019L16.7839 25.102L16.8111 25.144ZM16.7937 25.156L16.8227 25.1967L16.8227 25.1967L16.7937 25.156ZM16.7789 25.1663L16.7512 25.1247L16.7508 25.1249L16.7789 25.1663ZM16.7759 25.1683L16.8033 25.2102L16.804 25.2097L16.7759 25.1683ZM16.7759 25.1684L16.7486 25.1265L16.7478 25.127L16.7759 25.1684ZM16.7042 25.2183L16.7337 25.2587L16.7339 25.2585L16.7042 25.2183ZM16.6934 25.2257L16.7213 25.2672L16.7213 25.2672L16.6934 25.2257ZM16.6799 25.2352L16.6494 25.1956L16.6488 25.1961L16.6799 25.2352ZM16.6141 25.2875L16.583 25.2484L16.5827 25.2487L16.6141 25.2875ZM16.6018 25.2983L16.6352 25.3354L16.6352 25.3354L16.6018 25.2983ZM16.5909 25.3077L16.559 25.2693L16.5587 25.2695L16.5909 25.3077ZM16.5242 25.3658L16.5576 25.403L16.5579 25.4027L16.5242 25.3658ZM16.5115 25.3768L16.5427 25.4158L16.5437 25.415L16.5115 25.3768ZM16.5115 25.3768L16.4802 25.3377L16.4792 25.3386L16.5115 25.3768ZM16.4951 25.3911L16.4607 25.3548L16.4599 25.3556L16.4951 25.3911ZM16.4442 25.4417L16.4089 25.4062L16.4079 25.4073L16.4442 25.4417ZM16.4407 25.4454L16.4044 25.411L16.4033 25.4122L16.4407 25.4454ZM16.435 25.4517L16.3977 25.4185L16.3976 25.4186L16.435 25.4517ZM16.4305 25.4568L16.4672 25.4908L16.468 25.4899L16.4305 25.4568ZM16.4273 25.4604L16.4635 25.4948L16.464 25.4943L16.4273 25.4604ZM16.3717 25.5215L16.4093 25.5545L16.4093 25.5544L16.3717 25.5215ZM16.3569 25.5377L16.3934 25.5718L16.3934 25.5718L16.3569 25.5377ZM16.3377 25.5589L16.2994 25.5268L16.2987 25.5277L16.3377 25.5589ZM16.2994 25.6068L16.2604 25.5756L16.26 25.5761L16.2994 25.6068ZM16.2949 25.6133L16.2533 25.5854L16.2533 25.5854L16.2949 25.6133ZM16.2904 25.6196L16.2509 25.589L16.2506 25.5894L16.2904 25.6196ZM16.255 25.6693L16.2138 25.6409L16.2134 25.6416L16.255 25.6693ZM16.255 25.6693L16.2941 25.7007L16.2966 25.6971L16.255 25.6693ZM16.2549 25.6693L16.2158 25.638L16.2138 25.6409L16.2549 25.6693ZM16.247 25.6808L16.2879 25.7096L16.2882 25.7092L16.247 25.6808ZM16.2314 25.7024L16.1911 25.6728L16.1909 25.673L16.2314 25.7024ZM16.2313 25.7025L16.2716 25.7321L16.2717 25.732L16.2313 25.7025ZM16.2035 25.7422L16.1613 25.7153L16.1609 25.716L16.2035 25.7422ZM16.1785 25.7828L16.1359 25.7565L16.1356 25.757L16.1785 25.7828ZM16.1015 25.9276L16.1464 25.9497L16.1465 25.9495L16.1015 25.9276ZM16.0961 25.9387L16.0512 25.9166L16.051 25.917L16.0961 25.9387ZM16.0836 25.964L16.0384 25.9426L16.0379 25.9436L16.0836 25.964ZM16.0388 26.0765L15.9918 26.0594L15.9917 26.0598L16.0388 26.0765ZM16.0357 26.0852L16.0828 26.1022L16.0829 26.1019L16.0357 26.0852ZM16.0308 26.099L16.0778 26.116L16.0778 26.116L16.0308 26.099ZM16.0307 26.0992L16.0777 26.1162L16.0777 26.1162L16.0307 26.0992ZM16.0307 26.0992L15.9837 26.0822L15.9837 26.0822L16.0307 26.0992ZM16.0126 26.1508L15.9651 26.135L15.9648 26.136L16.0126 26.1508ZM16.0076 26.1704L15.9589 26.1594V26.1594L16.0076 26.1704ZM16.0035 26.1872L16.0516 26.2011L16.0516 26.201L16.0035 26.1872ZM15.972 26.3135L16.0209 26.324L16.021 26.3236L15.972 26.3135ZM15.969 26.3252L16.0165 26.341L16.0172 26.3385L15.969 26.3252ZM15.969 26.3252L15.9215 26.3094L15.9208 26.3119L15.969 26.3252ZM15.9675 26.331L15.9191 26.3185L15.9191 26.3185L15.9675 26.331ZM15.9656 26.3392L16.0146 26.3489L16.0147 26.3488L15.9656 26.3392ZM15.9642 26.3465L15.977 26.3948L16.0072 26.3868L16.0132 26.3561L15.9642 26.3465ZM15.5738 26.4856L15.5531 26.44L15.5513 26.441L15.5738 26.4856ZM15.569 26.488L15.5464 26.4433L15.544 26.4447L15.569 26.488ZM15.5644 26.4907L15.5394 26.4474L15.5391 26.4476L15.5644 26.4907ZM15.5559 26.4953L15.5767 26.5408L15.5771 26.5406L15.5559 26.4953ZM15.2219 26.6805L15.1943 26.6388L15.1943 26.6389L15.2219 26.6805ZM15.1766 26.715L15.207 26.7546L15.2081 26.7538L15.1766 26.715ZM15.1765 26.715L15.146 26.6754L15.145 26.6762L15.1765 26.715ZM15.1424 26.7416L15.1712 26.7825L15.1717 26.7821L15.1424 26.7416ZM14.9114 26.9258L14.8779 26.8887L14.8774 26.8891L14.9114 26.9258ZM14.8468 26.9932L14.8097 26.9597L14.8097 26.9597L14.8468 26.9932ZM14.811 27.0321L14.8466 27.0673L14.8471 27.0667L14.811 27.0321ZM14.6463 27.2173L14.6072 27.1861L14.6068 27.1866L14.6463 27.2173ZM14.6329 27.2323L14.6682 27.2677L14.6689 27.267L14.6329 27.2323ZM14.6328 27.2323L14.5975 27.1969L14.5968 27.1976L14.6328 27.2323ZM14.6185 27.2485L14.5784 27.2185L14.5782 27.2189L14.6185 27.2485ZM14.4647 27.4856L14.5081 27.5105L14.5082 27.5102L14.4647 27.4856ZM14.4546 27.5049L14.4993 27.5274L14.4994 27.5272L14.4546 27.5049ZM14.45 27.514L14.4942 27.5375L14.4946 27.5365L14.45 27.514ZM14.4462 27.5213L14.49 27.5453L14.4903 27.5447L14.4462 27.5213ZM14.3107 27.817L14.3572 27.8353L14.3575 27.8345L14.3107 27.817ZM14.3042 27.8334L14.3507 27.852L14.3508 27.8517L14.3042 27.8334ZM14.2949 27.8579L14.342 27.8745L14.3421 27.8744L14.2949 27.8579ZM14.2039 28.1991L14.2531 28.2082L14.2531 28.2081L14.2039 28.1991ZM14.1996 28.2269L14.2491 28.2342L14.2491 28.2339L14.1996 28.2269ZM14.1968 28.2459L14.2462 28.254L14.2463 28.2531L14.1968 28.2459ZM14.1668 28.5897L14.1168 28.5891V28.5897H14.1668ZM14.166 28.5995L14.1164 28.5932L14.1164 28.5932L14.166 28.5995ZM14.1652 28.6093H14.1151L14.1152 28.6117L14.1652 28.6093ZM14.1656 28.6188L14.2157 28.6185L14.2156 28.6164L14.1656 28.6188ZM14.1702 28.7134L14.2201 28.7101L14.2201 28.71L14.1702 28.7134ZM14.1724 28.7473L14.2224 28.7446L14.2223 28.744L14.1724 28.7473ZM14.1743 28.7824L14.2243 28.7799L14.2243 28.7797L14.1743 28.7824ZM14.1801 28.8645L14.2298 28.8589L14.2298 28.8589L14.1801 28.8645ZM14.2001 28.9923L14.2497 28.9861L14.2493 28.9835L14.2001 28.9923ZM14.2001 28.9923L14.1504 28.9985L14.1508 29.001L14.2001 28.9923ZM14.2044 29.0167L14.1552 29.0254L14.1552 29.0257L14.2044 29.0167ZM14.2093 29.0464L14.2587 29.0386L14.2587 29.0386L14.2093 29.0464ZM14.2093 29.0464L14.1599 29.0541L14.1599 29.0542L14.2093 29.0464ZM14.2177 29.0937L14.2667 29.0836L14.2666 29.083L14.2177 29.0937ZM14.221 29.1129L14.1716 29.1204V29.1204L14.221 29.1129ZM14.225 29.1358L14.2738 29.1247L14.2738 29.1247L14.225 29.1358ZM14.2481 29.2149L14.2006 29.2303L14.2006 29.2303L14.2481 29.2149ZM14.2625 29.2608L14.2145 29.2748L14.2145 29.2749L14.2625 29.2608ZM14.2694 29.2845L14.3175 29.2707L14.3174 29.2704L14.2694 29.2845ZM14.2694 29.2845L14.3176 29.271L14.3175 29.2708L14.2694 29.2845ZM14.2695 29.2846L14.2213 29.298L14.2214 29.2984L14.2695 29.2846ZM14.2828 29.3285L14.3304 29.313L14.3302 29.3126L14.2828 29.3285ZM14.357 29.5229L14.3112 29.5429L14.3115 29.5436L14.357 29.5229ZM14.3603 29.5302L14.4061 29.51L14.4058 29.5094L14.3603 29.5302ZM14.8806 30.2716L14.9154 30.2357L14.9152 30.2356L14.8806 30.2716ZM14.8879 30.2786L14.8531 30.3146L14.8534 30.3148L14.8879 30.2786ZM15.0577 30.4271L15.0267 30.4663L15.028 30.4673L15.0577 30.4271ZM15.0602 30.4289L15.0911 30.3896L15.0899 30.3887L15.0602 30.4289ZM15.3903 30.647L15.4148 30.6034L15.4144 30.6032L15.3903 30.647ZM15.4155 30.6616L15.3901 30.7047H15.3901L15.4155 30.6616ZM15.4574 30.6853L15.4345 30.7297L15.4346 30.7298L15.4574 30.6853ZM15.5547 30.7307L15.5342 30.7766L15.5388 30.7781L15.5547 30.7307ZM15.5547 30.7307L15.5751 30.6848L15.5705 30.6833L15.5547 30.7307ZM15.5728 30.7388L15.5935 30.6933L15.5932 30.6931L15.5728 30.7388ZM15.736 30.8064L15.7186 30.8533L15.719 30.8534L15.736 30.8064ZM15.7559 30.8147L15.7355 30.8603L15.7355 30.8603L15.7559 30.8147ZM15.7786 30.824L15.7947 30.7767L15.7947 30.7767L15.7786 30.824ZM15.7935 30.828L15.8046 30.7792L15.8046 30.7792L15.7935 30.828ZM15.8078 30.8317L15.824 30.7844L15.8235 30.7843L15.8078 30.8317ZM16.1542 30.9229L16.1635 30.8738L16.1635 30.8738L16.1542 30.9229ZM16.1637 30.9244L16.1719 30.875L16.1702 30.8748L16.1637 30.9244ZM16.1638 30.9244L16.1556 30.9737L16.1566 30.9739L16.1638 30.9244ZM16.172 30.9255L16.1805 30.8763L16.1791 30.8761L16.172 30.9255ZM16.4971 30.9606L16.4999 30.9106L16.4992 30.9106L16.4971 30.9606ZM16.5209 30.9619L16.5238 30.912L16.5236 30.912L16.5209 30.9619ZM16.5682 30.964L16.5701 30.9141L16.5691 30.914L16.5682 30.964ZM16.5796 30.9645L16.5828 30.9146L16.5816 30.9145L16.5796 30.9645ZM16.5905 30.9652L16.5939 30.9153L16.5937 30.9153L16.5905 30.9652ZM16.7645 30.9572V30.907L16.7598 30.9074L16.7645 30.9572ZM16.7645 30.9572V31.0074L16.7692 31.007L16.7645 30.9572ZM16.8173 30.9525L16.8133 30.9026L16.8132 30.9026L16.8173 30.9525ZM16.8645 30.9497L16.8669 30.9996H16.8669L16.8645 30.9497ZM16.9395 30.944L16.9332 30.8944L16.933 30.8944L16.9395 30.944ZM17.2971 30.8714L17.3343 30.838L17.3136 30.8148L17.2836 30.8232L17.2971 30.8714ZM19.1881 31.8085L19.1928 31.7587L19.1925 31.7587L19.1881 31.8085ZM19.5136 31.8235V31.8735L19.5147 31.8735L19.5136 31.8235ZM23.2741 29.4738L23.2965 29.4291L23.2514 29.4066L23.2293 29.4518L23.2741 29.4738ZM26.199 30.1093L26.199 30.0593L26.1973 30.0594L26.199 30.1093ZM26.3215 30.0928L26.3347 30.141L26.3348 30.141L26.3215 30.0928ZM28.9646 26.2132L28.9585 26.1636L28.908 26.1698L28.9151 26.2202L28.9646 26.2132ZM29.2709 26.1676L29.2627 26.1183L29.2625 26.1183L29.2709 26.1676ZM29.3078 26.1615L29.316 26.2108L29.3165 26.2107L29.3078 26.1615ZM29.6478 26.0911L29.6366 26.0424L29.6365 26.0424L29.6478 26.0911ZM29.6676 26.0865L29.6789 26.1352L29.6791 26.1352L29.6676 26.0865ZM29.7048 26.0778L29.7162 26.1265L29.7166 26.1264L29.7048 26.0778ZM30.0749 25.9756L30.0896 26.0234L30.0898 26.0233L30.0749 25.9756ZM30.1023 25.967L30.1172 26.0147L30.1175 26.0146L30.1023 25.967ZM30.1379 25.9557L30.1531 26.0033L30.1531 26.0033L30.1379 25.9557ZM30.5328 25.8133L30.5515 25.8597L30.5515 25.8597L30.5328 25.8133ZM30.5689 25.7981L30.5494 25.7521L30.5493 25.7522L30.5689 25.7981ZM30.5899 25.7892L30.5707 25.7431L30.5704 25.7432L30.5899 25.7892ZM31.0064 25.5955L31.0296 25.6398L31.0301 25.6395L31.0064 25.5955ZM31.0143 25.5912L31.0381 25.6352L31.0388 25.6348L31.0143 25.5912ZM31.0207 25.5877L31.0451 25.6313L31.0453 25.6312L31.0207 25.5877ZM31.039 25.5774L31.0156 25.5333L31.0154 25.5333L31.039 25.5774ZM31.4627 25.3236L31.4359 25.2814L31.4348 25.2821L31.4627 25.3236ZM31.4762 25.315L31.503 25.3573L31.5045 25.3563L31.4762 25.315ZM31.8779 25.0037L31.845 24.966L31.845 24.966L31.8779 25.0037ZM31.899 24.9858L31.931 25.0243L31.931 25.0243L31.899 24.9858ZM31.9258 24.9629L31.9591 25.0002L31.9593 25.0001L31.9258 24.9629ZM32.2824 24.5997L32.2448 24.5668L32.2446 24.5669L32.2824 24.5997ZM32.2991 24.5827L32.3336 24.619L32.3336 24.6189L32.2991 24.5827ZM32.3168 24.5647L32.3471 24.525L32.3095 24.4963L32.2787 24.5323L32.3168 24.5647ZM32.8064 24.9789L32.8409 24.9426L32.8406 24.9423L32.8064 24.9789ZM33.33 26.1929L33.28 26.1927V26.1929H33.33ZM33.33 33.9662H33.28V34.0162H33.33V33.9662ZM19.9592 23.6809L19.9592 23.6309H19.9592L19.9592 23.6809ZM19.6441 23.5554L19.6789 23.5194L19.6788 23.5193L19.6441 23.5554ZM20.3709 23.4164L20.4168 23.4362H20.4169L20.3709 23.4164ZM20.2743 22.9494L20.2396 22.9854L20.2397 22.9855L20.2743 22.9494ZM20.274 22.9491L20.3087 22.9131L20.3087 22.9131L20.274 22.9491ZM19.0678 19.824H19.1179L19.1178 19.8226L19.0678 19.824ZM20.2743 17.1271L20.3071 17.165L20.3093 17.1628L20.2743 17.1271ZM20.2715 16.5239L20.3062 16.4878L20.3062 16.4878L20.2715 16.5239ZM19.6441 16.5212L19.6771 16.5588L19.6785 16.5575L19.6441 16.5212ZM18.1765 19.824H18.2265L18.2265 19.8227L18.1765 19.824ZM19.1393 27.5436L19.1316 27.593L19.132 27.593L19.1393 27.5436ZM18.6287 27.8969L18.678 27.9054L18.678 27.9054L18.6287 27.8969ZM22.2104 25.6881L22.1632 25.6716L22.1628 25.6729L22.2104 25.6881ZM22.6326 25.3951L22.6327 25.4451H22.6327L22.6326 25.3951ZM22.9464 26.243L22.9435 26.1931L22.9121 26.1949L22.9002 26.224L22.9464 26.243ZM19.5271 28.4289L19.5281 28.3789L19.5269 28.3789L19.5271 28.4289ZM18.9943 28.3891L18.9863 28.4385L18.9867 28.4385L18.9943 28.3891ZM29.0726 23.2072L29.0942 23.2523L29.0942 23.2523L29.0726 23.2072ZM28.4746 23.0155L28.4302 23.0386L28.4302 23.0386L28.4746 23.0155ZM31.0926 20.485L31.0616 20.4458L31.0445 20.4593L31.0427 20.481L31.0926 20.485ZM31.9931 18.5383H31.9431L31.9432 18.5408L31.9931 18.5383ZM31.1018 18.5383H31.0516L31.052 18.5431L31.1018 18.5383ZM30.4568 19.8692L30.4786 19.9147L30.4845 19.9108L30.4568 19.8692ZM28.6731 22.4409L28.6949 22.4859L28.695 22.4858L28.6731 22.4409ZM24.8622 21.5382L24.8624 21.5882L24.8651 21.5881L24.8622 21.5382ZM27.331 20.2387L27.3262 20.1889L27.3044 20.191L27.2911 20.2085L27.331 20.2387ZM24.4153 21.1109L24.4653 21.1107L24.4153 21.1109ZM24.8597 20.6811L24.8598 20.7312L24.8637 20.7309L24.8597 20.6811ZM26.7199 19.5863L26.6788 19.5578L26.6779 19.5591L26.7199 19.5863ZM28.4748 18.7752L28.4305 18.752L28.4305 18.7521L28.4748 18.7752ZM29.0724 18.5844L29.0508 18.6295L29.0508 18.6295L29.0724 18.5844ZM29.2722 19.1586L29.3166 19.1816L29.3167 19.1815L29.2722 19.1586ZM33.2788 21.6598C33.2766 22.4089 33.0954 23.1475 32.7491 23.8188L32.838 23.8646C33.1915 23.1794 33.3766 22.4252 33.3788 21.6601L33.2788 21.6598ZM34.1716 18.1106C34.1941 19.339 33.889 20.5526 33.2852 21.6356L33.3725 21.6843C33.9849 20.586 34.2944 19.355 34.2715 18.1088L34.1716 18.1106ZM31.9931 14.7313C32.7403 14.7313 33.2828 15.1477 33.6411 15.7802C34.0003 16.4143 34.1716 17.2621 34.1716 18.1097H34.2716C34.2716 17.2509 34.0983 16.3845 33.7281 15.7309C33.3571 15.0758 32.7854 14.6313 31.9931 14.6313V14.7313ZM29.5534 16.2773C29.9734 15.3418 30.9313 14.7338 31.9932 14.7313L31.993 14.6313C30.8934 14.6339 29.8989 15.2635 29.4622 16.2363L29.5534 16.2773ZM27.9806 16.0169C28.4972 16.0299 29.0078 16.1269 29.4906 16.3037L29.525 16.2098C29.0319 16.0292 28.5105 15.9302 27.9831 15.917L27.9806 16.0169ZM25.5104 17.1084C25.7847 16.5851 26.4816 16.0169 27.9818 16.0169V15.9169C26.4545 15.9169 25.7177 16.4976 25.4218 17.062L25.5104 17.1084ZM23.2119 17.3276C23.8965 16.9636 24.709 16.8929 25.4507 17.1328L25.4815 17.0376C24.7142 16.7894 23.8736 16.8626 23.165 17.2393L23.2119 17.3276ZM17.7308 14.3027C19.2458 14.3027 20.4335 14.5444 21.3242 15.0388C22.2133 15.5322 22.8101 16.2793 23.1409 17.2989L23.236 17.268C22.898 16.2261 22.2855 15.4579 21.3728 14.9513C20.4616 14.4457 19.255 14.2027 17.7308 14.2027V14.3027ZM7.52986 25.8237C7.52986 21.5922 9.05715 18.7134 11.0935 16.8919C13.1312 15.0693 15.6818 14.3027 17.7308 14.3027V14.2027C15.6594 14.2027 13.0844 14.977 11.0268 16.8174C8.96782 18.6591 7.42986 21.5657 7.42986 25.8237H7.52986ZM17.2851 36.0589C15.5981 36.0589 13.1581 35.5238 11.1411 33.9775C9.12642 32.4328 7.52986 29.8763 7.52986 25.8237H7.42986C7.42986 29.9066 9.04021 32.4927 11.0803 34.0568C13.1181 35.6191 15.5807 36.1589 17.2851 36.1589V36.0589ZM23.9334 33.2954C23.2096 33.9463 22.4423 34.6361 21.4086 35.1642C20.3759 35.6918 19.0751 36.0589 17.2851 36.0589V36.1589C19.0899 36.1589 20.4064 35.7885 21.4541 35.2533C22.5009 34.7185 23.2771 34.0201 24.0003 33.3697L23.9334 33.2954ZM23.9337 33.2951L23.9336 33.2952L24 33.3699L24.0001 33.3699L23.9337 33.2951ZM27.9818 31.3449C26.1003 31.3449 25.0892 32.2558 23.9334 33.2953L24.0003 33.3697C25.1565 32.3297 26.142 31.4449 27.9818 31.4449V31.3449ZM30.6178 33.8575C30.2777 33.2474 29.9284 32.6206 29.512 32.1469C29.0948 31.6722 28.6046 31.3449 27.9818 31.3449V31.4449C28.5646 31.4449 29.0297 31.7497 29.4369 32.2129C29.8449 32.677 30.189 33.2937 30.5304 33.9062L30.6178 33.8575ZM30.6184 33.8587L30.6178 33.8576L30.5304 33.9061L30.531 33.9072L30.6184 33.8587ZM30.6194 33.8606L30.6194 33.8606L30.53 33.9053L30.53 33.9053L30.6194 33.8606ZM32.8844 36.0589C32.3701 36.0589 31.9649 35.7995 31.6062 35.3922C31.2463 34.9837 30.9385 34.4324 30.6184 33.8586L30.5311 33.9074C30.8497 34.4784 31.1628 35.0401 31.5311 35.4583C31.9006 35.8778 32.3309 36.1589 32.8844 36.1589V36.0589ZM34.1715 33.9662C34.1715 34.9259 33.9395 35.4468 33.6678 35.7281C33.3964 36.009 33.0773 36.0589 32.8844 36.0589V36.1589C33.0936 36.1589 33.4431 36.1045 33.7397 35.7975C34.036 35.4909 34.2715 34.9405 34.2715 33.9662H34.1715ZM34.1715 26.1928V33.9662H34.2715V26.1928H34.1715ZM33.3936 24.4005C33.893 24.8736 34.173 25.5195 34.1715 26.1927L34.2715 26.1929C34.2731 25.4916 33.9813 24.8195 33.4624 24.3279L33.3936 24.4005ZM32.7639 23.882C32.9839 24.0435 33.1943 24.2167 33.3941 24.4009L33.4619 24.3274C33.2594 24.1407 33.0461 23.9651 32.8231 23.8014L32.7639 23.882ZM23.4642 19.3039L23.4646 19.3223L23.5646 19.3204L23.5642 19.3019L23.4642 19.3039ZM23.4618 19.2648C23.4628 19.2786 23.4637 19.2915 23.4643 19.305L23.5642 19.3008C23.5635 19.2856 23.5625 19.2712 23.5615 19.2577L23.4618 19.2648ZM23.4594 19.2273C23.46 19.2404 23.4609 19.2529 23.4618 19.2648L23.5615 19.2577C23.5607 19.2456 23.5599 19.2343 23.5593 19.2224L23.4594 19.2273ZM23.4377 18.8774C23.4469 18.9907 23.4537 19.108 23.4594 19.2272L23.5593 19.2225C23.5536 19.1026 23.5467 18.9841 23.5374 18.8693L23.4377 18.8774ZM23.4371 18.8675L23.4377 18.8766L23.5375 18.8702L23.5369 18.8611L23.4371 18.8675ZM23.4338 18.8183L23.4371 18.8676L23.5369 18.861L23.5336 18.8116L23.4338 18.8183ZM23.4282 18.7694C23.4304 18.7866 23.4324 18.8027 23.4339 18.8193L23.5335 18.8106C23.5318 18.7918 23.5296 18.7738 23.5275 18.7569L23.4282 18.7694ZM23.423 18.7243C23.4245 18.7399 23.4264 18.7551 23.4282 18.7694L23.5275 18.7569C23.5256 18.7424 23.5239 18.7286 23.5225 18.7145L23.423 18.7243ZM23.388 18.4187C23.4014 18.5181 23.4128 18.6203 23.423 18.7243L23.5225 18.7145C23.5123 18.6096 23.5007 18.5062 23.4871 18.4054L23.388 18.4187ZM23.3663 18.2661C23.374 18.3164 23.3811 18.3671 23.388 18.4187L23.4871 18.4054C23.4802 18.3534 23.4729 18.302 23.4651 18.251L23.3663 18.2661ZM23.3595 18.2182C23.3617 18.2339 23.3638 18.2501 23.3663 18.2661L23.4651 18.2509C23.4628 18.236 23.4608 18.2207 23.4587 18.2049L23.3595 18.2182ZM23.3593 18.2163L23.3593 18.2164L23.4589 18.2067L23.4589 18.2066L23.3593 18.2163ZM23.351 18.1592C23.3541 18.1779 23.3568 18.1976 23.3595 18.2181L23.4587 18.2048C23.4559 18.1846 23.4531 18.1633 23.4496 18.1427L23.351 18.1592ZM25.5297 17.9937C24.8476 17.6283 24.0078 17.6734 23.372 18.1097L23.4286 18.1922C24.0334 17.7771 24.8332 17.734 25.4825 18.0818L25.5297 17.9937ZM25.9408 18.0146C25.8116 18.0811 25.6547 18.0737 25.5331 17.9957L25.4791 18.0798C25.6309 18.1772 25.8258 18.1862 25.9865 18.1035L25.9408 18.0146ZM26.149 17.6812C26.149 17.8198 26.0697 17.9483 25.9408 18.0146L25.9865 18.1035C26.1475 18.0207 26.249 17.8587 26.249 17.6812H26.149ZM27.9818 16.7741C26.5094 16.7741 26.149 17.4004 26.149 17.6812H26.249C26.249 17.4853 26.5293 16.8741 27.9818 16.8741V16.7741ZM29.5864 17.1621C29.084 16.9327 28.5395 16.8009 27.9842 16.7741L27.9794 16.874C28.5221 16.9002 29.0541 17.029 29.5449 17.2531L29.5864 17.1621ZM29.9295 17.1671C29.8204 17.2151 29.6946 17.2133 29.587 17.1624L29.5442 17.2528C29.678 17.3161 29.8341 17.3183 29.9697 17.2586L29.9295 17.1671ZM30.148 16.9169C30.1183 17.0269 30.0384 17.1191 29.9294 17.1671L29.9698 17.2586C30.1054 17.1989 30.2067 17.0832 30.2446 16.943L30.148 16.9169ZM31.993 15.4884C31.2727 15.4884 30.8141 15.8318 30.5351 16.1817C30.2572 16.5301 30.1567 16.8854 30.1481 16.9167L30.2445 16.9432C30.2516 16.9176 30.3476 16.5771 30.6133 16.244C30.8778 15.9123 31.3097 15.5884 31.993 15.5884V15.4884ZM33.3801 18.1097C33.3801 17.6613 33.3099 17.012 33.1049 16.4728C32.901 15.9363 32.5547 15.4884 31.993 15.4884V15.5884C32.489 15.5884 32.8112 15.9815 33.0115 16.5083C33.2107 17.0325 33.2801 17.6688 33.2801 18.1097H33.3801ZM32.5569 21.3254C33.1238 20.3427 33.4079 19.2322 33.3801 18.1085L33.2801 18.111C33.3075 19.2161 33.028 20.3085 32.4703 21.2754L32.5569 21.3254ZM32.4887 21.5381C32.4887 21.4639 32.5116 21.391 32.5547 21.3289L32.4725 21.272C32.418 21.3506 32.3888 21.4432 32.3887 21.5381L32.4887 21.5381ZM31.8887 23.7578C32.3074 23.0887 32.5158 22.3172 32.4887 21.5364L32.3887 21.5399C32.4152 22.3005 32.2121 23.0524 31.8039 23.7048L31.8887 23.7578ZM28.4277 25.4451C28.4411 25.445 29.0283 25.4372 29.7502 25.2237C30.4716 25.0103 31.3334 24.5895 31.8879 23.7591L31.8047 23.7035C31.2685 24.5067 30.4318 24.9178 29.7218 25.1278C29.0123 25.3377 28.4352 25.345 28.4267 25.3451L28.4277 25.4451ZM28.1116 25.5964C28.186 25.5017 28.3027 25.4454 28.4273 25.4451L28.4271 25.3451C28.2727 25.3455 28.1269 25.4152 28.033 25.5345L28.1116 25.5964ZM28.0465 25.9262C28.0134 25.8128 28.0373 25.6908 28.1116 25.5964L28.033 25.5345C27.939 25.654 27.9082 25.8093 27.9505 25.9542L28.0465 25.9262ZM26.1497 29.2999C26.8014 29.1107 27.2502 28.8122 27.5549 28.4669C27.8595 28.1218 28.018 27.7326 28.0932 27.3651C28.2432 26.6319 28.0625 25.9815 28.0465 25.9263L27.9505 25.9541C27.9649 26.004 28.1404 26.6356 27.9952 27.3451C27.9228 27.699 27.7708 28.0712 27.4799 28.4007C27.1893 28.7301 26.7577 29.0193 26.1219 29.2038L26.1497 29.2999ZM23.3603 28.5573C23.373 28.5689 24.1851 29.2865 26.1354 29.3018L26.1362 29.2018C24.2123 29.1867 23.4236 28.4797 23.428 28.4837L23.3603 28.5573ZM22.9884 28.4554C23.1224 28.4252 23.2628 28.4638 23.3596 28.5566L23.4288 28.4844C23.3073 28.3679 23.1324 28.3205 22.9664 28.3579L22.9884 28.4554ZM22.7039 28.7034C22.7473 28.5799 22.8544 28.4857 22.9884 28.4554L22.9664 28.3579C22.8002 28.3954 22.6648 28.513 22.6095 28.6702L22.7039 28.7034ZM19.5136 31.0162C20.6873 31.0162 21.4776 30.4604 21.9771 29.8945C22.4759 29.3295 22.6864 28.7529 22.7038 28.7035L22.6095 28.6702C22.5942 28.7138 22.3889 29.2769 21.9022 29.8283C21.4163 30.3788 20.6514 30.9162 19.5136 30.9162V31.0162ZM17.7586 30.1365C18.1517 30.6974 18.8127 31.028 19.5144 31.0162L19.5127 30.9162C18.8431 30.9275 18.2139 30.612 17.8405 30.0791L17.7586 30.1365ZM17.6334 30.0367C17.6832 30.0617 17.7265 30.0967 17.7605 30.1391L17.8385 30.0766C17.7954 30.0227 17.7406 29.9787 17.6783 29.9473L17.6334 30.0367ZM17.5933 30.0194C17.6071 30.0245 17.6205 30.0302 17.6334 30.0367L17.6783 29.9474C17.6618 29.9391 17.6449 29.9318 17.6277 29.9255L17.5933 30.0194ZM17.468 29.991C17.5107 29.9937 17.5526 30.0031 17.592 30.0189L17.629 29.926C17.5798 29.9063 17.5276 29.8946 17.4745 29.8912L17.468 29.991ZM17.4415 29.9852C17.4451 29.9864 17.4557 29.9902 17.468 29.991L17.4745 29.8912C17.4761 29.8913 17.477 29.8915 17.4766 29.8914C17.476 29.8913 17.4752 29.891 17.4726 29.8902L17.4415 29.9852ZM17.4411 29.9843C17.4387 29.9843 17.4373 29.9839 17.4374 29.984C17.4378 29.9841 17.4386 29.9843 17.4415 29.9852L17.4726 29.8902C17.4686 29.8889 17.4559 29.8843 17.4411 29.8843V29.9843ZM17.4482 29.9836C17.4498 29.9831 17.4493 29.9833 17.4484 29.9835C17.4474 29.9838 17.4447 29.9843 17.4411 29.9843V29.8843C17.4297 29.8843 17.42 29.8877 17.4189 29.888L17.4482 29.9836ZM17.4277 29.9873C17.4382 29.9871 17.4471 29.984 17.4482 29.9836L17.4189 29.888C17.4174 29.8885 17.4178 29.8883 17.4185 29.8882C17.4194 29.888 17.4218 29.8874 17.4251 29.8874L17.4277 29.9873ZM17.2765 30.0187C17.324 29.9988 17.3752 29.9881 17.4272 29.9873L17.4257 29.8874C17.361 29.8883 17.2972 29.9016 17.2378 29.9265L17.2765 30.0187ZM16.9622 30.1202C17.0704 30.0965 17.1759 30.0625 17.2771 30.0185L17.2372 29.9268C17.1421 29.9681 17.0428 30.0002 16.9408 30.0225L16.9622 30.1202ZM16.9088 30.1278C16.9244 30.1262 16.9432 30.1244 16.9623 30.1201L16.9407 30.0225C16.9282 30.0253 16.915 30.0267 16.8986 30.0284L16.9088 30.1278ZM16.9037 30.1281H16.9037V30.0281H16.9037V30.1281ZM16.877 30.1317C16.8868 30.1301 16.8969 30.1291 16.9088 30.1278L16.8986 30.0284C16.8872 30.0295 16.874 30.0309 16.8607 30.0331L16.877 30.1317ZM16.6419 30.1565C16.7211 30.154 16.7999 30.1457 16.8777 30.1316L16.8599 30.0332C16.7869 30.0464 16.713 30.0542 16.6389 30.0565L16.6419 30.1565ZM16.5471 30.1518C16.5765 30.1542 16.6086 30.157 16.6411 30.1565L16.6397 30.0565C16.6129 30.0569 16.5856 30.0547 16.5554 30.0522L16.5471 30.1518ZM16.5513 30.152H16.5513V30.052H16.5513V30.152ZM16.5513 30.152H16.5513V30.052H16.5513V30.152ZM16.5512 30.152H16.5513V30.052H16.5512V30.152ZM16.5105 30.149C16.5225 30.1498 16.5346 30.1508 16.5471 30.1518L16.5554 30.0522C16.543 30.0511 16.5301 30.0501 16.5171 30.0492L16.5105 30.149ZM16.3353 30.1319C16.3937 30.1407 16.4526 30.1464 16.5116 30.149L16.516 30.0491C16.4605 30.0467 16.4051 30.0413 16.3502 30.033L16.3353 30.1319ZM16.1877 30.096C16.2345 30.1091 16.2842 30.123 16.3341 30.1317L16.3514 30.0332C16.3072 30.0255 16.2623 30.013 16.2146 29.9997L16.1877 30.096ZM16.1692 30.0909L16.1878 30.096L16.2146 29.9997L16.196 29.9945L16.1692 30.0909ZM16.0157 30.0449C16.0665 30.0629 16.1182 30.0783 16.1706 30.0912L16.1945 29.9941C16.1453 29.982 16.0968 29.9675 16.0491 29.9506L16.0157 30.0449ZM15.9776 30.0292C15.9891 30.0341 16.0016 30.0395 16.0147 30.0445L16.0501 29.951C16.0395 29.9469 16.0289 29.9424 16.0172 29.9373L15.9776 30.0292ZM15.9653 30.0239L15.9777 30.0292L16.0171 29.9373L16.0047 29.932L15.9653 30.0239ZM15.486 29.7106C15.6249 29.8421 15.7874 29.9482 15.9655 30.024L16.0046 29.932C15.8373 29.8608 15.6849 29.7612 15.5547 29.638L15.486 29.7106ZM15.4742 29.6992L15.4857 29.7103L15.555 29.6382L15.5435 29.6271L15.4742 29.6992ZM15.0436 28.9347C15.1083 29.224 15.2577 29.4892 15.474 29.6991L15.5436 29.6273C15.3411 29.4308 15.2016 29.1828 15.1412 28.9129L15.0436 28.9347ZM15.0214 28.7523C15.0252 28.8128 15.0325 28.873 15.0432 28.9327L15.1416 28.915C15.1316 28.859 15.1248 28.8027 15.1212 28.746L15.0214 28.7523ZM15.0161 28.7109C15.0182 28.7261 15.0202 28.7401 15.0215 28.7541L15.1211 28.7443C15.1195 28.728 15.1172 28.712 15.1152 28.6972L15.0161 28.7109ZM15.0162 28.7111L15.0162 28.7111L15.1152 28.697L15.1152 28.697L15.0162 28.7111ZM15.0161 28.7102L15.0161 28.7102L15.1153 28.6978L15.1153 28.6978L15.0161 28.7102ZM15.0079 28.6219C15.0082 28.6538 15.0124 28.6842 15.0161 28.7109L15.1152 28.6972C15.1114 28.6695 15.1081 28.6454 15.1079 28.6211L15.0079 28.6219ZM15.0365 28.3152C15.0165 28.4163 15.0069 28.5191 15.0079 28.6219L15.1079 28.621C15.107 28.5249 15.1159 28.429 15.1346 28.3347L15.0365 28.3152ZM15.0493 28.2708C15.0452 28.2828 15.04 28.2983 15.0366 28.315L15.1346 28.3349C15.1365 28.3253 15.1397 28.3158 15.1441 28.3028L15.0493 28.2708ZM15.0499 28.2692L15.0499 28.2692L15.1435 28.3043L15.1435 28.3043L15.0499 28.2692ZM15.0574 28.2449C15.0553 28.2528 15.0527 28.2607 15.0493 28.2708L15.1441 28.3027C15.1472 28.2933 15.1512 28.2818 15.1543 28.2696L15.0574 28.2449ZM15.1275 28.028C15.0984 28.0987 15.0749 28.1715 15.0572 28.2456L15.1544 28.2689C15.171 28.1998 15.1928 28.132 15.22 28.066L15.1275 28.028ZM15.1649 27.9543C15.1527 27.9764 15.139 28.001 15.1278 28.0274L15.2197 28.0666C15.2287 28.0457 15.2398 28.0255 15.2524 28.0027L15.1649 27.9543ZM15.1819 27.923C15.1765 27.9332 15.1709 27.9435 15.1649 27.9543L15.2524 28.0027C15.2583 27.992 15.2645 27.9808 15.2705 27.9693L15.1819 27.923ZM15.2781 27.7595C15.2424 27.8122 15.2103 27.867 15.1816 27.9235L15.2708 27.9687C15.2976 27.9159 15.3276 27.8647 15.3609 27.8156L15.2781 27.7595ZM15.3467 27.6709C15.3242 27.6985 15.3002 27.7277 15.2784 27.759L15.3605 27.8161C15.3796 27.7886 15.4011 27.7624 15.4241 27.7343L15.3467 27.6709ZM15.3535 27.6626L15.3467 27.671L15.4241 27.7343L15.4309 27.726L15.3535 27.6626ZM15.4848 27.5208C15.4381 27.5655 15.3942 27.6128 15.3535 27.6627L15.431 27.726C15.469 27.6793 15.5101 27.635 15.5539 27.5931L15.4848 27.5208ZM15.5717 27.4433C15.5412 27.4683 15.5125 27.4945 15.4849 27.5207L15.5538 27.5932C15.5805 27.5678 15.6072 27.5434 15.635 27.5207L15.5717 27.4433ZM15.7401 27.3241C15.6816 27.3602 15.6253 27.3999 15.5719 27.4431L15.6348 27.5209C15.6848 27.4804 15.7376 27.4432 15.7926 27.4092L15.7401 27.3241ZM15.7636 27.3092L15.7395 27.3245L15.7932 27.4089L15.8173 27.3935L15.7636 27.3092ZM15.8288 27.2697C15.8053 27.2823 15.7834 27.2964 15.7634 27.3093L15.8174 27.3934C15.838 27.3802 15.8567 27.3682 15.8762 27.3577L15.8288 27.2697ZM16.0407 27.177C15.968 27.2029 15.8974 27.2338 15.8293 27.2694L15.8757 27.358C15.9397 27.3245 16.006 27.2955 16.0743 27.2712L16.0407 27.177ZM16.0698 27.1652C16.0591 27.1697 16.0497 27.1737 16.0403 27.1771L16.0747 27.271C16.0868 27.2666 16.0985 27.2616 16.1088 27.2572L16.0698 27.1652ZM16.0707 27.1648L16.0707 27.1648L16.1079 27.2576L16.1079 27.2576L16.0707 27.1648ZM16.0708 27.1648L16.0707 27.1648L16.1079 27.2576L16.1079 27.2576L16.0708 27.1648ZM16.0687 27.1657L16.0687 27.1657L16.11 27.2567L16.1101 27.2567L16.0687 27.1657ZM16.1201 27.1459C16.1016 27.1517 16.0844 27.159 16.0699 27.1651L16.1089 27.2572C16.1241 27.2507 16.1368 27.2454 16.1497 27.2414L16.1201 27.1459ZM16.4251 27.081C16.3214 27.0931 16.2192 27.1149 16.1199 27.146L16.1498 27.2414C16.2432 27.2122 16.3392 27.1917 16.4367 27.1803L16.4251 27.081ZM16.4253 27.0808L16.4251 27.081L16.4368 27.1803C16.4426 27.1796 16.4476 27.1783 16.4492 27.1779L16.4253 27.0808ZM16.4378 27.0784C16.432 27.0791 16.4269 27.0804 16.4253 27.0808L16.4493 27.1779L16.4495 27.1777L16.4378 27.0784ZM16.4375 27.0779L16.4382 27.0784L16.449 27.1778C16.4618 27.1764 16.4724 27.1717 16.4756 27.1704L16.4375 27.0779ZM16.4591 27.0712C16.449 27.073 16.4404 27.0767 16.4375 27.0779L16.4756 27.1704C16.48 27.1685 16.4787 27.1693 16.4765 27.1697L16.4591 27.0712ZM16.7793 26.7303C16.767 26.8994 16.6364 27.0409 16.4594 27.0711L16.4762 27.1697C16.6961 27.1322 16.8633 26.955 16.879 26.7375L16.7793 26.7303ZM16.7896 26.6746C16.7877 26.6904 16.7848 26.7059 16.7808 26.7214L16.8776 26.7465C16.8827 26.7268 16.8865 26.7069 16.8889 26.6867L16.7896 26.6746ZM16.783 26.5693C16.7873 26.6206 16.7893 26.6526 16.7893 26.6807H16.8893C16.8893 26.6481 16.887 26.6125 16.8826 26.5609L16.783 26.5693ZM16.7852 26.5437L16.7832 26.5582L16.8823 26.5719L16.8843 26.5574L16.7852 26.5437ZM16.8575 26.282C16.8202 26.3656 16.7958 26.4541 16.7851 26.5447L16.8844 26.5564C16.8939 26.4759 16.9156 26.3972 16.9488 26.3227L16.8575 26.282ZM16.8613 26.2732L16.8572 26.2825L16.9491 26.3221L16.9531 26.3128L16.8613 26.2732ZM17.015 26.0399C16.9531 26.1098 16.9015 26.1879 16.8619 26.2717L16.9524 26.3144C16.9878 26.2392 17.0341 26.1691 17.0899 26.1062L17.015 26.0399ZM17.028 26.0253L17.0151 26.0398L17.0898 26.1063L17.1027 26.0918L17.028 26.0253ZM17.2412 25.8409C17.1637 25.8944 17.0925 25.956 17.0288 26.0245L17.102 26.0926C17.1607 26.0294 17.2265 25.9727 17.298 25.9232L17.2412 25.8409ZM17.2521 25.8334L17.2411 25.841L17.2981 25.9231L17.3092 25.9155L17.2521 25.8334ZM17.2854 25.8106C17.2721 25.8194 17.2617 25.8267 17.2521 25.8334L17.3092 25.9154C17.3189 25.9087 17.3284 25.9021 17.3406 25.894L17.2854 25.8106ZM17.5516 25.6662C17.4591 25.7073 17.3702 25.7555 17.2857 25.8104L17.3402 25.8943C17.4202 25.8423 17.5045 25.7965 17.5922 25.7576L17.5516 25.6662ZM17.6118 25.6407C17.5902 25.6498 17.5694 25.6585 17.552 25.666L17.5918 25.7578C17.6085 25.7505 17.6287 25.742 17.6504 25.733L17.6118 25.6407ZM17.9366 25.5279C17.8261 25.5591 17.7176 25.5967 17.6119 25.6407L17.6503 25.733C17.7523 25.6906 17.857 25.6543 17.9637 25.6242L17.9366 25.5279ZM18.0049 25.5103C17.9822 25.5159 17.9593 25.5217 17.937 25.5278L17.9634 25.6243C17.9846 25.6185 18.0066 25.6129 18.029 25.6073L18.0049 25.5103ZM18.3814 25.4301C18.2476 25.4524 18.1224 25.4795 18.0043 25.5104L18.0296 25.6072C18.1448 25.577 18.2671 25.5506 18.3979 25.5287L18.3814 25.4301ZM18.4279 25.4217L18.3808 25.4302L18.3985 25.5286L18.4456 25.5202L18.4279 25.4217ZM18.8796 25.3707C18.7223 25.3831 18.5707 25.3993 18.429 25.4215L18.4445 25.5203C18.5829 25.4987 18.7318 25.4827 18.8874 25.4703L18.8796 25.3707ZM18.922 25.3676L18.8799 25.3706L18.8871 25.4704L18.9292 25.4673L18.922 25.3676ZM18.9935 25.3627C18.9684 25.3642 18.9449 25.3659 18.9219 25.3676L18.9293 25.4673C18.9524 25.4656 18.9752 25.4639 18.9995 25.4625L18.9935 25.3627ZM19.5134 25.345C19.3306 25.345 19.159 25.3522 18.9933 25.3627L18.9997 25.4625C19.1639 25.4521 19.3332 25.445 19.5134 25.445V25.345ZM23.4747 19.8238C23.4747 20.5302 23.2295 21.915 22.6085 23.122C21.9874 24.329 20.9979 25.345 19.5134 25.345V25.445C21.0526 25.445 22.0688 24.3893 22.6974 23.1677C23.326 21.9461 23.5747 20.5454 23.5747 19.8238H23.4747ZM23.4646 19.3233C23.471 19.4853 23.4749 19.6511 23.4747 19.8238L23.5747 19.8239C23.5749 19.6496 23.5709 19.4825 23.5645 19.3194L23.4646 19.3233ZM32.8844 35.3018C32.9816 35.3018 33.0609 35.2483 33.1228 35.1687C33.1843 35.0897 33.2326 34.9804 33.2701 34.8556C33.3451 34.6053 33.3801 34.2787 33.3801 33.9662H33.2801C33.2801 34.2729 33.2455 34.5891 33.1743 34.8269C33.1386 34.946 33.0946 35.0421 33.0439 35.1073C32.9935 35.1721 32.9404 35.2018 32.8844 35.2018V35.3018ZM31.3161 33.5011C31.5589 33.9366 31.8082 34.3837 32.0643 34.7218C32.1924 34.8909 32.3239 35.035 32.459 35.1371C32.5942 35.2393 32.7362 35.3018 32.8844 35.3018V35.2018C32.7654 35.2018 32.6441 35.1516 32.5193 35.0573C32.3945 34.963 32.2694 34.8269 32.144 34.6614C31.893 34.3301 31.6472 33.8897 31.4034 33.4524L31.3161 33.5011ZM31.3159 33.5007L31.3161 33.5012L31.4034 33.4523L31.4031 33.4518L31.3159 33.5007ZM27.9818 30.5877C28.8331 30.5877 29.4827 30.9859 30.0123 31.5502C30.5431 32.1159 30.9501 32.8449 31.3158 33.5006L31.4031 33.4519C31.0386 32.7983 30.626 32.058 30.0852 31.4818C29.5432 30.9042 28.869 30.4877 27.9818 30.4877V30.5877ZM23.3914 32.7438C24.5766 31.6776 25.7899 30.5877 27.9818 30.5877V30.4877C25.7486 30.4877 24.51 31.603 23.3245 32.6695L23.3914 32.7438ZM17.2851 35.3018C18.9137 35.3018 20.092 34.9768 21.0386 34.493C21.9842 34.0097 22.6962 33.3691 23.3914 32.7438L23.3245 32.6695C22.6284 33.2955 21.9254 33.9275 20.9931 34.404C20.0618 34.8799 18.8994 35.2018 17.2851 35.2018V35.3018ZM8.3212 25.8237C8.3212 28.162 8.8748 29.9257 9.7091 31.2554C10.5433 32.5849 11.6563 33.4777 12.771 34.0769C14.999 35.2746 17.2371 35.3018 17.2851 35.3018V35.2018C17.2439 35.2018 15.0251 35.1751 12.8184 33.9888C11.7158 33.3961 10.617 32.5143 9.7938 31.2023C8.97069 29.8904 8.4212 28.1455 8.4212 25.8237H8.3212ZM17.7308 15.0599C15.8382 15.0599 13.4861 15.7771 11.6066 17.482C9.72568 19.1881 8.3212 21.8804 8.3212 25.8237H8.4212C8.4212 21.9063 9.81537 19.2417 11.6737 17.5561C13.5334 15.8692 15.8611 15.1599 17.7308 15.1599V15.0599ZM22.5236 18.0331C22.3714 17.3026 22.0921 16.5559 21.386 15.9934C20.6807 15.4316 19.5573 15.0599 17.7308 15.0599V15.1599C19.5455 15.1599 20.643 15.5295 21.3237 16.0717C22.0036 16.6132 22.2756 17.3333 22.4257 18.0535L22.5236 18.0331ZM22.5247 18.042L22.5246 18.0405L22.4248 18.0462L22.4248 18.0477L22.5247 18.042ZM22.5339 18.0919C22.5309 18.0735 22.5277 18.0537 22.5237 18.0347L22.4258 18.0551C22.4293 18.0716 22.4321 18.0891 22.4352 18.108L22.5339 18.0919ZM22.5336 18.0901L22.5336 18.0901L22.4355 18.1097L22.4355 18.1097L22.5336 18.0901ZM22.5339 18.0917L22.5339 18.0917L22.4352 18.1081L22.4352 18.1082L22.5339 18.0917ZM22.5341 18.0929L22.534 18.0929L22.4351 18.107L22.4351 18.107L22.5341 18.0929ZM22.534 18.0924L22.534 18.0924L22.4351 18.1076L22.4351 18.1076L22.534 18.0924ZM22.534 18.0924L22.534 18.0924L22.4351 18.1076L22.4351 18.1076L22.534 18.0924ZM22.5413 18.1348C22.5387 18.1212 22.5364 18.107 22.5339 18.092L22.4352 18.108C22.4376 18.1228 22.4402 18.1384 22.4431 18.1536L22.5413 18.1348ZM22.647 18.9147C22.6254 18.6532 22.5901 18.393 22.5413 18.1349L22.4431 18.1535C22.4912 18.4081 22.526 18.6649 22.5474 18.9229L22.647 18.9147ZM22.653 19.0048C22.6513 18.9749 22.6495 18.9442 22.647 18.9146L22.5474 18.923C22.5497 18.9511 22.5514 18.9805 22.5532 19.0106L22.653 19.0048ZM22.653 19.0054L22.653 19.0052L22.5532 19.0102L22.5532 19.0104L22.653 19.0054ZM22.6565 19.0613C22.6552 19.0429 22.6541 19.0241 22.653 19.005L22.5532 19.0108C22.5543 19.0298 22.5554 19.0491 22.5567 19.0681L22.6565 19.0613ZM22.6601 19.1124L22.6565 19.0612L22.5567 19.0682L22.5603 19.1194L22.6601 19.1124ZM22.6734 19.3333C22.6704 19.2584 22.6652 19.1849 22.6601 19.1124L22.5603 19.1195C22.5655 19.1922 22.5706 19.2642 22.5734 19.3373L22.6734 19.3333ZM22.6834 19.8239C22.6834 19.6572 22.6795 19.4942 22.6734 19.3334L22.5734 19.3372C22.5795 19.497 22.5834 19.6588 22.5834 19.8239H22.6834ZM19.5136 24.588C20.7143 24.588 21.5068 23.6342 21.9963 22.5763C22.4867 21.5162 22.6834 20.3305 22.6834 19.8239H22.5834C22.5834 20.3155 22.3901 21.4868 21.9055 22.5343C21.42 23.5838 20.6525 24.488 19.5136 24.488V24.588ZM19.087 24.5976C19.2224 24.5912 19.3646 24.588 19.5136 24.588V24.488C19.3631 24.488 19.2194 24.4912 19.0823 24.4977L19.087 24.5976ZM19.0505 24.6001L19.0881 24.5975L19.0812 24.4977L19.0437 24.5003L19.0505 24.6001ZM18.9632 24.6059C18.9921 24.6037 19.0202 24.6016 19.0496 24.6001L19.0446 24.5003C19.0138 24.5018 18.9844 24.504 18.9557 24.5062L18.9632 24.6059ZM18.9594 24.606H18.9594V24.506H18.9594V24.606ZM18.9594 24.606H18.9594V24.506H18.9594V24.606ZM18.9155 24.6093L18.963 24.6059L18.9558 24.5062L18.9083 24.5096L18.9155 24.6093ZM18.6893 24.6253C18.7617 24.6185 18.838 24.6139 18.9149 24.6094L18.9089 24.5095C18.8324 24.5141 18.7544 24.5188 18.68 24.5257L18.6893 24.6253ZM18.6107 24.6347L18.6906 24.6251L18.6787 24.5258L18.5989 24.5354L18.6107 24.6347ZM18.517 24.6459C18.5481 24.642 18.5787 24.6382 18.6103 24.6347L18.5993 24.5353C18.567 24.5389 18.5356 24.5428 18.5046 24.5467L18.517 24.6459ZM18.5042 24.6475L18.517 24.6459L18.5046 24.5467L18.4919 24.5483L18.5042 24.6475ZM18.3246 24.6705C18.3818 24.6618 18.4424 24.6546 18.5037 24.6476L18.4924 24.5482C18.431 24.5552 18.3688 24.5626 18.3094 24.5717L18.3246 24.6705ZM18.2199 24.6889L18.3257 24.6703L18.3083 24.5718L18.2026 24.5904L18.2199 24.6889ZM18.2595 24.6266L18.2594 24.6261L18.1631 24.6532L18.1632 24.6537L18.2595 24.6266ZM18.1184 24.7077C18.1514 24.7014 18.1854 24.6954 18.2199 24.6894L18.2029 24.5909C18.1683 24.5969 18.1335 24.603 18.0996 24.6094L18.1184 24.7077ZM18.1145 24.7084L18.1178 24.7078L18.1002 24.6093L18.0969 24.6099L18.1145 24.7084ZM18.1143 24.7084L18.1144 24.7084L18.097 24.6099L18.0969 24.6099L18.1143 24.7084ZM17.9877 24.7325C18.029 24.7236 18.0711 24.7161 18.1144 24.7084L18.0968 24.6099C18.0539 24.6176 18.0099 24.6254 17.9665 24.6348L17.9877 24.7325ZM17.8517 24.7659L17.989 24.7322L17.9652 24.6351L17.8279 24.6688L17.8517 24.7659ZM17.8447 24.7677L17.8524 24.7657L17.8271 24.669L17.8194 24.671L17.8447 24.7677ZM17.7661 24.7882C17.7918 24.7813 17.8178 24.7745 17.8443 24.7678L17.8199 24.6709C17.7928 24.6777 17.7663 24.6846 17.74 24.6917L17.7661 24.7882ZM17.7397 24.795L17.7653 24.7884L17.7407 24.6915L17.7151 24.698L17.7397 24.795ZM17.7372 24.7955L17.7372 24.7955L17.7176 24.6975L17.7176 24.6975L17.7372 24.7955ZM17.7371 24.7955L17.7372 24.7955L17.7176 24.6975L17.7175 24.6975L17.7371 24.7955ZM17.7371 24.7955L17.7371 24.7955L17.7175 24.6975L17.7175 24.6975L17.7371 24.7955ZM17.6829 24.8099C17.7004 24.8048 17.7194 24.8 17.7395 24.795L17.7151 24.698C17.6954 24.703 17.6746 24.7082 17.6551 24.7138L17.6829 24.8099ZM17.5552 24.8507L17.6842 24.8095L17.6538 24.7142L17.5247 24.7555L17.5552 24.8507ZM17.5409 24.8556L17.5562 24.8504L17.5237 24.7558L17.5085 24.7611L17.5409 24.8556ZM17.5269 24.8605L17.541 24.8556L17.5084 24.7611L17.4943 24.766L17.5269 24.8605ZM17.458 24.8841C17.4802 24.8762 17.5032 24.8684 17.5265 24.8606L17.4946 24.7658C17.4713 24.7737 17.4476 24.7817 17.4245 24.7899L17.458 24.8841ZM17.4342 24.8922L17.4574 24.8843L17.4252 24.7897L17.402 24.7975L17.4342 24.8922ZM17.3994 24.9043C17.4102 24.9003 17.4215 24.8965 17.434 24.8923L17.4022 24.7975C17.3901 24.8015 17.377 24.8059 17.3642 24.8107L17.3994 24.9043ZM17.2942 24.9474L17.4007 24.9038L17.3628 24.8113L17.2564 24.8548L17.2942 24.9474ZM17.2723 24.957C17.2801 24.9534 17.2873 24.9502 17.2946 24.9472L17.256 24.8549C17.2474 24.8585 17.2391 24.8622 17.2315 24.8657L17.2723 24.957ZM17.2517 24.966L17.272 24.9571L17.2317 24.8655L17.2115 24.8745L17.2517 24.966ZM17.2368 24.9725L17.2514 24.9661L17.2118 24.8743L17.1971 24.8807L17.2368 24.9725ZM17.2366 24.9725L17.2367 24.9725L17.1973 24.8806L17.1972 24.8806L17.2366 24.9725ZM17.1851 24.9952C17.2017 24.9876 17.2189 24.9802 17.2367 24.9725L17.1971 24.8807C17.1794 24.8883 17.1612 24.8962 17.1434 24.9043L17.1851 24.9952ZM17.167 25.0031L17.1842 24.9956L17.1443 24.9039L17.1271 24.9114L17.167 25.0031ZM17.1446 25.013C17.1513 25.0098 17.1584 25.0067 17.1666 25.0032L17.1274 24.9113C17.1195 24.9146 17.1106 24.9184 17.1017 24.9226L17.1446 25.013ZM17.0531 25.0602L17.1461 25.0122L17.1002 24.9234L17.0073 24.9713L17.0531 25.0602ZM17.0337 25.0709C17.0408 25.0669 17.0471 25.0633 17.0536 25.0599L17.0068 24.9715C16.9989 24.9757 16.9913 24.98 16.9845 24.9839L17.0337 25.0709ZM17.0137 25.082C17.0208 25.0783 17.0275 25.0744 17.0337 25.0709L16.9845 24.9839C16.9781 24.9875 16.9723 24.9908 16.9665 24.9939L17.0137 25.082ZM16.9987 25.0902L17.0141 25.0819L16.9662 24.9941L16.9508 25.0025L16.9987 25.0902ZM16.9984 25.0904L16.9984 25.0904L16.951 25.0023L16.951 25.0023L16.9984 25.0904ZM16.9426 25.1215C16.9604 25.1111 16.9791 25.1009 16.9986 25.0903L16.9508 25.0025C16.9315 25.013 16.9114 25.0239 16.8921 25.0352L16.9426 25.1215ZM16.9359 25.1253L16.9419 25.1219L16.8929 25.0347L16.8869 25.0381L16.9359 25.1253ZM16.9279 25.1296L16.9352 25.1256L16.8877 25.0377L16.8804 25.0416L16.9279 25.1296ZM16.9135 25.1376C16.9175 25.1352 16.922 25.1328 16.9278 25.1297L16.8805 25.0416C16.8751 25.0444 16.8684 25.048 16.8619 25.052L16.9135 25.1376ZM16.8381 25.1861L16.9147 25.1369L16.8607 25.0527L16.784 25.1019L16.8381 25.1861ZM16.8227 25.1967C16.8285 25.1926 16.8332 25.1892 16.8383 25.1859L16.7839 25.102C16.7766 25.1067 16.7701 25.1114 16.7646 25.1153L16.8227 25.1967ZM16.8066 25.2079C16.8125 25.204 16.818 25.2001 16.8227 25.1967L16.7646 25.1153C16.7597 25.1188 16.7555 25.1218 16.7512 25.1247L16.8066 25.2079ZM16.804 25.2097L16.8069 25.2077L16.7508 25.1249L16.7479 25.1269L16.804 25.2097ZM16.8032 25.2102L16.8033 25.2102L16.7486 25.1264L16.7486 25.1265L16.8032 25.2102ZM16.7339 25.2585C16.7559 25.2423 16.7794 25.2264 16.8039 25.2097L16.7478 25.127C16.7236 25.1434 16.6985 25.1604 16.6746 25.178L16.7339 25.2585ZM16.7213 25.2672C16.7248 25.2649 16.7293 25.2618 16.7337 25.2586L16.6748 25.1779C16.6723 25.1797 16.6695 25.1816 16.6656 25.1842L16.7213 25.2672ZM16.7104 25.2748C16.713 25.2728 16.7163 25.2706 16.7213 25.2672L16.6656 25.1842C16.6612 25.1871 16.6551 25.1912 16.6494 25.1956L16.7104 25.2748ZM16.6453 25.3266L16.711 25.2743L16.6488 25.1961L16.583 25.2484L16.6453 25.3266ZM16.6352 25.3354C16.6393 25.3317 16.6424 25.329 16.6456 25.3264L16.5827 25.2487C16.5771 25.2532 16.5722 25.2576 16.5683 25.2611L16.6352 25.3354ZM16.6228 25.3462C16.6275 25.3423 16.6318 25.3385 16.6352 25.3354L16.5684 25.2611C16.5647 25.2643 16.5619 25.2668 16.559 25.2693L16.6228 25.3462ZM16.5579 25.4027C16.5785 25.3838 16.6003 25.3652 16.6231 25.346L16.5587 25.2695C16.5357 25.2889 16.5126 25.3086 16.4904 25.3289L16.5579 25.4027ZM16.5437 25.415C16.5479 25.4114 16.5529 25.4072 16.5576 25.403L16.4907 25.3287C16.4874 25.3317 16.4837 25.3348 16.4792 25.3385L16.5437 25.415ZM16.5427 25.4158L16.5427 25.4158L16.4802 25.3377L16.4802 25.3377L16.5427 25.4158ZM16.5295 25.4274C16.5333 25.4238 16.5378 25.4199 16.5437 25.415L16.4792 25.3386C16.4738 25.3431 16.467 25.3489 16.4607 25.3548L16.5295 25.4274ZM16.4794 25.4772L16.5303 25.4266L16.4599 25.3556L16.4089 25.4062L16.4794 25.4772ZM16.477 25.4798L16.4805 25.4761L16.4079 25.4073L16.4044 25.411L16.477 25.4798ZM16.4724 25.4849L16.478 25.4786L16.4033 25.4122L16.3977 25.4185L16.4724 25.4849ZM16.468 25.4899L16.4725 25.4848L16.3976 25.4186L16.3931 25.4237L16.468 25.4899ZM16.464 25.4943L16.4672 25.4908L16.3939 25.4228L16.3906 25.4264L16.464 25.4943ZM16.4093 25.5544C16.427 25.5342 16.4447 25.5145 16.4635 25.4948L16.3911 25.4259C16.371 25.4469 16.3523 25.4678 16.3341 25.4885L16.4093 25.5544ZM16.3934 25.5718C16.3983 25.5665 16.4039 25.5606 16.4093 25.5545L16.3342 25.4884C16.33 25.4932 16.3255 25.498 16.3203 25.5035L16.3934 25.5718ZM16.3761 25.591C16.3809 25.5853 16.3865 25.5792 16.3934 25.5718L16.3203 25.5035C16.3139 25.5104 16.3063 25.5186 16.2994 25.5268L16.3761 25.591ZM16.3385 25.638L16.3768 25.5901L16.2987 25.5277L16.2604 25.5756L16.3385 25.638ZM16.3364 25.6412C16.338 25.6388 16.3385 25.638 16.3389 25.6375L16.26 25.5761C16.2571 25.5798 16.2547 25.5834 16.2533 25.5854L16.3364 25.6412ZM16.3299 25.6502C16.3327 25.6466 16.3351 25.6431 16.3364 25.6412L16.2533 25.5854C16.2518 25.5877 16.2513 25.5885 16.2509 25.589L16.3299 25.6502ZM16.2961 25.6977C16.3076 25.681 16.3184 25.6654 16.3302 25.6498L16.2506 25.5894C16.2372 25.607 16.2251 25.6245 16.2138 25.6409L16.2961 25.6977ZM16.2966 25.6971L16.2966 25.697L16.2134 25.6416L16.2133 25.6416L16.2966 25.6971ZM16.294 25.7006L16.294 25.7006L16.2159 25.6381L16.2159 25.6381L16.294 25.7006ZM16.2882 25.7092L16.2961 25.6978L16.2138 25.6409L16.2059 25.6524L16.2882 25.7092ZM16.2717 25.732C16.2769 25.7249 16.2825 25.7173 16.2879 25.7096L16.2061 25.652C16.2014 25.6588 16.1964 25.6656 16.1911 25.6728L16.2717 25.732ZM16.2718 25.7319L16.2718 25.7318L16.1909 25.673L16.1909 25.6731L16.2718 25.7319ZM16.2717 25.732L16.2718 25.7319L16.1909 25.6731L16.1908 25.6731L16.2717 25.732ZM16.2456 25.769C16.2531 25.7573 16.2618 25.7455 16.2716 25.7321L16.191 25.6729C16.1815 25.6858 16.1709 25.7003 16.1613 25.7153L16.2456 25.769ZM16.221 25.809L16.246 25.7684L16.1609 25.716L16.1359 25.7565L16.221 25.809ZM16.1465 25.9495C16.175 25.8909 16.198 25.8473 16.2213 25.8085L16.1356 25.757C16.1102 25.7993 16.0857 25.8458 16.0566 25.9058L16.1465 25.9495ZM16.141 25.9608L16.1464 25.9497L16.0567 25.9056L16.0512 25.9166L16.141 25.9608ZM16.1288 25.9854C16.1309 25.9809 16.1327 25.9774 16.1346 25.9735C16.1365 25.9698 16.1387 25.9655 16.1412 25.9604L16.051 25.917C16.0491 25.921 16.0474 25.9243 16.0454 25.9284C16.0433 25.9324 16.0411 25.9369 16.0384 25.9426L16.1288 25.9854ZM16.0858 26.0936C16.1006 26.0531 16.1146 26.0171 16.1292 25.9844L16.0379 25.9436C16.022 25.9793 16.007 26.0177 15.9918 26.0594L16.0858 26.0936ZM16.0829 26.1019L16.086 26.0932L15.9917 26.0598L15.9886 26.0685L16.0829 26.1019ZM16.0778 26.116L16.0828 26.1022L15.9887 26.0682L15.9837 26.082L16.0778 26.116ZM16.0777 26.1162L16.0778 26.116L15.9837 26.082L15.9837 26.0821L16.0777 26.1162ZM16.0777 26.1163L16.0777 26.1162L15.9837 26.0821L15.9837 26.0822L16.0777 26.1163ZM16.06 26.1666C16.0663 26.1478 16.0719 26.1323 16.0777 26.1163L15.9837 26.0822C15.9779 26.0982 15.9718 26.1148 15.9651 26.1351L16.06 26.1666ZM16.0564 26.1815C16.058 26.1743 16.0591 26.1695 16.0603 26.1656L15.9648 26.136C15.9622 26.1443 15.9603 26.1531 15.9589 26.1594L16.0564 26.1815ZM16.0516 26.201C16.0535 26.1941 16.0552 26.1869 16.0564 26.1815L15.9589 26.1594C15.9575 26.1655 15.9565 26.1698 15.9555 26.1734L16.0516 26.201ZM16.021 26.3236C16.0291 26.2844 16.0393 26.2436 16.0516 26.2011L15.9555 26.1733C15.9425 26.2181 15.9318 26.2614 15.9231 26.3033L16.021 26.3236ZM16.0172 26.3385C16.0182 26.3349 16.0196 26.3299 16.0209 26.324L15.9231 26.303C15.9225 26.3057 15.9219 26.3081 15.9208 26.3119L16.0172 26.3385ZM16.0165 26.341L16.0165 26.341L15.9216 26.3094L15.9216 26.3094L16.0165 26.341ZM16.0159 26.3435C16.0163 26.342 16.0167 26.3405 16.0172 26.3385L15.9208 26.3119C15.9203 26.3138 15.9197 26.316 15.9191 26.3185L16.0159 26.3435ZM16.0147 26.3488C16.015 26.347 16.0154 26.3453 16.0159 26.3435L15.9191 26.3185C15.9182 26.3217 15.9173 26.3254 15.9165 26.3297L16.0147 26.3488ZM16.0132 26.3561L16.0146 26.3489L15.9165 26.3296L15.9151 26.3368L16.0132 26.3561ZM15.5944 26.5312C15.7177 26.4754 15.8456 26.4297 15.977 26.3948L15.9513 26.2982C15.8146 26.3345 15.6815 26.382 15.5531 26.4401L15.5944 26.5312ZM15.5915 26.5327L15.5963 26.5303L15.5513 26.441L15.5465 26.4434L15.5915 26.5327ZM15.5894 26.534L15.594 26.5313L15.544 26.4447L15.5394 26.4474L15.5894 26.534ZM15.5771 26.5406C15.5826 26.5381 15.5874 26.5352 15.5898 26.5337L15.5391 26.4476C15.5359 26.4494 15.5352 26.4498 15.5348 26.45L15.5771 26.5406ZM15.2494 26.7223C15.3534 26.6536 15.4628 26.5929 15.5767 26.5408L15.5351 26.4499C15.4166 26.5041 15.3026 26.5673 15.1943 26.6388L15.2494 26.7223ZM15.2081 26.7538C15.2231 26.7416 15.236 26.7312 15.2495 26.7222L15.1943 26.6389C15.176 26.6509 15.1595 26.6644 15.145 26.6762L15.2081 26.7538ZM15.207 26.7546L15.207 26.7546L15.1461 26.6753L15.146 26.6754L15.207 26.7546ZM15.207 26.7546L15.207 26.7546L15.146 26.6754L15.146 26.6754L15.207 26.7546ZM15.207 26.7546L15.207 26.7546L15.146 26.6754L15.146 26.6754L15.207 26.7546ZM15.1717 26.7821C15.1848 26.7727 15.197 26.7628 15.208 26.7538L15.145 26.6762C15.1336 26.6854 15.1235 26.6936 15.1132 26.7011L15.1717 26.7821ZM14.9449 26.9629C15.0164 26.8984 15.092 26.8382 15.1712 26.7825L15.1137 26.7007C15.0312 26.7586 14.9524 26.8214 14.8779 26.8887L14.9449 26.9629ZM14.8839 27.0267C14.905 27.0033 14.9244 26.9819 14.9454 26.9625L14.8774 26.8891C14.8526 26.9121 14.8303 26.9369 14.8097 26.9597L14.8839 27.0267ZM14.8471 27.0667C14.8599 27.0533 14.8722 27.0397 14.8839 27.0267L14.8097 26.9597C14.7978 26.9729 14.7864 26.9854 14.7748 26.9976L14.8471 27.0667ZM14.6853 27.2486C14.7358 27.1855 14.7896 27.125 14.8466 27.0673L14.7754 26.997C14.716 27.0572 14.6598 27.1203 14.6072 27.1861L14.6853 27.2486ZM14.6689 27.267C14.6732 27.2625 14.6797 27.2558 14.6857 27.248L14.6068 27.1866C14.6046 27.1895 14.6018 27.1925 14.5968 27.1976L14.6689 27.267ZM14.6682 27.2677L14.6682 27.2676L14.5975 27.1969L14.5975 27.1969L14.6682 27.2677ZM14.6585 27.2785C14.6607 27.2756 14.6635 27.2726 14.6689 27.267L14.5968 27.1976C14.5922 27.2025 14.585 27.2099 14.5784 27.2186L14.6585 27.2785ZM14.5082 27.5102C14.5536 27.4301 14.6038 27.3526 14.6587 27.2782L14.5782 27.2189C14.521 27.2965 14.4685 27.3773 14.4212 27.461L14.5082 27.5102ZM14.4994 27.5272C14.5027 27.5205 14.5053 27.5153 14.5081 27.5105L14.4213 27.4607C14.4169 27.4685 14.413 27.4763 14.4099 27.4825L14.4994 27.5272ZM14.4946 27.5365L14.4993 27.5274L14.41 27.4823L14.4054 27.4915L14.4946 27.5365ZM14.4903 27.5447L14.4941 27.5375L14.4058 27.4906L14.402 27.4978L14.4903 27.5447ZM14.3575 27.8345C14.3946 27.7353 14.4389 27.6387 14.49 27.5453L14.4023 27.4973C14.3489 27.5948 14.3026 27.6957 14.2639 27.7995L14.3575 27.8345ZM14.3508 27.8517L14.3572 27.8353L14.2642 27.7987L14.2577 27.8152L14.3508 27.8517ZM14.3421 27.8744C14.3445 27.8673 14.3474 27.8603 14.3507 27.852L14.2578 27.8149C14.2547 27.8228 14.251 27.8319 14.2477 27.8414L14.3421 27.8744ZM14.2531 28.2081C14.2738 28.0949 14.3035 27.9834 14.342 27.8745L14.2477 27.8412C14.2075 27.955 14.1764 28.0717 14.1547 28.1901L14.2531 28.2081ZM14.2491 28.2339C14.2504 28.2244 14.2516 28.2161 14.2531 28.2082L14.1547 28.19C14.1528 28.2005 14.1514 28.2109 14.1501 28.22L14.2491 28.2339ZM14.2463 28.2531L14.2491 28.2342L14.1501 28.2197L14.1473 28.2386L14.2463 28.2531ZM14.2168 28.5903C14.2181 28.4776 14.2278 28.3652 14.2462 28.254L14.1475 28.2377C14.1283 28.354 14.1181 28.4715 14.1168 28.5891L14.2168 28.5903ZM14.2156 28.6058C14.2159 28.6031 14.2168 28.5967 14.2168 28.5897H14.1168C14.1168 28.5893 14.1169 28.5895 14.1164 28.5932L14.2156 28.6058ZM14.2152 28.6093C14.2152 28.6097 14.2151 28.6095 14.2156 28.6058L14.1164 28.5932C14.116 28.5959 14.1152 28.6023 14.1152 28.6093H14.2152ZM14.2156 28.6164L14.2151 28.607L14.1152 28.6117L14.1157 28.6211L14.2156 28.6164ZM14.2201 28.71C14.2178 28.6781 14.2158 28.6481 14.2156 28.6185L14.1156 28.619C14.1158 28.6523 14.1181 28.6856 14.1203 28.7169L14.2201 28.71ZM14.2223 28.744L14.2201 28.7101L14.1203 28.7168L14.1225 28.7507L14.2223 28.744ZM14.2243 28.7797L14.2224 28.7446L14.1225 28.75L14.1244 28.7851L14.2243 28.7797ZM14.2298 28.8589C14.227 28.8336 14.2257 28.8077 14.2243 28.7799L14.1244 28.785C14.1258 28.8122 14.1272 28.8412 14.1305 28.87L14.2298 28.8589ZM14.2493 28.9835C14.2417 28.9406 14.2344 28.8995 14.2298 28.8589L14.1305 28.87C14.1354 28.9144 14.1433 28.9586 14.1508 29.001L14.2493 28.9835ZM14.2497 28.9861L14.2497 28.9861L14.1505 28.9985L14.1505 28.9985L14.2497 28.9861ZM14.2497 28.9861L14.2497 28.9861L14.1505 28.9985L14.1505 28.9985L14.2497 28.9861ZM14.2497 28.9861L14.2497 28.9861L14.1505 28.9985L14.1505 28.9985L14.2497 28.9861ZM14.2536 29.008L14.2493 28.9836L14.1508 29.001L14.1552 29.0254L14.2536 29.008ZM14.2587 29.0386C14.2571 29.0287 14.2555 29.0183 14.2536 29.0078L14.1552 29.0257C14.1569 29.0348 14.1583 29.0442 14.1599 29.0542L14.2587 29.0386ZM14.2587 29.0387L14.2587 29.0386L14.1599 29.0541L14.1599 29.0541L14.2587 29.0387ZM14.2666 29.083C14.2635 29.0691 14.2612 29.0547 14.2587 29.0386L14.1599 29.0542C14.1624 29.0698 14.1651 29.0871 14.1689 29.1043L14.2666 29.083ZM14.2704 29.1055C14.2695 29.0993 14.2683 29.0915 14.2667 29.0836L14.1688 29.1038C14.1698 29.1087 14.1705 29.1138 14.1716 29.1204L14.2704 29.1055ZM14.2738 29.1247C14.2725 29.1191 14.2716 29.1134 14.2704 29.1055L14.1716 29.1204C14.1727 29.1277 14.1741 29.1372 14.1763 29.1469L14.2738 29.1247ZM14.2957 29.1994C14.2871 29.173 14.2793 29.149 14.2738 29.1247L14.1763 29.1469C14.183 29.1763 14.1922 29.2046 14.2006 29.2303L14.2957 29.1994ZM14.3105 29.2469C14.3058 29.2306 14.3006 29.2146 14.2957 29.1994L14.2006 29.2303C14.2056 29.2457 14.2103 29.2602 14.2145 29.2748L14.3105 29.2469ZM14.3174 29.2704L14.3105 29.2468L14.2145 29.2749L14.2215 29.2985L14.3174 29.2704ZM14.3175 29.2708L14.3175 29.2707L14.2214 29.2982L14.2214 29.2982L14.3175 29.2708ZM14.3176 29.2711L14.3176 29.271L14.2213 29.298L14.2213 29.298L14.3176 29.2711ZM14.3302 29.3126C14.3258 29.2993 14.3218 29.2856 14.3175 29.2707L14.2214 29.2984C14.2256 29.313 14.2302 29.3288 14.2355 29.3445L14.3302 29.3126ZM14.4029 29.503C14.3757 29.4406 14.3515 29.3776 14.3304 29.313L14.2353 29.344C14.2575 29.4119 14.2829 29.4779 14.3112 29.5429L14.4029 29.503ZM14.4058 29.5094L14.4025 29.5022L14.3115 29.5436L14.3148 29.5509L14.4058 29.5094ZM14.9152 30.2356C14.6983 30.0274 14.5254 29.781 14.4061 29.51L14.3145 29.5503C14.4393 29.8335 14.6198 30.0907 14.846 30.3077L14.9152 30.2356ZM14.9226 30.2427L14.9154 30.2357L14.8459 30.3076L14.8531 30.3146L14.9226 30.2427ZM15.0887 30.3878C15.0308 30.3422 14.9759 30.2935 14.9223 30.2424L14.8534 30.3148C14.9086 30.3675 14.9659 30.4183 15.0267 30.4663L15.0887 30.3878ZM15.0899 30.3887L15.0874 30.3869L15.028 30.4673L15.0305 30.4691L15.0899 30.3887ZM15.4144 30.6032C15.3007 30.5407 15.1925 30.4692 15.0911 30.3896L15.0293 30.4682C15.1351 30.5512 15.2477 30.6257 15.3662 30.6908L15.4144 30.6032ZM15.4408 30.6185C15.4325 30.6136 15.4237 30.6085 15.4148 30.6034L15.3658 30.6906C15.3737 30.6951 15.3817 30.6998 15.3901 30.7047L15.4408 30.6185ZM15.4804 30.6409C15.4675 30.6342 15.4548 30.6268 15.4408 30.6185L15.3901 30.7047C15.4038 30.7127 15.4187 30.7216 15.4345 30.7297L15.4804 30.6409ZM15.575 30.685C15.542 30.6703 15.5106 30.6563 15.4802 30.6408L15.4346 30.7298C15.4678 30.7468 15.5018 30.7619 15.5343 30.7764L15.575 30.685ZM15.5705 30.6833L15.5705 30.6832L15.5388 30.7781L15.5389 30.7781L15.5705 30.6833ZM15.5932 30.6931L15.575 30.685L15.5343 30.7764L15.5525 30.7844L15.5932 30.6931ZM15.7535 30.7595C15.6992 30.7393 15.646 30.7171 15.5935 30.6933L15.5521 30.7843C15.6065 30.809 15.6619 30.8322 15.7186 30.8533L15.7535 30.7595ZM15.7763 30.7691C15.77 30.7663 15.7619 30.7626 15.7531 30.7594L15.719 30.8534C15.7238 30.8551 15.7287 30.8573 15.7355 30.8603L15.7763 30.7691ZM15.7947 30.7767C15.7894 30.7749 15.784 30.7725 15.7763 30.7691L15.7355 30.8603C15.7426 30.8635 15.7521 30.8678 15.7624 30.8713L15.7947 30.7767ZM15.8046 30.7792C15.7992 30.778 15.7968 30.7774 15.7947 30.7767L15.7624 30.8713C15.7703 30.874 15.7778 30.8757 15.7824 30.8767L15.8046 30.7792ZM15.8235 30.7843C15.8161 30.7818 15.8091 30.7802 15.8046 30.7792L15.7824 30.8767C15.7875 30.8779 15.79 30.8785 15.7921 30.8792L15.8235 30.7843ZM16.1635 30.8738C16.0481 30.8521 15.9346 30.8223 15.824 30.7844L15.7916 30.879C15.9069 30.9185 16.025 30.9495 16.145 30.9721L16.1635 30.8738ZM16.1702 30.8748C16.1668 30.8743 16.165 30.8741 16.1635 30.8738L16.145 30.9721C16.1498 30.973 16.1543 30.9736 16.1572 30.9739L16.1702 30.8748ZM16.172 30.875L16.1719 30.875L16.1555 30.9737L16.1555 30.9737L16.172 30.875ZM16.172 30.875L16.172 30.875L16.1555 30.9737L16.1556 30.9737L16.172 30.875ZM16.1791 30.8761L16.1709 30.8749L16.1566 30.9739L16.1648 30.975L16.1791 30.8761ZM16.4992 30.9106C16.3923 30.906 16.2858 30.8946 16.1805 30.8763L16.1634 30.9748C16.2729 30.9938 16.3837 31.0058 16.495 31.0105L16.4992 30.9106ZM16.5236 30.912L16.4999 30.9106L16.4943 31.0105L16.5181 31.0118L16.5236 30.912ZM16.5691 30.914C16.5545 30.9138 16.5397 30.9129 16.5238 30.912L16.5179 31.0118C16.5335 31.0127 16.5503 31.0137 16.5672 31.014L16.5691 30.914ZM16.5816 30.9145L16.5701 30.9141L16.5662 31.014L16.5776 31.0144L16.5816 30.9145ZM16.5937 30.9153L16.5828 30.9146L16.5763 31.0144L16.5872 31.0151L16.5937 30.9153ZM16.6166 30.9164C16.6098 30.9164 16.6028 30.9159 16.5939 30.9153L16.587 31.0151C16.5954 31.0157 16.6058 31.0164 16.6166 31.0164V30.9164ZM16.7598 30.9074C16.7103 30.912 16.6635 30.9164 16.6166 30.9164V31.0164C16.6689 31.0164 16.7204 31.0115 16.7691 31.007L16.7598 30.9074ZM16.7645 30.9072H16.7645V31.0072H16.7645V30.9072ZM16.7645 30.9072H16.7645V31.0072H16.7645V30.9072ZM16.7645 30.9072H16.7645V31.0072H16.7645V30.9072ZM16.7645 30.9072H16.7645V31.0072H16.7645V30.9072ZM16.8132 30.9026C16.7953 30.9041 16.7774 30.9058 16.7599 30.9074L16.7692 31.007C16.7868 31.0053 16.8041 31.0037 16.8214 31.0023L16.8132 30.9026ZM16.8621 30.8997C16.8465 30.9005 16.8299 30.9013 16.8133 30.9026L16.8213 31.0023C16.8361 31.0011 16.851 31.0004 16.8669 30.9996L16.8621 30.8997ZM16.933 30.8944C16.9105 30.8974 16.8875 30.8985 16.8621 30.8997L16.8669 30.9996C16.8916 30.9984 16.9187 30.9972 16.9461 30.9935L16.933 30.8944ZM17.2836 30.8232C17.1688 30.8555 17.0517 30.8793 16.9332 30.8944L16.9458 30.9936C17.0692 30.9779 17.1912 30.953 17.3106 30.9195L17.2836 30.8232ZM19.1925 31.7587C18.4719 31.6952 17.8057 31.3649 17.3343 30.838L17.2598 30.9047C17.7485 31.4509 18.4385 31.7926 19.1838 31.8583L19.1925 31.7587ZM19.5136 31.7735C19.4044 31.7735 19.2975 31.7685 19.1928 31.7587L19.1835 31.8583C19.2913 31.8684 19.4014 31.8735 19.5136 31.8735V31.7735ZM23.2293 29.4518C22.5485 30.8394 21.1099 31.739 19.5125 31.7735L19.5147 31.8735C21.1479 31.8382 22.6211 30.9183 23.319 29.4958L23.2293 29.4518ZM26.1973 30.0594C25.19 30.093 24.1908 29.8759 23.2965 29.4291L23.2518 29.5185C24.1611 29.9728 25.1768 30.1935 26.2007 30.1593L26.1973 30.0594ZM26.3084 30.0446C26.2728 30.0543 26.2359 30.0593 26.199 30.0593L26.1991 30.1593C26.2449 30.1593 26.2906 30.1531 26.3347 30.141L26.3084 30.0446ZM28.9151 26.2202C29.0028 26.8467 28.9544 27.6374 28.5834 28.3532C28.2134 29.0673 27.5201 29.7117 26.3083 30.0446L26.3348 30.141C27.5715 29.8013 28.2885 29.1398 28.6722 28.3992C29.0551 27.6603 29.1039 26.8474 29.0141 26.2063L28.9151 26.2202ZM29.2625 26.1183C29.1532 26.137 29.0501 26.1524 28.9585 26.1636L28.9706 26.2629C29.0642 26.2514 29.1688 26.2357 29.2793 26.2169L29.2625 26.1183ZM29.2996 26.1121L29.2627 26.1183L29.2791 26.2169L29.316 26.2108L29.2996 26.1121ZM29.6365 26.0424C29.5182 26.0699 29.4049 26.0935 29.2991 26.1122L29.3165 26.2107C29.4244 26.1916 29.5395 26.1676 29.6592 26.1398L29.6365 26.0424ZM29.6564 26.0378L29.6366 26.0424L29.659 26.1398L29.6789 26.1352L29.6564 26.0378ZM29.6934 26.0291L29.6562 26.0378L29.6791 26.1352L29.7162 26.1265L29.6934 26.0291ZM30.0601 25.9278C29.9338 25.9667 29.8111 26.0006 29.693 26.0292L29.7166 26.1264C29.8368 26.0973 29.9614 26.0629 30.0896 26.0234L30.0601 25.9278ZM30.0873 25.9193L30.0599 25.9279L30.0898 26.0233L30.1172 26.0147L30.0873 25.9193ZM30.1227 25.908L30.0871 25.9194L30.1175 26.0146L30.1531 26.0033L30.1227 25.908ZM30.5141 25.7669C30.3815 25.8203 30.2509 25.8669 30.1226 25.908L30.1531 26.0033C30.2836 25.9614 30.4164 25.9141 30.5515 25.8597L30.5141 25.7669ZM30.5493 25.7522C30.5372 25.7573 30.5257 25.7623 30.5141 25.7669L30.5515 25.8597C30.5642 25.8546 30.5766 25.8492 30.5886 25.8441L30.5493 25.7522ZM30.5704 25.7432L30.5494 25.7521L30.5885 25.8442L30.6095 25.8353L30.5704 25.7432ZM30.9832 25.5512C30.8458 25.6231 30.7079 25.686 30.5707 25.7431L30.6091 25.8354C30.7484 25.7774 30.889 25.7134 31.0296 25.6398L30.9832 25.5512ZM30.9906 25.5472L30.9827 25.5515L31.0301 25.6395L31.0381 25.6352L30.9906 25.5472ZM30.9962 25.544L30.9899 25.5476L31.0388 25.6348L31.0451 25.6313L30.9962 25.544ZM31.0154 25.5333C31.0086 25.537 31.0017 25.5409 30.9961 25.5441L31.0453 25.6312C31.0518 25.6275 31.0571 25.6245 31.0625 25.6216L31.0154 25.5333ZM31.4348 25.2821C31.2998 25.3729 31.1599 25.4567 31.0156 25.5333L31.0624 25.6216C31.2098 25.5434 31.3527 25.4578 31.4906 25.3651L31.4348 25.2821ZM31.4494 25.2728L31.4359 25.2814L31.4895 25.3658L31.503 25.3572L31.4494 25.2728ZM31.845 24.966C31.719 25.076 31.5864 25.1788 31.4479 25.2738L31.5045 25.3563C31.6462 25.259 31.7818 25.1539 31.9107 25.0413L31.845 24.966ZM31.8669 24.9474C31.86 24.9533 31.8525 24.9595 31.845 24.966L31.9107 25.0414C31.9172 25.0357 31.9238 25.0302 31.931 25.0243L31.8669 24.9474ZM31.8925 24.9256C31.8844 24.9329 31.8761 24.9398 31.8669 24.9474L31.931 25.0243C31.9399 25.0168 31.9495 25.0088 31.9591 25.0002L31.8925 24.9256ZM32.2446 24.5669C32.1351 24.6935 32.0174 24.8133 31.8924 24.9257L31.9593 25.0001C32.0874 24.8849 32.2079 24.7621 32.3202 24.6324L32.2446 24.5669ZM32.2647 24.5465C32.2592 24.5517 32.2519 24.5587 32.2448 24.5668L32.3201 24.6325C32.3237 24.6285 32.3277 24.6246 32.3336 24.619L32.2647 24.5465ZM32.2787 24.5323C32.2751 24.5365 32.2709 24.5406 32.2646 24.5465L32.3336 24.6189C32.3394 24.6135 32.3472 24.606 32.3548 24.5972L32.2787 24.5323ZM32.8406 24.9423C32.6835 24.7954 32.519 24.6564 32.3471 24.525L32.2864 24.6045C32.4557 24.7338 32.6177 24.8708 32.7723 25.0154L32.8406 24.9423ZM33.38 26.1932C33.3823 25.7232 33.1878 25.2725 32.8409 24.9426L32.772 25.0151C33.0993 25.3264 33.2822 25.7509 33.28 26.1927L33.38 26.1932ZM33.38 33.9662V26.1929H33.28V33.9662H33.38ZM33.3301 33.9162H33.33V34.0162H33.3301V33.9162ZM19.9592 23.6309C19.8536 23.6311 19.7528 23.5907 19.6789 23.5194L19.6094 23.5914C19.7024 23.6811 19.8283 23.7311 19.9593 23.7309L19.9592 23.6309ZM20.325 23.3966C20.2643 23.5376 20.1204 23.6309 19.9592 23.6309L19.9592 23.7309C20.1586 23.7309 20.3397 23.6154 20.4168 23.4362L20.325 23.3966ZM20.2397 22.9855C20.3524 23.0938 20.3856 23.256 20.325 23.3966L20.4169 23.4362C20.4942 23.2566 20.4512 23.0501 20.309 22.9134L20.2397 22.9855ZM20.2393 22.9851L20.2396 22.9854L20.309 22.9134L20.3087 22.9131L20.2393 22.9851ZM19.0178 19.824C19.0178 20.8134 19.2154 21.5012 19.4683 21.9941C19.7212 22.4869 20.0279 22.7817 20.2394 22.9852L20.3087 22.9131C20.0985 22.7109 19.8021 22.4256 19.5573 21.9484C19.3125 21.4714 19.1178 20.7995 19.1178 19.824H19.0178ZM20.2417 17.0893C19.4366 17.7842 18.9889 18.7844 19.0179 19.8254L19.1178 19.8226C19.0897 18.8124 19.5241 17.8408 20.307 17.165L20.2417 17.0893ZM20.2369 16.5599C20.3894 16.7066 20.3906 16.9433 20.2394 17.0914L20.3093 17.1628C20.5009 16.9753 20.4993 16.6736 20.3062 16.4878L20.2369 16.5599ZM19.6785 16.5575C19.8336 16.411 20.0832 16.4121 20.2369 16.5599L20.3062 16.4878C20.114 16.303 19.8037 16.3017 19.6098 16.4848L19.6785 16.5575ZM18.2265 19.8227C18.1953 18.5845 18.7242 17.3937 19.6771 16.5588L19.6112 16.4835C18.6365 17.3375 18.0945 18.5566 18.1265 19.8252L18.2265 19.8227ZM19.6788 23.5193C19.4413 23.291 19.0794 22.9428 18.7759 22.3648C18.4726 21.7869 18.2265 20.9766 18.2265 19.824H18.1265C18.1265 20.9916 18.376 21.818 18.6874 22.4113C18.9987 23.0043 19.3706 23.3617 19.6095 23.5914L19.6788 23.5193ZM19.1469 27.4941C18.8793 27.4526 18.6242 27.627 18.5794 27.8885L18.678 27.9054C18.713 27.701 18.9145 27.5593 19.1316 27.593L19.1469 27.4941ZM22.1628 25.6729C21.7667 26.9133 20.4841 27.6898 19.1465 27.4941L19.132 27.593C20.5155 27.7954 21.8463 26.9928 22.2581 25.7033L22.1628 25.6729ZM22.6324 25.3451C22.4208 25.3457 22.2314 25.476 22.1632 25.6716L22.2577 25.7045C22.3112 25.5509 22.4614 25.4456 22.6327 25.4451L22.6324 25.3451ZM26.1488 22.8238C26.1488 23.4444 25.9397 23.9098 25.6248 24.2605C25.3091 24.6122 24.8849 24.8507 24.4528 25.0121C23.5879 25.3352 22.7035 25.3449 22.6324 25.3451L22.6327 25.4451C22.7072 25.4449 23.6059 25.4352 24.4878 25.1058C24.929 24.941 25.3691 24.695 25.6992 24.3273C26.0303 23.9585 26.2488 23.4694 26.2488 22.8238H26.1488ZM26.6445 22.3453C26.3726 22.3453 26.1488 22.5577 26.1488 22.8238H26.2488C26.2488 22.6166 26.4241 22.4453 26.6445 22.4453V22.3453ZM27.1402 22.8238C27.1402 22.5577 26.9164 22.3453 26.6445 22.3453V22.4453C26.8649 22.4453 27.0402 22.6166 27.0402 22.8238H27.1402ZM22.9493 26.2929C23.7502 26.247 24.7952 26.0252 25.6416 25.4931C26.4903 24.9596 27.1402 24.113 27.1402 22.8238H27.0402C27.0402 24.0722 26.4138 24.8896 25.5884 25.4085C24.7608 25.9287 23.7339 26.1478 22.9435 26.1931L22.9493 26.2929ZM19.526 28.4789C21.0489 28.5102 22.4325 27.6266 22.9927 26.262L22.9002 26.224C22.3563 27.5487 21.0115 28.4094 19.5281 28.3789L19.526 28.4789ZM18.9867 28.4385C19.1655 28.4662 19.3462 28.4796 19.5273 28.4789L19.5269 28.3789C19.3511 28.3796 19.1755 28.3665 19.0019 28.3397L18.9867 28.4385ZM18.5794 27.8885C18.5345 28.1505 18.7186 28.3952 18.9863 28.4385L19.0023 28.3398C18.7859 28.3048 18.643 28.1092 18.678 27.9054L18.5794 27.8885ZM29.0509 23.1622C28.8541 23.2567 28.6161 23.1792 28.5189 22.9924L28.4302 23.0386C28.5533 23.2751 28.8507 23.3693 29.0942 23.2523L29.0509 23.1622ZM31.0427 20.481C30.9714 21.3644 30.4952 22.0246 30.0236 22.4705C29.5519 22.9163 29.0883 23.1442 29.0509 23.1622L29.0942 23.2523C29.1365 23.232 29.6102 22.9988 30.0923 22.5431C30.5743 22.0874 31.0684 21.4057 31.1424 20.4891L31.0427 20.481ZM31.9432 18.5408C31.9789 19.2734 31.6525 19.9798 31.0616 20.4458L31.1235 20.5243C31.739 20.0389 32.0804 19.3017 32.0431 18.5359L31.9432 18.5408ZM31.5475 18.1598C31.7679 18.1598 31.9431 18.3311 31.9431 18.5383H32.0431C32.0431 18.2722 31.8194 18.0598 31.5475 18.0598V18.1598ZM31.1518 18.5383C31.1518 18.3311 31.327 18.1598 31.5475 18.1598V18.0598C31.2755 18.0598 31.0518 18.2722 31.0518 18.5383H31.1518ZM30.4845 19.9108C30.9481 19.6015 31.2036 19.0755 31.1516 18.5336L31.052 18.5431C31.1004 19.0472 30.863 19.5381 30.429 19.8276L30.4845 19.9108ZM30.2604 20.2525C30.2604 20.1102 30.344 19.9789 30.4784 19.9142L30.4351 19.8241C30.2675 19.9047 30.1604 20.0702 30.1604 20.2525H30.2604ZM28.695 22.4858C28.7111 22.478 29.1005 22.2821 29.4866 21.9087C29.8726 21.5353 30.2604 20.9794 30.2604 20.2525H30.1604C30.1604 20.9415 29.793 21.4732 29.4171 21.8368C29.0413 22.2002 28.662 22.3907 28.6511 22.396L28.695 22.4858ZM28.5189 22.9925C28.4227 22.8071 28.4996 22.5804 28.6949 22.4859L28.6513 22.3959C28.4074 22.5139 28.3069 22.8011 28.4302 23.0386L28.5189 22.9925ZM24.8651 21.5881C25.8628 21.5306 26.7821 21.0469 27.3709 20.2689L27.2911 20.2085C26.7206 20.9626 25.8287 21.4324 24.8594 21.4882L24.8651 21.5881ZM24.3653 21.111C24.3661 21.3772 24.5905 21.589 24.8624 21.5882L24.8621 21.4882C24.6417 21.4888 24.4659 21.318 24.4653 21.1107L24.3653 21.111ZM24.8595 20.6311C24.5876 20.6319 24.3645 20.8449 24.3653 21.111L24.4653 21.1107C24.4647 20.9035 24.6394 20.7317 24.8598 20.7311L24.8595 20.6311ZM26.6779 19.5591C26.2813 20.1727 25.6058 20.5707 24.8556 20.6313L24.8637 20.7309C25.6438 20.6679 26.3478 20.254 26.7619 19.6134L26.6779 19.5591ZM27.0908 19.3454C26.9259 19.3454 26.7711 19.4246 26.6788 19.5578L26.761 19.6147C26.834 19.5094 26.9576 19.4454 27.0908 19.4454V19.3454ZM28.4305 18.7521C28.2856 19.0307 27.9604 19.181 27.6571 19.2607C27.5071 19.3002 27.3661 19.3214 27.2618 19.3327C27.2098 19.3384 27.1671 19.3416 27.1372 19.3433C27.1069 19.3451 27.0905 19.3454 27.0908 19.3454V19.4454C27.0982 19.4454 27.3711 19.4393 27.6826 19.3575C27.9915 19.2763 28.3537 19.1165 28.5192 18.7983L28.4305 18.7521ZM29.0941 18.5394C28.8509 18.4225 28.5539 18.5161 28.4305 18.752L28.5192 18.7984C28.6166 18.6121 28.8542 18.535 29.0508 18.6295L29.0941 18.5394ZM29.3167 19.1815C29.4395 18.9438 29.3383 18.6567 29.0941 18.5394L29.0508 18.6295C29.2462 18.7234 29.3237 18.95 29.2278 19.1356L29.3167 19.1815ZM27.3358 20.2885C27.5744 20.2655 27.9562 20.2045 28.3345 20.0423C28.7129 19.88 29.0913 19.6148 29.3166 19.1816L29.2279 19.1355C29.0166 19.5416 28.6602 19.7938 28.2951 19.9504C27.9298 20.107 27.5592 20.1665 27.3262 20.1889L27.3358 20.2885Z" fill="#676F8F"/>
</svg>
