<svg width="40" height="40" viewBox="0 0 40 40" fill="none" xmlns="http://www.w3.org/2000/svg">
<path d="M31.25 38.125H8.75C8.25272 38.125 7.77581 37.9275 7.42417 37.5758C7.07254 37.2242 6.875 36.7473 6.875 36.25V6.25C6.875 5.75272 7.07254 5.27581 7.42417 4.92417C7.77581 4.57254 8.25272 4.375 8.75 4.375H15.625V6.875H24.375V4.375H31.25C31.7473 4.375 32.2242 4.57254 32.5758 4.92417C32.9275 5.27581 33.125 5.75272 33.125 6.25V36.25C33.125 36.7473 32.9275 37.2242 32.5758 37.5758C32.2242 37.9275 31.7473 38.125 31.25 38.125Z" fill="#1ECD96" fill-opacity="0.4"/>
<path d="M9.375 6.875H30.625V35.625H9.375V6.875Z" fill="#DEF4EC"/>
<path d="M13.75 13.75C13.2555 13.75 12.7722 13.6034 12.3611 13.3287C11.95 13.054 11.6295 12.6635 11.4403 12.2067C11.2511 11.7499 11.2016 11.2472 11.298 10.7623C11.3945 10.2773 11.6326 9.83187 11.9822 9.48223C12.3319 9.1326 12.7773 8.8945 13.2623 8.79804C13.7472 8.70157 14.2499 8.75108 14.7067 8.9403C15.1635 9.12952 15.554 9.44995 15.8287 9.86108C16.1034 10.2722 16.25 10.7555 16.25 11.25C16.25 11.913 15.9866 12.5489 15.5178 13.0178C15.0489 13.4866 14.413 13.75 13.75 13.75ZM13.75 10C13.5028 10 13.2611 10.0733 13.0555 10.2107C12.85 10.348 12.6898 10.5432 12.5952 10.7716C12.5005 11.0001 12.4758 11.2514 12.524 11.4939C12.5723 11.7363 12.6913 11.9591 12.8661 12.1339C13.0409 12.3087 13.2637 12.4278 13.5061 12.476C13.7486 12.5242 13.9999 12.4995 14.2284 12.4049C14.4568 12.3102 14.652 12.15 14.7893 11.9445C14.9267 11.7389 15 11.4972 15 11.25C15 10.9185 14.8683 10.6005 14.6339 10.3661C14.3995 10.1317 14.0815 10 13.75 10Z" fill="#4F83D1"/>
<path d="M13.75 20C13.2555 20 12.7722 19.8534 12.3611 19.5787C11.95 19.304 11.6295 18.9135 11.4403 18.4567C11.2511 17.9999 11.2016 17.4972 11.298 17.0123C11.3945 16.5273 11.6326 16.0819 11.9822 15.7322C12.3319 15.3826 12.7773 15.1445 13.2623 15.048C13.7472 14.9516 14.2499 15.0011 14.7067 15.1903C15.1635 15.3795 15.554 15.7 15.8287 16.1111C16.1034 16.5222 16.25 17.0056 16.25 17.5C16.25 18.163 15.9866 18.7989 15.5178 19.2678C15.0489 19.7366 14.413 20 13.75 20ZM13.75 16.25C13.5028 16.25 13.2611 16.3233 13.0555 16.4607C12.85 16.598 12.6898 16.7932 12.5952 17.0216C12.5005 17.2501 12.4758 17.5014 12.524 17.7439C12.5723 17.9863 12.6913 18.2091 12.8661 18.3839C13.0409 18.5587 13.2637 18.6778 13.5061 18.726C13.7486 18.7742 13.9999 18.7495 14.2284 18.6549C14.4568 18.5602 14.652 18.4 14.7893 18.1945C14.9267 17.9889 15 17.7472 15 17.5C15 17.1685 14.8683 16.8505 14.6339 16.6161C14.3995 16.3817 14.0815 16.25 13.75 16.25Z" fill="#4F83D1"/>
<path d="M13.75 32.5C13.2555 32.5 12.7722 32.3534 12.3611 32.0787C11.95 31.804 11.6295 31.4135 11.4403 30.9567C11.2511 30.4999 11.2016 29.9972 11.298 29.5123C11.3945 29.0273 11.6326 28.5819 11.9822 28.2322C12.3319 27.8826 12.7773 27.6445 13.2623 27.548C13.7472 27.4516 14.2499 27.5011 14.7067 27.6903C15.1635 27.8795 15.554 28.2 15.8287 28.6111C16.1034 29.0222 16.25 29.5056 16.25 30C16.25 30.663 15.9866 31.2989 15.5178 31.7678C15.0489 32.2366 14.413 32.5 13.75 32.5ZM13.75 28.75C13.5028 28.75 13.2611 28.8233 13.0555 28.9607C12.85 29.098 12.6898 29.2932 12.5952 29.5217C12.5005 29.7501 12.4758 30.0014 12.524 30.2439C12.5723 30.4863 12.6913 30.7091 12.8661 30.8839C13.0409 31.0587 13.2637 31.1778 13.5061 31.226C13.7486 31.2742 13.9999 31.2495 14.2284 31.1549C14.4568 31.0602 14.652 30.9 14.7893 30.6945C14.9267 30.4889 15 30.2472 15 30C15 29.6685 14.8683 29.3505 14.6339 29.1161C14.3995 28.8817 14.0815 28.75 13.75 28.75Z" fill="#4F83D1"/>
<path d="M15.625 1.875H24.375V6.875H15.625V1.875Z" fill="white"/>
<path d="M18.75 3.75H21.25V5H18.75V3.75Z" fill="#4F83D1"/>
<path d="M17.5 11.25H18.75V12.5H17.5V11.25Z" fill="#4F83D1"/>
<path d="M20 11.25H21.25V12.5H20V11.25Z" fill="#4F83D1"/>
<path d="M22.5 11.25H23.75V12.5H22.5V11.25Z" fill="#4F83D1"/>
<path d="M25 11.25H26.25V12.5H25V11.25Z" fill="#4F83D1"/>
<path d="M17.5 17.5H18.75V18.75H17.5V17.5Z" fill="#4F83D1"/>
<path d="M20 17.5H21.25V18.75H20V17.5Z" fill="#4F83D1"/>
<path d="M22.5 17.5H23.75V18.75H22.5V17.5Z" fill="#4F83D1"/>
<path d="M25 17.5H26.25V18.75H25V17.5Z" fill="#4F83D1"/>
<path d="M17.5 23.75H18.75V25H17.5V23.75Z" fill="#4F83D1"/>
<path d="M20 23.75H21.25V25H20V23.75Z" fill="#4F83D1"/>
<path d="M22.5 23.75H23.75V25H22.5V23.75Z" fill="#4F83D1"/>
<path d="M25 23.75H26.25V25H25V23.75Z" fill="#4F83D1"/>
<path d="M17.5 30H18.75V31.25H17.5V30Z" fill="#4F83D1"/>
<path d="M20 30H21.25V31.25H20V30Z" fill="#4F83D1"/>
<path d="M22.5 30H23.75V31.25H22.5V30Z" fill="#4F83D1"/>
<path d="M25 30H26.25V31.25H25V30Z" fill="#4F83D1"/>
<path d="M13.1255 26.25C12.9597 26.25 12.8008 26.1841 12.6836 26.0669L11.4336 24.8169L12.3173 23.9331L13.0736 24.6894L15.1361 22.1094L16.1123 22.8906L13.6123 26.0156C13.5574 26.0842 13.4885 26.1404 13.4103 26.1806C13.3322 26.2208 13.2464 26.244 13.1586 26.2488L13.1255 26.25Z" fill="#4F83D1"/>
<path d="M13.75 13.75C14.2445 13.75 14.7278 13.6034 15.1389 13.3287C15.55 13.054 15.8705 12.6635 16.0597 12.2067C16.2489 11.7499 16.2984 11.2472 16.202 10.7623C16.1055 10.2773 15.8674 9.83187 15.5178 9.48223C15.1681 9.1326 14.7227 8.8945 14.2377 8.79804C13.7528 8.70157 13.2501 8.75108 12.7933 8.9403C12.3365 9.12952 11.946 9.44995 11.6713 9.86108C11.3966 10.2722 11.25 10.7555 11.25 11.25C11.25 11.913 11.5134 12.5489 11.9822 13.0178C12.4511 13.4866 13.087 13.75 13.75 13.75ZM13.75 10C13.9972 10 14.2389 10.0733 14.4445 10.2107C14.65 10.348 14.8102 10.5432 14.9048 10.7716C14.9995 11.0001 15.0242 11.2514 14.976 11.4939C14.9278 11.7363 14.8087 11.9591 14.6339 12.1339C14.4591 12.3087 14.2363 12.4278 13.9939 12.476C13.7514 12.5242 13.5001 12.4995 13.2716 12.4049C13.0432 12.3102 12.848 12.15 12.7107 11.9445C12.5733 11.7389 12.5 11.4972 12.5 11.25C12.5 10.9185 12.6317 10.6005 12.8661 10.3661C13.1005 10.1317 13.4185 10 13.75 10Z" fill="#1ECD96"/>
<path d="M13.75 20C14.2445 20 14.7278 19.8534 15.1389 19.5787C15.55 19.304 15.8705 18.9135 16.0597 18.4567C16.2489 17.9999 16.2984 17.4972 16.202 17.0123C16.1055 16.5273 15.8674 16.0819 15.5178 15.7322C15.1681 15.3826 14.7227 15.1445 14.2377 15.048C13.7528 14.9516 13.2501 15.0011 12.7933 15.1903C12.3365 15.3795 11.946 15.7 11.6713 16.1111C11.3966 16.5222 11.25 17.0056 11.25 17.5C11.25 18.163 11.5134 18.7989 11.9822 19.2678C12.4511 19.7366 13.087 20 13.75 20ZM13.75 16.25C13.9972 16.25 14.2389 16.3233 14.4445 16.4607C14.65 16.598 14.8102 16.7932 14.9048 17.0216C14.9995 17.2501 15.0242 17.5014 14.976 17.7439C14.9278 17.9863 14.8087 18.2091 14.6339 18.3839C14.4591 18.5587 14.2363 18.6778 13.9939 18.726C13.7514 18.7742 13.5001 18.7495 13.2716 18.6549C13.0432 18.5602 12.848 18.4 12.7107 18.1945C12.5733 17.9889 12.5 17.7472 12.5 17.5C12.5 17.1685 12.6317 16.8505 12.8661 16.6161C13.1005 16.3817 13.4185 16.25 13.75 16.25Z" fill="#1ECD96"/>
<path d="M13.75 32.5C14.2445 32.5 14.7278 32.3534 15.1389 32.0787C15.55 31.804 15.8705 31.4135 16.0597 30.9567C16.2489 30.4999 16.2984 29.9972 16.202 29.5123C16.1055 29.0273 15.8674 28.5819 15.5178 28.2322C15.1681 27.8826 14.7227 27.6445 14.2377 27.548C13.7528 27.4516 13.2501 27.5011 12.7933 27.6903C12.3365 27.8795 11.946 28.2 11.6713 28.6111C11.3966 29.0222 11.25 29.5056 11.25 30C11.25 30.663 11.5134 31.2989 11.9822 31.7678C12.4511 32.2366 13.087 32.5 13.75 32.5ZM13.75 28.75C13.9972 28.75 14.2389 28.8233 14.4445 28.9607C14.65 29.098 14.8102 29.2932 14.9048 29.5217C14.9995 29.7501 15.0242 30.0014 14.976 30.2439C14.9278 30.4863 14.8087 30.7091 14.6339 30.8839C14.4591 31.0587 14.2363 31.1778 13.9939 31.226C13.7514 31.2742 13.5001 31.2495 13.2716 31.1549C13.0432 31.0602 12.848 30.9 12.7107 30.6945C12.5733 30.4889 12.5 30.2472 12.5 30C12.5 29.6685 12.6317 29.3505 12.8661 29.1161C13.1005 28.8817 13.4185 28.75 13.75 28.75Z" fill="#1ECD96"/>
<path d="M31.25 3.75H25V1.875C25 1.70924 24.9342 1.55027 24.8169 1.43306C24.6997 1.31585 24.5408 1.25 24.375 1.25H15.625C15.4592 1.25 15.3003 1.31585 15.1831 1.43306C15.0658 1.55027 15 1.70924 15 1.875V3.75H8.75C8.08696 3.75 7.45107 4.01339 6.98223 4.48223C6.51339 4.95107 6.25 5.58696 6.25 6.25V36.25C6.25 36.913 6.51339 37.5489 6.98223 38.0178C7.45107 38.4866 8.08696 38.75 8.75 38.75H31.25C31.913 38.75 32.5489 38.4866 33.0178 38.0178C33.4866 37.5489 33.75 36.913 33.75 36.25V6.25C33.75 5.58696 33.4866 4.95107 33.0178 4.48223C32.5489 4.01339 31.913 3.75 31.25 3.75ZM16.25 2.5H23.75V6.25H16.25V2.5ZM30 7.5V35H10V7.5H30ZM32.5 36.25C32.5 36.5815 32.3683 36.8995 32.1339 37.1339C31.8995 37.3683 31.5815 37.5 31.25 37.5H8.75C8.41848 37.5 8.10054 37.3683 7.86612 37.1339C7.6317 36.8995 7.5 36.5815 7.5 36.25V6.25C7.5 5.91848 7.6317 5.60054 7.86612 5.36612C8.10054 5.1317 8.41848 5 8.75 5H15V6.25H9.375C9.20924 6.25 9.05027 6.31585 8.93306 6.43306C8.81585 6.55027 8.75 6.70924 8.75 6.875V35.625C8.75 35.7908 8.81585 35.9497 8.93306 36.0669C9.05027 36.1842 9.20924 36.25 9.375 36.25H30.625C30.7908 36.25 30.9497 36.1842 31.0669 36.0669C31.1842 35.9497 31.25 35.7908 31.25 35.625V6.875C31.25 6.70924 31.1842 6.55027 31.0669 6.43306C30.9497 6.31585 30.7908 6.25 30.625 6.25H25V5H31.25C31.5815 5 31.8995 5.1317 32.1339 5.36612C32.3683 5.60054 32.5 5.91848 32.5 6.25V36.25Z" fill="#1ECD96"/>
<path d="M18.75 3.75H21.25V5H18.75V3.75Z" fill="#1ECD96"/>
<path d="M17.5 11.25H18.75V12.5H17.5V11.25Z" fill="#1ECD96"/>
<path d="M20 11.25H21.25V12.5H20V11.25Z" fill="#1ECD96"/>
<path d="M22.5 11.25H23.75V12.5H22.5V11.25Z" fill="#1ECD96"/>
<path d="M25 11.25H26.25V12.5H25V11.25Z" fill="#1ECD96"/>
<path d="M17.5 17.5H18.75V18.75H17.5V17.5Z" fill="#1ECD96"/>
<path d="M20 17.5H21.25V18.75H20V17.5Z" fill="#1ECD96"/>
<path d="M22.5 17.5H23.75V18.75H22.5V17.5Z" fill="#1ECD96"/>
<path d="M25 17.5H26.25V18.75H25V17.5Z" fill="#1ECD96"/>
<path d="M17.5 23.75H18.75V25H17.5V23.75Z" fill="#1ECD96"/>
<path d="M20 23.75H21.25V25H20V23.75Z" fill="#1ECD96"/>
<path d="M22.5 23.75H23.75V25H22.5V23.75Z" fill="#1ECD96"/>
<path d="M25 23.75H26.25V25H25V23.75Z" fill="#1ECD96"/>
<path d="M17.5 30H18.75V31.25H17.5V30Z" fill="#1ECD96"/>
<path d="M20 30H21.25V31.25H20V30Z" fill="#1ECD96"/>
<path d="M22.5 30H23.75V31.25H22.5V30Z" fill="#1ECD96"/>
<path d="M25 30H26.25V31.25H25V30Z" fill="#1ECD96"/>
<path d="M13.0736 24.6877L12.3173 23.9315L11.4336 24.8152L12.6836 26.0652C12.7415 26.1236 12.8103 26.17 12.8861 26.2017C12.9619 26.2335 13.0433 26.25 13.1255 26.2502H13.1598C13.2476 26.2455 13.3334 26.2222 13.4116 26.1821C13.4898 26.1419 13.5586 26.0857 13.6136 26.0171L16.1136 22.8921L15.1373 22.1108L13.0736 24.6877Z" fill="#1ECD96"/>
</svg>
