<svg width="42" height="46" viewBox="0 0 42 46" fill="none" xmlns="http://www.w3.org/2000/svg">
<path d="M28.4204 44.4315H13.248V41.2185L14.9707 38.5411L17.4884 36.2461L21.0661 35.3281L23.8488 35.9401L26.4328 37.7761L28.4204 41.2185V44.4315Z" fill="#DEF4EC" stroke="#DEF4EC"/>
<path d="M5.09863 10.6678L5.56242 7.86438L6.25072 4.57493L10.2003 1.66797L15.2356 2.50946L18.3496 5.65362V10.6678V13.9078L14.2372 16.5087L9.53772 17.0442L5.09863 10.6678Z" fill="#DEF4EC" stroke="#DEF4EC"/>
<path d="M15.4346 26.5018L15.7778 24.4375L16.2871 22.0154L19.2098 19.875L22.936 20.4946L25.2403 22.8097V26.5018V28.8874L22.1971 30.8025L18.7195 31.1968L15.4346 26.5018Z" fill="#DEF4EC" stroke="#DEF4EC"/>
<path d="M28.1555 11.0126L28.508 8.86469L29.0311 6.34441L32.0328 4.11719L35.8596 4.76191L38.2263 7.17088V11.0126V13.495L35.1008 15.4877L31.5292 15.898L28.1555 11.0126Z" fill="#DEF4EC" stroke="#DEF4EC"/>
<path d="M13.8198 34.9349C13.8198 34.7206 13.7461 34.515 13.6148 34.3635C13.4836 34.212 13.3056 34.1268 13.12 34.1268H1.40501C1.48188 32.3853 1.87188 30.6813 2.5502 29.1232C3.22852 27.5652 4.1803 26.1872 5.34499 25.077C7.41547 26.4905 9.77688 27.2356 12.1822 27.2344C12.3678 27.2344 12.5458 27.1493 12.6771 26.9978C12.8083 26.8462 12.882 26.6407 12.882 26.4264C12.882 26.2121 12.8083 26.0066 12.6771 25.8551C12.5458 25.7035 12.3678 25.6184 12.1822 25.6184C10.2303 25.6106 8.30915 25.056 6.58366 24.0024C8.26877 22.8046 10.2036 22.1568 12.1822 22.1278C12.3678 22.1278 12.5458 22.0426 12.6771 21.8911C12.8083 21.7396 12.882 21.534 12.882 21.3197C12.882 21.1054 12.8083 20.8999 12.6771 20.7484C12.5458 20.5968 12.3678 20.5117 12.1822 20.5117C8.91116 20.5607 5.79086 22.1076 3.5074 24.8123C1.22394 27.517 -0.0357276 31.158 0.00536945 34.9349C0.00536945 35.1492 0.0791001 35.3547 0.210342 35.5062C0.341583 35.6577 0.519585 35.7429 0.705188 35.7429H13.127C13.3114 35.7407 13.4876 35.6547 13.6173 35.5034C13.747 35.3521 13.8198 35.1478 13.8198 34.9349Z" fill="#1ECD96"/>
<path d="M12.2032 18.1358C13.7102 18.1342 15.183 17.6167 16.4353 16.6489C17.6877 15.681 18.6634 14.3062 19.2391 12.6982C19.8149 11.0902 19.9648 9.3212 19.67 7.61483C19.3751 5.90846 18.6487 4.34132 17.5826 3.11152C16.5165 1.88172 15.1586 1.04447 13.6804 0.7056C12.2023 0.36673 10.6703 0.541457 9.27817 1.20769C7.88601 1.87393 6.69619 3.00177 5.85909 4.44863C5.02199 5.8955 4.5752 7.59644 4.5752 9.33644C4.5789 11.6703 5.38398 13.9071 6.81391 15.5566C8.24384 17.2061 10.1819 18.1336 12.2032 18.1358ZM12.2032 2.13699C13.4404 2.13936 14.6491 2.56615 15.6758 3.36316C16.7025 4.16017 17.5009 5.29147 17.9697 6.61341C17.3872 6.616 16.8116 6.46697 16.2858 6.1774C15.7599 5.88783 15.2974 5.46517 14.9325 4.94081C14.83 4.76593 14.6723 4.64433 14.4931 4.60204C14.3139 4.55976 14.1275 4.60015 13.9738 4.71457C13.9318 4.71457 9.99179 7.69616 6.97557 5.47411C7.53402 4.45563 8.30569 3.61601 9.21935 3.03276C10.133 2.44952 11.1592 2.14144 12.2032 2.13699ZM6.30375 6.91238C9.34096 9.04555 12.861 7.24367 14.1627 6.40333C14.695 7.00379 15.3274 7.47313 16.0215 7.78287C16.7156 8.09261 17.457 8.2363 18.2007 8.20521C18.2494 8.21362 18.2989 8.21362 18.3476 8.20521C18.4063 8.58125 18.4367 8.96244 18.4386 9.34452C18.3844 11.2132 17.7033 12.9845 16.5392 14.2843C15.3751 15.5841 13.8191 16.3108 12.1997 16.3108C10.5803 16.3108 9.0243 15.5841 7.8602 14.2843C6.69611 12.9845 6.01505 11.2132 5.96084 9.34452C5.95448 8.51719 6.07045 7.69467 6.30375 6.91238Z" fill="#1ECD96"/>
<path d="M40.5949 23.4689C42.3585 20.552 41.3577 17.8128 40.385 15.1544C39.7204 13.677 39.316 12.0622 39.1953 10.4032C39.1953 10.4032 39.1953 10.4032 39.1953 10.3467C39.1953 10.2901 39.1953 10.2093 39.1953 10.1366C39.1953 10.0639 39.1953 9.95883 39.1953 9.86187C39.2091 9.77642 39.2091 9.68875 39.1953 9.6033C39.0665 7.82468 38.3486 6.17192 37.191 4.98909C36.0333 3.80625 34.5252 3.18448 32.9805 3.25319C31.4359 3.32191 29.9736 4.07582 28.8983 5.358C27.8229 6.64017 27.2173 8.3518 27.2074 10.1366C27.2074 10.2255 27.2074 10.3144 27.2074 10.4113C27.2074 12.1405 25.8917 15.825 25.4299 17.0371C25.3503 17.2074 25.2847 17.386 25.2339 17.5704C25.1876 17.7706 25.2097 17.9838 25.2957 18.1658C25.3816 18.3477 25.5249 18.4846 25.6958 18.5481C25.7648 18.5797 25.8384 18.5962 25.9127 18.5966C26.0588 18.6051 26.2035 18.5606 26.3265 18.4693C26.4495 18.3779 26.5446 18.2444 26.5985 18.0875L26.7525 17.6593C27.1794 16.4715 27.6833 15.017 28.0682 13.6192C28.5965 14.66 29.3515 15.5232 30.2581 16.123C31.1647 16.7228 32.1914 17.0383 33.2363 17.0383C34.2812 17.0383 35.3079 16.7228 36.2146 16.123C37.1212 15.5232 37.8761 14.66 38.4045 13.6192C38.6214 14.3383 38.8804 15.0413 39.1043 15.7442C39.9511 18.0148 40.6789 20.0267 39.6992 22.071C38.8815 21.0185 37.8832 20.1739 36.7675 19.591C35.6518 19.0081 34.4433 18.6997 33.2188 18.6854C31.3281 18.6951 29.4929 19.4251 27.9982 20.762C27.8806 20.9001 27.8099 21.0823 27.7989 21.2755C27.7879 21.4686 27.8374 21.66 27.9382 21.8146C28.0391 21.9692 28.1847 22.0769 28.3486 22.1181C28.5124 22.1592 28.6836 22.131 28.831 22.0387C30.0936 20.9276 31.6383 20.3284 33.2258 20.3338C35.0904 20.3552 36.8806 21.1813 38.2443 22.6497C39.6079 24.1181 40.4465 26.1224 40.5949 28.2685H28.831C28.6454 28.2685 28.4674 28.3537 28.3361 28.5052C28.2049 28.6567 28.1311 28.8623 28.1311 29.0766C28.1311 29.2909 28.2049 29.4964 28.3361 29.6479C28.4674 29.7994 28.6454 29.8846 28.831 29.8846H41.2947C41.4803 29.8846 41.6583 29.7994 41.7896 29.6479C41.9208 29.4964 41.9946 29.2909 41.9946 29.0766C42.0107 27.0899 41.5243 25.141 40.5949 23.4689ZM37.7537 9.15081C37.6697 9.15081 37.5927 9.20737 37.5087 9.22353C36.3277 9.42762 35.1243 9.09063 34.1555 8.28448C33.1866 7.47834 32.529 6.26689 32.3231 4.90871C32.618 4.84055 32.918 4.80537 33.2188 4.80367C34.2949 4.80485 35.3369 5.23982 36.1649 6.0335C36.9928 6.82718 37.5547 7.92974 37.7537 9.15081ZM33.2188 15.4695C32.1942 15.4723 31.1981 15.0805 30.3881 14.356C29.5781 13.6315 29.0005 12.6159 28.7467 11.4697C28.4929 10.3236 28.5774 9.11241 28.9869 8.02797C29.3963 6.94353 30.1074 6.04775 31.0074 5.4824C31.3028 7.00428 32.0355 8.36599 33.0863 9.34599C34.1371 10.326 35.4442 10.8666 36.7949 10.88C37.1295 10.8956 37.4646 10.8739 37.7956 10.8153C37.6542 12.1014 37.1113 13.2838 36.2687 14.1407C35.4261 14.9975 34.3417 15.47 33.2188 15.4695Z" fill="#1ECD96"/>
<path d="M20.846 34.4004C18.5191 34.4025 16.2881 35.4708 14.6427 37.3705C12.9973 39.2703 12.0722 41.8463 12.0703 44.533C12.0703 44.7473 12.144 44.9528 12.2753 45.1043C12.4065 45.2559 12.5845 45.341 12.7701 45.341H28.9359C29.1215 45.341 29.2995 45.2559 29.4308 45.1043C29.562 44.9528 29.6357 44.7473 29.6357 44.533C29.6357 43.201 29.4083 41.8821 28.9664 40.6517C28.5245 39.4213 27.8768 38.3035 27.0604 37.3624C26.2441 36.4213 25.275 35.6753 24.2086 35.1671C23.1423 34.6588 21.9996 34.3983 20.846 34.4004ZM24.4991 37.0911C23.3564 37.7275 22.1042 38.0579 20.8355 38.0579C19.5669 38.0579 18.3146 37.7275 17.172 37.0911C18.2881 36.3564 19.5508 35.97 20.8355 35.97C22.1203 35.97 23.3829 36.3564 24.4991 37.0911ZM13.4839 43.733C13.6554 41.5834 14.5256 39.5885 15.9193 38.1496C17.4165 39.142 19.1127 39.6642 20.839 39.6642C22.5654 39.6642 24.2616 39.142 25.7587 38.1496C27.1632 39.5843 28.0395 41.5847 28.2081 43.7411L13.4839 43.733Z" fill="#1ECD96"/>
<path d="M14.7434 25.6027C14.7434 26.9739 15.0956 28.3143 15.7553 29.4544C16.4151 30.5945 17.3529 31.4831 18.4501 32.0078C19.5472 32.5325 20.7545 32.6698 21.9193 32.4023C23.084 32.1348 24.1539 31.4745 24.9936 30.505C25.8334 29.5354 26.4052 28.3001 26.6369 26.9552C26.8686 25.6104 26.7497 24.2165 26.2952 22.9497C25.8408 21.6829 25.0712 20.6001 24.0837 19.8383C23.0963 19.0765 21.9354 18.6699 20.7478 18.6699C19.1554 18.6699 17.6281 19.4003 16.5021 20.7005C15.376 22.0006 14.7434 23.764 14.7434 25.6027ZM20.7478 30.9357C20.1387 30.941 19.5347 30.8069 18.9706 30.5412C18.4066 30.2755 17.8937 29.8834 17.4617 29.3876C17.0296 28.8917 16.6869 28.3019 16.4534 27.6523C16.2199 27.0027 16.1001 26.3061 16.1011 25.6027C16.1041 25.1265 16.1653 24.6532 16.283 24.1968C17.0103 24.7316 17.8561 25.0122 18.7184 25.0048C19.8313 24.9768 20.9179 24.6088 21.8676 23.9382C22.4724 24.5425 23.2442 24.8777 24.044 24.8836C24.4614 24.8489 24.864 24.6903 25.2127 24.423C25.2937 24.8066 25.336 25.1998 25.3387 25.5946C25.3405 27.0048 24.8586 28.3585 23.9982 29.3594C23.1379 30.3604 21.9692 30.9271 20.7478 30.9357ZM20.7478 20.2698C21.5514 20.2758 22.3395 20.5253 23.0333 20.9932C23.7272 21.4611 24.3025 22.1311 24.7018 22.9363C24.6099 23.0455 24.5006 23.1333 24.3799 23.1948H23.4491C23.0771 23.0079 22.7432 22.7326 22.4694 22.3868C22.3513 22.2444 22.1922 22.1568 22.0221 22.1405C21.852 22.1241 21.6825 22.1801 21.5456 22.2979C21.0655 22.7073 20.5282 23.0188 19.9571 23.2191H17.7456C17.4312 23.104 17.1355 22.9293 16.8709 22.7019C17.2886 21.9537 17.8627 21.3388 18.5402 20.9138C19.2177 20.4888 19.9768 20.2673 20.7478 20.2698Z" fill="#1ECD96"/>
</svg>
