<svg width="20" height="20" viewBox="0 0 20 20" fill="none" xmlns="http://www.w3.org/2000/svg">
<path fill-rule="evenodd" clip-rule="evenodd" d="M9.98783 0.108398C15.4541 0.108398 19.8663 4.53698 19.8663 9.96872C19.8663 15.4249 15.4541 19.829 9.98783 19.829C4.5461 19.829 0.109375 15.4249 0.109375 9.96872C0.109375 4.53698 4.5461 0.108398 9.98783 0.108398ZM9.98783 11.3878L6.36001 15.0335C5.42854 15.9632 4.00683 14.5441 4.93829 13.6144L8.56611 9.96872L4.93829 6.34756C4.00683 5.4178 5.42854 3.9987 6.36001 4.92846L9.98783 8.54962L13.6402 4.92846C14.5716 3.9987 15.9933 5.4178 15.0619 6.34756L11.4095 9.96872L15.0619 13.6144C15.9933 14.5441 14.5716 15.9632 13.6402 15.0335L9.98783 11.3878Z" fill="#1ECD96"/>
</svg>
