<svg width="18" height="18" viewBox="0 0 18 18" fill="none" xmlns="http://www.w3.org/2000/svg">
<path d="M12.422 5.19824H15.8439" stroke="#7BADFE" stroke-width="1.15647" stroke-miterlimit="10" stroke-linecap="round" stroke-linejoin="round"/>
<path d="M2.15613 5.19824H4.43738" stroke="#7BADFE" stroke-width="1.15647" stroke-miterlimit="10" stroke-linecap="round" stroke-linejoin="round"/>
<path d="M6.71863 7.47949C7.97853 7.47949 8.99988 6.45814 8.99988 5.19824C8.99988 3.93834 7.97853 2.91699 6.71863 2.91699C5.45873 2.91699 4.43738 3.93834 4.43738 5.19824C4.43738 6.45814 5.45873 7.47949 6.71863 7.47949Z" stroke="#7BADFE" stroke-width="1.15647" stroke-miterlimit="10" stroke-linecap="round" stroke-linejoin="round"/>
<path d="M2.15613 12.8027H5.578" stroke="#7BADFE" stroke-width="1.15647" stroke-miterlimit="10" stroke-linecap="round" stroke-linejoin="round"/>
<path d="M13.5624 12.8027H15.8436" stroke="#7BADFE" stroke-width="1.15647" stroke-miterlimit="10" stroke-linecap="round" stroke-linejoin="round"/>
<path d="M11.2811 15.084C12.541 15.084 13.5624 14.0626 13.5624 12.8027C13.5624 11.5428 12.541 10.5215 11.2811 10.5215C10.0212 10.5215 8.99988 11.5428 8.99988 12.8027C8.99988 14.0626 10.0212 15.084 11.2811 15.084Z" stroke="#7BADFE" stroke-width="1.15647" stroke-miterlimit="10" stroke-linecap="round" stroke-linejoin="round"/>
</svg>
