<svg width="21" height="21" viewBox="0 0 21 21" fill="none" xmlns="http://www.w3.org/2000/svg">
<path d="M17.8726 4.17353H14.9823V2.71879C14.9823 1.47685 13.9721 0.466699 12.7302 0.466699H8.26982C7.02787 0.466699 6.01772 1.47685 6.01772 2.71879V4.17349H3.1274C1.3201 4.17353 -0.15 5.64362 -0.15 7.45093V17.2537C-0.15 19.061 1.3201 20.5311 3.1274 20.5311H17.8726C19.6799 20.5311 21.15 19.061 21.15 17.2537V7.45093C21.15 5.64362 19.6799 4.17353 17.8726 4.17353ZM7.54819 2.71879C7.54819 2.32101 7.87204 1.99717 8.26982 1.99717H12.7302C13.128 1.99717 13.4518 2.32101 13.4518 2.71879V4.17349H7.54819V2.71879ZM1.38047 17.2537V7.45093C1.38047 6.76253 1.78121 6.1656 2.36217 5.88129V18.8234C1.78121 18.539 1.38047 17.9421 1.38047 17.2537ZM3.89263 19.0007V5.704H17.1074V19.0007H3.89263ZM19.6195 17.2537C19.6195 17.9421 19.2188 18.539 18.6378 18.8233V5.88126C19.2188 6.1656 19.6195 6.76253 19.6195 7.45093V17.2537Z" fill="#9EADCC" stroke="#9EADCC" stroke-width="0.3"/>
<path d="M12.2006 10.502V10.652H12.3506H14.2065C14.4635 10.652 14.6718 10.8603 14.6718 11.1172V13.5884C14.6718 13.8453 14.4635 14.0536 14.2065 14.0536H12.3506H12.2006V14.2036V16.0596C12.2006 16.3165 11.9923 16.5248 11.7354 16.5248H9.26416C9.00723 16.5248 8.79893 16.3165 8.79893 16.0596V14.2036V14.0536H8.64893H6.79297C6.53604 14.0536 6.32773 13.8453 6.32773 13.5884V11.1172C6.32773 10.8603 6.53604 10.652 6.79297 10.652H8.64893H8.79893V10.502V8.646C8.79893 8.38907 9.00723 8.18076 9.26416 8.18076H11.7354C11.9923 8.18076 12.2006 8.38907 12.2006 8.646V10.502ZM13.5913 13.1231H13.7413V12.9731V11.7324V11.5824H13.5913H11.7354C11.4784 11.5824 11.2701 11.3741 11.2701 11.1172V9.26123V9.11123H11.1201H9.87939H9.72939V9.26123V11.1172C9.72939 11.3741 9.52109 11.5824 9.26416 11.5824H7.4082H7.2582V11.7324V12.9731V13.1231H7.4082H9.26416C9.52109 13.1231 9.72939 13.3315 9.72939 13.5884V15.4443V15.5943H9.87939H11.1201H11.2701V15.4443V13.5884C11.2701 13.3315 11.4784 13.1231 11.7354 13.1231H13.5913Z" fill="#9EADCC" stroke="#9EADCC" stroke-width="0.3"/>
</svg>
