<svg width="48" height="48" viewBox="0 0 48 48" fill="none" xmlns="http://www.w3.org/2000/svg">
<path d="M34.0614 11.2588C38.1618 13.4789 43.245 15.6721 43.9191 18.6946C44.5931 21.7171 40.914 25.5687 38.2179 29.982C35.5499 34.3953 33.893 39.3704 30.3262 41.5636C26.7595 43.7837 21.2831 43.222 16.593 41.2962C11.9029 39.3704 7.99921 36.0537 6.62307 32.1753C5.27503 28.2702 6.42648 23.7766 7.15668 19.0958C7.88687 14.415 8.16773 9.57373 10.8638 7.11297C13.5599 4.6522 18.6151 4.57196 22.7435 5.69535C26.8438 6.792 29.9612 9.03878 34.0614 11.2588Z" fill="#E9FAF5"/>
<path fill-rule="evenodd" clip-rule="evenodd" d="M20.7801 10.578C21.996 10.578 23.3042 11.0043 23.314 11.9413L23.3141 11.9524C23.3141 11.9753 23.3133 11.9977 23.312 12.0197C23.2052 14.8068 23.655 15.8972 23.8564 16.2397C26.9859 15.1557 30.6356 16.3927 32.8174 19.3112C35.0764 22.3336 35.3421 27.0899 33.4631 30.878C33.1958 31.4175 32.8884 31.9263 32.5488 32.3911C31.009 34.5022 28.812 35.5908 26.1311 35.5908C26.0613 35.5908 25.9912 35.59 25.9207 35.5885C25.4277 35.5782 24.9189 35.5317 24.3949 35.4483C24.071 35.397 23.7462 35.3338 23.4213 35.259C21.1468 34.7354 18.8686 33.6465 16.9141 32.1378C16.9093 32.1341 16.9045 32.1304 16.8997 32.1267C16.7808 32.0362 16.656 31.9549 16.5309 31.8735L16.5184 31.8653C16.5037 31.8558 16.4897 31.8454 16.4765 31.8342C16.4202 31.7979 16.3631 31.7616 16.3052 31.7247C16.1725 31.6405 16.0399 31.5558 15.9094 31.4674C15.4093 31.1275 14.0521 31.4009 12.3565 32.1814C12.1043 32.4224 11.8083 32.5596 11.4889 32.5596C10.5416 32.5596 9.79956 31.3525 9.79956 29.8119C9.79956 28.2714 10.5416 27.0643 11.4889 27.0643L11.5019 27.0643C13.1028 26.2451 15.2083 26.1862 16.6726 26.9319C16.7797 26.9866 16.8869 27.0436 16.994 27.1005L16.9945 27.1008L17.0033 27.1054L17.0062 27.107C17.5039 27.3715 17.9743 27.6216 18.4797 27.6614C19.4211 27.7292 20.3477 27.3898 21.0902 26.6896C21.9217 25.9042 22.461 24.7255 22.5328 23.5357C22.5953 22.5035 22.1299 21.5423 21.3186 21.028C19.3887 19.8054 17.4307 16.6848 18.2471 11.9065C18.2885 10.9938 19.5793 10.578 20.7801 10.578ZM32.8242 30.2247C32.7898 30.2981 32.7546 30.3712 32.7186 30.4439C32.4745 30.9357 32.1944 31.3996 31.8857 31.8228C30.3537 33.9243 28.3074 34.593 26.4575 34.6654C25.7716 34.6922 25.1126 34.637 24.5169 34.5425C22.2427 34.1816 19.9118 33.198 17.8927 31.755C19.0963 31.5576 20.3654 31.3185 20.887 31.1711C21.5167 30.9925 22.0691 30.6889 22.6033 30.3949C23.8044 29.734 25.0469 29.0531 27.5103 29.4904C29.6482 29.8719 31.395 29.9328 33.0598 29.6731C32.9848 29.8634 32.9063 30.0476 32.8242 30.2247ZM33.4067 28.6843C31.6882 29.0189 29.8997 28.9874 27.6476 28.5864C24.9118 28.0982 23.4818 28.8836 22.2211 29.5769C21.7037 29.8618 21.2151 30.1306 20.6733 30.284C20.1067 30.4449 18.3396 30.7715 16.8281 30.9961C16.8011 30.9788 16.7742 30.9617 16.7474 30.9445L16.7321 30.9348L16.7219 30.9283C16.5999 30.8508 16.4784 30.7736 16.3584 30.6916C16.0792 30.5011 15.7147 30.4063 15.2667 30.4063C14.6715 30.4063 13.9296 30.574 13.0429 30.9089C13.1302 30.5744 13.1782 30.204 13.1782 29.8119C13.1782 28.9041 12.9205 28.112 12.515 27.6146C13.7821 27.1784 15.2496 27.2191 16.3123 27.7603C16.4104 27.8101 16.5078 27.8619 16.6055 27.9138L16.6304 27.927C17.1794 28.2192 17.7474 28.5214 18.4172 28.5736C19.5858 28.6671 20.7299 28.2425 21.6434 27.3793C22.6557 26.4236 23.2867 25.0442 23.3745 23.5948C23.4582 22.2137 22.8331 20.9273 21.7435 20.2367C20.0516 19.1646 18.6145 16.5355 18.9599 12.9457C19.844 13.4103 21.2899 13.4541 22.2889 13.0826C22.3445 13.0621 22.3988 13.0403 22.4513 13.0171C22.4809 16.1624 23.2711 16.9679 23.4442 17.1066C23.6347 17.2596 23.8045 17.227 23.8898 17.1941C26.7409 16.0817 30.1428 17.1877 32.1607 19.8877C33.8766 22.1829 34.3174 25.5969 33.4067 28.6843ZM11.8188 31.4651C12.0089 31.2708 12.1558 30.9658 12.2432 30.6035C12.3 30.3666 12.3335 30.0992 12.3335 29.8119C12.3335 29.7758 12.333 29.74 12.332 29.7045C12.3031 28.7419 11.8937 28.0358 11.5248 27.993C11.5042 27.9906 11.484 27.9866 11.4644 27.9811C11.0722 28.0123 10.6442 28.7851 10.6442 29.8119C10.6442 30.8602 11.0902 31.6437 11.4889 31.6437C11.5836 31.6437 11.6811 31.5995 11.7745 31.5179C11.7878 31.4993 11.8026 31.4817 11.8188 31.4651ZM20.7805 12.4098C19.7889 12.4098 19.2103 12.1016 19.1017 11.9519C19.2099 11.8021 19.7893 11.4939 20.7805 11.4939C21.7717 11.4939 22.3503 11.8021 22.4592 11.9519C22.3503 12.1016 21.7721 12.4098 20.7805 12.4098Z" fill="#676F8F"/>
<path d="M23.314 11.9413L23.214 11.9423L23.214 11.9424L23.314 11.9413ZM23.3141 11.9524H23.4141L23.4141 11.9513L23.3141 11.9524ZM23.312 12.0197L23.2122 12.014L23.2121 12.0159L23.312 12.0197ZM23.8564 16.2397L23.7702 16.2904L23.8117 16.361L23.8891 16.3342L23.8564 16.2397ZM32.8174 19.3112L32.8975 19.2513L32.8975 19.2513L32.8174 19.3112ZM33.4631 30.878L33.3735 30.8336L33.3735 30.8336L33.4631 30.878ZM32.5488 32.3911L32.4681 32.3321L32.468 32.3321L32.5488 32.3911ZM25.9207 35.5885L25.9228 35.4886H25.9228L25.9207 35.5885ZM24.3949 35.4483L24.4106 35.3496L24.4105 35.3496L24.3949 35.4483ZM23.4213 35.259L23.4437 35.1615L23.4213 35.259ZM16.9141 32.1378L16.9752 32.0587L16.9752 32.0586L16.9141 32.1378ZM16.8997 32.1267L16.9603 32.0473L16.9603 32.0472L16.8997 32.1267ZM16.5309 31.8735L16.5855 31.7897L16.5855 31.7897L16.5309 31.8735ZM16.5184 31.8653L16.573 31.7815L16.5729 31.7815L16.5184 31.8653ZM16.4765 31.8342L16.5414 31.7571L16.5307 31.7502L16.4765 31.8342ZM16.3052 31.7247L16.3588 31.6403L16.3588 31.6403L16.3052 31.7247ZM15.9094 31.4674L15.8532 31.5501L15.8533 31.5502L15.9094 31.4674ZM12.3565 32.1814L12.3147 32.0906L12.2995 32.0976L12.2874 32.1091L12.3565 32.1814ZM11.4889 27.0643L11.4895 26.9643H11.4889V27.0643ZM11.5019 27.0643L11.5014 27.1643L11.5258 27.1645L11.5475 27.1534L11.5019 27.0643ZM16.6726 26.9319L16.7181 26.8428L16.718 26.8428L16.6726 26.9319ZM16.994 27.1005L17.0411 27.0123L17.041 27.0122L16.994 27.1005ZM16.9945 27.1008L16.9474 27.189L16.9476 27.1891L16.9945 27.1008ZM17.0033 27.1054L17.0502 27.0172L17.0502 27.0172L17.0033 27.1054ZM17.0062 27.107L16.9592 27.1953L16.9592 27.1953L17.0062 27.107ZM18.4797 27.6614L18.4719 27.7611L18.4726 27.7611L18.4797 27.6614ZM21.0902 26.6896L21.1588 26.7624L21.1588 26.7623L21.0902 26.6896ZM22.5328 23.5357L22.433 23.5297L22.433 23.5297L22.5328 23.5357ZM21.3186 21.028L21.3722 20.9436L21.3721 20.9435L21.3186 21.028ZM18.2471 11.9065L18.3464 11.9235L18.347 11.911L18.2471 11.9065ZM32.8242 30.2247L32.9148 30.267L32.9149 30.2667L32.8242 30.2247ZM32.7186 30.4439L32.8082 30.4883L32.8082 30.4883L32.7186 30.4439ZM31.8857 31.8228L31.805 31.7638L31.8049 31.7638L31.8857 31.8228ZM26.4575 34.6654L26.4614 34.7653H26.4614L26.4575 34.6654ZM24.5169 34.5425L24.5012 34.6413H24.5012L24.5169 34.5425ZM17.8927 31.755L17.8765 31.6563L17.6375 31.6955L17.8345 31.8363L17.8927 31.755ZM20.887 31.1711L20.9142 31.2673L20.9143 31.2673L20.887 31.1711ZM22.6033 30.3949L22.5551 30.3072L22.5551 30.3072L22.6033 30.3949ZM27.5103 29.4904L27.5279 29.392L27.5278 29.3919L27.5103 29.4904ZM33.0598 29.6731L33.1528 29.7098L33.2168 29.5474L33.0444 29.5743L33.0598 29.6731ZM27.6476 28.5864L27.63 28.6849L27.6301 28.6849L27.6476 28.5864ZM33.4067 28.6843L33.4259 28.7824L33.4855 28.7708L33.5027 28.7126L33.4067 28.6843ZM22.2211 29.5769L22.1729 29.4893L22.1729 29.4893L22.2211 29.5769ZM20.6733 30.284L20.646 30.1878L20.6459 30.1878L20.6733 30.284ZM16.8281 30.9961L16.7742 31.0803L16.8058 31.1005L16.8428 31.095L16.8281 30.9961ZM16.7474 30.9445L16.6936 31.0288L16.6936 31.0288L16.7474 30.9445ZM16.7321 30.9348L16.7859 30.8505L16.7857 30.8504L16.7321 30.9348ZM16.7219 30.9283L16.7756 30.8439L16.7755 30.8439L16.7219 30.9283ZM16.3584 30.6916L16.4148 30.6091L16.4147 30.609L16.3584 30.6916ZM13.0429 30.9089L12.9462 30.8836L12.8973 31.0707L13.0782 31.0024L13.0429 30.9089ZM12.515 27.6146L12.4824 27.52L12.3469 27.5667L12.4375 27.6778L12.515 27.6146ZM16.3123 27.7603L16.267 27.8494L16.267 27.8494L16.3123 27.7603ZM16.6055 27.9138L16.5586 28.0021L16.5586 28.0021L16.6055 27.9138ZM16.6304 27.927L16.6773 27.8387L16.6773 27.8387L16.6304 27.927ZM18.4172 28.5736L18.4252 28.4739L18.425 28.4739L18.4172 28.5736ZM21.6434 27.3793L21.5748 27.3066L21.5747 27.3066L21.6434 27.3793ZM23.3745 23.5948L23.4743 23.6008V23.6008L23.3745 23.5948ZM21.7435 20.2367L21.797 20.1522L21.797 20.1522L21.7435 20.2367ZM18.9599 12.9457L19.0064 12.8572L18.8747 12.7879L18.8604 12.9361L18.9599 12.9457ZM22.2889 13.0826L22.2543 12.9887L22.254 12.9889L22.2889 13.0826ZM22.4513 13.0171L22.5513 13.0162L22.5499 12.8644L22.411 12.9256L22.4513 13.0171ZM23.4442 17.1066L23.5068 17.0286L23.5067 17.0285L23.4442 17.1066ZM23.8898 17.1941L23.9258 17.2874L23.9261 17.2872L23.8898 17.1941ZM32.1607 19.8877L32.0806 19.9476L32.0806 19.9476L32.1607 19.8877ZM12.2432 30.6035L12.3404 30.6269L12.3404 30.6268L12.2432 30.6035ZM11.8188 31.4651L11.7473 31.3952L11.7473 31.3952L11.8188 31.4651ZM12.332 29.7045L12.4319 29.7015L12.4319 29.7015L12.332 29.7045ZM11.5248 27.993L11.5363 27.8936L11.5363 27.8936L11.5248 27.993ZM11.4644 27.9811L11.4911 27.8848L11.4741 27.8801L11.4565 27.8815L11.4644 27.9811ZM11.7745 31.5179L11.8403 31.5933L11.8491 31.5856L11.8559 31.5761L11.7745 31.5179ZM19.1017 11.9519L19.0207 11.8933L18.9783 11.952L19.0208 12.0106L19.1017 11.9519ZM22.4592 11.9519L22.5401 12.0107L22.5829 11.9519L22.5401 11.893L22.4592 11.9519ZM23.414 11.9402C23.4085 11.416 23.0377 11.0487 22.5416 10.8176C22.0442 10.586 21.3976 10.478 20.7801 10.478V10.678C21.3785 10.678 21.994 10.7832 22.4571 10.9989C22.9215 11.2152 23.2097 11.5296 23.214 11.9423L23.414 11.9402ZM23.4141 11.9513L23.414 11.9402L23.214 11.9424L23.2141 11.9535L23.4141 11.9513ZM23.4119 12.0255C23.4132 12.0022 23.4141 11.9777 23.4141 11.9524H23.2141C23.2141 11.9729 23.2134 11.9933 23.2122 12.014L23.4119 12.0255ZM23.9426 16.189C23.7547 15.8696 23.3055 14.801 23.412 12.0236L23.2121 12.0159C23.1049 14.8127 23.5552 15.9248 23.7702 16.2904L23.9426 16.189ZM32.8975 19.2513C30.6928 16.3022 26.9991 15.0453 23.8237 16.1452L23.8891 16.3342C26.9727 15.2661 30.5784 16.4831 32.7373 19.3711L32.8975 19.2513ZM33.5527 30.9225C35.4459 27.1056 35.1823 22.3082 32.8975 19.2513L32.7373 19.3711C34.9706 22.359 35.2382 27.0742 33.3735 30.8336L33.5527 30.9225ZM32.6296 32.4501C32.9726 31.9805 33.283 31.4668 33.5527 30.9224L33.3735 30.8336C33.1086 31.3682 32.8041 31.8721 32.4681 32.3321L32.6296 32.4501ZM26.1311 35.6908C28.8427 35.6908 31.0702 34.588 32.6296 32.45L32.468 32.3321C30.9477 34.4165 28.7813 35.4908 26.1311 35.4908V35.6908ZM25.9186 35.6885C25.9898 35.69 26.0606 35.6908 26.1311 35.6908V35.4908C26.062 35.4908 25.9926 35.49 25.9228 35.4886L25.9186 35.6885ZM24.3791 35.5471C24.9074 35.6311 25.4208 35.6781 25.9186 35.6885L25.9228 35.4886C25.4346 35.4783 24.9304 35.4323 24.4106 35.3496L24.3791 35.5471ZM23.3988 35.3564C23.7259 35.4317 24.0531 35.4954 24.3792 35.5471L24.4105 35.3496C24.089 35.2986 23.7664 35.2358 23.4437 35.1615L23.3988 35.3564ZM16.853 32.217C18.8184 33.734 21.1096 34.8295 23.3988 35.3564L23.4437 35.1615C21.184 34.6414 18.9189 33.5589 16.9752 32.0587L16.853 32.217ZM16.839 32.2062C16.8437 32.2098 16.8484 32.2134 16.8531 32.217L16.9752 32.0586C16.9702 32.0548 16.9653 32.051 16.9603 32.0473L16.839 32.2062ZM16.9603 32.0472C16.838 31.9541 16.71 31.8708 16.5855 31.7897L16.4764 31.9573C16.6019 32.0391 16.7236 32.1184 16.8391 32.2063L16.9603 32.0472ZM16.5855 31.7897L16.573 31.7815L16.4638 31.9491L16.4764 31.9573L16.5855 31.7897ZM16.5729 31.7815C16.5617 31.7742 16.551 31.7663 16.5409 31.7577L16.4121 31.9107C16.4284 31.9245 16.4457 31.9373 16.4639 31.9491L16.5729 31.7815ZM16.2515 31.8091C16.3095 31.846 16.3663 31.8821 16.4222 31.9182L16.5307 31.7502C16.4741 31.7137 16.4167 31.6772 16.3588 31.6403L16.2515 31.8091ZM15.8533 31.5502C15.9852 31.6395 16.1189 31.7249 16.2515 31.8091L16.3588 31.6403C16.2262 31.5561 16.0947 31.4721 15.9655 31.3846L15.8533 31.5502ZM12.3983 32.2723C13.2417 31.884 13.9973 31.6237 14.601 31.5023C14.9029 31.4416 15.1639 31.4162 15.3773 31.4257C15.592 31.4352 15.7497 31.4797 15.8532 31.5501L15.9656 31.3847C15.8191 31.2851 15.6195 31.2363 15.3862 31.2259C15.1514 31.2154 14.8734 31.2435 14.5615 31.3062C13.9377 31.4317 13.1669 31.6983 12.3147 32.0906L12.3983 32.2723ZM11.4889 32.6596C11.8389 32.6596 12.1587 32.5088 12.4256 32.2537L12.2874 32.1091C12.05 32.336 11.7776 32.4596 11.4889 32.4596V32.6596ZM9.69956 29.8119C9.69956 30.5971 9.88846 31.3029 10.2038 31.8159C10.5186 32.3279 10.9685 32.6596 11.4889 32.6596V32.4596C11.062 32.4596 10.6672 32.1878 10.3742 31.7111C10.0817 31.2354 9.89956 30.5674 9.89956 29.8119H9.69956ZM11.4889 26.9643C10.9685 26.9643 10.5186 27.296 10.2038 27.808C9.88846 28.321 9.69956 29.0268 9.69956 29.8119H9.89956C9.89956 29.0565 10.0817 28.3885 10.3742 27.9128C10.6672 27.4361 11.062 27.1643 11.4889 27.1643V26.9643ZM11.5025 26.9643L11.4895 26.9643L11.4883 27.1643L11.5014 27.1643L11.5025 26.9643ZM16.718 26.8428C15.2218 26.0809 13.0823 26.1432 11.4564 26.9753L11.5475 27.1534C13.1233 26.3469 15.1948 26.2916 16.6272 27.021L16.718 26.8428ZM17.041 27.0122C16.9339 26.9553 16.8261 26.898 16.7181 26.8428L16.6271 27.0209C16.7334 27.0752 16.8398 27.1318 16.9471 27.1888L17.041 27.0122ZM17.0417 27.0126L17.0411 27.0123L16.9469 27.1887L16.9474 27.189L17.0417 27.0126ZM17.0502 27.0172L17.0415 27.0125L16.9476 27.1891L16.9563 27.1937L17.0502 27.0172ZM17.0531 27.0187L17.0502 27.0172L16.9563 27.1937L16.9592 27.1953L17.0531 27.0187ZM18.4876 27.5617C18.0067 27.5239 17.5552 27.2856 17.0531 27.0187L16.9592 27.1953C17.4525 27.4575 17.9419 27.7194 18.4719 27.7611L18.4876 27.5617ZM21.0216 26.6169C20.2981 27.2991 19.3985 27.6273 18.4869 27.5616L18.4726 27.7611C19.4437 27.831 20.3973 27.4805 21.1588 26.7624L21.0216 26.6169ZM22.433 23.5297C22.3627 24.6953 21.8338 25.8498 21.0215 26.6169L21.1588 26.7623C22.0097 25.9587 22.5594 24.7557 22.6326 23.5418L22.433 23.5297ZM21.2651 21.1125C22.0428 21.6055 22.4935 22.5304 22.433 23.5297L22.6326 23.5418C22.6972 22.4766 22.217 21.4791 21.3722 20.9436L21.2651 21.1125ZM18.1485 11.8897C17.3261 16.7031 19.2973 19.8659 21.2651 21.1125L21.3721 20.9435C19.4801 19.7449 17.5353 16.6665 18.3457 11.9233L18.1485 11.8897ZM20.7801 10.478C20.1701 10.478 19.5321 10.5833 19.0373 10.809C18.5442 11.0339 18.1704 11.391 18.1472 11.902L18.347 11.911C18.3652 11.5093 18.6575 11.2021 19.1203 10.991C19.5815 10.7806 20.1892 10.678 20.7801 10.678V10.478ZM32.7336 30.1823C32.6996 30.255 32.6647 30.3274 32.629 30.3994L32.8082 30.4883C32.8446 30.4149 32.8801 30.3412 32.9148 30.267L32.7336 30.1823ZM32.629 30.3994C32.3873 30.8865 32.1101 31.3455 31.805 31.7638L31.9665 31.8817C32.2787 31.4538 32.5616 30.985 32.8082 30.4883L32.629 30.3994ZM31.8049 31.7638C30.2951 33.8349 28.2809 34.494 26.4536 34.5655L26.4614 34.7653C28.334 34.692 30.4123 34.0137 31.9666 31.8817L31.8049 31.7638ZM24.5012 34.6413C25.1021 34.7366 25.7677 34.7924 26.4614 34.7653L26.4536 34.5655C25.7754 34.592 25.1231 34.5374 24.5325 34.4437L24.5012 34.6413ZM17.8345 31.8363C19.8652 33.2876 22.2104 34.2778 24.5012 34.6413L24.5325 34.4437C22.2749 34.0855 19.9585 33.1084 17.9508 31.6736L17.8345 31.8363ZM20.8598 31.0748C20.3445 31.2205 19.0811 31.4587 17.8765 31.6563L17.9089 31.8537C19.1115 31.6564 20.3862 31.4166 20.9142 31.2673L20.8598 31.0748ZM22.5551 30.3072C22.0196 30.602 21.4767 30.8998 20.8597 31.0749L20.9143 31.2673C21.5566 31.0851 22.1186 30.7758 22.6515 30.4825L22.5551 30.3072ZM27.5278 29.3919C26.2837 29.1711 25.3426 29.2318 24.5585 29.434C23.776 29.6357 23.155 29.9772 22.5551 30.3072L22.6515 30.4825C23.2528 30.1517 23.8535 29.8223 24.6084 29.6277C25.3617 29.4335 26.2736 29.3724 27.4929 29.5889L27.5278 29.3919ZM33.0444 29.5743C31.3933 29.8318 29.658 29.7721 27.5279 29.392L27.4928 29.5889C29.6383 29.9717 31.3966 30.0337 33.0752 29.7719L33.0444 29.5743ZM32.9149 30.2667C32.9979 30.0877 33.0772 29.9017 33.1528 29.7098L32.9667 29.6365C32.8924 29.8251 32.8147 30.0075 32.7335 30.1826L32.9149 30.2667ZM27.6301 28.6849C29.8907 29.0873 31.6921 29.12 33.4259 28.7824L33.3876 28.5861C31.6843 28.9178 29.9087 28.8874 27.6651 28.488L27.6301 28.6849ZM22.2693 29.6646C22.9001 29.3176 23.5628 28.9539 24.4062 28.7354C25.2482 28.5173 26.275 28.4431 27.63 28.6849L27.6652 28.488C26.2843 28.2416 25.2283 28.3159 24.3561 28.5418C23.4854 28.7673 22.8027 29.1429 22.1729 29.4893L22.2693 29.6646ZM20.7005 30.3802C21.2552 30.2232 21.7537 29.9484 22.2694 29.6645L22.1729 29.4893C21.6537 29.7752 21.1751 30.038 20.646 30.1878L20.7005 30.3802ZM16.8428 31.095C18.3538 30.8704 20.127 30.5431 20.7006 30.3802L20.6459 30.1878C20.0864 30.3467 18.3253 30.6725 16.8134 30.8972L16.8428 31.095ZM16.8821 30.9119C16.855 30.8946 16.828 30.8774 16.8012 30.8602L16.6936 31.0288C16.7204 31.046 16.7473 31.0631 16.7742 31.0803L16.8821 30.9119ZM16.8012 30.8602L16.7859 30.8505L16.6783 31.0191L16.6936 31.0288L16.8012 30.8602ZM16.7857 30.8504L16.7756 30.8439L16.6683 31.0127L16.6785 31.0192L16.7857 30.8504ZM16.7755 30.8439C16.6533 30.7663 16.5332 30.6899 16.4148 30.6091L16.302 30.7742C16.4236 30.8573 16.5466 30.9354 16.6683 31.0127L16.7755 30.8439ZM16.4147 30.609C16.1142 30.404 15.7283 30.3063 15.2667 30.3063V30.5063C15.7012 30.5063 16.0442 30.5983 16.302 30.7742L16.4147 30.609ZM15.2667 30.3063C14.6544 30.3063 13.8997 30.4784 13.0076 30.8153L13.0782 31.0024C13.9596 30.6696 14.6885 30.5063 15.2667 30.5063V30.3063ZM13.1397 30.9341C13.2292 30.591 13.2782 30.212 13.2782 29.8119H13.0782C13.0782 30.1959 13.0312 30.5578 12.9462 30.8836L13.1397 30.9341ZM13.2782 29.8119C13.2782 28.8875 13.0162 28.0711 12.5925 27.5514L12.4375 27.6778C12.8248 28.1529 13.0782 28.9206 13.0782 29.8119H13.2782ZM12.5475 27.7091C13.7939 27.2801 15.2326 27.3227 16.267 27.8494L16.3577 27.6712C15.2665 27.1155 13.7703 27.0767 12.4824 27.52L12.5475 27.7091ZM16.267 27.8494C16.3642 27.8988 16.4608 27.9501 16.5586 28.0021L16.6524 27.8255C16.5549 27.7736 16.4567 27.7215 16.3576 27.6711L16.267 27.8494ZM16.5586 28.0021L16.5834 28.0153L16.6773 27.8387L16.6524 27.8255L16.5586 28.0021ZM16.5834 28.0153C17.1297 28.306 17.7156 28.6193 18.4094 28.6733L18.425 28.4739C17.7792 28.4236 17.229 28.1323 16.6773 27.8387L16.5834 28.0153ZM18.4092 28.6733C19.6084 28.7692 20.7797 28.333 21.7121 27.452L21.5747 27.3066C20.68 28.152 19.5633 28.5649 18.4252 28.4739L18.4092 28.6733ZM21.7121 27.452C22.7437 26.478 23.385 25.0744 23.4743 23.6008L23.2747 23.5887C23.1883 25.014 22.5677 26.3691 21.5748 27.3066L21.7121 27.452ZM23.4743 23.6008C23.56 22.1866 22.92 20.864 21.797 20.1522L21.69 20.3212C22.7462 20.9906 23.3563 22.2407 23.2747 23.5887L23.4743 23.6008ZM21.797 20.1522C20.1437 19.1046 18.7168 16.5162 19.0595 12.9553L18.8604 12.9361C18.5121 16.5549 19.9596 19.2247 21.69 20.3212L21.797 20.1522ZM18.9134 13.0342C19.3725 13.2754 19.9707 13.4047 20.5775 13.4276C21.1848 13.4506 21.8096 13.3675 22.3237 13.1763L22.254 12.9889C21.7692 13.1692 21.1715 13.2499 20.5851 13.2278C19.9982 13.2055 19.4315 13.0805 19.0064 12.8572L18.9134 13.0342ZM22.3234 13.1764C22.3809 13.1553 22.4371 13.1327 22.4917 13.1086L22.411 12.9256C22.3605 12.9479 22.3082 12.9689 22.2543 12.9887L22.3234 13.1764ZM22.3513 13.018C22.3811 16.1765 23.1746 17.0187 23.3817 17.1846L23.5067 17.0285C23.3676 16.9171 22.5808 16.1483 22.5513 13.0162L22.3513 13.018ZM23.3816 17.1846C23.6072 17.3657 23.8171 17.3294 23.9258 17.2874L23.8537 17.1008C23.7919 17.1247 23.6622 17.1534 23.5068 17.0286L23.3816 17.1846ZM23.9261 17.2872C26.7299 16.1934 30.0859 17.2786 32.0806 19.9476L32.2408 19.8279C30.1997 17.0968 26.752 15.9701 23.8534 17.1009L23.9261 17.2872ZM32.0806 19.9476C33.7742 22.2129 34.2143 25.5929 33.3108 28.656L33.5027 28.7126C34.4204 25.601 33.979 22.1529 32.2407 19.8279L32.0806 19.9476ZM12.146 30.58C12.0611 30.9322 11.9204 31.2182 11.7473 31.3952L11.8902 31.535C12.0973 31.3233 12.2506 30.9995 12.3404 30.6269L12.146 30.58ZM12.2335 29.8119C12.2335 30.0916 12.2009 30.3511 12.146 30.5801L12.3404 30.6268C12.3991 30.3822 12.4335 30.1069 12.4335 29.8119H12.2335ZM12.232 29.7074C12.233 29.7419 12.2335 29.7768 12.2335 29.8119H12.4335C12.4335 29.7748 12.433 29.738 12.4319 29.7015L12.232 29.7074ZM11.5133 28.0923C11.5765 28.0996 11.652 28.1371 11.7332 28.2151C11.8137 28.2926 11.8942 28.4049 11.9666 28.5487C12.1112 28.8362 12.2179 29.2388 12.232 29.7075L12.4319 29.7015C12.4171 29.2076 12.3047 28.7757 12.1452 28.4588C12.0655 28.3005 11.9727 28.168 11.8718 28.071C11.7716 27.9746 11.6576 27.9077 11.5363 27.8936L11.5133 28.0923ZM11.4376 28.0775C11.4622 28.0843 11.4875 28.0893 11.5133 28.0923L11.5363 27.8936C11.5209 27.8918 11.5058 27.8889 11.4911 27.8848L11.4376 28.0775ZM10.7442 29.8119C10.7442 29.3115 10.8486 28.8767 10.9974 28.5664C11.0718 28.4111 11.1559 28.2901 11.2406 28.2076C11.3259 28.1243 11.4055 28.0861 11.4723 28.0808L11.4565 27.8815C11.3272 27.8917 11.2062 27.9618 11.101 28.0643C10.9951 28.1675 10.8986 28.3098 10.817 28.4799C10.6538 28.8205 10.5442 29.2855 10.5442 29.8119H10.7442ZM11.4889 31.5437C11.4228 31.5437 11.3432 31.511 11.2563 31.4313C11.17 31.3521 11.0836 31.2325 11.0067 31.0767C10.8531 30.7653 10.7442 30.3228 10.7442 29.8119H10.5442C10.5442 30.3493 10.6584 30.8227 10.8274 31.1652C10.9118 31.3362 11.0116 31.4781 11.1211 31.5786C11.23 31.6786 11.3557 31.7437 11.4889 31.7437V31.5437ZM11.7088 31.4426C11.6267 31.5142 11.5517 31.5437 11.4889 31.5437V31.7437C11.6156 31.7437 11.7354 31.6847 11.8403 31.5933L11.7088 31.4426ZM11.7473 31.3952C11.7274 31.4155 11.7094 31.4371 11.6932 31.4598L11.8559 31.5761C11.8663 31.5616 11.8777 31.5478 11.8903 31.535L11.7473 31.3952ZM19.0208 12.0106C19.06 12.0646 19.1305 12.1204 19.2197 12.1728C19.3115 12.2267 19.4313 12.282 19.5778 12.3317C19.871 12.4312 20.2744 12.5098 20.7805 12.5098V12.3098C20.2949 12.3098 19.9133 12.2343 19.6421 12.1423C19.5064 12.0962 19.3993 12.0463 19.321 12.0004C19.2403 11.9529 19.1978 11.914 19.1827 11.8932L19.0208 12.0106ZM20.7805 11.3939C20.2746 11.3939 19.8711 11.4725 19.5778 11.572C19.4313 11.6217 19.3114 11.677 19.2196 11.7309C19.1304 11.7833 19.0598 11.8391 19.0207 11.8933L19.1828 12.0104C19.1977 11.9897 19.2401 11.9508 19.3209 11.9033C19.3992 11.8574 19.5063 11.8075 19.6421 11.7614C19.9134 11.6694 20.2951 11.5939 20.7805 11.5939V11.3939ZM22.5401 11.893C22.5008 11.8391 22.4303 11.7833 22.341 11.7309C22.2492 11.677 22.1293 11.6217 21.9829 11.572C21.6897 11.4725 21.2863 11.3939 20.7805 11.3939V11.5939C21.2658 11.5939 21.6474 11.6694 21.9186 11.7614C22.0543 11.8075 22.1614 11.8574 22.2397 11.9034C22.3205 11.9508 22.3632 11.9898 22.3784 12.0107L22.5401 11.893ZM20.7805 12.5098C21.2865 12.5098 21.6899 12.4312 21.983 12.3317C22.1295 12.2819 22.2493 12.2267 22.3411 12.1728C22.4303 12.1204 22.5008 12.0647 22.5401 12.0107L22.3784 11.893C22.3632 11.9139 22.3206 11.9529 22.2398 12.0004C22.1615 12.0463 22.0544 12.0962 21.9187 12.1423C21.6476 12.2343 21.2661 12.3098 20.7805 12.3098V12.5098Z" fill="#676F8F"/>
</svg>
