<svg width="48" height="48" viewBox="0 0 48 48" fill="none" xmlns="http://www.w3.org/2000/svg">
<path d="M37.4149 28.4418C35.234 32.6222 34.1137 37.2865 31.2272 40.1199C28.3371 42.9286 23.6375 43.9387 20.3833 41.9951C17.1291 40.0517 15.2967 35.1584 12.5114 31.6532C9.7533 28.1687 6.03865 26.0476 5.20207 23.16C4.34194 20.2761 6.38346 16.6219 8.38697 13.2005C10.3905 9.77916 12.4068 6.60758 15.1634 5.50801C17.9199 4.40844 21.4402 5.37704 25.2141 5.77576C28.9681 6.20289 32.9521 6.06398 36.4908 7.81048C40.0331 9.58153 43.1031 13.2172 42.9973 16.9118C42.8881 20.5817 39.6194 24.2575 37.4149 28.4418Z" fill="#E9FAF5"/>
<path d="M32.3242 31.5101C31.9561 31.3048 31.5341 31.2607 31.1354 31.3875C30.7367 31.5137 30.4086 31.7949 30.2119 32.1791C30.0152 32.5632 29.9732 33.0045 30.0943 33.4215C30.2153 33.8385 30.4841 34.1812 30.8517 34.3867C31.0814 34.5151 31.3325 34.5804 31.586 34.5804C31.7382 34.5804 31.8908 34.5568 32.0406 34.5094C32.4398 34.3831 32.7679 34.1019 32.9647 33.7177C33.1608 33.3336 33.2029 32.8923 33.0818 32.4754C32.9607 32.0584 32.6918 31.7157 32.3242 31.5101ZM32.0722 33.219C32.0031 33.3539 31.8874 33.4529 31.7472 33.4972C31.4591 33.5889 31.1502 33.4177 31.0628 33.1148C31.0203 32.9682 31.0351 32.813 31.1043 32.6779C31.1735 32.5428 31.2886 32.4439 31.4289 32.3996C31.4818 32.3828 31.5352 32.3746 31.5891 32.3746C31.678 32.3746 31.7659 32.3976 31.847 32.4428C31.976 32.5151 32.0709 32.6355 32.1132 32.7821C32.1556 32.9287 32.1414 33.0839 32.0722 33.219Z" fill="#676F8F"/>
<path d="M35.5615 37.3977C35.841 37.3977 36.0675 37.1609 36.0675 36.8689C36.0675 36.5768 35.841 36.3401 35.5615 36.3401C35.2821 36.3401 35.0555 36.5768 35.0555 36.8689C35.0555 37.1609 35.2821 37.3977 35.5615 37.3977Z" fill="#676F8F"/>
<path d="M14.3108 32.6383C14.5902 32.6383 14.8167 32.4015 14.8167 32.1095V31.0519C14.8167 30.7599 14.5902 30.5231 14.3108 30.5231C14.0313 30.5231 13.8048 30.7599 13.8048 31.0519V32.1095C13.8048 32.4015 14.0313 32.6383 14.3108 32.6383Z" fill="#676F8F"/>
<path d="M14.3108 33.696C14.0313 33.696 13.8048 33.9328 13.8048 34.2248V35.2824C13.8048 35.5744 14.0313 35.8112 14.3108 35.8112C14.5902 35.8112 14.8167 35.5744 14.8167 35.2824V34.2248C14.8167 33.9328 14.5902 33.696 14.3108 33.696Z" fill="#676F8F"/>
<path d="M13.299 32.6385H12.287C12.0076 32.6385 11.7811 32.8753 11.7811 33.1673C11.7811 33.4594 12.0076 33.6962 12.287 33.6962H13.299C13.5784 33.6962 13.805 33.4594 13.805 33.1673C13.805 32.8753 13.5784 32.6385 13.299 32.6385Z" fill="#676F8F"/>
<path d="M16.335 32.6385H15.3231C15.0437 32.6385 14.8171 32.8753 14.8171 33.1673C14.8171 33.4594 15.0437 33.6962 15.3231 33.6962H16.335C16.6145 33.6962 16.841 33.4594 16.841 33.1673C16.841 32.8753 16.6145 32.6385 16.335 32.6385Z" fill="#676F8F"/>
<path d="M39.0117 20.8537C39.0117 17.8128 36.2229 15.3389 32.7951 15.3389C32.7647 15.3389 32.7358 15.3443 32.7059 15.346C32.2802 14.4143 31.4433 13.5784 30.2282 12.9144C29.417 11.1298 26.8678 9.8999 23.9244 9.8999C20.9605 9.8999 18.4067 11.1398 17.6079 12.9397C16.402 13.6014 15.5699 14.4301 15.1449 15.3511C11.8719 15.4953 9.23578 17.9297 9.23578 20.8537C9.23578 22.5527 10.1292 24.1607 11.625 25.1978C11.8598 26.3307 12.5275 27.5326 13.4052 28.3819C14.1668 29.1185 14.9997 29.4872 15.7995 29.4872C16.5758 29.4872 17.3206 29.1394 17.9375 28.4428C19.19 27.0284 19.0303 25.1765 17.5298 23.7251C16.2347 22.472 14.2423 21.7491 12.9007 22.216C12.4998 21.812 12.2715 21.3359 12.2715 20.8537C12.2715 19.6265 13.6341 18.5862 15.2825 18.5184C15.8605 19.6173 16.9452 20.6351 18.3637 21.3394C19.3331 21.8207 20.0118 22.8424 20.1348 24.0064L20.6383 28.7683C20.661 28.9815 20.8047 29.1597 21.0022 29.2185L21.3943 29.3358V31.1113C21.3943 31.4792 21.5245 31.8124 21.7323 32.0764C21.5246 32.3263 21.3943 32.6487 21.3943 33.0049V34.3874C21.3943 34.7281 21.5142 35.0371 21.706 35.2825C21.5142 35.5278 21.3943 35.8369 21.3943 36.1776V37.56C21.3943 38.3452 22.0055 38.984 22.757 38.984H25.0912C25.8427 38.984 26.4539 38.3452 26.4539 37.56V36.1776C26.4539 35.8368 26.334 35.5278 26.1423 35.2825C26.334 35.0371 26.4539 34.728 26.4539 34.3874V33.0049C26.4539 32.6487 26.3236 32.3263 26.1159 32.0764C26.3239 31.8124 26.4539 31.479 26.4539 31.1113V29.3453L26.907 29.2218C27.1115 29.1658 27.2613 28.9827 27.2826 28.7627L27.7352 24.0332C27.8484 22.8521 28.5307 21.8158 29.5159 21.3283C30.9382 20.6244 32.0224 19.5959 32.59 18.4828C32.6584 18.4925 32.7251 18.5119 32.7949 18.5119C34.5189 18.5119 35.9756 19.5844 35.9756 20.8538C35.9756 21.335 35.7482 21.8107 35.3483 22.2147C34.8347 22.0336 34.206 22.0199 33.4981 22.1867C32.4975 22.4229 31.4835 22.9837 30.7172 23.7254C29.9533 24.4643 29.5254 25.3136 29.479 26.1811C29.4355 26.9981 29.7226 27.7802 30.3096 28.4429C30.9267 29.1397 31.6714 29.4873 32.4475 29.4873C33.2475 29.4873 34.0806 29.1183 34.8421 28.382C35.6085 27.6404 36.2216 26.6273 36.5241 25.6022C36.564 25.4664 36.5963 25.3335 36.624 25.2028C38.1191 24.1676 39.0117 22.5469 39.0117 20.8537ZM16.8427 24.5014C17.9241 25.5476 18.0558 26.7523 17.195 27.7246C16.3342 28.6969 15.1743 28.6526 14.0927 27.6058C12.8011 26.3561 12.1417 24.2363 12.8097 23.4821C13.4784 22.7288 15.5513 23.2517 16.8427 24.5014ZM11.2598 20.8537C11.2598 21.5569 11.5339 22.2365 12.0334 22.8092C11.795 23.0951 11.65 23.4417 11.5818 23.8249C10.7383 23.0144 10.2479 21.9548 10.2479 20.8538C10.2479 18.5924 12.2697 16.6896 14.8457 16.4285C14.8337 16.5434 14.8169 16.6577 14.8169 16.7743C14.8169 17.0111 14.8464 17.2495 14.8985 17.4875C12.8482 17.7083 11.2598 19.1317 11.2598 20.8537ZM25.0915 32.6384C25.2846 32.6384 25.4422 32.8029 25.4422 33.0048V34.3872C25.4422 34.5891 25.2846 34.7535 25.0915 34.7535H22.7573C22.5641 34.7535 22.4065 34.5891 22.4065 34.3872V33.0048C22.4065 32.8029 22.5641 32.6384 22.7573 32.6384H22.8556H24.9931H25.0915ZM25.4424 37.5601C25.4424 37.762 25.2848 37.9265 25.0916 37.9265H22.7574C22.5643 37.9265 22.4066 37.762 22.4066 37.5601V36.1777C22.4066 35.9758 22.5643 35.8114 22.7574 35.8114H25.0916C25.2848 35.8114 25.4424 35.9758 25.4424 36.1777V37.5601ZM29.0835 20.3724C27.779 21.0177 26.8768 22.38 26.7285 23.928L26.311 28.2914L25.8203 28.4252C25.5979 28.4861 25.4424 28.6964 25.4424 28.937V31.1113C25.4424 31.3702 25.2407 31.581 24.9932 31.581H22.8557C22.6082 31.581 22.4065 31.3702 22.4065 31.1113V28.9368C22.4065 28.7008 22.2568 28.4933 22.0394 28.4284L21.6073 28.2992L21.1411 23.8901C20.9798 22.3646 20.0819 21.0212 18.7983 20.384C17.0221 19.5023 15.8289 18.0517 15.8289 16.7743C15.8289 15.6607 16.6809 14.6031 18.2281 13.796C18.3414 13.7369 18.4295 13.6354 18.4746 13.5115C19.0154 12.0316 21.3073 10.9575 23.9244 10.9575C26.524 10.9575 28.8128 12.0238 29.3662 13.4931C29.4121 13.615 29.4996 13.7147 29.6117 13.773C31.1646 14.5801 32.02 15.646 32.02 16.7743C32.02 18.0574 30.8401 19.5034 29.0835 20.3724ZM35.5574 25.2907C35.3094 26.1305 34.7852 26.9958 34.1546 27.6058C33.0745 28.6526 31.9137 28.697 31.0526 27.7246C30.6563 27.277 30.4616 26.7637 30.4898 26.2397C30.5209 25.6515 30.8377 25.0504 31.4054 24.5015C32.0353 23.8917 32.901 23.4119 33.7217 23.2185C33.9812 23.157 34.2238 23.1271 34.4431 23.1271C34.8824 23.1271 35.2298 23.2479 35.4377 23.4822C35.749 23.8336 35.7925 24.4929 35.5574 25.2907ZM36.6684 23.8252C36.5975 23.4324 36.447 23.0885 36.2143 22.8096C36.7138 22.2367 36.9878 21.5567 36.9878 20.8537C36.9878 19.0236 35.1941 17.5308 32.9579 17.4609C33.0056 17.2319 33.0319 17.0024 33.0319 16.7743C33.0319 16.6498 33.0149 16.5279 33.0013 16.4055C35.7752 16.4992 37.9997 18.4557 37.9997 20.8537C37.9997 21.9683 37.5184 23.0145 36.6684 23.8252Z" fill="#676F8F"/>
<path d="M23.9244 23.12C23.6448 23.12 23.4185 23.3567 23.4185 23.6488V29.9944C23.4185 30.2864 23.6448 30.5232 23.9244 30.5232C24.2041 30.5232 24.4304 30.2864 24.4304 29.9944V23.6488C24.4304 23.3567 24.2041 23.12 23.9244 23.12Z" fill="#676F8F"/>
</svg>
