<svg width="96" height="96" viewBox="0 0 96 96" fill="none" xmlns="http://www.w3.org/2000/svg">
<path d="M95.6789 47.04L88.3195 37.1971L89.7836 24.9846C89.868 24.2783 89.4773 23.601 88.8234 23.3221L77.5109 18.4979L72.6773 7.18223C72.3984 6.5291 71.7211 6.1377 71.0148 6.22285L58.8023 7.68848L48.9594 0.320508C48.3906 -0.106836 47.6078 -0.106836 47.0391 0.320508L37.1961 7.68848L24.9852 6.22285C24.2789 6.1377 23.6016 6.5291 23.3227 7.18223L18.4969 18.4979L7.18359 23.3221C6.52969 23.601 6.13828 24.2783 6.22344 24.9846L7.6875 37.1971L0.319531 47.04C-0.107812 47.6088 -0.107812 48.3916 0.319531 48.9604L7.68906 58.8033L6.22344 71.0158C6.13828 71.7221 6.52969 72.3994 7.18359 72.6783L18.4953 77.5025L23.3211 88.8182C23.6 89.4713 24.2773 89.8627 24.9836 89.7775L37.1961 88.3119L47.0391 95.6799C47.6078 96.1072 48.3906 96.1072 48.9594 95.6799L58.8023 88.3205L71.0133 89.7861C71.7195 89.8705 72.3969 89.4799 72.6758 88.826L77.5016 77.5104L88.8148 72.6869C89.4688 72.4072 89.8602 71.7299 89.775 71.0244L88.3195 58.8033L95.6789 48.9604C96.1063 48.3916 96.1063 47.6088 95.6789 47.04ZM9.54141 70.2049L10.9398 58.5486C10.9891 58.14 10.8797 57.7283 10.6328 57.3986L3.59766 48.0002L10.6375 38.6018C10.8844 38.2721 10.9945 37.8604 10.9445 37.4518L10.4789 33.6002H23.9992V75.2002H20.8773C20.7289 75.0354 20.5469 74.9033 20.343 74.8127L9.54141 70.2049ZM85.3656 57.4049C85.1188 57.7346 85.0094 58.1471 85.0586 58.5557L86.457 70.2111L75.6555 74.8197C75.2758 74.9807 74.9727 75.283 74.8102 75.6627L70.2039 86.4643L58.5477 85.0643C58.1398 85.0158 57.7281 85.126 57.3992 85.3729L47.9992 92.4018L38.5992 85.3619C38.3219 85.1541 37.9852 85.0416 37.6391 85.0416C37.5758 85.0416 37.5117 85.0455 37.4484 85.0533L25.793 86.4533L22.3578 78.4002H27.1992V75.2002H67.1992C69.5609 75.1994 71.7297 73.8979 72.8422 71.8143C73.9547 69.7314 73.8289 67.2049 72.5164 65.2416C74.4992 64.5463 76.0148 62.9205 76.5703 60.8939C77.1258 58.8666 76.65 56.6963 75.2984 55.0869C75.7438 54.8166 76.1547 54.4947 76.5227 54.1268C77.9227 52.7432 78.5977 50.7869 78.3492 48.8346C78.1 46.8822 76.9555 45.158 75.2539 44.1697C76.3563 42.8908 76.9055 41.2268 76.7797 39.5424C76.4578 36.1268 73.5578 33.5361 70.1273 33.6002H54.3992V20.8002C54.3937 16.3838 50.8156 12.8057 46.3992 12.8002H43.1992C42.3156 12.8002 41.5992 13.5166 41.5992 14.4002V20.8002C41.5914 27.8658 35.8648 33.5924 28.7992 33.6002H27.1992V30.4002H10.0953L9.54141 25.7955L20.343 21.1877C20.7227 21.026 21.0258 20.7236 21.1883 20.3439L25.7945 9.54238L37.4508 10.9424C37.8586 10.9924 38.2711 10.8814 38.5992 10.6338L47.9992 3.59863L57.3992 10.6385C57.7281 10.8861 58.1398 10.9971 58.5477 10.9471L70.2039 9.54707L74.8117 20.3486C74.9742 20.7283 75.2758 21.0307 75.6555 21.1924L86.457 25.8002L85.0586 37.4564C85.0094 37.865 85.1188 38.2768 85.3656 38.6064L92.4008 48.0002L85.3656 57.4049ZM52.7992 36.8002H70.1273C71.8727 36.7533 73.3688 38.0377 73.5883 39.7697C73.6633 40.6971 73.3234 41.6096 72.6602 42.2611C72.0625 42.8643 71.2484 43.2025 70.3992 43.2002H67.1992C66.3156 43.2002 65.5992 43.9166 65.5992 44.8002C65.5992 45.6838 66.3156 46.4002 67.1992 46.4002H71.7273C73.4727 46.3533 74.9688 47.6377 75.1883 49.3697C75.2633 50.2971 74.9234 51.2096 74.2602 51.8611C73.6625 52.4643 72.8484 52.8025 71.9992 52.8002H67.1992C66.3156 52.8002 65.5992 53.5166 65.5992 54.4002C65.5992 55.2838 66.3156 56.0002 67.1992 56.0002H70.3992C72.1664 56.0002 73.5992 57.433 73.5992 59.2002C73.5992 60.9674 72.1664 62.4002 70.3992 62.4002H65.5992C64.7156 62.4002 63.9992 63.1166 63.9992 64.0002C63.9992 64.8838 64.7156 65.6002 65.5992 65.6002H67.1992C68.9664 65.6002 70.3992 67.033 70.3992 68.8002C70.3992 70.5674 68.9664 72.0002 67.1992 72.0002H27.1992V36.8002H28.7992C37.632 36.7908 44.7898 29.633 44.7992 20.8002V16.0002H46.3992C49.05 16.0002 51.1992 18.1494 51.1992 20.8002V35.2002C51.1992 36.0838 51.9156 36.8002 52.7992 36.8002Z" fill="#1ECD96"/>
</svg>
