<svg xmlns="http://www.w3.org/2000/svg" width="80" height="80" viewBox="0 0 80 80" fill="none">
<path d="M69.4075 66.3336C64.0325 71.98 56.1085 74.8306 48.24 77.0782C40.3159 79.271 32.4474 80.806 24.5789 79.5452C16.7103 78.2843 8.84178 74.1728 4.57502 67.7588C0.308226 61.3997 -0.356732 52.7381 0.141974 44.4604C0.696097 36.1825 2.52475 28.3433 7.23477 23.2451C11.8894 18.1467 19.5363 15.8443 27.7374 11.3491C35.9939 6.79904 44.9153 0.11101 53.8366 0.00136173C62.7026 -0.108273 71.624 6.4153 76.1124 14.8576C80.5455 23.2999 80.6009 33.6609 79.1601 43.035C77.7194 52.4093 74.8379 60.7419 69.4075 66.3336Z" fill="#E9FAF5"/>
<path d="M33.5996 35.7334V63.4667H50.6663C42.0865 57.3047 36.6833 45.1778 33.5996 35.7334Z" fill="#B6EFDD"/>
<path d="M17.1776 25.4023C15.5413 25.4023 13.972 26.0524 12.8149 27.2094C11.6578 28.3665 11.0078 29.9358 11.0078 31.5721V64.1858C11.0078 65.4621 11.5149 66.6862 12.4174 67.5888C13.32 68.4913 14.5441 68.9983 15.8205 68.9983H21.7133C25.454 65.7709 25.634 62.3528 25.634 62.3528C25.634 62.3528 21.8863 56.307 20.3315 42.6046C19.3964 34.3273 20.5513 28.6228 21.6174 25.4023H17.1776Z" fill="#B6EFDD"/>
<path d="M26.7587 59.3543C26.758 58.4551 26.4907 57.5762 25.9906 56.8289C25.4905 56.0816 24.7801 55.4993 23.9491 55.1557C23.1181 54.8121 22.2039 54.7225 21.3221 54.8983C20.4402 55.0742 19.6303 55.5076 18.9947 56.1436C18.3591 56.7797 17.9264 57.59 17.7512 58.4719C17.576 59.3539 17.6663 60.268 18.0105 61.0987C18.3548 61.9294 18.9377 62.6394 19.6854 63.1389C20.4331 63.6384 21.3121 63.905 22.2114 63.905C22.8088 63.905 23.4004 63.7872 23.9524 63.5585C24.5043 63.3298 25.0057 62.9945 25.428 62.5719C25.8503 62.1493 26.1852 61.6476 26.4135 61.0955C26.6419 60.5434 26.7591 59.9517 26.7587 59.3543Z" fill="#1ECD96"/>
<path d="M69.8673 39.5755C69.8673 36.9361 68.6259 35.5286 67.3797 34.7828C68.146 34.271 68.7739 33.5779 69.2079 32.7651C69.6418 31.9523 69.8684 31.0448 69.8673 30.1234C69.8673 27.2349 68.3196 25.8556 67.0209 25.2068C66.1613 24.7876 65.2227 24.5549 64.2668 24.5241H49.1765C47.7118 24.5241 47.7013 23.3634 47.7363 22.9554C47.99 19.9886 47.9117 17.2205 47.8147 15.1398C47.6335 11.3384 43.7232 10.3085 43.6823 10.2992C42.9944 10.1266 42.2789 10.0928 41.5777 10.1998C40.8765 10.3068 40.2037 10.5525 39.5986 10.9226C38.9934 11.2926 38.4681 11.7795 38.0534 12.3549C37.6386 12.9303 37.3426 13.5826 37.1828 14.2736C35.9823 19.4112 34.0266 23.0407 32.9745 24.53H17.177C15.3097 24.5322 13.5194 25.2748 12.1988 26.5951C10.8783 27.9154 10.1353 29.7056 10.1328 31.5729V64.1866C10.1359 65.6934 10.7363 67.1375 11.8023 68.2024C12.8683 69.2673 14.3131 69.8662 15.8199 69.8677H28.6026C30.1103 69.8658 31.5558 69.2661 32.6219 68.2C33.688 67.1339 34.2878 65.6885 34.2896 64.1808V64.0709H64.808C65.6925 64.0422 66.5572 63.8017 67.3295 63.3695C68.4868 62.7161 69.8661 61.3367 69.8661 58.4739C69.8661 55.7772 68.6691 54.3709 67.4405 53.638C68.1937 53.1199 68.8085 52.4253 69.2312 51.6147C69.654 50.8042 69.8718 49.9026 69.8657 48.9884C69.8596 48.0743 69.6297 47.1756 69.1962 46.3709C68.7626 45.5661 68.1386 44.8797 67.3786 44.3717C68.6247 43.6224 69.8673 42.215 69.8673 39.5755ZM32.5409 64.1808C32.5387 65.2241 32.1229 66.2241 31.3847 66.9614C30.6465 67.6988 29.646 68.1133 28.6026 68.1143H15.8199C14.7773 68.1121 13.778 67.697 13.0408 66.9598C12.3036 66.2226 11.8884 65.2233 11.8863 64.1808V31.5671C11.8881 30.1635 12.4465 28.818 13.439 27.8256C14.4314 26.8331 15.777 26.2747 17.1805 26.2729H32.5409V64.1808ZM66.5007 42.865C65.9692 43.1871 65.3741 43.3902 64.7566 43.46C64.5388 43.474 64.3342 43.5688 64.1827 43.7259C64.0312 43.883 63.9438 44.0909 63.9377 44.309C63.9315 44.5271 64.0071 44.7397 64.1495 44.905C64.2919 45.0704 64.4909 45.1766 64.7075 45.2029C65.6466 45.3095 66.5137 45.7581 67.1432 46.4631C67.7727 47.1681 68.1207 48.0802 68.1207 49.0253C68.1207 49.9705 67.7727 50.8826 67.1432 51.5876C66.5137 52.2926 65.6466 52.7412 64.7075 52.8478C64.4846 52.8709 64.2792 52.9787 64.1335 53.1489C63.9878 53.3192 63.913 53.5388 63.9246 53.7626C63.9361 53.9863 64.0331 54.1971 64.1955 54.3514C64.358 54.5057 64.5734 54.5918 64.7975 54.5919C64.9331 54.5919 68.1162 54.6714 68.1162 58.4728C68.1162 62.1748 65.1412 62.3175 64.808 62.3221H34.2908V25.6943C34.9922 24.7299 37.3944 21.0629 38.8884 14.6699C39.1105 13.7184 39.9989 11.1993 43.2475 11.993C43.4146 12.0339 45.949 12.7972 46.0624 15.2263C46.1559 17.2521 46.233 19.9465 45.9875 22.8105C45.9116 23.7 45.949 26.2787 49.1718 26.2787H64.2621C64.9653 26.31 65.6541 26.488 66.2844 26.8013C67.5165 27.4348 68.1139 28.5255 68.1139 30.1234C68.1137 31.0678 67.7663 31.9792 67.1378 32.684C66.5092 33.3889 65.6434 33.838 64.7051 33.9459C64.4885 33.9721 64.2895 34.0784 64.1471 34.2437C64.0047 34.409 63.9292 34.6216 63.9353 34.8397C63.9415 35.0578 64.0289 35.2658 64.1803 35.4228C64.3318 35.5799 64.5365 35.6747 64.7542 35.6888C64.891 35.6958 68.1139 35.9226 68.1139 39.5709C68.1139 41.094 67.5715 42.1998 66.5007 42.865Z" fill="#676F8F" stroke="#676F8F" stroke-width="0.2"/>
</svg>