<svg xmlns="http://www.w3.org/2000/svg" width="40" height="40" viewBox="0 0 40 40" fill="none">
<path d="M32.2531 30.9723C30.0135 33.325 26.7119 34.5128 23.4333 35.4493C20.1316 36.3629 16.8531 37.0025 13.5745 36.4772C10.296 35.9518 7.01741 34.2387 5.23959 31.5662C3.46176 28.9166 3.18469 25.3076 3.39248 21.8585C3.62337 18.4094 4.38531 15.1431 6.34782 13.0188C8.28724 10.8945 11.4735 9.93513 14.8906 8.06213C18.3308 6.16628 22.048 3.3796 25.7653 3.33391C29.4594 3.28823 33.1767 6.00639 35.0468 9.524C36.8939 13.0416 36.917 17.3587 36.3167 21.2646C35.7164 25.1705 34.5158 28.6425 32.2531 30.9723Z" fill="#E9FAF5"/>
<path d="M17.3334 18.2222V29.7778H24.4445C20.8696 27.2102 18.6183 22.1574 17.3334 18.2222Z" fill="#B6EFDD"/>
<path d="M10.4906 13.9176C9.80877 13.9176 9.15489 14.1884 8.67277 14.6705C8.19066 15.1526 7.91982 15.8065 7.91982 16.4883V30.0773C7.91982 30.6091 8.13108 31.1192 8.50715 31.4952C8.88321 31.8713 9.39326 32.0826 9.92509 32.0826H12.3804C13.939 30.7378 14.0141 29.3136 14.0141 29.3136C14.0141 29.3136 12.4525 26.7945 11.8047 21.0852C11.415 17.6363 11.8963 15.2594 12.3405 13.9176H10.4906Z" fill="#B6EFDD"/>
<path d="M14.4832 28.0643C14.4829 27.6896 14.3715 27.3235 14.1632 27.0121C13.9548 26.7007 13.6588 26.4581 13.3125 26.3149C12.9663 26.1717 12.5854 26.1344 12.2179 26.2077C11.8505 26.2809 11.513 26.4615 11.2482 26.7265C10.9834 26.9916 10.8031 27.3292 10.7301 27.6967C10.6571 28.0642 10.6947 28.445 10.8381 28.7912C10.9816 29.1373 11.2244 29.4331 11.536 29.6412C11.8475 29.8493 12.2138 29.9604 12.5885 29.9604C12.8374 29.9604 13.0839 29.9114 13.3139 29.8161C13.5439 29.7208 13.7528 29.5811 13.9288 29.405C14.1047 29.2289 14.2443 29.0198 14.3394 28.7898C14.4345 28.5598 14.4834 28.3132 14.4832 28.0643Z" fill="#1ECD96"/>
<path d="M32.4449 19.8232C32.4449 18.7234 31.9276 18.137 31.4084 17.8262C31.7277 17.6129 31.9893 17.3242 32.1702 16.9855C32.351 16.6468 32.4453 16.2687 32.4449 15.8848C32.4449 14.6812 31.8 14.1065 31.2589 13.8362C30.9007 13.6615 30.5096 13.5646 30.1114 13.5517H23.8237C23.2134 13.5517 23.2091 13.0681 23.2237 12.8981C23.3294 11.6619 23.2967 10.5086 23.2563 9.64161C23.1808 8.05768 21.5516 7.62858 21.5345 7.62469C21.2479 7.55275 20.9497 7.53867 20.6576 7.58327C20.3654 7.62787 20.0851 7.73025 19.8329 7.88443C19.5808 8.03861 19.3619 8.2415 19.1891 8.48124C19.0163 8.72098 18.893 8.99276 18.8264 9.2807C18.3262 11.4213 17.5113 12.9337 17.0729 13.5542H10.4906C9.71256 13.5551 8.96661 13.8645 8.41638 14.4147C7.86615 14.9648 7.55657 15.7107 7.55554 16.4887V30.0778C7.55683 30.7056 7.80698 31.3073 8.25115 31.751C8.69533 32.1947 9.29731 32.4443 9.92515 32.4449H15.2513C15.8795 32.4441 16.4818 32.1942 16.926 31.75C17.3702 31.3058 17.6201 30.7035 17.6209 30.0753V30.0296H30.3369C30.7054 30.0176 31.0657 29.9174 31.3875 29.7373C31.8697 29.465 32.4444 28.8903 32.4444 27.6975C32.4444 26.5738 31.9457 25.9879 31.4338 25.6825C31.7476 25.4666 32.0037 25.1772 32.1799 24.8395C32.356 24.5018 32.4468 24.1261 32.4442 23.7452C32.4417 23.3643 32.3459 22.9899 32.1653 22.6545C31.9846 22.3192 31.7246 22.0332 31.4079 21.8216C31.9272 21.5094 32.4449 20.9229 32.4449 19.8232ZM16.8922 30.0753C16.8913 30.5101 16.7181 30.9267 16.4105 31.2339C16.1029 31.5412 15.686 31.7139 15.2513 31.7143H9.92515C9.49073 31.7134 9.07437 31.5404 8.7672 31.2333C8.46002 30.9261 8.28705 30.5097 8.28615 30.0753V16.4863C8.28692 15.9015 8.51958 15.3409 8.93311 14.9273C9.34664 14.5138 9.90728 14.2812 10.4921 14.2804H16.8922V30.0753ZM31.0421 21.1938C30.8207 21.328 30.5728 21.4126 30.3154 21.4417C30.2247 21.4475 30.1394 21.487 30.0763 21.5525C30.0132 21.6179 29.9768 21.7046 29.9742 21.7954C29.9717 21.8863 30.0031 21.9749 30.0625 22.0438C30.1218 22.1127 30.2047 22.1569 30.295 22.1679C30.6863 22.2123 31.0476 22.3992 31.3099 22.693C31.5722 22.9867 31.7171 23.3668 31.7171 23.7606C31.7171 24.1544 31.5722 24.5344 31.3099 24.8282C31.0476 25.1219 30.6863 25.3088 30.295 25.3533C30.2021 25.3629 30.1165 25.4078 30.0558 25.4787C29.9951 25.5497 29.964 25.6412 29.9688 25.7344C29.9736 25.8276 30.014 25.9155 30.0817 25.9798C30.1493 26.0441 30.2391 26.0799 30.3325 26.08C30.389 26.08 31.7153 26.1131 31.7153 27.697C31.7153 29.2395 30.4757 29.299 30.3369 29.3009H17.6214V14.0393C17.9136 13.6375 18.9145 12.1096 19.537 9.44581C19.6296 9.04934 19.9997 7.99972 21.3533 8.33044C21.423 8.34749 22.4789 8.66554 22.5262 9.67765C22.5651 10.5217 22.5973 11.6444 22.495 12.8377C22.4634 13.2084 22.4789 14.2828 23.8218 14.2828H30.1094C30.4024 14.2958 30.6894 14.37 30.952 14.5005C31.4654 14.7645 31.7143 15.219 31.7143 15.8848C31.7143 16.2783 31.5695 16.658 31.3076 16.9517C31.0457 17.2454 30.6849 17.4325 30.294 17.4775C30.2037 17.4884 30.1208 17.5327 30.0615 17.6016C30.0022 17.6705 29.9707 17.759 29.9733 17.8499C29.9758 17.9408 30.0122 18.0274 30.0753 18.0929C30.1385 18.1583 30.2237 18.1978 30.3145 18.2037C30.3715 18.2066 31.7143 18.3011 31.7143 19.8212C31.7143 20.4559 31.4883 20.9166 31.0421 21.1938Z" fill="#676F8F" stroke="#676F8F" stroke-width="0.2"/>
</svg>