<svg width="34" height="34" viewBox="0 0 34 34" fill="none" xmlns="http://www.w3.org/2000/svg">
<path d="M24.7211 24.6513H28.7598C29.1919 24.6476 29.5925 24.8769 29.8082 25.2514L33.2921 31.4849C33.484 31.8438 33.4687 32.2781 33.2519 32.6227C33.0352 32.9672 32.6504 33.1691 32.2437 33.1515H1.75642C1.3498 33.1691 0.96497 32.9672 0.748216 32.6227C0.531528 32.2781 0.516188 31.8438 0.70804 31.4849L4.19198 25.2514C4.4076 24.8769 4.80824 24.6476 5.24036 24.6513H24.7211Z" fill="#DEF4EC"/>
<path d="M32.2438 33.1515H8.5C8.5 33.1515 19.8336 32.0181 22.6669 24.6513H28.7587C29.1912 24.6467 29.5924 24.8765 29.8071 25.252L33.2921 31.4855C33.4837 31.8444 33.4682 32.2784 33.2516 32.6228C33.0349 32.9671 32.6502 33.169 32.2438 33.1515Z" fill="#1ECD96" fill-opacity="0.4"/>
<path d="M29.9771 33.1515H8.5C8.5 33.1515 19.8336 32.0181 22.6669 24.6513H26.492C26.9245 24.6467 27.3257 24.8765 27.5404 25.252L31.0254 31.4855C31.217 31.8444 31.2016 32.2784 30.9849 32.6228C30.7682 32.9671 30.3835 33.169 29.9771 33.1515Z" fill="#DEF4EC"/>
<path d="M27.7663 11.6348C27.7663 13.1195 27.0919 15.0009 26.0832 16.9843C24.9897 19.055 23.7533 21.0469 22.3828 22.9457C21.0341 24.8441 19.6911 26.5555 18.6824 27.7908C18.3764 28.1705 18.0987 28.4992 17.8664 28.7825C17.6542 29.0355 17.342 29.1831 17.0118 29.1863C16.6816 29.1896 16.3665 29.0483 16.1493 28.7995L16.1323 28.7825C15.9 28.4991 15.6223 28.1705 15.3163 27.7908C14.3077 26.5555 12.9589 24.8441 11.6159 22.9457C10.2435 21.0483 9.00688 19.0562 7.91547 16.9843C6.9068 15.0009 6.23244 13.1195 6.23244 11.6348C6.22553 7.30258 8.81576 3.38825 12.8059 1.70097C13.8687 1.24926 14.998 0.973673 16.1493 0.884953C16.427 0.862308 16.716 0.850952 16.9994 0.850952C19.8563 0.850952 22.5961 1.98646 24.6155 4.00737C26.6383 6.02968 27.7721 8.7745 27.7663 11.6348Z" fill="#1ECD96" fill-opacity="0.4"/>
<path d="M26.0662 11.6346C26.0662 13.1193 25.3919 15.0007 24.3832 16.9841C23.2897 19.0548 22.0532 21.0468 20.6828 22.9456C19.3341 24.8439 17.9911 26.5553 16.9824 27.7906C16.6763 28.1703 16.3987 28.499 16.1663 28.7823L16.1493 28.7993L16.1323 28.7823C15.9 28.4989 15.6223 28.1703 15.3163 27.7906C14.3077 26.5553 12.9589 24.8439 11.6159 22.9456C10.2434 21.0481 9.00688 19.056 7.91547 16.9841C6.9068 15.0007 6.23244 13.1194 6.23244 11.6346C6.22553 7.30239 8.81575 3.38806 12.8059 1.70078C13.8687 1.24908 14.998 0.973486 16.1493 0.884766C17.3007 0.973486 18.43 1.24908 19.4928 1.70078C23.4838 3.38694 26.0745 7.30199 26.0662 11.6346Z" fill="#DEF4EC"/>
<path d="M22.1007 11.0512C22.0964 13.866 19.8155 16.1469 17.0006 16.1513C16.7159 16.1516 16.4317 16.1289 16.1506 16.0833C13.6989 15.6638 11.9062 13.5385 11.9062 11.0512C11.9062 8.56379 13.6989 6.43848 16.1506 6.01905C16.4317 5.97343 16.7159 5.95072 17.0006 5.95105C19.8155 5.95544 22.0964 8.23627 22.1007 11.0512Z" fill="#1ECD96" fill-opacity="0.4"/>
<path d="M20.4007 11.051C20.3949 13.5382 18.6018 15.6612 16.1506 16.0831C13.6989 15.6637 11.9062 13.5384 11.9062 11.051C11.9062 8.56366 13.6989 6.43835 16.1506 6.01892C18.6018 6.44081 20.3949 8.56379 20.4007 11.051Z" fill="#F5F5F5"/>
<path d="M1.75717 33.1514H3.45721C3.05059 33.1689 2.66576 32.967 2.44901 32.6225C2.23232 32.278 2.21698 31.8437 2.40883 31.4848L5.89277 25.2513C6.1084 24.8768 6.50903 24.6475 6.94115 24.6512L5.24111 24.6512C4.8094 24.648 4.40936 24.8772 4.19387 25.2514L0.709993 31.4848C0.518208 31.8436 0.533482 32.2776 0.749904 32.6221C0.966326 32.9665 1.35076 33.1685 1.75717 33.1514Z" fill="white"/>
<path d="M11.6179 22.9456C12.0355 23.5361 12.4531 24.1056 12.8645 24.6513H14.5646C14.156 24.1056 13.7383 23.536 13.3179 22.9456C11.9454 21.0482 10.7089 19.0561 9.61746 16.9841C8.6088 15.0007 7.93443 13.1194 7.93443 11.6347C7.92752 7.30245 10.5178 3.38813 14.5079 1.70085C15.5546 1.25698 16.6655 0.983579 17.7986 0.891073C17.5345 0.871815 17.2705 0.85083 17.0013 0.85083C16.718 0.85083 16.429 0.862186 16.1513 0.884831C14.9999 0.973551 13.8707 1.24914 12.8079 1.70085C8.81685 3.387 6.22616 7.30212 6.23439 11.6347C6.23439 13.1194 6.90876 15.0007 7.91743 16.9841C9.0089 19.0561 10.2454 21.0482 11.6179 22.9456Z" fill="white"/>
<path d="M5.23988 25.2177C5.07426 25.2173 4.91455 25.2794 4.79275 25.3917C4.76446 25.4181 4.73916 25.4476 4.71738 25.4796C4.7049 25.4948 4.69699 25.5118 4.68624 25.5277L4.62959 25.6286L4.40294 26.0304L3.50644 27.638L1.70952 30.8533L1.19951 31.76L0.212891 31.2081L0.722901 30.3014L2.51757 27.0878L3.41573 25.4801L3.64238 25.0783L3.69902 24.9781C3.72851 24.9288 3.75567 24.8783 3.79139 24.8318C3.85793 24.7377 3.93391 24.6505 4.01804 24.5717C4.34869 24.2601 4.78545 24.0858 5.23981 24.0844V25.2177H5.23988Z" fill="white"/>
<path d="M3.42751 26.62C3.70057 26.7724 4.04549 26.6747 4.19816 26.4018L4.47469 25.9071L4.61295 25.6594L4.68208 25.5359C4.69436 25.5141 4.70798 25.4932 4.72285 25.473C4.84524 25.3109 5.03709 25.2163 5.24023 25.218H9.27894C9.59192 25.218 9.8456 24.9643 9.8456 24.6514C9.8456 24.3384 9.59185 24.0847 9.27894 24.0847H5.2403C4.67391 24.0831 4.14072 24.3517 3.8049 24.8078C3.76413 24.8642 3.72627 24.9227 3.69154 24.983L3.6264 25.1048L3.48814 25.3524L3.21215 25.8472C3.13803 25.9782 3.11904 26.1333 3.15948 26.2783C3.19986 26.4232 3.29628 26.5462 3.42751 26.62Z" fill="#1ECD96"/>
<path d="M2.15216 28.4536C2.19751 28.5122 2.25396 28.5613 2.31817 28.5981C2.45019 28.6693 2.60412 28.688 2.74942 28.6509C3.04985 28.563 3.22457 28.2507 3.14216 27.9487L3.10138 27.8479C3.08412 27.8136 3.0624 27.7818 3.03677 27.7532C3.01685 27.7232 2.99234 27.6964 2.96425 27.6739C2.93464 27.6502 2.90362 27.6284 2.87135 27.6087C2.7392 27.5373 2.585 27.5185 2.43957 27.556C2.25515 27.6049 2.10833 27.7444 2.05015 27.9262C1.99185 28.1079 2.03036 28.3067 2.15216 28.4536Z" fill="#1ECD96"/>
<path d="M11.1537 23.2738C12.554 25.248 13.952 27.0138 14.8785 28.1511C15.0134 28.3166 15.1397 28.4701 15.2621 28.618H12.4662C12.1532 28.618 11.8995 28.8718 11.8995 29.1847C11.8995 29.4976 12.1533 29.7513 12.4662 29.7513H21.533C21.846 29.7513 22.0996 29.4977 22.0996 29.1847C22.0996 28.8717 21.846 28.618 21.533 28.618H18.737C18.8594 28.4701 18.9858 28.3165 19.1213 28.1511C20.0472 27.0177 21.4447 25.248 22.8455 23.2738C24.2353 21.3542 25.4863 19.338 26.5889 17.2404C27.7461 14.968 28.3332 13.0815 28.3332 11.6331C28.337 8.62345 27.1428 5.73605 25.0141 3.60835C24.872 3.46093 24.6613 3.40169 24.4632 3.45342C24.265 3.50516 24.1101 3.65975 24.0581 3.85785C24.0061 4.05594 24.065 4.26665 24.2123 4.40903C26.1283 6.32449 27.2032 8.92375 27.1998 11.633C27.1998 12.9013 26.6547 14.6149 25.5791 16.7258C24.5014 18.7748 23.2788 20.7443 21.9207 22.6192C20.5391 24.568 19.1581 26.314 18.243 27.436C17.9387 27.8089 17.6649 28.1386 17.4315 28.4175C17.3225 28.5419 17.1651 28.6132 16.9997 28.6132C16.8343 28.6132 16.6769 28.5419 16.5679 28.4175C16.3344 28.1387 16.0607 27.8089 15.7564 27.436C14.8412 26.3146 13.4602 24.5686 12.0787 22.6192C10.7206 20.7443 9.49795 18.7748 8.42022 16.7258C7.34356 14.6149 6.79955 12.9013 6.79955 11.633C6.79901 7.52846 9.2537 3.82172 13.0328 2.21997C15.5721 1.15519 18.4327 1.15519 20.972 2.21997C21.1584 2.29906 21.3729 2.27263 21.5346 2.15064C21.6963 2.02872 21.7806 1.82976 21.7559 1.62874C21.7311 1.42773 21.601 1.2552 21.4145 1.17618C15.6438 -1.25786 8.99259 1.44592 6.55683 7.21581C5.96613 8.61342 5.66318 10.1158 5.66604 11.633C5.66604 13.0815 6.25314 14.968 7.4103 17.2432C8.51299 19.3398 9.76398 21.3552 11.1537 23.2738Z" fill="#1ECD96"/>
<path d="M16.9995 6.51771C17.3125 6.51771 17.5661 6.26397 17.5661 5.95105C17.5661 5.63808 17.3125 5.3844 16.9995 5.3844C14.296 5.38433 11.969 7.29408 11.4415 9.9456C10.914 12.5971 12.3331 15.252 14.8307 16.2866C17.3284 17.3212 20.2091 16.4474 21.7111 14.1995C23.2131 11.9517 22.918 8.95586 21.0064 7.04419C20.8642 6.8969 20.6535 6.8378 20.4553 6.88966C20.2572 6.94152 20.1025 7.09625 20.0506 7.29435C19.9988 7.49244 20.0579 7.70315 20.2052 7.84546C21.7345 9.37476 21.9706 11.7713 20.7691 13.5697C19.5676 15.368 17.263 16.0671 15.2649 15.2395C13.2668 14.412 12.1315 12.2881 12.5533 10.1669C12.9751 8.04562 14.8367 6.51778 16.9995 6.51771Z" fill="#1ECD96"/>
<path d="M1.75632 33.7181H32.2436C32.8695 33.7257 33.4516 33.3974 33.7691 32.8579C34.0705 32.351 34.0772 31.7214 33.7867 31.2082L30.3016 24.9748C29.9865 24.4209 29.3969 24.0805 28.7597 24.0845H24.721C24.408 24.0845 24.1543 24.3383 24.1543 24.6512C24.1543 24.9641 24.408 25.2178 24.721 25.2178H28.7597C28.9865 25.2134 29.1982 25.3317 29.3133 25.5272L32.7973 31.7607C32.8922 31.9229 32.8902 32.124 32.7922 32.2843C32.6764 32.4756 32.4671 32.5901 32.2436 32.5847H1.75632C1.53306 32.59 1.32401 32.4754 1.20833 32.2843C1.11038 32.1243 1.10819 31.9234 1.20268 31.7613L1.71269 30.8546L1.98922 30.3599C2.14162 30.0859 2.04307 29.7402 1.76907 29.5878C1.49508 29.4354 1.14936 29.5339 0.996954 29.8079L0.720433 30.3026L0.213278 31.2094C-0.0772546 31.7226 -0.0705475 32.3522 0.230876 32.8591C0.54857 33.3982 1.13063 33.7259 1.75632 33.7181Z" fill="#1ECD96"/>
<path d="M27.7659 26.9181H25.4993C25.3874 26.9183 25.278 26.9514 25.1847 27.0133L23.4847 28.1467C23.2243 28.3204 23.1541 28.6723 23.3277 28.9327C23.5015 29.1931 23.8533 29.2633 24.1137 29.0897L25.6693 28.0515H27.7659C28.0789 28.0515 28.3326 27.7979 28.3326 27.4849C28.3326 27.1719 28.0789 26.9181 27.7659 26.9181Z" fill="#1ECD96"/>
<path d="M24.3672 30.8846C24.3672 31.1976 24.6209 31.4513 24.9338 31.4513H29.4673C29.7803 31.4513 30.0339 31.1976 30.0339 30.8846C30.0339 30.5717 29.7803 30.318 29.4673 30.318H24.9338C24.6209 30.318 24.3672 30.5717 24.3672 30.8846Z" fill="#1ECD96"/>
<path d="M10.1994 29.1848C10.4492 29.1852 10.6698 29.0218 10.7423 28.7827C10.8149 28.5437 10.7224 28.2853 10.5145 28.1467L8.81446 27.0133C8.7211 26.9513 8.61152 26.9182 8.49936 26.9181H6.23267C5.91969 26.9181 5.66602 27.1718 5.66602 27.4847C5.66602 27.7977 5.91976 28.0514 6.23267 28.0514H8.32936L9.88661 29.0896C9.97925 29.1514 10.088 29.1845 10.1994 29.1848Z" fill="#1ECD96"/>
<path d="M4.53345 30.318C4.22047 30.318 3.9668 30.5717 3.9668 30.8846C3.9668 31.1976 4.22054 31.4513 4.53345 31.4513H9.0669C9.37988 31.4513 9.63355 31.1976 9.63355 30.8846C9.63355 30.5717 9.37981 30.318 9.0669 30.318H4.53345Z" fill="#1ECD96"/>
</svg>
