<?xml version="1.0" encoding="utf-8"?>
<!-- Generator: Adobe Illustrator 25.4.1, SVG Export Plug-In . SVG Version: 6.00 Build 0)  -->
<svg version="1.1" id="Capa_1" xmlns="http://www.w3.org/2000/svg" xmlns:xlink="http://www.w3.org/1999/xlink" x="0px" y="0px"
	 viewBox="0 0 1951.36 317.22" style="enable-background:new 0 0 1951.36 317.22;" xml:space="preserve">
<style type="text/css">
	.st0{fill:url(#SVGID_1_);}
	.st1{fill:#FFFFFF;}
	.st2{fill:url(#SVGID_00000057853246621018180360000017365804761400189845_);}
	.st3{opacity:0.55;fill:url(#SVGID_00000182504011700921336680000000205532807887059845_);}
	.st4{opacity:0.95;fill:url(#SVGID_00000124136059520588864050000004888080506078130579_);}
	.st5{fill:#1ECD96;}
	.st6{fill:url(#SVGID_00000163066861820438798460000018366404211624162217_);}
	.st7{fill:url(#SVGID_00000118380234530956816670000010759693874868888976_);}
	.st8{fill:url(#SVGID_00000023979048904333382530000008480427049353049994_);}
	.st9{fill:url(#SVGID_00000167363028316941020310000017810342820695956408_);}
	.st10{fill:url(#SVGID_00000134224259617826084540000015663812290636767403_);}
	.st11{opacity:0.7;fill:#FFFFFF;}
	.st12{fill:url(#SVGID_00000072273927403432136730000013694844141089070761_);}
	.st13{fill:url(#SVGID_00000087379351934519588840000010712921446023751100_);}
	.st14{fill:url(#SVGID_00000059302903796309741450000000936593245504489874_);}
	.st15{fill:url(#SVGID_00000170982019431415180450000000701473673202304913_);}
	.st16{fill:url(#SVGID_00000098933007027579845260000006438067123636727941_);}
	.st17{fill:url(#SVGID_00000078041546835680463560000013923588855725793452_);}
	.st18{fill:url(#SVGID_00000072244676013029025480000004626647266998856353_);}
	.st19{fill:url(#SVGID_00000059276428296444544150000017482845022111675563_);}
	.st20{fill:url(#SVGID_00000077292577112679315110000018040411765421083783_);}
	.st21{fill:none;stroke:#000000;stroke-miterlimit:10;}
	.st22{fill:url(#SVGID_00000093863962390325178400000015642230522622145452_);}
	.st23{fill:url(#SVGID_00000129907060895238228490000008128473687444832660_);}
	.st24{fill:url(#SVGID_00000147203946916304610560000004711281450669574286_);}
	.st25{fill:url(#SVGID_00000170975185826494249850000002570811607860350125_);}
	.st26{fill:url(#SVGID_00000137813467294209874130000009466989415872469950_);}
	.st27{opacity:0.8;fill:#FFFFFF;}
</style>
<g>
	<g>
		
			<radialGradient id="SVGID_1_" cx="170.537" cy="172.0368" r="256.2714" gradientTransform="matrix(0.963 0.2696 -0.1697 0.6061 35.5101 21.79)" gradientUnits="userSpaceOnUse">
			<stop  offset="0" style="stop-color:#20BDAA"/>
			<stop  offset="1" style="stop-color:#2C7BFD"/>
		</radialGradient>
		<path class="st0" d="M50.64,85.52c6.85-9.34,14.43-17.58,21.53-25.91c33.61-39.42,80.68-58.42,113.4-59.54
			C245.85-2,291.92,45.01,320.8,78.48c0.23,0.27-137.7-32.51-194,40.69c-53.48,69.54-38.27,126.12-7.57,158.71
			c0.1,0.11,0.21,0.22,0.31,0.33c0.23,0.24,0.46,0.48,0.69,0.71c1.66,1.73,3.38,3.4,5.14,5c0.27,0.25,0.55,0.5,0.82,0.74
			c0.16,0.14,0.32,0.29,0.49,0.43c4.66,4.11,9.56,7.72,14.63,10.8c-23.7,14.3-47.67,21.58-69.11,20.8
			c-17.08-0.63-32.55-6.36-45-17.75C-16.8,258.68-6.31,163.13,50.64,85.52z"/>
		<path class="st5" d="M302.42,250.02c0,0-67.67-91.47-113.47-91.46c-40.34,0.01-90.84,80.24-116.8,80.24
			c-32.77,0.01-60.1-79.74-60.1-79.74C-7.49,216.04-3.33,271.35,27.34,299.41c42.43,38.81,120.02,12.06,176.58-59.46
			c2.11-2.67,9.47-4.48,11.52-7.27c10.83-14.76,82.09,21.64,89.5,6.08"/>
		<path class="st5" d="M326.44,85.47c-6.85-9.33-14.13-16.96-21.59-24.97C267.78,20.62,228.84,0.93,191.48,0.06
			c-60.3-1.39-109.94,43.58-135.2,78.46c-0.21,0.28,137.69-32.56,194.01,40.62c53.51,69.52,38.32,126.1,7.62,158.71
			c-0.1,0.11-0.21,0.22-0.31,0.33c-0.23,0.24-0.46,0.48-0.69,0.71c-1.66,1.73-3.38,3.4-5.14,5c-0.27,0.25-0.55,0.5-0.82,0.74
			c-0.16,0.14-0.32,0.29-0.49,0.43c-4.66,4.11-9.56,7.72-14.63,10.8c23.7,14.29,47.68,21.57,69.12,20.77
			c17.08-0.63,32.55-6.38,45-17.77C393.94,258.61,383.42,163.06,326.44,85.47z"/>
		
			<radialGradient id="SVGID_00000055704215311428006240000012889730803114267270_" cx="297.6956" cy="288.8119" r="190.0507" fx="294.197" fy="288.5056" gradientTransform="matrix(0.8237 0.5671 -0.2845 0.4133 134.6651 0.6429)" gradientUnits="userSpaceOnUse">
			<stop  offset="0" style="stop-color:#20BDAA"/>
			<stop  offset="1" style="stop-color:#2C7BFD"/>
		</radialGradient>
		<path style="fill:url(#SVGID_00000055704215311428006240000012889730803114267270_);" d="M248.62,190.92
			c-14.3,13.58-38.22,40.97-38.47,41.31c-0.08,0.1-0.15,0.2-0.23,0.3c-11.56,13.3-19.8,23.53-21.17,25.25
			c0.03,0.04,0.07,0.07,0.1,0.11c14.95,15.83,30.9,28.76,46.98,38.45c5.07-3.08,9.96-6.69,14.62-10.8c0.16-0.14,0.32-0.29,0.49-0.43
			c0.28-0.25,0.55-0.49,0.82-0.74c1.77-1.6,3.48-3.27,5.14-5c0.23-0.24,0.46-0.47,0.69-0.71c0.1-0.11,0.21-0.22,0.31-0.33
			c9.55-10.14,17.6-22.61,22.55-37.07c2.42-7.06,2.2-7.18,3.46-14.21C276.36,218.6,261.44,200.92,248.62,190.92z"/>
	</g>
	<g>
		<path class="st5" d="M560.57,279.17c-14.22,0-26.72-3.39-37.49-10.18c-10.78-6.79-19.18-16.53-25.21-29.25
			c-6.03-12.71-9.05-27.9-9.05-45.57c0-17.67,3.02-32.81,9.05-45.41c6.03-12.6,14.43-22.3,25.21-29.09
			c10.77-6.79,23.27-10.18,37.49-10.18c13.79,0,25.91,3.39,36.36,10.18c10.45,6.79,17.4,15.89,20.85,27.31h-3.56l-0.27-34.44
			l24.78,0.18c10.62,0,15.25,8.08,15.25,25.78v137.45h-40.08l-0.32-33.61h3.88c-3.45,11.21-10.45,20.15-21.01,26.83
			C585.89,275.83,573.93,279.17,560.57,279.17z M571.89,248.14c12.71,0,22.95-4.47,30.7-13.41c7.76-8.94,11.64-22.46,11.64-40.56
			s-3.88-31.56-11.64-40.4c-7.76-8.83-17.99-13.25-30.7-13.25c-12.72,0-22.95,4.42-30.7,13.25c-7.76,8.84-11.64,22.3-11.64,40.4
			s3.82,31.63,11.47,40.56C548.67,243.67,558.96,248.14,571.89,248.14z"/>
		<path class="st5" d="M697.94,275.94V38.05h40.4v237.89H697.94z"/>
		<path class="st5" d="M782.3,275.94V112.71h40.4v163.22H782.3z"/>
		<path class="st5" d="M914.49,275.94l-70.46-163.22h42.99l51.07,127.67h-10.02l52.36-127.67h40.4l-70.79,163.22H914.49z"/>
		<path class="st5" d="M1042.48,275.94V112.71h40.41v163.22H1042.48z"/>
		<path class="st5" d="M1190.62,279.17c-14.22,0-26.72-3.39-37.49-10.18c-10.78-6.79-19.18-16.53-25.21-29.25
			c-6.03-12.71-9.05-27.9-9.05-45.57c0-17.67,3.01-32.81,9.05-45.41c6.03-12.6,14.43-22.3,25.21-29.09
			c10.77-6.79,23.27-10.18,37.49-10.18c13.79,0,25.91,3.39,36.36,10.18c10.45,6.79,17.4,15.89,20.85,27.31h-3.56l-0.27-34.44
			l24.78,0.18c10.62,0,15.25,8.08,15.25,25.78v137.45h-40.08l-0.32-33.61h3.88c-3.45,11.21-10.45,20.15-21.01,26.83
			C1215.94,275.83,1203.98,279.17,1190.62,279.17z M1201.93,248.14c12.71,0,22.95-4.47,30.7-13.41
			c7.76-8.94,11.64-22.46,11.64-40.56s-3.88-31.56-11.64-40.4c-7.76-8.83-17.99-13.25-30.7-13.25c-12.72,0-22.95,4.42-30.7,13.25
			c-7.76,8.84-11.64,22.3-11.64,40.4s3.82,31.63,11.47,40.56C1178.71,243.67,1189,248.14,1201.93,248.14z"/>
		
			<linearGradient id="SVGID_00000022519516323045840420000011834145735717930408_" gradientUnits="userSpaceOnUse" x1="1327.2277" y1="192.7098" x2="1574.8149" y2="192.7098">
			<stop  offset="0" style="stop-color:#298DE7"/>
			<stop  offset="0.7334" style="stop-color:#298DE7"/>
			<stop  offset="1" style="stop-color:#2C7BFD"/>
		</linearGradient>
		<path style="fill:url(#SVGID_00000022519516323045840420000011834145735717930408_);" d="M1327.23,275.94v-122.5
			c0-6.68,0.54-13.93,0.54-20.84c0-9.44,5.9-19.88,17.7-19.88l22.42-0.18l-0.9,32.5h-3.88c4.53-11.2,11.48-19.93,20.85-26.18
			c9.37-6.25,20.52-9.37,33.45-9.37s23.65,3.07,32.16,9.21c8.51,6.14,14.49,15.68,17.94,28.61h-5.17
			c4.53-11.64,11.96-20.85,22.3-27.63c10.34-6.79,22.19-10.18,35.55-10.18c18.31,0,32,5.39,41.05,16.16
			c9.05,10.78,13.58,27.58,13.58,50.42v99.87h-40.4v-98.26c0-12.93-2.16-22.25-6.46-27.96c-4.32-5.71-11.21-8.57-20.69-8.57
			c-11.21,0-20.04,3.93-26.5,11.8c-6.46,7.87-9.7,18.48-9.7,31.84v91.15h-40.4v-98.26c0-12.93-2.16-22.25-6.46-27.96
			c-4.32-5.71-11.21-8.57-20.69-8.57c-11.21,0-19.99,3.93-26.34,11.8c-6.36,7.87-9.53,18.48-9.53,31.84v91.15H1327.23z"/>
		
			<linearGradient id="SVGID_00000164478493614655078510000006578217945441571984_" gradientUnits="userSpaceOnUse" x1="1609.0696" y1="194.3259" x2="1760.6584" y2="194.3259">
			<stop  offset="0" style="stop-color:#298DE7"/>
			<stop  offset="0.7334" style="stop-color:#298DE7"/>
			<stop  offset="1" style="stop-color:#2C7BFD"/>
		</linearGradient>
		<path style="fill:url(#SVGID_00000164478493614655078510000006578217945441571984_);" d="M1696.66,279.17
			c-18.32,0-33.99-3.39-47.03-10.18c-13.04-6.79-23.06-16.53-30.06-29.25c-7-12.71-10.5-27.8-10.5-45.25
			c0-17.02,3.34-31.89,10.02-44.6c6.68-12.71,16-22.63,27.96-29.74c11.96-7.11,25.9-10.67,41.86-10.67
			c15.73,0,28.87,3.34,39.43,10.02c10.56,6.68,18.58,16.05,24.08,28.12c5.5,12.07,8.24,26.18,8.24,42.34v10.67h-118.95V179.3h90.18
			l-5.5,4.52c0-15.08-3.18-26.61-9.54-34.58c-6.36-7.97-15.57-11.96-27.63-11.96c-9.05,0-16.65,2.16-22.79,6.46
			c-6.14,4.31-10.83,10.46-14.06,18.42c-3.23,7.97-4.85,17.67-4.85,29.09v4.2c0,17.67,4.36,30.87,13.09,39.59
			c8.73,8.73,21.06,13.09,37.01,13.09c9.26,0,17.94-1.24,26.02-3.72c8.08-2.48,15.78-6.51,23.11-12.12l11.96,27.15
			c-7.76,6.25-17.03,11.1-27.8,14.55C1720.14,277.44,1708.72,279.17,1696.66,279.17z"/>
		
			<linearGradient id="SVGID_00000075149291912083185170000016379960421554987709_" gradientUnits="userSpaceOnUse" x1="1786.1924" y1="158.6097" x2="1951.3552" y2="158.6097">
			<stop  offset="0" style="stop-color:#298DE7"/>
			<stop  offset="0.7334" style="stop-color:#298DE7"/>
			<stop  offset="1" style="stop-color:#2C7BFD"/>
		</linearGradient>
		<path style="fill:url(#SVGID_00000075149291912083185170000016379960421554987709_);" d="M1858.27,279.17
			c-14.22,0-26.78-3.39-37.65-10.18c-10.88-6.79-19.34-16.53-25.37-29.25c-6.03-12.71-9.05-27.9-9.05-45.57
			c0-17.67,3.01-32.81,9.05-45.41c6.03-12.6,14.49-22.3,25.37-29.09c10.88-6.79,23.43-10.18,37.65-10.18
			c13.57,0,25.58,3.29,36.04,9.86c10.45,6.58,17.4,15.46,20.85,26.67h-4.2V38.05h40.4v237.89h-39.76v-34.58h3.88
			c-3.45,11.64-10.4,20.85-20.85,27.63C1884.18,275.78,1872.06,279.17,1858.27,279.17z M1869.58,248.14
			c12.71,0,22.95-4.47,30.7-13.41c7.76-8.94,11.64-22.46,11.64-40.56s-3.88-31.56-11.64-40.4c-7.76-8.83-18-13.25-30.7-13.25
			c-12.72,0-23.01,4.42-30.87,13.25c-7.87,8.84-11.8,22.3-11.8,40.4s3.93,31.63,11.8,40.56
			C1846.58,243.67,1856.86,248.14,1869.58,248.14z"/>
		<circle class="st5" cx="802.74" cy="63.72" r="23.96"/>
		<circle class="st5" cx="1062.87" cy="63.72" r="23.96"/>
	</g>
</g>
</svg>
