<svg width="21" height="29" viewBox="0 0 21 29" fill="none" xmlns="http://www.w3.org/2000/svg">
<path d="M10.4 26L9.6579 26.6703L10.4 27.4919L11.1421 26.6703L10.4 26ZM10.4 26C11.1421 26.6703 11.1422 26.6701 11.1424 26.6699L11.1429 26.6694L11.1445 26.6676L11.15 26.6615L11.1698 26.6394C11.1869 26.6202 11.2118 26.5923 11.2438 26.556C11.3079 26.4835 11.4009 26.3774 11.5185 26.2408C11.7538 25.9677 12.0883 25.5722 12.489 25.0786C13.2893 24.0924 14.3582 22.7089 15.429 21.1218C16.4978 19.5376 17.5811 17.7324 18.4001 15.9042C19.2133 14.0891 19.8 12.1773 19.8 10.4C19.8 5.20372 15.5963 1 10.4 1C5.20371 1 1 5.20372 1 10.4C1 12.1773 1.58673 14.0891 2.3999 15.9042C3.21894 17.7324 4.30215 19.5376 5.37104 21.1218C6.44184 22.7089 7.51066 24.0924 8.31104 25.0786C8.71168 25.5722 9.04616 25.9677 9.28145 26.2408C9.39913 26.3774 9.49207 26.4835 9.55617 26.556C9.58822 26.5923 9.61307 26.6202 9.63019 26.6394L9.65002 26.6615L9.65548 26.6676L9.65707 26.6694L9.65758 26.6699C9.65775 26.6701 9.6579 26.6703 10.4 26ZM10.4 12.4C9.29628 12.4 8.4 11.5037 8.4 10.4C8.4 9.29629 9.29628 8.4 10.4 8.4C11.5037 8.4 12.4 9.29629 12.4 10.4C12.4 11.5037 11.5037 12.4 10.4 12.4Z" fill="#78E1C0" stroke="white" stroke-width="2"/>
</svg>
