<svg width="23" height="48" viewBox="0 0 23 48" fill="none" xmlns="http://www.w3.org/2000/svg">
<path d="M18.0122 13.2222C17.5282 13.0609 17.1059 12.7544 16.8029 12.3444C16.4998 11.9345 16.3308 11.4411 16.3188 10.9316V9.5842H18.7173V2.39605C18.7173 1.76058 18.4646 1.15113 18.0148 0.701787C17.565 0.25244 16.955 0 16.3188 0H6.725C6.08889 0 5.47883 0.25244 5.02903 0.701787C4.57923 1.15113 4.32654 1.76058 4.32654 2.39605V9.5842H6.725V10.9316C6.71304 11.4411 6.54401 11.9345 6.24095 12.3444C5.9379 12.7544 5.5156 13.0609 5.03168 13.2222C3.6538 13.7347 2.4653 14.655 1.62498 15.8603C0.784665 17.0655 0.332568 18.4983 0.329102 19.9671V47.921H22.7147V19.9671C22.7113 18.4983 22.2592 17.0655 21.4189 15.8603C20.5785 14.655 19.39 13.7347 18.0122 13.2222ZM5.92551 2.39605C5.92551 2.18423 6.00974 1.98108 6.15967 1.8313C6.30961 1.68151 6.51296 1.59737 6.725 1.59737H16.3188C16.5309 1.59737 16.7342 1.68151 16.8842 1.8313C17.0341 1.98108 17.1183 2.18423 17.1183 2.39605V4.7921H5.92551V2.39605ZM5.92551 7.98683V6.38947H17.1183V7.98683H5.92551ZM21.1158 23.9605H8.32397V41.5315H17.1183V39.9342H9.92295V25.5579H21.1158V27.1552H15.5194V28.7526H21.1158V30.35H15.5194V31.9473H21.1158V33.5447H11.5219V35.1421H21.1158V36.7394H11.5219V38.3368H21.1158V39.9342H18.7173V41.5315H21.1158V46.3236H1.92808V19.9671C1.93051 18.8245 2.28204 17.71 2.93566 16.7724C3.58929 15.8349 4.51385 15.119 5.58573 14.7205C6.37786 14.4486 7.06633 13.9385 7.55661 13.2601C8.04689 12.5817 8.31495 11.7683 8.32397 10.9316V9.5842H14.7199V10.9316C14.7289 11.7683 14.9969 12.5817 15.4872 13.2601C15.9775 13.9385 16.666 14.4486 17.4581 14.7205C18.53 15.119 19.4546 15.8349 20.1082 16.7724C20.7618 17.71 21.1133 18.8245 21.1158 19.9671V23.9605Z" fill="#1ECD96"/>
<path d="M3.52637 19.9671H5.12534C5.12631 19.4776 5.27677 19 5.55663 18.5981C5.83648 18.1962 6.23241 17.8892 6.69154 17.7181L6.1383 16.2197C5.37276 16.5044 4.71246 17.0157 4.2457 17.6854C3.77894 18.3551 3.52798 19.1511 3.52637 19.9671Z" fill="#1ECD96"/>
<path d="M3.52637 21.5645H5.12534V43.9276H3.52637V21.5645Z" fill="#1ECD96"/>
</svg>
