<svg width="100" height="84" viewBox="0 0 100 84" fill="none" xmlns="http://www.w3.org/2000/svg">
<rect width="100" height="84" fill="white"/>
<path d="M64.4082 16.5861C72.2157 22.4896 81.3586 26.3065 86.1869 33.2787C90.9639 40.2509 91.4775 50.4802 86.4437 56.7399C81.41 62.9997 70.8288 65.3407 62.7645 70.1246C54.7516 74.8575 49.2042 82.0333 43.0404 82.8985C36.8767 83.8145 30.0965 78.3691 23.7786 73.0763C17.4607 67.7835 11.6565 62.5416 10.321 56.3837C8.98554 50.2257 12.1188 43.1009 14.1734 35.2635C16.2794 27.477 17.3067 19.0289 22.0322 12.1076C26.8091 5.18623 35.233 -0.15744 42.7323 1.21665C50.1802 2.59073 56.6008 10.6317 64.4082 16.5861Z" fill="#DEF4EC" fill-opacity="0.6"/>
<g clip-path="url(#clip0)">
<path d="M74.8058 42.8887C74.3906 42.6076 73.8258 42.7161 73.5446 43.1313L69.5137 49.0816C68.7188 48.5208 67.8383 48.0636 66.887 47.7347L56.1033 44.0055C55.9353 43.9473 55.8226 43.789 55.8226 43.6113V42.0652C55.8226 41.8352 56.0096 41.648 56.2396 41.648H60.5783C63.7779 41.648 66.3811 39.0449 66.3811 35.8452V33.5283C66.3811 33.4017 66.4841 33.2986 66.6107 33.2986H67.2945C68.4227 33.2986 69.3406 32.3807 69.3406 31.2525C69.3406 30.7278 69.1421 30.2289 68.782 29.8475L66.4947 27.4258C66.4214 27.3481 66.381 27.2465 66.381 27.1394V25.8086C66.381 24.1548 66.0935 22.5295 65.5264 20.9777C65.3542 20.5066 64.8329 20.2639 64.3616 20.4364C63.8904 20.6086 63.6481 21.13 63.8203 21.6012C64.3141 22.9526 64.5646 24.3682 64.5646 25.8086V27.1394C64.5646 27.7121 64.7811 28.2569 65.1743 28.6731L67.4616 31.0948C67.5021 31.1377 67.5243 31.1936 67.5243 31.2525C67.5243 31.3791 67.4212 31.4822 67.2946 31.4822H66.6108C65.4827 31.4822 64.5648 32.4001 64.5648 33.5283V34.3979H61.0108C60.5091 34.3979 60.1026 34.8045 60.1026 35.3061C60.1026 35.8077 60.5091 36.2143 61.0108 36.2143H64.547C64.3602 38.24 62.652 39.8317 60.5783 39.8317H56.2396C55.0081 39.8317 54.0061 40.8337 54.0061 42.0653V43.6114C54.0061 44.563 54.6103 45.4112 55.5096 45.7223L66.2934 49.4515C67.0917 49.7276 67.8296 50.1132 68.4947 50.5862L66.0546 54.1881H62.2897C61.3799 53.166 60.3173 52.1633 59.0748 51.208C58.0315 50.4059 56.6495 50.2689 55.4685 50.8507C54.3207 51.4159 53.5975 52.5451 53.5564 53.8159L52.9009 53.3396C53.152 52.958 53.2992 52.5025 53.2992 52.0127C53.2992 51.296 52.9845 50.653 52.4882 50.2092V48.0469C52.9846 47.603 53.2992 46.96 53.2992 46.2434C53.2992 45.5268 52.9845 44.8838 52.4882 44.44V42.2776C52.9846 41.8338 53.2992 41.1908 53.2992 40.4741C53.2992 39.1387 52.2127 38.0523 50.8773 38.0523H49.1496C47.8141 38.0523 46.7277 39.1387 46.7277 40.4741C46.7277 41.1908 47.0424 41.8338 47.5387 42.2776V44.44C47.0423 44.8838 46.7277 45.5268 46.7277 46.2434C46.7277 46.96 47.0424 47.603 47.5387 48.0469V50.2092C47.0423 50.653 46.7277 51.296 46.7277 52.0127C46.7277 52.5025 46.8749 52.958 47.126 53.3396L46.4705 53.8159C46.4296 52.5451 45.7061 51.4159 44.5584 50.8508C43.3771 50.269 41.9953 50.406 40.9521 51.2081C34.1025 56.4747 32.6964 63.1734 32.468 66.6976C32.4069 67.6405 32.7423 68.5767 33.3884 69.266C34.0345 69.9554 34.9472 70.3507 35.8923 70.3507H38.1031C38.6048 70.3507 39.0114 69.9441 39.0114 69.4425C39.0114 68.941 38.6048 68.5343 38.1031 68.5343H35.892C35.4404 68.5343 35.0218 68.3531 34.7134 68.0239C34.4049 67.6948 34.2513 67.2655 34.2805 66.8152C34.489 63.5976 35.7768 57.4785 42.059 52.6482C42.5572 52.2651 43.1916 52.2023 43.7557 52.4803C44.3206 52.7585 44.6578 53.3003 44.6578 53.9293V55.1328L39.9935 58.5215C39.4588 58.9099 39.1073 59.4835 39.0038 60.1365C38.9004 60.7894 39.0575 61.4434 39.446 61.9781C39.8344 62.5129 40.4079 62.8644 41.0609 62.9679C41.192 62.9886 41.3232 62.9989 41.4533 62.9989C41.9716 62.9989 42.4752 62.8363 42.9027 62.5257L44.6577 61.2505V66.9197C44.6577 67.81 43.9334 68.5342 43.043 68.5342H42.3414C41.8397 68.5342 41.4332 68.9408 41.4332 69.4424C41.4332 69.944 41.8397 70.3506 42.3414 70.3506H43.0432C44.935 70.3506 46.4742 68.8115 46.4742 66.9197V59.9309L50.0133 57.3596L53.5524 59.9309V66.9196C53.5524 68.8114 55.0916 70.3505 56.9835 70.3505H64.1347C65.0798 70.3505 65.9925 69.9551 66.6387 69.2657C67.2847 68.5765 67.62 67.6403 67.559 66.6973C67.3963 64.188 66.636 60.0696 63.7394 56.0045H66.5364C66.8377 56.0045 67.1194 55.8551 67.2883 55.6058L69.8673 51.7987C71.3098 53.3723 72.1631 55.459 72.1631 57.6921V62.1328C72.1631 62.6344 72.5696 63.041 73.0713 63.041C73.573 63.041 73.9795 62.6344 73.9795 62.1328V57.6918C73.9795 54.8441 72.831 52.1935 70.9089 50.2607L75.0484 44.1501C75.3297 43.7348 75.221 43.1702 74.8058 42.8887V42.8887ZM49.1494 39.8687H50.8772C51.2111 39.8687 51.4827 40.1403 51.4827 40.4741C51.4827 40.808 51.2111 41.0796 50.8772 41.0796H49.1494C48.8156 41.0796 48.544 40.808 48.544 40.4741C48.544 40.1403 48.8156 39.8687 49.1494 39.8687ZM50.6716 42.896V43.8214H49.3549V42.896H50.6716ZM49.1494 45.6378H50.8772C51.2111 45.6378 51.4827 45.9094 51.4827 46.2433C51.4827 46.5771 51.2111 46.8487 50.8772 46.8487H49.1494C48.8156 46.8487 48.544 46.5771 48.544 46.2433C48.544 45.9094 48.8156 45.6378 49.1494 45.6378ZM50.6716 48.6652V49.5907H49.3549V48.6652H50.6716ZM49.1494 51.407H50.8772C51.2111 51.407 51.4827 51.6786 51.4827 52.0124C51.4827 52.3463 51.2111 52.6179 50.8772 52.6179H49.1494C48.8156 52.6179 48.544 52.3463 48.544 52.0124C48.544 51.6786 48.8156 51.407 49.1494 51.407ZM50.9029 55.7605C50.371 55.3739 49.656 55.3739 49.1235 55.7605L41.8351 61.0558C41.6927 61.1592 41.5188 61.2011 41.3452 61.1734C41.1714 61.1459 41.019 61.0524 40.9156 60.91C40.8121 60.7679 40.7704 60.5939 40.7978 60.4202C40.8253 60.2466 40.9188 60.094 41.0611 59.9907L48.7566 54.3995C48.8847 54.4206 49.0153 54.4343 49.1493 54.4343H50.8771C51.011 54.4343 51.1417 54.4205 51.2698 54.3995L58.9272 59.963C59.2264 60.1803 59.3184 60.5912 59.1323 60.8788C59.0096 61.0684 58.8019 61.1816 58.577 61.1816C58.4801 61.1816 58.3345 61.1599 58.1913 61.0557L50.9029 55.7605ZM65.7461 66.8147C65.7753 67.265 65.6216 67.6943 65.3132 68.0234C65.0046 68.3526 64.586 68.5339 64.1346 68.5339H56.9834C56.093 68.5339 55.3687 67.8096 55.3687 66.9193V61.2503L57.1237 62.5254C57.5495 62.8347 58.0519 62.9982 58.577 62.9982C59.4207 62.9982 60.1984 62.5748 60.6573 61.8656C61.3708 60.7629 61.0796 59.2817 59.9947 58.4935L55.3687 55.1324V53.9289C55.3687 53.2998 55.7059 52.7581 56.2708 52.4798C56.5039 52.3651 56.7488 52.3084 56.9912 52.3084C57.3357 52.3084 57.675 52.4228 57.9675 52.6477C64.2497 57.478 65.5377 63.5971 65.7461 66.8147V66.8147Z" fill="#535B6C"/>
<path d="M73.068 65.4628C72.5663 65.4628 72.1598 65.8694 72.1598 66.371V71.6017C72.1598 71.9224 71.8988 72.1835 71.5779 72.1835H28.4421C28.1214 72.1835 27.8602 71.9226 27.8602 71.6017V57.6916C27.8602 53.9768 30.219 50.6653 33.7298 49.4512L44.5137 45.722C45.413 45.4109 46.0171 44.5626 46.0171 43.6111V36.9725C46.0171 36.2915 45.7072 35.6533 45.1668 35.2213C42.2622 32.9013 40.6139 29.4408 40.6449 25.7272C40.699 19.2407 45.8174 14.0112 52.2973 13.8215C54.6591 13.7524 56.9666 14.368 58.9635 15.602C60.0699 16.2858 61.0504 17.1504 61.8778 18.1718C62.1935 18.5616 62.7654 18.6216 63.1552 18.3059C63.545 17.9902 63.6051 17.4183 63.2893 17.0285C62.333 15.848 61.1987 14.8483 59.9182 14.0568C57.6182 12.6357 54.9656 11.9268 52.244 12.006C44.7837 12.2242 38.8908 18.2446 38.8285 25.7121C38.7929 29.9871 40.6899 33.9703 44.033 36.6406C44.1397 36.7258 44.2008 36.8468 44.2008 36.9726V43.6112C44.2008 43.789 44.0879 43.9474 43.9201 44.0055L42.8789 44.3655L38.3826 36.1823C38.2231 35.892 37.918 35.7115 37.5867 35.7115H35.0313L36.4787 34.2641C37.3815 33.3612 37.8789 32.1608 37.8789 30.884C37.8789 29.6072 37.3818 28.4067 36.4788 27.5038C36.4788 27.5038 36.4788 27.5038 36.4787 27.5038C34.6148 25.64 31.5822 25.6402 29.7185 27.5038L28.4993 28.723L27.28 27.5037C25.4164 25.6399 22.3837 25.6398 20.5197 27.5037C19.6168 28.4066 19.1196 29.607 19.1196 30.8839C19.1196 31.478 19.2286 32.0551 19.4347 32.5939C19.2072 32.7589 19.0586 33.0262 19.0586 33.3288C19.0586 33.8303 19.4651 34.237 19.9668 34.237H20.4939C20.5026 34.2458 20.5109 34.2551 20.5197 34.264L27.5982 41.3425C27.8389 41.5832 28.1589 41.7158 28.4993 41.7158C28.8396 41.7158 29.1594 41.5834 29.4002 41.3426L33.2149 37.5278H37.0493L41.1371 44.9677L33.1362 47.7346C28.8941 49.2016 26.0439 53.203 26.0439 57.6917V71.6018C26.0439 72.9241 27.1198 74 28.4423 74H71.578C72.9004 74 73.9763 72.9242 73.9763 71.6018V66.371C73.9762 65.8694 73.5696 65.4628 73.068 65.4628V65.4628ZM28.4993 39.6747L23.0615 34.2369H24.5521L24.8876 35.2766C25.0059 35.6434 25.3426 35.8955 25.7278 35.9058C25.7359 35.9059 25.7439 35.906 25.7519 35.906C26.1277 35.906 26.4657 35.6742 26.6003 35.3219L27.061 34.1156L27.9363 36.5029C28.0677 36.8611 28.4086 37.0984 28.789 37.0984C28.795 37.0984 28.8011 37.0984 28.807 37.0983C29.1945 37.0907 29.5345 36.8379 29.6533 36.469L30.3924 34.1773H31.2496C31.7513 34.1773 32.1578 33.7706 32.1578 33.2691C32.1578 32.7675 31.7513 32.3609 31.2496 32.3609H29.7308C29.3365 32.3609 28.9874 32.6152 28.8665 32.9903L28.7337 33.4018L27.9306 31.2121C27.8004 30.8564 27.4629 30.6191 27.0841 30.6165C27.082 30.6165 27.0801 30.6165 27.078 30.6165C26.7017 30.6165 26.3641 30.8488 26.2295 31.2007L25.7079 32.5667C25.564 32.4734 25.3933 32.4203 25.2133 32.4203H21.3646C21.0855 31.9617 20.936 31.4343 20.936 30.8836C20.936 30.0919 21.2443 29.3477 21.804 28.7879C22.3819 28.21 23.1408 27.9212 23.8999 27.9212C24.6588 27.9212 25.418 28.2101 25.9957 28.7879L27.8571 30.6493C28.2119 31.004 28.7869 31.004 29.1416 30.6493L31.0029 28.7879C32.1584 27.6324 34.0389 27.6323 35.1943 28.7879C35.7542 29.3477 36.0625 30.0921 36.0625 30.8836C36.0625 31.6752 35.7542 32.4196 35.1943 32.9794L28.4993 39.6747Z" fill="#535B6C"/>
<path d="M48.8864 26.5393H49.48C49.9817 26.5393 50.3882 26.1327 50.3882 25.6311C50.3882 25.1295 49.9817 24.7229 49.48 24.7229H48.8864C46.8145 24.7229 45.1289 26.4085 45.1289 28.4806C45.1289 30.5526 46.8145 32.2382 48.8864 32.2382H49.48C49.9817 32.2382 50.3882 31.8316 50.3882 31.33C50.3882 30.8284 49.9817 30.4218 49.48 30.4218H48.8864C47.8161 30.4218 46.9453 29.551 46.9453 28.4806C46.9453 27.4101 47.8161 26.5393 48.8864 26.5393V26.5393Z" fill="#535B6C"/>
<path d="M78.9367 27.0616V20.9912C78.9367 20.4896 78.5301 20.083 78.0285 20.083C77.5268 20.083 77.1203 20.4896 77.1203 20.9912V21.9118H71.7031V20.9912C71.7031 20.4896 71.2966 20.083 70.7949 20.083C70.2932 20.083 69.8867 20.4896 69.8867 20.9912V27.0616C69.8867 28.5324 70.5893 29.9375 71.766 30.8199L72.8981 31.669L71.766 32.5181C70.5893 33.4005 69.8867 34.8056 69.8867 36.2764V42.2956C69.8867 42.7972 70.2932 43.2038 70.7949 43.2038C71.2966 43.2038 71.7031 42.7972 71.7031 42.2956V41.3111H77.1203V42.2956C77.1203 42.7972 77.5268 43.2038 78.0285 43.2038C78.5301 43.2038 78.9367 42.7972 78.9367 42.2956V36.2764C78.9367 34.8056 78.2341 33.4007 77.0574 32.5181L75.9253 31.669L77.0574 30.8199C78.2341 29.9374 78.9367 28.5323 78.9367 27.0616V27.0616ZM71.7031 23.7281H77.1203V25.6367H71.7031V23.7281ZM77.1203 39.4947H71.7031V37.586H77.1203V39.4947ZM75.9677 33.9713C76.5526 34.41 76.9462 35.059 77.0746 35.7696H71.7488C71.8771 35.059 72.2708 34.41 72.8557 33.9713L74.4116 32.8043L75.9677 33.9713ZM75.9677 29.3668L74.4118 30.5338L72.8558 29.3668C72.2395 28.9046 71.8363 28.2084 71.7313 27.4533H77.0922C76.9872 28.2084 76.5839 28.9046 75.9677 29.3668Z" fill="#535B6C"/>
<path d="M58.9454 22.2499C59.1882 21.9766 59.3029 21.612 59.26 21.2498C58.9271 18.4399 56.0074 16.321 52.4683 16.321C48.9292 16.321 46.0097 18.4399 45.6768 21.2497C45.6339 21.612 45.7486 21.9765 45.9914 22.2499C46.2355 22.5246 46.586 22.6821 46.9531 22.6821H57.9837C58.3508 22.6821 58.7014 22.5246 58.9454 22.2499ZM47.6224 20.8657C48.1868 19.2955 50.1749 18.1375 52.4685 18.1375C54.7617 18.1375 56.7498 19.2955 57.3146 20.8657H47.6224Z" fill="#535B6C"/>
</g>
<defs>
<clipPath id="clip0">
<rect width="62" height="62" fill="white" transform="translate(18 12)"/>
</clipPath>
</defs>
</svg>
