<svg width="48" height="48" viewBox="0 0 48 48" fill="none" xmlns="http://www.w3.org/2000/svg">
<path d="M23.9999 11.001C23.6116 11.001 23.2969 11.3157 23.2969 11.704V43.8334C23.2969 44.2217 23.6116 44.5364 23.9999 44.5364C24.3882 44.5364 24.7029 44.2217 24.7029 43.8334V11.704C24.7029 11.3157 24.3882 11.001 23.9999 11.001Z" fill="#1ECD96"/>
<path d="M23.9999 4.25293C23.6116 4.25293 23.2969 4.56765 23.2969 4.95596V8.40746C23.2969 8.79587 23.6116 9.11058 23.9999 9.11058C24.3882 9.11058 24.7029 8.79587 24.7029 8.40755V4.95596C24.7029 4.56765 24.3882 4.25293 23.9999 4.25293Z" fill="#1ECD96"/>
<path d="M38.7381 0H26.3426C25.5773 0 24.954 0.6195 24.9479 1.38347H23.4479C23.4417 0.619594 22.8184 0 22.0531 0H9.2616C7.56707 0 6.18848 1.37859 6.18848 3.07312V37.1708C6.18848 37.5592 6.5032 37.8739 6.89151 37.8739C7.27982 37.8739 7.59454 37.5592 7.59454 37.1708V3.07312C7.59454 2.154 8.34238 1.40616 9.26151 1.40616H22.0418C22.0479 2.17003 22.6711 2.78963 23.4365 2.78963H24.9591C25.7244 2.78963 26.3476 2.17013 26.3539 1.40616H38.7381C39.6572 1.40616 40.4051 2.154 40.4051 3.07312V44.9269C40.4051 45.846 39.6572 46.5938 38.7381 46.5938H26.3539C26.3477 45.83 25.7245 45.2104 24.9591 45.2104H23.4365C22.6712 45.2104 22.048 45.8299 22.0418 46.5938H9.2616C8.34248 46.5938 7.59463 45.846 7.59463 44.9269V40.4753C7.59463 40.0869 7.27991 39.7722 6.8916 39.7722C6.50329 39.7722 6.18857 40.0869 6.18857 40.4753V44.9269C6.18857 46.6214 7.56716 48 9.2617 48H22.0532C22.8185 48 23.4418 47.3805 23.448 46.6165H24.948C24.9541 47.3804 25.5774 48 26.3428 48H38.7383C40.4328 48 41.8114 46.6214 41.8114 44.9269V3.07312C41.8112 1.37859 40.4326 0 38.7381 0Z" fill="#1ECD96"/>
<path d="M37.6216 11.5081L31.6239 5.51038C30.4184 4.30513 28.4571 4.30513 27.2517 5.51038C26.0463 6.71582 26.0463 8.67716 27.2517 9.8826L33.2495 15.8804C33.8522 16.483 34.6439 16.7844 35.4356 16.7844C36.2272 16.7844 37.0189 16.483 37.6216 15.8804C38.827 14.6749 38.827 12.7136 37.6216 11.5081ZM28.246 8.8882C27.5888 8.2311 27.5888 7.16179 28.246 6.5047C28.5746 6.17601 29.0061 6.01185 29.4377 6.01185C29.8694 6.01185 30.3009 6.1761 30.6295 6.5047L33.1313 9.00641L30.7478 11.3899L28.246 8.8882ZM36.6273 14.886C35.9702 15.5433 34.9009 15.5433 34.2438 14.886L31.742 12.3842L34.1255 10.0008L36.6273 12.5025C36.7257 12.6009 36.8075 12.7094 36.8765 12.8234C37.2679 13.4714 37.1861 14.3273 36.6273 14.886Z" fill="#1ECD96"/>
<path d="M37.6217 24.8129L31.6239 18.8151C30.4184 17.6098 28.4571 17.6098 27.2517 18.8151C26.0463 20.0205 26.0463 21.9818 27.2517 23.1873L33.2496 29.1851C33.8523 29.7878 34.644 30.0892 35.4357 30.0892C36.2273 30.0892 37.019 29.7878 37.6217 29.1851C38.8271 27.9797 38.8271 26.0184 37.6217 24.8129ZM28.2461 22.1929C27.5889 21.5358 27.5889 20.4666 28.2461 19.8094C28.5747 19.4807 29.0062 19.3165 29.4378 19.3165C29.8694 19.3165 30.301 19.4808 30.6296 19.8094L33.1313 22.3111L30.7478 24.6946L28.2461 22.1929ZM36.6274 28.1908C35.9703 28.8481 34.901 28.8481 34.2439 28.1908L31.7421 25.689L34.1256 23.3055L36.6274 25.8073C37.2846 26.4644 37.2846 27.5337 36.6274 28.1908Z" fill="#1ECD96"/>
<path d="M37.6216 38.1185L31.6238 32.1207C30.4184 30.9155 28.457 30.9155 27.2516 32.1207C26.0463 33.3261 26.0463 35.2875 27.2516 36.493L33.2494 42.4907C33.8522 43.0933 34.6439 43.3947 35.4355 43.3947C36.2271 43.3947 37.0188 43.0933 37.6216 42.4907C38.8269 41.2853 38.8269 39.3239 37.6216 38.1185ZM28.2459 35.4986C27.5888 34.8415 27.5888 33.7721 28.2459 33.115C28.5745 32.7864 29.006 32.6222 29.4377 32.6222C29.8693 32.6222 30.3008 32.7865 30.6294 33.115L33.1311 35.6168L30.7476 38.0003L28.2459 35.4986ZM36.8437 41.2309C36.8434 41.2314 36.8432 41.2318 36.8429 41.2323C36.816 41.2731 36.7862 41.3125 36.7554 41.3513C36.7507 41.3572 36.7468 41.3635 36.742 41.3694C36.7063 41.4131 36.668 41.4555 36.6272 41.4963C36.5865 41.5371 36.5441 41.5752 36.5004 41.611C36.4938 41.6164 36.4866 41.6209 36.48 41.6261C36.4419 41.6562 36.4034 41.6854 36.3634 41.7117C36.3619 41.7127 36.3603 41.7135 36.3588 41.7145C35.8003 42.0805 35.0706 42.0805 34.5121 41.7145C34.5106 41.7135 34.509 41.7127 34.5075 41.7117C34.4675 41.6854 34.429 41.6562 34.3909 41.6261C34.3843 41.6209 34.3771 41.6164 34.3705 41.611C34.3267 41.5752 34.2844 41.5371 34.2437 41.4963L31.7418 38.9946L34.1253 36.6112L36.6272 39.1129C36.6679 39.1537 36.7062 39.196 36.7419 39.2398C36.7467 39.2456 36.7506 39.252 36.7553 39.2579C36.7862 39.2967 36.8159 39.3361 36.8428 39.3769C36.8431 39.3774 36.8433 39.3778 36.8436 39.3783C37.2122 39.9382 37.2122 40.671 36.8437 41.2309Z" fill="#1ECD96"/>
<path d="M20.7476 11.5081L14.7499 5.51038C13.5444 4.30513 11.5831 4.30513 10.3776 5.51038C9.1723 6.71582 9.1723 8.67716 10.3776 9.8826L16.3755 15.8804C16.9782 16.483 17.7699 16.7844 18.5615 16.7844C19.3533 16.7844 20.1449 16.483 20.7476 15.8804C21.953 14.6749 21.953 12.7136 20.7476 11.5081ZM11.372 8.8882C10.7149 8.2311 10.7149 7.16179 11.372 6.5047C11.7006 6.17601 12.1322 6.01185 12.5638 6.01185C12.9954 6.01185 13.427 6.1761 13.7555 6.5047L16.2574 9.00641L13.8739 11.3899L11.372 8.8882ZM19.7534 14.886C19.0963 15.5433 18.027 15.5433 17.3699 14.886L14.8681 12.3842L17.2516 10.0008L19.7534 12.5025C19.8517 12.6009 19.9336 12.7094 20.0026 12.8234C20.394 13.4714 20.3121 14.3273 19.7534 14.886Z" fill="#1ECD96"/>
<path d="M20.7486 24.8129L14.7508 18.8151C13.5453 17.6098 11.584 17.6098 10.3785 18.8151C9.17329 20.0205 9.17329 21.9818 10.3786 23.1873L16.3765 29.1851C16.9792 29.7878 17.7709 30.0892 18.5625 30.0892C19.3543 30.0892 20.1459 29.7878 20.7486 29.1851C21.9539 27.9797 21.9539 26.0184 20.7486 24.8129ZM11.373 22.1929C10.7158 21.5358 10.7158 20.4666 11.373 19.8094C11.7016 19.4807 12.1332 19.3165 12.5648 19.3165C12.9964 19.3165 13.4279 19.4808 13.7565 19.8094L16.2583 22.3111L13.8748 24.6946L11.373 22.1929ZM19.7544 28.1908C19.0973 28.8481 18.028 28.8481 17.3709 28.1908L14.8691 25.689L17.2526 23.3055L19.7544 25.8073C20.4116 26.4644 20.4116 27.5337 19.7544 28.1908Z" fill="#1ECD96"/>
<path d="M20.7485 38.1185L14.7508 32.1207C13.5453 30.9155 11.584 30.9155 10.3785 32.1207C9.1733 33.3261 9.1733 35.2875 10.3785 36.493L16.3764 42.4907C16.9791 43.0933 17.7708 43.3947 18.5625 43.3947C19.3542 43.3947 20.1458 43.0933 20.7485 42.4907C21.9539 41.2853 21.9539 39.3239 20.7485 38.1185ZM11.373 35.4986C10.7159 34.8415 10.7159 33.7721 11.373 33.115C11.7015 32.7864 12.1331 32.6222 12.5647 32.6222C12.9963 32.6222 13.4279 32.7865 13.7565 33.115L16.2582 35.6168L13.8747 38.0003L11.373 35.4986ZM19.9707 41.2309C19.9704 41.2314 19.9701 41.2318 19.9698 41.2323C19.9429 41.2731 19.9132 41.3125 19.8824 41.3513C19.8777 41.3572 19.8737 41.3635 19.869 41.3694C19.8332 41.4131 19.795 41.4555 19.7542 41.4963C19.7134 41.5371 19.671 41.5752 19.6274 41.611C19.6208 41.6164 19.6136 41.6209 19.6069 41.6261C19.5689 41.6562 19.5303 41.6854 19.4904 41.7117C19.4889 41.7127 19.4873 41.7135 19.4858 41.7145C18.9272 42.0805 18.1976 42.0805 17.639 41.7145C17.6375 41.7135 17.6359 41.7127 17.6344 41.7117C17.5945 41.6854 17.556 41.6562 17.5179 41.6261C17.5112 41.6209 17.504 41.6164 17.4975 41.611C17.4537 41.5752 17.4114 41.5371 17.3706 41.4963L14.8688 38.9946L17.2523 36.6112L19.7541 39.1129C19.7949 39.1537 19.8331 39.196 19.8689 39.2398C19.8736 39.2456 19.8776 39.252 19.8823 39.2579C19.9131 39.2967 19.9428 39.3361 19.9697 39.3769C19.97 39.3774 19.9703 39.3778 19.9706 39.3783C20.3392 39.9382 20.3392 40.671 19.9707 41.2309Z" fill="#1ECD96"/>
</svg>
