<svg width="48" height="48" viewBox="0 0 48 48" fill="none" xmlns="http://www.w3.org/2000/svg">
<path d="M30.916 11.8013C34.6636 14.635 39.0522 16.4671 41.3698 19.8138C43.6627 23.1604 43.9093 28.0705 41.493 31.0752C39.0769 34.0799 33.9979 35.2035 30.127 37.4998C26.2808 39.7716 23.6181 43.216 20.6595 43.6313C17.7009 44.071 14.4464 41.4572 11.4138 38.9166C8.38119 36.3761 5.59518 33.86 4.95414 30.9042C4.31312 27.9483 5.81708 24.5284 6.80329 20.7665C7.81417 17.029 8.30727 12.9739 10.5755 9.65165C12.8684 6.3294 16.9119 3.76443 20.5116 4.424C24.0866 5.08356 27.1684 8.94322 30.916 11.8013Z" fill="#E9FAF5"/>
<path fill-rule="evenodd" clip-rule="evenodd" d="M35.0727 35.2622C34.8319 35.2622 34.6368 35.4573 34.6368 35.6981V38.2088C34.6368 38.3628 34.5115 38.4881 34.3575 38.4881H13.6523C13.4983 38.4881 13.373 38.3629 13.373 38.2088V31.532C13.373 29.7489 14.5052 28.1594 16.1904 27.5766L21.3666 25.7866C21.7983 25.6373 22.0883 25.2301 22.0883 24.7734V21.5868C22.0883 21.2599 21.9395 20.9536 21.6801 20.7463C20.2859 19.6327 19.4947 17.9716 19.5096 16.1891C19.5356 13.0756 21.9924 10.5654 25.1028 10.4743C26.2364 10.4412 27.344 10.7367 28.3025 11.329C28.8336 11.6572 29.3043 12.0722 29.7014 12.5625C29.8529 12.7496 30.1275 12.7784 30.3146 12.6269C30.5017 12.4753 30.5305 12.2008 30.3789 12.0137C29.9199 11.4471 29.3754 10.9672 28.7608 10.5873C27.6568 9.90516 26.3836 9.56489 25.0772 9.60291C21.4962 9.70764 18.6676 12.5974 18.6377 16.1818C18.6207 18.2338 19.5312 20.1458 21.1359 21.4275C21.1871 21.4684 21.2164 21.5265 21.2164 21.5869V24.7734C21.2164 24.8587 21.1623 24.9348 21.0817 24.9627L20.5819 25.1355L18.4237 21.2075C18.3472 21.0682 18.2007 20.9815 18.0417 20.9815H16.8151L17.5098 20.2868C17.9432 19.8534 18.1819 19.2772 18.1819 18.6643C18.1819 18.0515 17.9433 17.4752 17.5099 17.0419H17.5098C16.6152 16.1472 15.1595 16.1473 14.2649 17.0419L13.6797 17.6271L13.0945 17.0418C12.1999 16.1472 10.7442 16.1471 9.84952 17.0418C9.41613 17.4752 9.17747 18.0514 9.17747 18.6643C9.17747 18.9495 9.22979 19.2265 9.32872 19.4851C9.21952 19.5643 9.14819 19.6926 9.14819 19.8379C9.14819 20.0786 9.34331 20.2738 9.58413 20.2738H9.83714L9.84328 20.2802L9.84952 20.2867L13.2472 23.6844C13.3627 23.8 13.5163 23.8636 13.6797 23.8636C13.8431 23.8636 13.9966 23.8001 14.1122 23.6845L15.9432 21.8534H17.7837L19.7459 25.4245L15.9054 26.7526C13.8692 27.4568 12.5011 29.3775 12.5011 31.532V38.2089C12.5011 38.8436 13.0176 39.36 13.6524 39.36H34.3575C34.9923 39.36 35.5087 38.8436 35.5087 38.2089V35.6981C35.5086 35.4573 35.3135 35.2622 35.0727 35.2622ZM13.6797 22.8839L11.0696 20.2737H11.7851L11.9461 20.7728C12.0029 20.9489 12.1645 21.0699 12.3494 21.0748L12.361 21.0749C12.5414 21.0749 12.7036 20.9636 12.7682 20.7945L12.9893 20.2155L13.4095 21.3614C13.4726 21.5334 13.6362 21.6473 13.8188 21.6473L13.8274 21.6472C14.0134 21.6436 14.1766 21.5222 14.2336 21.3451L14.5884 20.2451H14.9999C15.2407 20.2451 15.4358 20.0499 15.4358 19.8092C15.4358 19.5684 15.2407 19.3733 14.9999 19.3733H14.2708C14.0816 19.3733 13.914 19.4953 13.856 19.6754L13.7922 19.8729L13.4068 18.8218C13.3443 18.6511 13.1823 18.5372 13.0004 18.5359H12.9975C12.8169 18.5359 12.6548 18.6475 12.5902 18.8164L12.3399 19.472C12.2708 19.4273 12.1888 19.4018 12.1024 19.4018H10.2551C10.1211 19.1816 10.0493 18.9285 10.0493 18.6642C10.0493 18.2841 10.1973 17.9269 10.466 17.6582C10.7434 17.3808 11.1076 17.2422 11.472 17.2422C11.8363 17.2422 12.2007 17.3809 12.478 17.6582L13.3715 18.5517C13.5418 18.7219 13.8178 18.7219 13.988 18.5517L14.8815 17.6582C15.4361 17.1036 16.3387 17.1035 16.8933 17.6582C17.1621 17.9269 17.3101 18.2842 17.3101 18.6642C17.3101 19.0441 17.1621 19.4014 16.8933 19.6701L13.6797 22.8839ZM35.9069 24.4266C35.7076 24.2917 35.4365 24.3438 35.3015 24.543L33.3667 27.3992C32.9851 27.13 32.5625 26.9105 32.1058 26.7527L26.9297 24.9627C26.849 24.9347 26.7949 24.8587 26.7949 24.7734V24.0313C26.7949 23.9209 26.8847 23.8311 26.9951 23.8311H29.0777C30.6135 23.8311 31.863 22.5816 31.863 21.0457V19.9336C31.863 19.8728 31.9125 19.8233 31.9732 19.8233H32.3014C32.843 19.8233 33.2836 19.3828 33.2836 18.8412C33.2836 18.5894 33.1883 18.3499 33.0154 18.1668L31.9175 17.0044C31.8824 16.9671 31.863 16.9183 31.863 16.8669V16.2282C31.863 15.4343 31.725 14.6542 31.4528 13.9093C31.3701 13.6832 31.1199 13.5667 30.8937 13.6495C30.6675 13.7322 30.5512 13.9824 30.6338 14.2086C30.8709 14.8573 30.9911 15.5368 30.9911 16.2282V16.8669C30.9911 17.1418 31.095 17.4033 31.2838 17.6031L32.3817 18.7655C32.4011 18.7861 32.4118 18.813 32.4118 18.8412C32.4118 18.902 32.3623 18.9515 32.3015 18.9515H31.9733C31.4318 18.9515 30.9912 19.3921 30.9912 19.9336V20.351H29.2853C29.0445 20.351 28.8493 20.5462 28.8493 20.7869C28.8493 21.0277 29.0445 21.2229 29.2853 21.2229H30.9826C30.893 22.1952 30.073 22.9592 29.0777 22.9592H26.9951C26.404 22.9592 25.923 23.4402 25.923 24.0314V24.7735C25.923 25.2303 26.213 25.6374 26.6447 25.7867L31.8209 27.5767C32.2041 27.7093 32.5583 27.8944 32.8775 28.1214L31.7063 29.8503H29.8991C29.4624 29.3597 28.9524 28.8784 28.356 28.4199C27.8552 28.0349 27.1918 27.9691 26.625 28.2484C26.074 28.5197 25.7269 29.0617 25.7072 29.6717L25.3925 29.443C25.513 29.2599 25.5837 29.0412 25.5837 28.8061C25.5837 28.4621 25.4326 28.1535 25.1944 27.9404V26.9025C25.4327 26.6895 25.5837 26.3808 25.5837 26.0369C25.5837 25.6929 25.4326 25.3842 25.1944 25.1712V24.1333C25.4327 23.9202 25.5837 23.6116 25.5837 23.2676C25.5837 22.6266 25.0622 22.1051 24.4212 22.1051H23.5919C22.9509 22.1051 22.4294 22.6266 22.4294 23.2676C22.4294 23.6116 22.5804 23.9202 22.8187 24.1333V25.1712C22.5804 25.3842 22.4294 25.6929 22.4294 26.0369C22.4294 26.3808 22.5804 26.6895 22.8187 26.9025V27.9404C22.5804 28.1535 22.4294 28.4621 22.4294 28.8061C22.4294 29.0412 22.5 29.2599 22.6206 29.443L22.3059 29.6717C22.2863 29.0617 21.939 28.5197 21.3881 28.2484C20.8211 27.9691 20.1578 28.0349 19.6571 28.4199C16.3693 30.9479 15.6944 34.1633 15.5847 35.8549C15.5554 36.3075 15.7164 36.7568 16.0265 37.0877C16.3366 37.4186 16.7747 37.6084 17.2284 37.6084H18.2896C18.5304 37.6084 18.7256 37.4132 18.7256 37.1724C18.7256 36.9317 18.5304 36.7365 18.2896 36.7365H17.2282C17.0115 36.7365 16.8106 36.6495 16.6625 36.4915C16.5144 36.3335 16.4407 36.1275 16.4547 35.9113C16.5548 34.3669 17.1729 31.4297 20.1884 29.1112C20.4275 28.9273 20.7321 28.8971 21.0028 29.0306C21.274 29.1641 21.4358 29.4242 21.4358 29.7261V30.3038L19.197 31.9303C18.9403 32.1168 18.7716 32.3921 18.7219 32.7055C18.6723 33.0189 18.7477 33.3329 18.9342 33.5895C19.1206 33.8462 19.3959 34.0149 19.7093 34.0646C19.7722 34.0746 19.8352 34.0795 19.8977 34.0795C20.1465 34.0795 20.3882 34.0014 20.5934 33.8524L21.4358 33.2403V35.9615C21.4358 36.3888 21.0881 36.7364 20.6607 36.7364H20.324C20.0831 36.7364 19.888 36.9316 19.888 37.1724C19.888 37.4131 20.0831 37.6083 20.324 37.6083H20.6608C21.5689 37.6083 22.3077 36.8695 22.3077 35.9615V32.6069L24.0065 31.3726L25.7052 32.6069V35.9614C25.7052 36.8695 26.4441 37.6083 27.3522 37.6083H30.7847C31.2384 37.6083 31.6765 37.4185 31.9867 37.0876C32.2967 36.7567 32.4577 36.3074 32.4284 35.8547C32.3503 34.6503 31.9854 32.6734 30.595 30.7222H31.9376C32.0822 30.7222 32.2174 30.6505 32.2985 30.5308L33.5364 28.7034C34.2288 29.4587 34.6384 30.4603 34.6384 31.5322V33.6638C34.6384 33.9045 34.8335 34.0997 35.0743 34.0997C35.3151 34.0997 35.5102 33.9045 35.5102 33.6638V31.5321C35.5102 30.1652 34.959 28.8929 34.0364 27.9652L36.0233 25.0321C36.1583 24.8327 36.1062 24.5617 35.9069 24.4266ZM23.5918 22.977H24.4211C24.5814 22.977 24.7118 23.1074 24.7118 23.2676C24.7118 23.4279 24.5814 23.5582 24.4211 23.5582H23.5918C23.4316 23.5582 23.3012 23.4279 23.3012 23.2676C23.3012 23.1074 23.4316 22.977 23.5918 22.977ZM24.3225 24.4301V24.8743H23.6904V24.4301H24.3225ZM23.5918 25.7462H24.4211C24.5814 25.7462 24.7118 25.8765 24.7118 26.0368C24.7118 26.197 24.5814 26.3274 24.4211 26.3274H23.5918C23.4316 26.3274 23.3012 26.197 23.3012 26.0368C23.3012 25.8765 23.4316 25.7462 23.5918 25.7462ZM24.3225 27.1993V27.6436H23.6904V27.1993H24.3225ZM23.5918 28.5154H24.4211C24.5814 28.5154 24.7118 28.6458 24.7118 28.806C24.7118 28.9662 24.5814 29.0966 24.4211 29.0966H23.5918C23.4316 29.0966 23.3012 28.9662 23.3012 28.806C23.3012 28.6458 23.4316 28.5154 23.5918 28.5154ZM24.4335 30.6051C24.1782 30.4195 23.835 30.4195 23.5794 30.6051L20.0809 33.1468C20.0126 33.1964 19.9291 33.2166 19.8458 33.2033C19.7624 33.1901 19.6892 33.1452 19.6396 33.0768C19.5899 33.0086 19.5699 32.9251 19.583 32.8417C19.5962 32.7584 19.6411 32.6851 19.7094 32.6356L23.4033 29.9518C23.4647 29.9619 23.5274 29.9685 23.5917 29.9685H24.4211C24.4854 29.9685 24.5481 29.9619 24.6096 29.9518L28.2851 32.6223C28.4288 32.7266 28.4729 32.9238 28.3836 33.0618C28.3247 33.1529 28.225 33.2072 28.117 33.2072C28.0705 33.2072 28.0006 33.1968 27.9319 33.1468L24.4335 30.6051ZM31.5582 35.9111C31.5722 36.1272 31.4985 36.3333 31.3504 36.4913C31.2023 36.6493 31.0014 36.7363 30.7847 36.7363H27.3521C26.9247 36.7363 26.5771 36.3886 26.5771 35.9613V33.2402L27.4195 33.8522C27.6238 34.0007 27.865 34.0792 28.117 34.0792C28.522 34.0792 28.8953 33.8759 29.1156 33.5355C29.4581 33.0062 29.3183 32.2952 28.7975 31.9169L26.5771 30.3036V29.7259C26.5771 29.4239 26.7389 29.1639 27.0101 29.0303C27.122 28.9753 27.2395 28.9481 27.3559 28.9481C27.5212 28.9481 27.6841 29.003 27.8245 29.1109C30.8399 31.4295 31.4582 34.3666 31.5582 35.9111ZM23.7505 16.5789H23.4655C22.9518 16.5789 22.5338 16.9969 22.5338 17.5107C22.5338 18.0245 22.9518 18.4425 23.4655 18.4425H23.7505C23.9913 18.4425 24.1864 18.6377 24.1864 18.8784C24.1864 19.1192 23.9913 19.3144 23.7505 19.3144H23.4655C22.471 19.3144 21.6619 18.5053 21.6619 17.5107C21.6619 16.5161 22.471 15.707 23.4655 15.707H23.7505C23.9913 15.707 24.1864 15.9022 24.1864 16.143C24.1864 16.3837 23.9913 16.5789 23.7505 16.5789ZM37.8897 16.8296V13.9158C37.8897 13.675 37.6945 13.4799 37.4538 13.4799C37.2129 13.4799 37.0178 13.675 37.0178 13.9158V14.3577H34.4176V13.9158C34.4176 13.675 34.2224 13.4799 33.9816 13.4799C33.7408 13.4799 33.5457 13.675 33.5457 13.9158V16.8296C33.5457 17.5356 33.8829 18.21 34.4478 18.6336L34.9912 19.0411L34.4478 19.4487C33.8829 19.8723 33.5457 20.5467 33.5457 21.2527V24.1419C33.5457 24.3827 33.7408 24.5778 33.9816 24.5778C34.2224 24.5778 34.4176 24.3827 34.4176 24.1419V23.6694H37.0178V24.1419C37.0178 24.3827 37.2129 24.5778 37.4538 24.5778C37.6945 24.5778 37.8897 24.3827 37.8897 24.1419V21.2527C37.8897 20.5467 37.5524 19.8724 36.9876 19.4487L36.4442 19.0411L36.9876 18.6336C37.5524 18.21 37.8897 17.5355 37.8897 16.8296ZM34.4176 15.2295H37.0178V16.1456H34.4176V15.2295ZM37.0178 22.7975H34.4176V21.8813H37.0178V22.7975ZM36.4646 20.1462C36.7453 20.3568 36.9343 20.6683 36.9959 21.0094H34.4395C34.5011 20.6683 34.6901 20.3568 34.9708 20.1462L35.7176 19.5861L36.4646 20.1462ZM36.4646 17.9361L35.7177 18.4962L34.9709 17.9361C34.675 17.7142 34.4815 17.3801 34.4311 17.0176H37.0043C36.9539 17.3801 36.7603 17.7142 36.4646 17.9361ZM28.4449 14.0399C28.4655 14.2138 28.4104 14.3888 28.2939 14.52C28.1767 14.6518 28.0085 14.7274 27.8322 14.7274H22.5376C22.3614 14.7274 22.1931 14.6518 22.0759 14.52C21.9594 14.3887 21.9043 14.2138 21.9249 14.0399C22.0847 12.6912 23.4861 11.6741 25.1849 11.6741C26.8836 11.6741 28.2851 12.6912 28.4449 14.0399ZM25.185 12.546C24.084 12.546 23.1297 13.1019 22.8588 13.8556H27.5111C27.24 13.1019 26.2857 12.546 25.185 12.546Z" fill="#676F8F"/>
</svg>
