<svg width="48" height="48" viewBox="0 0 48 48" fill="none" xmlns="http://www.w3.org/2000/svg">
<path d="M30.6829 11.763C34.3133 14.5487 38.5646 16.3498 40.8097 19.6399C43.0309 22.9299 43.2697 27.7569 40.9291 30.7107C38.5885 33.6645 33.6684 34.7692 29.9186 37.0266C26.1927 39.26 23.6133 42.6461 20.7472 43.0543C17.8811 43.4866 14.7285 40.917 11.7908 38.4195C8.85303 35.9219 6.15416 33.4484 5.53318 30.5426C4.91221 27.6368 6.36913 24.2747 7.32445 20.5764C8.30371 16.9022 8.78137 12.9157 10.9787 9.64973C13.1999 6.38371 17.1168 3.86216 20.6039 4.51056C24.0671 5.15896 27.0526 8.95329 30.6829 11.763Z" fill="#E9FAF5"/>
<path fill-rule="evenodd" clip-rule="evenodd" d="M33.7097 27.3062H33.7822C33.9633 27.3062 34.1444 27.1593 34.1806 26.9389C34.2168 26.7185 34.0719 26.498 33.8546 26.4613L29.7255 25.7266C28.9287 25.5797 28.313 25.0287 28.0594 24.2572C27.987 23.9634 28.0956 23.6327 28.313 23.4123C29.4358 22.3103 30.2326 20.9511 30.6672 19.445C30.9932 19.2246 31.7176 18.6736 31.9712 17.7552C32.1885 16.9838 32.0798 16.1756 31.609 15.3307C31.5727 10.3715 28.1681 6.36743 24.0028 6.36743C19.8375 6.36743 16.4328 10.3715 16.3242 15.294C15.8533 16.1756 15.7446 16.9838 15.962 17.7185C16.2155 18.6368 16.9399 19.1878 17.2659 19.4082C17.5556 20.3633 17.9903 21.2817 18.5698 22.1266C18.7147 22.347 18.9682 22.3838 19.1493 22.2368C19.3666 22.0899 19.4029 21.8327 19.258 21.6491C18.6785 20.8776 18.28 19.996 18.0265 19.0409L17.9903 18.8572L17.8454 18.7838C17.8454 18.7838 17.0486 18.3429 16.795 17.498C16.6322 17.0025 16.7036 16.4475 17.0095 15.8598C17.9632 15.7648 21.7288 15.3075 22.9232 12.8252C23.0416 12.8755 23.16 12.9271 23.2784 12.9799C23.3863 13.0197 23.4915 13.0595 23.5948 13.0986L23.5955 13.0989L23.5957 13.0989C23.8735 13.204 24.1374 13.3037 24.4012 13.384C25.1618 13.6044 25.9224 13.7146 26.6831 13.7146C27.9508 13.7146 29.1822 13.4208 30.3051 12.833C30.3595 12.8146 30.4049 12.7846 30.4405 12.7466C30.6814 13.5903 30.8121 14.4966 30.8121 15.4409V15.5511L30.8846 15.6613C31.2468 16.3225 31.3554 16.947 31.2105 17.498C30.9932 18.3429 30.1602 18.7838 30.1602 18.7838L29.9791 18.8572L29.9428 19.0409C29.5806 20.4736 28.82 21.7593 27.7697 22.7878C27.2988 23.2654 27.1177 23.8899 27.2988 24.5144C27.6248 25.5797 28.4941 26.3511 29.5807 26.5715L33.7097 27.3062ZM22.6988 11.8549C22.0496 11.6042 21.4057 11.3833 20.7792 11.1799C20.5619 11.1065 20.3446 11.2534 20.2721 11.4738C20.1997 11.6942 20.3446 11.9146 20.5619 11.9881C21.0994 12.1407 21.6369 12.3193 22.1744 12.5237C21.2227 14.378 18.2875 14.8781 17.2032 15.0003C17.3955 10.6838 20.3941 7.21233 24.0028 7.21233C26.77 7.21233 29.1462 9.19472 30.2126 12.0527C30.1265 12.0389 30.0317 12.0533 29.9429 12.0983C28.313 12.9065 26.3571 13.0901 24.6185 12.5759C24.2925 12.5024 23.9666 12.3922 23.5682 12.2085C23.3801 12.1278 23.192 12.05 23.0042 11.9749C22.9612 11.9324 22.9073 11.8987 22.8442 11.8774C22.7952 11.8608 22.7462 11.8536 22.6988 11.8549ZM13.8253 19.5919H13.8256C13.9705 19.5919 14.1516 19.5185 14.1878 19.3715C14.2964 19.1878 14.224 18.9307 14.0067 18.8204L10.8555 17.2776C10.6744 17.1674 10.4209 17.2409 10.3123 17.4613C10.2036 17.6449 10.276 17.9021 10.4934 18.0123L13.6445 19.5552C13.7168 19.5919 13.753 19.5919 13.8253 19.5919ZM34.1447 19.5919C33.9998 19.5919 33.8549 19.5184 33.7825 19.3715C33.6738 19.1511 33.7825 18.8939 33.9636 18.8205L37.1147 17.2776C37.332 17.1674 37.5856 17.2776 37.658 17.4613C37.7667 17.6817 37.658 17.9388 37.4769 18.0123L34.3258 19.5552C34.2533 19.5919 34.1809 19.5919 34.1447 19.5919ZM37.5854 21.5755L34.1083 21.5388C33.8909 21.5388 33.7098 21.3551 33.7098 21.098C33.7098 20.8776 33.8909 20.6572 34.1445 20.6939L37.6216 20.7306C37.8389 20.7306 38.02 20.9143 38.02 21.1714C38.02 21.3918 37.8389 21.5755 37.5854 21.5755ZM37.0415 24.8816C37.1139 24.9184 37.1502 24.9184 37.2226 24.9184C37.3675 24.9184 37.5124 24.8082 37.5848 24.698C37.6935 24.5143 37.621 24.2572 37.4037 24.1469L34.2888 22.5674C34.1077 22.4572 33.8541 22.5306 33.7455 22.751C33.6368 22.9347 33.7093 23.1918 33.9266 23.302L37.0415 24.8816ZM10.3476 21.5757C10.1303 21.5757 9.94922 21.392 9.94922 21.1716C9.94922 20.9512 10.1303 20.7675 10.3476 20.7308L13.8247 20.694C14.0421 20.694 14.2232 20.8777 14.2232 21.0981C14.2232 21.3185 14.0421 21.5022 13.8247 21.5389L10.3476 21.5757ZM10.7463 24.9184C10.6015 24.9184 10.4566 24.8449 10.3842 24.698C10.2755 24.4776 10.3479 24.2204 10.5652 24.1469L13.6802 22.5674C13.8975 22.4572 14.151 22.5306 14.2235 22.751C14.3321 22.9714 14.2597 23.2286 14.0424 23.302L10.9274 24.8816C10.885 24.8816 10.8426 24.8942 10.8074 24.9047L10.8074 24.9047L10.8073 24.9047L10.8073 24.9047C10.7825 24.9121 10.7613 24.9184 10.7463 24.9184ZM21.8396 28.7969C21.3467 30.6786 20.6548 32.6078 19.8013 34.4327C18.606 37.0409 16.9037 39.3184 14.7667 41.2654C14.0785 41.8899 13.1368 42.2572 12.1951 42.2572H11.7605C10.4566 42.2572 9.36996 41.1552 9.36996 39.8327C9.36996 37.0409 9.8046 34.2858 10.6377 31.6041L11.181 29.7674C11.5069 28.5919 12.3762 27.7103 13.5352 27.3796L17.5194 26.6817C17.7368 26.645 17.8816 26.4245 17.8454 26.2041C17.8092 25.9837 17.5919 25.8368 17.3746 25.8735L13.3541 26.5715H13.3179C11.8691 26.9756 10.7825 28.0776 10.3479 29.5103L9.8046 31.347C8.97154 34.1021 8.57312 36.9674 8.57312 39.8327C8.57312 41.6327 10.0219 43.1021 11.7967 43.1021H12.2313C13.3904 43.1021 14.477 42.6613 15.31 41.8899C17.5557 39.8694 19.2942 37.4817 20.5619 34.8001C21.2536 33.2833 21.8584 31.6981 22.3366 30.1201L23.4958 32.8895L27.5524 30.4651L26.3196 28.7915L27.9509 27.2324L24.4666 23.4484C24.4819 23.4375 24.4963 23.4254 24.5094 23.4121C24.8354 23.0814 25.0165 22.6406 25.0165 22.1631C25.0165 21.1712 24.2197 20.3998 23.2779 20.3998H22.7709H22.7346C21.7929 20.657 20.8512 21.2814 20.163 22.0896C19.5111 22.861 19.1489 24.0365 19.0764 25.6161C18.9678 27.4161 18.4607 29.1427 17.6276 30.5753C16.8308 31.9712 15.8529 33.2202 14.7301 34.359C13.7521 35.3508 12.5931 36.1957 11.3254 36.8569C11.1081 36.9671 11.0356 37.2243 11.1443 37.4447C11.2167 37.5916 11.3616 37.6651 11.5065 37.6651C11.5789 37.6651 11.6151 37.6651 11.6514 37.5916C13.0277 36.8937 14.223 36.012 15.2733 34.9467C16.4324 33.7712 17.4465 32.4488 18.2796 31.0161C19.1851 29.4365 19.7284 27.5998 19.8371 25.6529C19.9095 24.2937 20.2355 23.2651 20.7426 22.6406C21.3221 21.9794 22.0827 21.4651 22.8433 21.2447H23.2779C23.785 21.2447 24.1834 21.6488 24.1834 22.1631C24.1834 22.4202 24.111 22.6406 23.9299 22.8243C23.9233 22.8309 23.9171 22.8379 23.9111 22.8451L23.8581 22.7875C23.7132 22.6038 23.4596 22.6038 23.2785 22.7508C23.0974 22.8977 23.0974 23.1549 23.2423 23.3385L26.7557 27.1589L25.7942 28.0783L25.1981 27.2691C25.0533 27.0855 24.7997 27.0487 24.6186 27.1957C24.4375 27.3426 24.4013 27.5998 24.5462 27.7834L26.3572 30.2447L23.8942 31.6773L22.698 28.8349C22.9683 27.7913 23.1778 26.76 23.3146 25.7633C23.3508 25.5429 23.1697 25.3225 22.9524 25.2858C22.7351 25.249 22.5178 25.4327 22.4816 25.6531C22.3449 26.6107 22.1443 27.6072 21.8857 28.6189C21.8586 28.6726 21.8433 28.7336 21.8396 28.7969Z" fill="#676F8F"/>
<path d="M33.7097 27.3062L33.6834 27.4539L33.6965 27.4562H33.7097V27.3062ZM34.1806 26.9389L34.3286 26.9632V26.9632L34.1806 26.9389ZM33.8546 26.4613L33.8283 26.609L33.8296 26.6092L33.8546 26.4613ZM29.7255 25.7266L29.6983 25.8741L29.6993 25.8743L29.7255 25.7266ZM28.0594 24.2572L27.9134 24.2932L27.9169 24.3041L28.0594 24.2572ZM28.313 23.4123L28.2079 23.3053L28.2061 23.307L28.313 23.4123ZM30.6672 19.445L30.5832 19.3207L30.5382 19.3512L30.5231 19.4034L30.6672 19.445ZM31.9712 17.7552L31.8268 17.7145L31.8266 17.7153L31.9712 17.7552ZM31.609 15.3307L31.459 15.3318L31.4593 15.3702L31.4779 15.4037L31.609 15.3307ZM16.3242 15.294L16.4565 15.3646L16.4733 15.3331L16.4741 15.2973L16.3242 15.294ZM15.962 17.7185L16.1066 17.6785L16.1058 17.6759L15.962 17.7185ZM17.2659 19.4082L17.4094 19.3647L17.394 19.3138L17.3499 19.284L17.2659 19.4082ZM18.5698 22.1266L18.6952 22.0442L18.6935 22.0418L18.5698 22.1266ZM19.1493 22.2368L19.065 22.1121L19.0548 22.1203L19.1493 22.2368ZM19.258 21.6491L19.138 21.7392L19.1402 21.742L19.258 21.6491ZM18.0265 19.0409L17.879 19.07L17.8815 19.0794L18.0265 19.0409ZM17.9903 18.8572L18.1374 18.8282L18.1233 18.7565L18.0581 18.7234L17.9903 18.8572ZM17.8454 18.7838L17.7727 18.9151L17.7776 18.9175L17.8454 18.7838ZM16.795 17.498L16.9387 17.4549L16.9375 17.4512L16.795 17.498ZM17.0095 15.8598L16.9946 15.7106L16.9139 15.7186L16.8764 15.7906L17.0095 15.8598ZM22.9232 12.8252L22.9819 12.6871L22.8501 12.6311L22.788 12.7602L22.9232 12.8252ZM23.2784 12.9799L23.2171 13.1172L23.2265 13.1207L23.2784 12.9799ZM23.5948 13.0986L23.6479 12.9583L23.6479 12.9583L23.5948 13.0986ZM23.5955 13.0989L23.6495 12.9589L23.6486 12.9586L23.5955 13.0989ZM23.5957 13.0989L23.5418 13.2389L23.5427 13.2392L23.5957 13.0989ZM24.4012 13.384L24.3575 13.5275L24.3595 13.5281L24.4012 13.384ZM30.3051 12.833L30.257 12.6909L30.2459 12.6947L30.2355 12.7001L30.3051 12.833ZM30.4405 12.7466L30.5848 12.7055L30.5122 12.4512L30.3312 12.644L30.4405 12.7466ZM30.8121 15.5511H30.6621V15.596L30.6868 15.6335L30.8121 15.5511ZM30.8846 15.6613L31.0165 15.589L31.0099 15.5789L30.8846 15.6613ZM31.2105 17.498L31.0655 17.4599L31.0653 17.4607L31.2105 17.498ZM30.1602 18.7838L30.2166 18.9228L30.2236 18.9199L30.2303 18.9163L30.1602 18.7838ZM29.9791 18.8572L29.9227 18.7182L29.8476 18.7487L29.8319 18.8282L29.9791 18.8572ZM29.9428 19.0409L30.0885 19.0777L30.09 19.0699L29.9428 19.0409ZM27.7697 22.7878L27.6647 22.6807L27.6628 22.6825L27.7697 22.7878ZM27.2988 24.5144L27.1547 24.5562L27.1554 24.5583L27.2988 24.5144ZM29.5807 26.5715L29.5508 26.7186L29.5544 26.7192L29.5807 26.5715ZM20.7792 11.1799L20.7312 11.322L20.7329 11.3226L20.7792 11.1799ZM22.6988 11.8549L22.6448 11.9948L22.6728 12.0056L22.7029 12.0048L22.6988 11.8549ZM20.2721 11.4738L20.1296 11.427V11.427L20.2721 11.4738ZM20.5619 11.9881L20.5138 12.1304L20.5209 12.1324L20.5619 11.9881ZM22.1744 12.5237L22.3079 12.5922L22.3844 12.4431L22.2277 12.3835L22.1744 12.5237ZM17.2032 15.0003L17.0534 14.9936L17.0456 15.169L17.22 15.1494L17.2032 15.0003ZM30.2126 12.0527L30.1888 12.2008L30.4432 12.2416L30.3531 12.0003L30.2126 12.0527ZM29.9429 12.0983L30.0095 12.2327L30.0107 12.2321L29.9429 12.0983ZM24.6185 12.5759L24.6612 12.4317L24.6515 12.4295L24.6185 12.5759ZM23.5682 12.2085L23.631 12.0722L23.6273 12.0707L23.5682 12.2085ZM23.0042 11.9749L22.8988 12.0816L22.9204 12.1029L22.9485 12.1142L23.0042 11.9749ZM22.8442 11.8774L22.8923 11.7353L22.8923 11.7353L22.8442 11.8774ZM14.1878 19.3715L14.0587 19.2951L14.0474 19.3142L14.0421 19.3356L14.1878 19.3715ZM14.0067 18.8204L14.0746 18.6867L14.0726 18.6857L14.0067 18.8204ZM10.8555 17.2776L10.7772 17.4063L10.7896 17.4123L10.8555 17.2776ZM10.3123 17.4613L10.4417 17.5379L10.4468 17.5276L10.3123 17.4613ZM10.4934 18.0123L10.4255 18.1461L10.4274 18.147L10.4934 18.0123ZM13.6445 19.5552L13.7123 19.4214L13.7104 19.4205L13.6445 19.5552ZM33.7825 19.3715L33.6479 19.4378V19.4378L33.7825 19.3715ZM33.9636 18.8205L34.0201 18.9598L34.0296 18.9552L33.9636 18.8205ZM37.1147 17.2776L37.1807 17.4123L37.1826 17.4114L37.1147 17.2776ZM37.658 17.4613L37.518 17.5165L37.5235 17.5276L37.658 17.4613ZM37.4769 18.0123L37.4204 17.873L37.411 17.8776L37.4769 18.0123ZM34.3258 19.5552L34.2598 19.4204L34.2579 19.4214L34.3258 19.5552ZM34.1083 21.5388L34.1098 21.3888H34.1083V21.5388ZM37.5854 21.5755L37.5838 21.7255H37.5854V21.5755ZM34.1445 20.6939L34.123 20.8423L34.1329 20.8438L34.1429 20.8439L34.1445 20.6939ZM37.6216 20.7306L37.62 20.8806H37.6216V20.7306ZM37.0415 24.8816L37.1093 24.7479H37.1093L37.0415 24.8816ZM37.5848 24.698L37.7103 24.7805L37.7139 24.7743L37.5848 24.698ZM37.4037 24.1469L37.4715 24.0132H37.4715L37.4037 24.1469ZM34.2888 22.5674L34.2106 22.6959L34.2209 22.7011L34.2888 22.5674ZM33.7455 22.751L33.875 22.8276L33.88 22.8174L33.7455 22.751ZM33.9266 23.302L33.8587 23.4358H33.8587L33.9266 23.302ZM10.3476 21.5757V21.7257L10.3492 21.7257L10.3476 21.5757ZM10.3476 20.7308L10.3461 20.5808L10.3343 20.5809L10.3226 20.5829L10.3476 20.7308ZM13.8247 20.694V20.544L13.8232 20.544L13.8247 20.694ZM13.8247 21.5389L13.8263 21.6889L13.8381 21.6888L13.8497 21.6868L13.8247 21.5389ZM10.3842 24.698L10.5187 24.6316H10.5187L10.3842 24.698ZM10.5652 24.1469L10.6133 24.289L10.6235 24.2856L10.6331 24.2807L10.5652 24.1469ZM13.6802 22.5674L13.6123 22.4336H13.6123L13.6802 22.5674ZM14.2235 22.751L14.081 22.7979L14.0843 22.8079L14.0889 22.8174L14.2235 22.751ZM14.0424 23.302L13.9943 23.16L13.9841 23.1634L13.9745 23.1683L14.0424 23.302ZM10.9274 24.8816V25.0316H10.9633L10.9953 25.0154L10.9274 24.8816ZM10.8074 24.9047L10.7646 24.7604L10.7529 24.765L10.8074 24.9047ZM10.8074 24.9047L10.852 25.0483L10.8619 25.0444L10.8074 24.9047ZM10.8073 24.9047L10.8432 25.0506L10.8518 25.048L10.8073 24.9047ZM10.8073 24.9047L10.7714 24.7589L10.7646 24.7609L10.8073 24.9047ZM19.8013 34.4327L19.6654 34.3692L19.6649 34.3702L19.8013 34.4327ZM21.8396 28.7969L21.9847 28.8349L21.9885 28.8205L21.9894 28.8056L21.8396 28.7969ZM14.7667 41.2654L14.8675 41.3764L14.8677 41.3762L14.7667 41.2654ZM10.6377 31.6041L10.7809 31.6486L10.7815 31.6467L10.6377 31.6041ZM11.181 29.7674L11.3248 29.81L11.3255 29.8075L11.181 29.7674ZM13.5352 27.3796L13.5094 27.2319L13.5016 27.2332L13.4941 27.2354L13.5352 27.3796ZM17.5194 26.6817L17.4944 26.5338L17.4936 26.5339L17.5194 26.6817ZM17.8454 26.2041L17.9934 26.1798L17.8454 26.2041ZM17.3746 25.8735L17.3496 25.7256L17.3489 25.7257L17.3746 25.8735ZM13.3541 26.5715V26.7215H13.3671L13.3798 26.7193L13.3541 26.5715ZM13.3179 26.5715V26.4215H13.2974L13.2776 26.427L13.3179 26.5715ZM10.3479 29.5103L10.2044 29.4667L10.2041 29.4677L10.3479 29.5103ZM9.8046 31.347L9.94818 31.3904L9.94844 31.3895L9.8046 31.347ZM15.31 41.8899L15.2097 41.7783L15.2081 41.7798L15.31 41.8899ZM20.5619 34.8001L20.6975 34.8642L20.6984 34.8623L20.5619 34.8001ZM22.3366 30.1201L22.4749 30.0622L22.3139 29.6775L22.193 30.0766L22.3366 30.1201ZM23.4958 32.8895L23.3574 32.9474L23.4242 33.107L23.5728 33.0183L23.4958 32.8895ZM27.5524 30.4651L27.6294 30.5938L27.7712 30.5091L27.6732 30.3761L27.5524 30.4651ZM26.3196 28.7915L26.2159 28.683L26.1205 28.7742L26.1988 28.8804L26.3196 28.7915ZM27.9509 27.2324L28.0546 27.3408L28.161 27.2391L28.0613 27.1308L27.9509 27.2324ZM24.4666 23.4484L24.3796 23.3263L24.2411 23.4249L24.3563 23.55L24.4666 23.4484ZM24.5094 23.4121L24.4026 23.3067H24.4026L24.5094 23.4121ZM22.7346 20.3998V20.2498H22.7145L22.6951 20.2551L22.7346 20.3998ZM20.163 22.0896L20.0488 21.9924L20.0485 21.9928L20.163 22.0896ZM19.0764 25.6161L19.2262 25.6252L19.2263 25.623L19.0764 25.6161ZM17.6276 30.5753L17.498 30.4999L17.4974 30.501L17.6276 30.5753ZM14.7301 34.359L14.8369 34.4643H14.8369L14.7301 34.359ZM11.3254 36.8569L11.3932 36.9907L11.3948 36.9899L11.3254 36.8569ZM11.1443 37.4447L11.2788 37.3784H11.2788L11.1443 37.4447ZM11.6514 37.5916L11.5835 37.4579L11.5389 37.4805L11.5168 37.5253L11.6514 37.5916ZM15.2733 34.9467L15.3802 35.0521H15.3802L15.2733 34.9467ZM18.2796 31.0161L18.4093 31.0915L18.4097 31.0907L18.2796 31.0161ZM19.8371 25.6529L19.9868 25.6612L19.9868 25.6609L19.8371 25.6529ZM20.7426 22.6406L20.6297 22.5417L20.6261 22.5461L20.7426 22.6406ZM22.8433 21.2447V21.0947H22.822L22.8016 21.1006L22.8433 21.2447ZM23.9299 22.8243L23.8231 22.719L23.8231 22.719L23.9299 22.8243ZM23.9111 22.8451L23.8008 22.9467L23.9173 23.0733L24.0268 22.9406L23.9111 22.8451ZM23.8581 22.7875L23.74 22.8807L23.7477 22.8891L23.8581 22.7875ZM23.2785 22.7508L23.3731 22.8673H23.3731L23.2785 22.7508ZM23.2423 23.3385L23.1242 23.4317L23.1319 23.4401L23.2423 23.3385ZM26.7557 27.1589L26.8593 27.2673L26.9656 27.1657L26.8661 27.0574L26.7557 27.1589ZM25.7942 28.0783L25.6735 28.1673L25.7746 28.3046L25.8979 28.1867L25.7942 28.0783ZM25.1981 27.2691L25.319 27.1801L25.3159 27.1763L25.1981 27.2691ZM24.6186 27.1957L24.5241 27.0792L24.6186 27.1957ZM24.5462 27.7834L24.6671 27.6945L24.664 27.6905L24.5462 27.7834ZM26.3572 30.2447L26.4326 30.3743L26.577 30.2903L26.478 30.1558L26.3572 30.2447ZM23.8942 31.6773L23.756 31.7355L23.8222 31.8928L23.9696 31.807L23.8942 31.6773ZM22.698 28.8349L22.5528 28.7973L22.5401 28.8464L22.5597 28.8931L22.698 28.8349ZM23.3146 25.7633L23.1666 25.739L23.166 25.7429L23.3146 25.7633ZM22.9524 25.2858L22.9774 25.1379H22.9774L22.9524 25.2858ZM22.4816 25.6531L22.3335 25.6288L22.3331 25.6319L22.4816 25.6531ZM21.8857 28.6189L22.0197 28.6863L22.027 28.6718L22.031 28.656L21.8857 28.6189ZM33.7822 27.1562H33.7097V27.4562H33.7822V27.1562ZM34.0326 26.9145C34.0073 27.0682 33.8841 27.1562 33.7822 27.1562V27.4562C34.0424 27.4562 34.2814 27.2503 34.3286 26.9632L34.0326 26.9145ZM33.8296 26.6092C33.9582 26.6309 34.0566 26.7681 34.0326 26.9145L34.3286 26.9632C34.377 26.6688 34.1857 26.3651 33.8796 26.3134L33.8296 26.6092ZM29.6993 25.8743L33.8283 26.609L33.8809 26.3136L29.7518 25.5789L29.6993 25.8743ZM27.9169 24.3041C28.1871 25.1261 28.846 25.7169 29.6983 25.8741L29.7527 25.5791C29.0114 25.4424 28.4388 24.9312 28.2019 24.2104L27.9169 24.3041ZM28.2061 23.307C27.9573 23.5594 27.8272 23.942 27.9138 24.2931L28.2051 24.2213C28.1467 23.9847 28.234 23.706 28.4198 23.5176L28.2061 23.307ZM30.5231 19.4034C30.0954 20.8854 29.3117 22.2219 28.2079 23.3053L28.418 23.5194C29.5598 22.3987 30.3698 21.0168 30.8114 19.4866L30.5231 19.4034ZM31.8266 17.7153C31.5879 18.5796 30.9025 19.1048 30.5832 19.3207L30.7513 19.5692C31.0839 19.3443 31.8473 18.7675 32.1158 17.7951L31.8266 17.7153ZM31.4779 15.4037C31.9325 16.2194 32.0318 16.9868 31.8268 17.7145L32.1155 17.7959C32.3452 16.9807 32.2271 16.1318 31.74 15.2577L31.4779 15.4037ZM24.0028 6.51743C28.0627 6.51743 31.4232 10.4301 31.459 15.3318L31.759 15.3296C31.7223 10.313 28.2734 6.21743 24.0028 6.21743V6.51743ZM16.4741 15.2973C16.5816 10.4307 19.9425 6.51743 24.0028 6.51743V6.21743C19.7325 6.21743 16.2841 10.3123 16.1742 15.2907L16.4741 15.2973ZM16.1058 17.6759C15.9022 16.9875 15.9996 16.2202 16.4565 15.3646L16.1919 15.2233C15.7071 16.131 15.5871 16.98 15.8181 17.761L16.1058 17.6759ZM17.3499 19.284C17.0306 19.0681 16.3452 18.5429 16.1066 17.6785L15.8174 17.7584C16.0858 18.7308 16.8492 19.3076 17.1819 19.5325L17.3499 19.284ZM18.6935 22.0418C18.1229 21.2099 17.6948 20.3055 17.4094 19.3647L17.1223 19.4518C17.4164 20.4212 17.8577 21.3536 18.4461 22.2115L18.6935 22.0418ZM19.0548 22.1203C18.9474 22.2075 18.7947 22.1957 18.6951 22.0442L18.4445 22.209C18.6347 22.4984 18.989 22.56 19.2438 22.3533L19.0548 22.1203ZM19.1402 21.742C19.2283 21.8536 19.2142 22.0119 19.0653 22.1126L19.2333 22.3611C19.519 22.1679 19.5774 21.8119 19.3758 21.5562L19.1402 21.742ZM17.8815 19.0794C18.1392 20.0501 18.5452 20.95 19.1381 21.7392L19.3779 21.559C18.8117 20.8053 18.4209 19.9419 18.1715 19.0024L17.8815 19.0794ZM17.8431 18.8862L17.8793 19.0699L18.1737 19.0119L18.1374 18.8282L17.8431 18.8862ZM17.7776 18.9175L17.9224 18.991L18.0581 18.7234L17.9132 18.65L17.7776 18.9175ZM16.6514 17.5412C16.7884 17.9977 17.0705 18.3408 17.3129 18.5673C17.4346 18.6811 17.548 18.7671 17.6315 18.825C17.6733 18.8539 17.7077 18.8759 17.7321 18.8909C17.7443 18.8984 17.754 18.9042 17.7609 18.9082C17.7643 18.9102 17.7671 18.9118 17.7691 18.9129C17.7701 18.9135 17.7709 18.914 17.7715 18.9143C17.7718 18.9145 17.7721 18.9146 17.7723 18.9147C17.7724 18.9148 17.7725 18.9149 17.7726 18.9149C17.7726 18.9149 17.7727 18.9149 17.7727 18.915C17.7727 18.915 17.7728 18.915 17.8454 18.7838C17.918 18.6525 17.9181 18.6525 17.9181 18.6525C17.9181 18.6526 17.9181 18.6526 17.9182 18.6526C17.9182 18.6526 17.9182 18.6526 17.9182 18.6526C17.9182 18.6526 17.9182 18.6526 17.9181 18.6526C17.918 18.6525 17.9177 18.6523 17.9171 18.652C17.9161 18.6514 17.9143 18.6504 17.9119 18.649C17.907 18.6461 17.8993 18.6416 17.8892 18.6354C17.8691 18.623 17.8393 18.604 17.8024 18.5784C17.7285 18.5272 17.6269 18.4502 17.5177 18.3482C17.2983 18.1431 17.0552 17.8433 16.9387 17.4549L16.6514 17.5412ZM16.8764 15.7906C16.5571 16.4042 16.4739 17.0015 16.6525 17.5449L16.9375 17.4512C16.7904 17.0035 16.8502 16.4908 17.1426 15.9291L16.8764 15.7906ZM22.788 12.7602C22.2161 13.9487 21.0211 14.6652 19.8252 15.0966C18.6329 15.5268 17.4677 15.6635 16.9946 15.7106L17.0244 16.0091C17.505 15.9612 18.6995 15.8217 19.927 15.3788C21.1508 14.9373 22.4358 14.184 23.0584 12.8902L22.788 12.7602ZM23.3395 12.843C23.2203 12.7898 23.1011 12.7378 22.9819 12.6871L22.8645 12.9632C22.9821 13.0132 23.0997 13.0644 23.2173 13.1169L23.3395 12.843ZM23.6479 12.9583C23.5446 12.9192 23.4388 12.8792 23.3303 12.8392L23.2265 13.1207C23.3337 13.1602 23.4384 13.1998 23.5417 13.2389L23.6479 12.9583ZM23.6486 12.9586L23.6479 12.9583L23.5417 13.2389L23.5425 13.2391L23.6486 12.9586ZM23.6496 12.9589L23.6495 12.9589L23.5416 13.2388L23.5418 13.2389L23.6496 12.9589ZM24.4449 13.2405C24.1866 13.1619 23.9275 13.064 23.6488 12.9586L23.5427 13.2392C23.8196 13.3439 24.0881 13.4455 24.3575 13.5275L24.4449 13.2405ZM26.6831 13.5646C25.9371 13.5646 25.1906 13.4566 24.443 13.2399L24.3595 13.5281C25.1331 13.7523 25.9077 13.8646 26.6831 13.8646V13.5646ZM30.2355 12.7001C29.1348 13.2763 27.9273 13.5646 26.6831 13.5646V13.8646C27.9743 13.8646 29.2297 13.5652 30.3746 12.9659L30.2355 12.7001ZM30.3312 12.644C30.3124 12.664 30.2881 12.6804 30.257 12.6909L30.3531 12.9751C30.4309 12.9488 30.4973 12.9053 30.5499 12.8493L30.3312 12.644ZM30.9621 15.4409C30.9621 14.4828 30.8295 13.5626 30.5848 12.7055L30.2963 12.7878C30.5333 13.618 30.6621 14.5105 30.6621 15.4409H30.9621ZM30.9621 15.5511V15.4409H30.6621V15.5511H30.9621ZM31.0099 15.5789L30.9375 15.4687L30.6868 15.6335L30.7592 15.7437L31.0099 15.5789ZM31.3556 17.5362C31.5129 16.9378 31.3909 16.2735 31.0161 15.5892L30.753 15.7334C31.1026 16.3716 31.1979 16.9562 31.0655 17.4599L31.3556 17.5362ZM30.1602 18.7838C30.2303 18.9163 30.2304 18.9163 30.2304 18.9163C30.2304 18.9163 30.2305 18.9162 30.2305 18.9162C30.2306 18.9162 30.2307 18.9161 30.2308 18.9161C30.2311 18.916 30.2313 18.9158 30.2316 18.9156C30.2323 18.9153 30.2331 18.9148 30.2342 18.9143C30.2362 18.9131 30.2391 18.9116 30.2427 18.9096C30.2499 18.9056 30.26 18.8998 30.2727 18.8923C30.2981 18.8773 30.3338 18.8553 30.3771 18.8263C30.4636 18.7685 30.5808 18.6824 30.7052 18.5683C30.9527 18.3415 31.2373 17.9962 31.3558 17.5354L31.0653 17.4607C30.9665 17.8448 30.7259 18.1424 30.5025 18.3472C30.3915 18.4489 30.2868 18.5258 30.2103 18.577C30.1721 18.6026 30.1411 18.6216 30.1201 18.634C30.1096 18.6402 30.1016 18.6448 30.0965 18.6476C30.0939 18.6491 30.0921 18.6501 30.091 18.6507C30.0904 18.651 30.0901 18.6511 30.0899 18.6512C30.0898 18.6513 30.0898 18.6513 30.0898 18.6513C30.0898 18.6513 30.0898 18.6513 30.0899 18.6512C30.0899 18.6512 30.0899 18.6512 30.0899 18.6512C30.09 18.6512 30.09 18.6512 30.1602 18.7838ZM30.0355 18.9962L30.2166 18.9228L30.1038 18.6448L29.9227 18.7182L30.0355 18.9962ZM30.09 19.0699L30.1262 18.8862L29.8319 18.8282L29.7957 19.0119L30.09 19.0699ZM27.8746 22.895C28.9438 21.848 29.719 20.5383 30.0883 19.0777L29.7974 19.0041C29.4423 20.4088 28.6963 21.6705 27.6647 22.6807L27.8746 22.895ZM27.4429 24.4726C27.2783 23.9052 27.44 23.3358 27.8765 22.8932L27.6628 22.6825C27.1576 23.195 26.9571 23.8746 27.1547 24.5561L27.4429 24.4726ZM29.6105 26.4245C28.5765 26.2148 27.7517 25.482 27.4422 24.4705L27.1554 24.5583C27.4978 25.6774 28.4116 26.4874 29.5508 26.7185L29.6105 26.4245ZM33.736 27.1585L29.6069 26.4238L29.5544 26.7192L33.6834 27.4539L33.736 27.1585ZM20.7329 11.3226C21.3579 11.5254 21.999 11.7454 22.6448 11.9948L22.7528 11.7149C22.1003 11.463 21.4536 11.2411 20.8255 11.0373L20.7329 11.3226ZM20.4146 11.5207C20.4687 11.3561 20.6142 11.2825 20.7312 11.322L20.8273 11.0378C20.5096 10.9304 20.2204 11.1507 20.1296 11.427L20.4146 11.5207ZM20.6099 11.846C20.4511 11.7923 20.3739 11.6446 20.4146 11.5207L20.1296 11.427C20.0255 11.7438 20.238 12.0369 20.5139 12.1302L20.6099 11.846ZM22.2277 12.3835C21.6863 12.1776 21.1447 11.9977 20.6029 11.8438L20.5209 12.1324C21.0541 12.2838 21.5875 12.461 22.1211 12.6639L22.2277 12.3835ZM17.22 15.1494C17.768 15.0876 18.7866 14.9302 19.7914 14.5519C20.792 14.1752 21.8065 13.569 22.3079 12.5922L22.041 12.4552C21.5906 13.3327 20.6617 13.9037 19.6857 14.2712C18.7138 14.6371 17.7227 14.7908 17.1864 14.8513L17.22 15.1494ZM24.0028 7.06233C20.2898 7.06233 17.248 10.6235 17.0534 14.9936L17.3531 15.007C17.543 10.7442 20.4985 7.36233 24.0028 7.36233V7.06233ZM30.3531 12.0003C29.2706 9.09903 26.8476 7.06233 24.0028 7.06233V7.36233C26.6924 7.36233 29.0218 9.2904 30.0721 12.1052L30.3531 12.0003ZM30.0107 12.2321C30.0727 12.2006 30.1356 12.1923 30.1888 12.2008L30.2363 11.9046C30.1174 11.8855 29.9906 11.9059 29.875 11.9645L30.0107 12.2321ZM24.576 12.7197C26.3517 13.245 28.3465 13.0573 30.0095 12.2327L29.8762 11.9639C28.2794 12.7557 26.3625 12.9353 24.6611 12.432L24.576 12.7197ZM23.5054 12.3447C23.912 12.5322 24.2479 12.6461 24.5855 12.7222L24.6515 12.4295C24.3371 12.3587 24.0212 12.2522 23.6309 12.0723L23.5054 12.3447ZM22.9485 12.1142C23.1352 12.1889 23.3221 12.2662 23.509 12.3464L23.6273 12.0707C23.438 11.9894 23.2488 11.9112 23.0599 11.8356L22.9485 12.1142ZM22.7962 12.0195C22.8382 12.0337 22.8724 12.0555 22.8988 12.0816L23.1097 11.8682C23.0501 11.8094 22.9764 11.7638 22.8923 11.7353L22.7962 12.0195ZM22.7029 12.0048C22.7321 12.004 22.7635 12.0084 22.7962 12.0195L22.8923 11.7353C22.8269 11.7132 22.7603 11.7032 22.6948 11.7049L22.7029 12.0048ZM13.8256 19.4419H13.8253V19.7419H13.8256V19.4419ZM14.0421 19.3356C14.0373 19.3552 14.0203 19.381 13.9761 19.4049C13.9319 19.4287 13.8753 19.4419 13.8256 19.4419V19.7419C13.9208 19.7419 14.0271 19.7183 14.1188 19.6687C14.2104 19.6192 14.302 19.5348 14.3334 19.4074L14.0421 19.3356ZM13.9388 18.9542C14.0842 19.028 14.1202 19.1911 14.0587 19.2951L14.3169 19.4479C14.4727 19.1845 14.3638 18.8334 14.0745 18.6867L13.9388 18.9542ZM10.7896 17.4123L13.9407 18.9552L14.0726 18.6857L10.9215 17.1429L10.7896 17.4123ZM10.4468 17.5276C10.5204 17.3784 10.679 17.3457 10.7776 17.4057L10.9335 17.1495C10.6699 16.989 10.3215 17.1034 10.1777 17.3949L10.4468 17.5276ZM10.5612 17.8785C10.4158 17.8048 10.3798 17.6416 10.4414 17.5376L10.1832 17.3849C10.0274 17.6482 10.1363 17.9994 10.4255 18.1461L10.5612 17.8785ZM13.7104 19.4205L10.5593 17.8776L10.4274 18.147L13.5785 19.6899L13.7104 19.4205ZM13.8253 19.4419C13.7862 19.4419 13.7723 19.4415 13.7599 19.4394C13.7513 19.4379 13.7387 19.4348 13.7123 19.4214L13.5766 19.689C13.6226 19.7123 13.6643 19.7275 13.7099 19.7352C13.7518 19.7423 13.7921 19.7419 13.8253 19.7419V19.4419ZM33.6479 19.4378C33.7488 19.6424 33.9502 19.7419 34.1447 19.7419V19.4419C34.0494 19.4419 33.9611 19.3945 33.917 19.3052L33.6479 19.4378ZM33.9072 18.6815C33.6401 18.7898 33.5033 19.1444 33.6479 19.4378L33.917 19.3052C33.8443 19.1577 33.9249 18.9981 34.02 18.9595L33.9072 18.6815ZM37.0488 17.1429L33.8976 18.6858L34.0296 18.9552L37.1807 17.4123L37.0488 17.1429ZM37.7976 17.4063C37.6917 17.1377 37.3405 16.9949 37.0469 17.1438L37.1826 17.4114C37.3236 17.3399 37.4795 17.4175 37.5185 17.5163L37.7976 17.4063ZM37.5333 18.1513C37.8004 18.043 37.9372 17.6884 37.7926 17.395L37.5235 17.5276C37.5962 17.675 37.5156 17.8347 37.4205 17.8733L37.5333 18.1513ZM34.3917 19.6899L37.5429 18.147L37.411 17.8776L34.2598 19.4204L34.3917 19.6899ZM34.1447 19.7419C34.1823 19.7419 34.2867 19.7432 34.3936 19.6889L34.2579 19.4214C34.22 19.4406 34.1795 19.4419 34.1447 19.4419V19.7419ZM34.1067 21.6888L37.5838 21.7255L37.587 21.4255L34.1098 21.3888L34.1067 21.6888ZM33.5598 21.098C33.5598 21.4272 33.7977 21.6888 34.1083 21.6888V21.3888C33.9841 21.3888 33.8598 21.283 33.8598 21.098H33.5598ZM34.166 20.5454C33.7989 20.4923 33.5598 20.8111 33.5598 21.098H33.8598C33.8598 20.944 33.9829 20.822 34.123 20.8423L34.166 20.5454ZM37.6232 20.5806L34.1461 20.5439L34.1429 20.8439L37.62 20.8806L37.6232 20.5806ZM38.17 21.1714C38.17 20.8422 37.9321 20.5806 37.6216 20.5806V20.8806C37.7457 20.8806 37.87 20.9864 37.87 21.1714H38.17ZM37.5854 21.7255C37.9151 21.7255 38.17 21.4812 38.17 21.1714H37.87C37.87 21.3025 37.7627 21.4255 37.5854 21.4255V21.7255ZM37.2226 24.7684C37.1834 24.7684 37.1695 24.768 37.157 24.7659C37.1484 24.7644 37.1358 24.7613 37.1093 24.7479L36.9737 25.0154C37.0197 25.0388 37.0614 25.054 37.107 25.0617C37.149 25.0688 37.1894 25.0684 37.2226 25.0684V24.7684ZM37.4594 24.6156C37.4348 24.6531 37.3954 24.6936 37.3489 24.7238C37.3021 24.7544 37.2578 24.7684 37.2226 24.7684V25.0684C37.3323 25.0684 37.4329 25.0272 37.5128 24.9751C37.5931 24.9228 37.6623 24.8531 37.7101 24.7804L37.4594 24.6156ZM37.3359 24.2807C37.4812 24.3545 37.5172 24.5176 37.4557 24.6216L37.7139 24.7743C37.8697 24.511 37.7608 24.1598 37.4715 24.0132L37.3359 24.2807ZM34.2209 22.7011L37.3359 24.2807L37.4715 24.0132L34.3566 22.4336L34.2209 22.7011ZM33.88 22.8174C33.9536 22.6681 34.1122 22.6355 34.2108 22.6955L34.3668 22.4392C34.1031 22.2788 33.7547 22.3931 33.6109 22.6847L33.88 22.8174ZM33.9944 23.1683C33.849 23.0945 33.8131 22.9314 33.8746 22.8274L33.6164 22.6747C33.4606 22.938 33.5695 23.2891 33.8587 23.4358L33.9944 23.1683ZM37.1093 24.7479L33.9944 23.1683L33.8587 23.4358L36.9737 25.0154L37.1093 24.7479ZM9.79922 21.1716C9.79922 21.4728 10.0455 21.7257 10.3476 21.7257V21.4257C10.2151 21.4257 10.0992 21.3111 10.0992 21.1716H9.79922ZM10.3226 20.5829C10.0455 20.6297 9.79922 20.8662 9.79922 21.1716H10.0992C10.0992 21.0362 10.2152 20.9053 10.3726 20.8787L10.3226 20.5829ZM13.8232 20.544L10.3461 20.5808L10.3492 20.8808L13.8263 20.844L13.8232 20.544ZM14.3732 21.0981C14.3732 20.7969 14.1269 20.544 13.8247 20.544V20.844C13.9572 20.844 14.0732 20.9585 14.0732 21.0981H14.3732ZM13.8497 21.6868C14.1269 21.64 14.3732 21.4035 14.3732 21.0981H14.0732C14.0732 21.2335 13.9572 21.3644 13.7997 21.391L13.8497 21.6868ZM10.3492 21.7257L13.8263 21.6889L13.8232 21.3889L10.3461 21.4257L10.3492 21.7257ZM10.2496 24.7643C10.3505 24.9689 10.5519 25.0684 10.7463 25.0684V24.7684C10.6511 24.7684 10.5627 24.7209 10.5187 24.6316L10.2496 24.7643ZM10.5172 24.0048C10.1893 24.1157 10.1133 24.4878 10.2496 24.7643L10.5187 24.6316C10.4377 24.4673 10.5065 24.3251 10.6133 24.289L10.5172 24.0048ZM13.6123 22.4336L10.4974 24.0132L10.6331 24.2807L13.748 22.7011L13.6123 22.4336ZM14.366 22.7042C14.2575 22.374 13.889 22.2933 13.6123 22.4336L13.748 22.7011C13.906 22.621 14.0446 22.6872 14.081 22.7979L14.366 22.7042ZM14.0904 23.4441C14.4183 23.3333 14.4943 22.9612 14.358 22.6847L14.0889 22.8174C14.1699 22.9817 14.1011 23.1239 13.9943 23.16L14.0904 23.4441ZM10.9953 25.0154L14.1102 23.4358L13.9745 23.1683L10.8596 24.7479L10.9953 25.0154ZM10.8501 25.0485C10.8684 25.0431 10.8827 25.0389 10.8969 25.0358C10.9108 25.0327 10.9206 25.0316 10.9274 25.0316V24.7316C10.8596 24.7316 10.7964 24.7515 10.7647 24.7609L10.8501 25.0485ZM10.8619 25.0444L10.862 25.0444L10.7529 24.765L10.7529 24.765L10.8619 25.0444ZM10.8518 25.048L10.8519 25.0479L10.7629 24.7615L10.7628 24.7615L10.8518 25.048ZM10.8431 25.0504L10.8432 25.0504L10.7715 24.7591L10.7714 24.7591L10.8431 25.0504ZM10.7463 25.0684C10.772 25.0684 10.795 25.0634 10.8085 25.0601C10.8232 25.0565 10.8386 25.0519 10.85 25.0485L10.7646 24.7609C10.7582 24.7628 10.7531 24.7644 10.7483 24.7657C10.7436 24.767 10.7403 24.7679 10.7378 24.7685C10.7352 24.7692 10.7346 24.7692 10.7354 24.7691C10.736 24.769 10.74 24.7684 10.7463 24.7684V25.0684ZM19.9372 34.4963C20.7946 32.663 21.4896 30.7253 21.9847 28.8349L21.6945 28.7589C21.2039 30.6319 20.5151 32.5525 19.6654 34.3692L19.9372 34.4963ZM14.8677 41.3762C17.0187 39.4165 18.7335 37.1228 19.9377 34.4952L19.6649 34.3702C18.4786 36.959 16.7887 39.2203 14.6657 41.1545L14.8677 41.3762ZM12.1951 42.4072C13.1742 42.4072 14.1519 42.0259 14.8675 41.3764L14.6659 41.1543C14.0052 41.7538 13.0994 42.1072 12.1951 42.1072V42.4072ZM11.7605 42.4072H12.1951V42.1072H11.7605V42.4072ZM9.21996 39.8327C9.21996 41.236 10.3717 42.4072 11.7605 42.4072V42.1072C10.5414 42.1072 9.51996 41.0743 9.51996 39.8327H9.21996ZM10.4944 31.5596C9.65706 34.2551 9.21996 37.0251 9.21996 39.8327H9.51996C9.51996 37.0566 9.95213 34.3165 10.7809 31.6486L10.4944 31.5596ZM11.0371 29.7249L10.4938 31.5616L10.7815 31.6467L11.3248 29.8099L11.0371 29.7249ZM13.4941 27.2354C12.2841 27.5806 11.3761 28.5022 11.0364 29.7273L11.3255 29.8075C11.6377 28.6816 12.4684 27.84 13.5764 27.5239L13.4941 27.2354ZM17.4936 26.5339L13.5094 27.2319L13.5611 27.5274L17.5453 26.8294L17.4936 26.5339ZM17.6974 26.2285C17.7215 26.3749 17.623 26.5121 17.4944 26.5338L17.5444 26.8296C17.8505 26.7779 18.0418 26.4742 17.9934 26.1798L17.6974 26.2285ZM17.3996 26.0214C17.5388 25.9979 17.6753 26.0938 17.6974 26.2285L17.9934 26.1798C17.9431 25.8736 17.645 25.6757 17.3496 25.7256L17.3996 26.0214ZM13.3798 26.7193L17.4002 26.0213L17.3489 25.7257L13.3285 26.4237L13.3798 26.7193ZM13.3179 26.7215H13.3541V26.4215H13.3179V26.7215ZM10.4914 29.5538C10.9118 28.1682 11.9609 27.1057 13.3582 26.716L13.2776 26.427C11.7774 26.8454 10.6533 27.987 10.2044 29.4667L10.4914 29.5538ZM9.94844 31.3895L10.4917 29.5528L10.2041 29.4677L9.66076 31.3044L9.94844 31.3895ZM8.72312 39.8327C8.72312 36.9812 9.11962 34.1306 9.94818 31.3904L9.66102 31.3036C8.82346 34.0736 8.42312 36.9536 8.42312 39.8327H8.72312ZM11.7967 42.9521C10.1067 42.9521 8.72312 41.5519 8.72312 39.8327H8.42312C8.42312 41.7135 9.93708 43.2521 11.7967 43.2521V42.9521ZM12.2313 42.9521H11.7967V43.2521H12.2313V42.9521ZM15.2081 41.7798C14.4021 42.5262 13.3517 42.9521 12.2313 42.9521V43.2521C13.4291 43.2521 14.5518 42.7964 15.4119 41.9999L15.2081 41.7798ZM20.4263 34.7359C19.1667 37.4004 17.4399 39.7718 15.2097 41.7783L15.4103 42.0014C17.6714 39.9671 19.4217 37.563 20.6975 34.8642L20.4263 34.7359ZM22.193 30.0766C21.7169 31.6478 21.1145 33.2268 20.4254 34.7378L20.6984 34.8623C21.3927 33.3398 21.9999 31.7483 22.4801 30.1636L22.193 30.0766ZM22.1982 30.178L23.3574 32.9474L23.6342 32.8316L22.4749 30.0622L22.1982 30.178ZM23.5728 33.0183L27.6294 30.5938L27.4755 30.3363L23.4189 32.7607L23.5728 33.0183ZM27.6732 30.3761L26.4403 28.7025L26.1988 28.8804L27.4317 30.554L27.6732 30.3761ZM26.4232 28.8999L28.0546 27.3408L27.8473 27.124L26.2159 28.683L26.4232 28.8999ZM28.0613 27.1308L24.577 23.3468L24.3563 23.55L27.8406 27.334L28.0613 27.1308ZM24.5537 23.5706C24.5757 23.5549 24.5967 23.5372 24.6162 23.5174L24.4026 23.3067C24.3958 23.3136 24.3882 23.3201 24.3796 23.3263L24.5537 23.5706ZM24.6162 23.5174C24.9703 23.1583 25.1665 22.6795 25.1665 22.1631H24.8665C24.8665 22.6017 24.7005 23.0046 24.4026 23.3067L24.6162 23.5174ZM25.1665 22.1631C25.1665 21.0884 24.3025 20.2498 23.2779 20.2498V20.5498C24.1369 20.5498 24.8665 21.2541 24.8665 22.1631H25.1665ZM23.2779 20.2498H22.7709V20.5498H23.2779V20.2498ZM22.7709 20.2498H22.7346V20.5498H22.7709V20.2498ZM22.6951 20.2551C21.7211 20.5211 20.7543 21.1639 20.0488 21.9924L20.2772 22.1869C20.9482 21.399 21.8648 20.7928 22.7742 20.5445L22.6951 20.2551ZM20.0485 21.9928C19.3661 22.8002 18.9997 24.0141 18.9266 25.6093L19.2263 25.623C19.298 24.059 19.6561 22.9218 20.2776 22.1864L20.0485 21.9928ZM18.9267 25.6071C18.8194 27.3856 18.3184 29.0891 17.498 30.4999L17.7573 30.6507C18.603 29.1963 19.1162 27.4467 19.2262 25.6252L18.9267 25.6071ZM17.4974 30.501C16.7077 31.8843 15.7381 33.123 14.6232 34.2537L14.8369 34.4643C15.9677 33.3174 16.9539 32.0582 17.7579 30.6497L17.4974 30.501ZM14.6232 34.2537C13.6569 35.2338 12.5107 36.0695 11.256 36.7239L11.3948 36.9899C12.6755 36.3219 13.8473 35.4679 14.8369 34.4643L14.6232 34.2537ZM11.2575 36.7232C10.9595 36.8743 10.8686 37.2246 11.0097 37.511L11.2788 37.3784C11.2027 37.2239 11.2567 37.06 11.3932 36.9907L11.2575 36.7232ZM11.0097 37.511C11.1106 37.7156 11.312 37.8151 11.5065 37.8151V37.5151C11.4112 37.5151 11.3228 37.4677 11.2788 37.3784L11.0097 37.511ZM11.5065 37.8151C11.5328 37.8151 11.5933 37.8175 11.6489 37.7949C11.7185 37.7667 11.759 37.7126 11.7859 37.658L11.5168 37.5253C11.5118 37.5354 11.5104 37.5356 11.5139 37.5319C11.5158 37.5298 11.5189 37.5269 11.5231 37.524C11.5274 37.521 11.5319 37.5186 11.5361 37.5169C11.5441 37.5137 11.5483 37.514 11.5425 37.5145C11.5397 37.5147 11.5356 37.5149 11.5293 37.515C11.5229 37.5151 11.5158 37.5151 11.5065 37.5151V37.8151ZM11.7192 37.7254C13.1102 37.02 14.3186 36.1287 15.3802 35.0521L15.1665 34.8414C14.1274 35.8954 12.9452 36.7673 11.5835 37.4579L11.7192 37.7254ZM15.3802 35.0521C16.5479 33.8677 17.5698 32.5352 18.4093 31.0915L18.1499 30.9407C17.3233 32.3624 16.3168 33.6748 15.1665 34.8414L15.3802 35.0521ZM18.4097 31.0907C19.3273 29.4901 19.8769 27.6306 19.9868 25.6612L19.6873 25.6445C19.5799 27.569 19.0429 29.3829 18.1495 30.9415L18.4097 31.0907ZM19.9868 25.6609C20.0585 24.3166 20.3804 23.3246 20.859 22.7352L20.6261 22.5461C20.0906 23.2056 19.7605 24.2708 19.6873 25.6449L19.9868 25.6609ZM20.8554 22.7395C21.4191 22.0962 22.1562 21.6 22.8851 21.3888L22.8016 21.1006C22.0092 21.3302 21.225 21.8626 20.6297 22.5418L20.8554 22.7395ZM22.8433 21.3947H23.2779V21.0947H22.8433V21.3947ZM23.2779 21.3947C23.7002 21.3947 24.0334 21.7296 24.0334 22.1631H24.3334C24.3334 21.568 23.8699 21.0947 23.2779 21.0947V21.3947ZM24.0334 22.1631C24.0334 22.3887 23.9714 22.5685 23.8231 22.719L24.0367 22.9296C24.2506 22.7127 24.3334 22.4517 24.3334 22.1631H24.0334ZM23.8231 22.719C23.8134 22.7289 23.8041 22.7391 23.7954 22.7496L24.0268 22.9406C24.03 22.9367 24.0333 22.933 24.0367 22.9296L23.8231 22.719ZM24.0215 22.7435L23.9684 22.6859L23.7477 22.8891L23.8008 22.9467L24.0215 22.7435ZM23.9758 22.6946C23.7678 22.4309 23.4149 22.447 23.184 22.6343L23.3731 22.8673C23.5044 22.7607 23.6586 22.7768 23.7403 22.8804L23.9758 22.6946ZM23.184 22.6343C22.925 22.8445 22.9411 23.1988 23.1246 23.4314L23.3601 23.2456C23.2538 23.1109 23.2699 22.9509 23.3731 22.8673L23.184 22.6343ZM23.1319 23.4401L26.6452 27.2605L26.8661 27.0574L23.3527 23.237L23.1319 23.4401ZM26.652 27.0505L25.6906 27.9699L25.8979 28.1867L26.8593 27.2673L26.652 27.0505ZM25.915 27.9893L25.3189 27.1802L25.0774 27.3581L25.6735 28.1673L25.915 27.9893ZM25.3159 27.1763C25.1229 26.9316 24.7747 26.8758 24.5241 27.0792L24.7131 27.3122C24.8247 27.2216 24.9836 27.2393 25.0804 27.362L25.3159 27.1763ZM24.5241 27.0792C24.2831 27.2747 24.2298 27.6245 24.4284 27.8763L24.664 27.6905C24.5729 27.575 24.5919 27.4105 24.7131 27.3122L24.5241 27.0792ZM24.4254 27.8723L26.2364 30.3336L26.478 30.1558L24.667 27.6945L24.4254 27.8723ZM26.2818 30.115L23.8188 31.5477L23.9696 31.807L26.4326 30.3743L26.2818 30.115ZM24.0325 31.6191L22.8363 28.7767L22.5597 28.8931L23.756 31.7355L24.0325 31.6191ZM23.166 25.7429C23.0301 26.733 22.8219 27.7586 22.5528 28.7973L22.8432 28.8725C23.1148 27.824 23.3255 26.7869 23.4632 25.7837L23.166 25.7429ZM22.9274 25.4337C23.075 25.4586 23.1876 25.6113 23.1666 25.739L23.4626 25.7876C23.5141 25.4745 23.2645 25.1864 22.9774 25.1379L22.9274 25.4337ZM22.6296 25.6774C22.6412 25.607 22.6831 25.5379 22.7428 25.4901C22.8023 25.4425 22.8689 25.4238 22.9274 25.4337L22.9774 25.1379C22.8186 25.111 22.6679 25.1658 22.5553 25.2559C22.443 25.3459 22.3582 25.4788 22.3335 25.6288L22.6296 25.6774ZM22.031 28.656C22.2909 27.6396 22.4926 26.6377 22.6301 25.6743L22.3331 25.6319C22.1972 26.5837 21.9978 27.5749 21.7404 28.5817L22.031 28.656ZM21.7517 28.5514C21.7145 28.6253 21.6946 28.7067 21.6899 28.7882L21.9894 28.8056C21.992 28.7605 22.0028 28.7198 22.0197 28.6863L21.7517 28.5514Z" fill="#676F8F"/>
</svg>
