<svg xmlns="http://www.w3.org/2000/svg" width="24" height="24" viewBox="0 0 24 24" fill="none">
<path d="M7.45455 12.9091H2V2H18.3636V9.42818" stroke="#A3ABCC" stroke-width="1.5" stroke-miterlimit="10"/>
<path d="M11.0918 12V15.6364C11.0918 17.1427 13.5336 18.3636 16.5463 18.3636C19.5591 18.3636 22.0009 17.1427 22.0009 15.6364V12" stroke="#A3ABCC" stroke-width="1.5" stroke-miterlimit="10"/>
<path d="M11.0918 15.6367V19.2731C11.0918 20.7794 13.5336 22.0004 16.5463 22.0004C19.5591 22.0004 22.0009 20.7794 22.0009 19.2731V15.6367" stroke="#A3ABCC" stroke-width="1.5" stroke-miterlimit="10"/>
<path d="M16.5463 14.727C19.5588 14.727 22.0009 13.506 22.0009 11.9997C22.0009 10.4935 19.5588 9.27246 16.5463 9.27246C13.5339 9.27246 11.0918 10.4935 11.0918 11.9997C11.0918 13.506 13.5339 14.727 16.5463 14.727Z" stroke="#A3ABCC" stroke-width="1.5" stroke-miterlimit="10" stroke-linecap="square"/>
<path d="M10.1825 8.36408C10.6846 8.36408 11.0916 7.95707 11.0916 7.45499C11.0916 6.95291 10.6846 6.5459 10.1825 6.5459C9.68045 6.5459 9.27344 6.95291 9.27344 7.45499C9.27344 7.95707 9.68045 8.36408 10.1825 8.36408Z" stroke="#A3ABCC" stroke-width="1.5" stroke-miterlimit="10" stroke-linecap="square"/>
</svg>