<svg width="27" height="23" viewBox="0 0 27 23" fill="none" xmlns="http://www.w3.org/2000/svg">
<path d="M13.3475 7.1945C12.7271 7.19257 12.1201 7.37478 11.6033 7.71805C11.0865 8.06133 10.6832 8.55023 10.4444 9.12286C10.2057 9.69549 10.1422 10.3261 10.2621 10.9348C10.3819 11.5435 10.6797 12.103 11.1177 12.5424C11.5557 12.9818 12.1143 13.2813 12.7226 13.403C13.3309 13.5248 13.9617 13.4633 14.5351 13.2263C15.1085 12.9893 15.5986 12.5875 15.9435 12.0718C16.2884 11.5561 16.4725 10.9497 16.4725 10.3292C16.4728 9.49945 16.144 8.70339 15.5582 8.11572C14.9723 7.52805 14.1773 7.19675 13.3475 7.1945ZM13.3475 12.214C12.9743 12.2159 12.609 12.107 12.2978 11.9011C11.9865 11.6952 11.7434 11.4015 11.5993 11.0573C11.4551 10.7131 11.4164 10.3338 11.488 9.96756C11.5597 9.60132 11.7384 9.26458 12.0016 9.00001C12.2648 8.73545 12.6006 8.55497 12.9665 8.48146C13.3323 8.40794 13.7118 8.44469 14.0567 8.58705C14.4017 8.72941 14.6966 8.97098 14.9042 9.28113C15.1117 9.59128 15.2225 9.95607 15.2225 10.3292C15.2233 10.8277 15.0263 11.306 14.6748 11.6594C14.3232 12.0127 13.8459 12.2122 13.3475 12.214ZM6.78501 10.9591C6.35086 10.9579 5.92611 11.0855 5.56453 11.3258C5.20294 11.5661 4.92079 11.9083 4.75379 12.309C4.5868 12.7098 4.54246 13.1511 4.6264 13.577C4.71034 14.003 4.91878 14.3944 5.22533 14.7019C5.53188 15.0093 5.92276 15.2188 6.34847 15.304C6.77419 15.3892 7.2156 15.3461 7.61682 15.1802C8.01804 15.0144 8.36102 14.7332 8.60235 14.3723C8.84368 14.0114 8.9725 13.587 8.97251 13.1529C8.97271 12.5721 8.7425 12.0149 8.3324 11.6036C7.9223 11.1924 7.3658 10.9606 6.78501 10.9591ZM6.78501 14.0966C6.59809 14.0979 6.41501 14.0436 6.25899 13.9406C6.10298 13.8377 5.98104 13.6907 5.90865 13.5184C5.83626 13.346 5.81668 13.1561 5.85238 12.9726C5.88809 12.7891 5.97748 12.6204 6.10921 12.4878C6.24094 12.3552 6.40909 12.2647 6.59233 12.2277C6.77557 12.1908 6.96564 12.2091 7.13845 12.2804C7.31127 12.3516 7.45903 12.4726 7.56301 12.6279C7.66699 12.7832 7.7225 12.966 7.72251 13.1529C7.72294 13.4022 7.62449 13.6415 7.44876 13.8184C7.27302 13.9952 7.03432 14.0952 6.78501 14.0963V14.0966ZM19.91 5.31306C19.476 5.31191 19.0513 5.43958 18.6898 5.6799C18.3284 5.92022 18.0464 6.26238 17.8795 6.66308C17.7126 7.06377 17.6683 7.50498 17.7523 7.93083C17.8363 8.35668 18.0448 8.74804 18.3514 9.05534C18.6579 9.36265 19.0487 9.57209 19.4744 9.65715C19.9 9.74221 20.3413 9.69906 20.7424 9.53317C21.1436 9.36728 21.4864 9.0861 21.7276 8.72524C21.9689 8.36438 22.0976 7.94006 22.0975 7.506C22.0976 6.92528 21.8674 6.36823 21.4573 5.95706C21.0472 5.54588 20.4907 5.31417 19.91 5.31275V5.31306ZM19.91 8.44968C19.7232 8.45084 19.5403 8.3965 19.3844 8.29357C19.2285 8.19063 19.1067 8.04374 19.0344 7.87149C18.9621 7.69925 18.9426 7.50942 18.9783 7.32607C19.014 7.14271 19.1033 6.97409 19.235 6.84157C19.3666 6.70904 19.5347 6.61859 19.7178 6.58168C19.9009 6.54477 20.0909 6.56305 20.2636 6.63421C20.4363 6.70538 20.584 6.82622 20.6879 6.98142C20.7919 7.13662 20.8474 7.3192 20.8475 7.506C20.8479 7.7553 20.7494 7.99459 20.5737 8.17143C20.398 8.34826 20.1593 8.44821 19.91 8.44937V8.44968ZM26.5702 11.1554L25.6666 8.812C25.6647 8.80662 25.6659 8.80106 25.6638 8.79575C25.6618 8.79043 25.6573 8.78731 25.6551 8.78218L22.7316 1.20019C22.643 0.970016 22.5097 0.759616 22.3396 0.581056C22.1694 0.402497 21.9657 0.259293 21.74 0.15966C21.5144 0.0600268 21.2713 0.00592557 21.0247 0.000460068C20.7781 -0.00500544 20.5329 0.0382722 20.3031 0.12781L1.19482 7.55275C0.732572 7.73322 0.360559 8.08934 0.160074 8.54326C-0.0404098 8.99719 -0.0530629 9.51202 0.12488 9.97525L1.05657 12.3917C1.05844 12.3969 1.05726 12.4023 1.05932 12.4075C1.06182 12.4137 1.06669 12.4186 1.06938 12.4249L3.96276 19.9289C4.08572 20.2609 4.30246 20.5501 4.58665 20.7613C4.87084 20.9724 5.21025 21.0965 5.56363 21.1185C5.56988 21.1192 5.57613 21.1212 5.58238 21.1218C5.59551 21.1234 5.60638 21.1309 5.61988 21.1318L20.9525 22.0718C20.9751 22.073 20.9983 22.073 21.0208 22.073C21.3029 22.0727 21.5812 22.0089 21.8352 21.8861C22.0891 21.7634 22.3121 21.585 22.4876 21.3641C22.663 21.1433 22.7864 20.8857 22.8485 20.6106C22.9106 20.3355 22.9099 20.0499 22.8464 19.7751L22.4541 18.0828L23.9365 17.8134C24.1951 17.7628 24.4402 17.6583 24.6558 17.5067C24.8713 17.3551 25.0525 17.1598 25.1875 16.9335C25.3226 16.7072 25.4084 16.455 25.4395 16.1933C25.4705 15.9316 25.4461 15.6663 25.3678 15.4147L24.8709 13.8215L25.5002 13.5769C25.9624 13.3966 26.3345 13.0406 26.535 12.5868C26.7355 12.133 26.7481 11.6182 26.5702 11.1551V11.1554ZM6.99438 16.7747C6.05468 16.3576 4.99709 16.2889 4.01132 16.581L2.44501 12.5192C3.34279 12.0725 4.061 11.3325 4.48062 10.4217C4.90024 9.51098 4.99608 8.48418 4.75226 7.5115L17.646 2.50094C18.1167 3.3841 18.878 4.0776 19.8011 4.46419C20.7242 4.85077 21.7525 4.90672 22.7121 4.62256L24.2781 8.68375C23.3926 9.12448 22.6815 9.85086 22.2598 10.7455C21.838 11.6402 21.7302 12.651 21.9538 13.6145L9.03819 18.6332C8.57731 17.8078 7.85974 17.1553 6.99438 16.7747ZM20.7559 1.29237C20.8284 1.26441 20.9053 1.24992 20.983 1.24962C21.0697 1.24963 21.1554 1.26794 21.2344 1.30337C21.3098 1.33645 21.3779 1.38411 21.4347 1.44361C21.4916 1.50312 21.5361 1.57328 21.5657 1.65006L22.2552 3.43825C21.6095 3.61041 20.9252 3.56731 20.3062 3.31547C19.6872 3.06364 19.1672 2.61681 18.825 2.04275L20.7559 1.29237ZM1.64751 8.71793L3.57038 7.97068C3.70006 8.62684 3.61643 9.30728 3.33173 9.91251C3.04702 10.5177 2.57617 11.016 1.98801 11.3345L1.29063 9.52543C1.23139 9.37099 1.23566 9.19938 1.30253 9.04808C1.3694 8.89678 1.49342 8.77809 1.64751 8.71793ZM4.46757 17.7646C5.10066 17.5966 5.7708 17.6346 6.38082 17.8732C6.99084 18.1117 7.50905 18.5383 7.86032 19.0911L6.04882 19.7951L5.63776 19.8701C5.57765 19.8659 5.51853 19.8527 5.46238 19.8308C5.3863 19.7976 5.31762 19.7496 5.26039 19.6895C5.20316 19.6294 5.15853 19.5584 5.12913 19.4808L4.46757 17.7646ZM21.6281 20.057C21.6502 20.1504 21.6504 20.2476 21.6284 20.3411C21.6065 20.4345 21.5632 20.5216 21.5018 20.5954C21.442 20.6669 21.3672 20.7243 21.2827 20.7638C21.1982 20.8032 21.1061 20.8236 21.0129 20.8236L10.8163 20.1983L21.2225 18.3067L21.6281 20.057ZM24.1739 15.787C24.1998 15.8702 24.208 15.9579 24.1981 16.0445C24.1881 16.1311 24.1601 16.2146 24.116 16.2898C24.0719 16.3649 24.0126 16.43 23.9418 16.481C23.8711 16.5319 23.7905 16.5674 23.7052 16.5854L12.5316 18.6166L23.7026 14.2756L24.1739 15.787ZM25.0473 12.412V12.4126L23.1318 13.157C23.0218 12.5101 23.1173 11.8449 23.4049 11.2551C23.6925 10.6652 24.1576 10.1803 24.735 9.8685L25.4046 11.6049C25.4638 11.7593 25.4595 11.9308 25.3925 12.082C25.3256 12.2332 25.2016 12.3518 25.0475 12.4117L25.0473 12.412Z" fill="#9EADCC"/>
</svg>
