<svg width="15" height="14" viewBox="0 0 15 14" fill="none" xmlns="http://www.w3.org/2000/svg">
    <path fill-rule="evenodd" clip-rule="evenodd"
        d="M7.61291 0.632574C7.75805 0.890111 7.73837 1.20888 7.56265 1.44661C7.00371 2.20279 6.73475 3.13447 6.80468 4.07219C6.8746 5.00992 7.27878 5.8914 7.94369 6.55631C8.60861 7.22122 9.49009 7.6254 10.4278 7.69533C11.3655 7.76526 12.2972 7.49629 13.0534 6.93736C13.2911 6.76164 13.6099 6.74196 13.8674 6.8871C14.125 7.03224 14.2732 7.31513 14.246 7.60949C14.1278 8.88841 13.6479 10.1072 12.8623 11.1233C12.0767 12.1394 11.0179 12.9107 9.80995 13.347C8.60197 13.7834 7.29471 13.8667 6.04113 13.5871C4.78756 13.3076 3.63951 12.6769 2.73133 11.7687C1.82314 10.8605 1.19239 9.71245 0.912872 8.45887C0.633354 7.20529 0.716632 5.89803 1.15296 4.69005C1.58929 3.48208 2.36062 2.42335 3.37671 1.63775C4.39279 0.852151 5.6116 0.372176 6.89051 0.253988C7.18488 0.226785 7.46776 0.375037 7.61291 0.632574ZM5.5602 2.10098C5.10891 2.28131 4.68253 2.52418 4.2942 2.82443C3.50352 3.43576 2.90329 4.25963 2.56375 5.19964C2.22421 6.13965 2.15941 7.15692 2.37692 8.13242C2.59443 9.10792 3.08527 10.0013 3.79199 10.708C4.49871 11.4147 5.39208 11.9056 6.36758 12.1231C7.34308 12.3406 8.36035 12.2758 9.30036 11.9363C10.2404 11.5967 11.0642 10.9965 11.6756 10.2058C11.9758 9.81747 12.2187 9.3911 12.399 8.93981C11.7329 9.1566 11.0258 9.24409 10.3163 9.19118C9.02026 9.09453 7.80199 8.53593 6.88303 7.61697C5.96408 6.69801 5.40548 5.47975 5.30883 4.18374C5.25591 3.47417 5.3434 2.7671 5.5602 2.10098Z"
         />
</svg>