<svg width="48" height="48" viewBox="0 0 48 48" fill="none" xmlns="http://www.w3.org/2000/svg">
<path d="M31.5716 12.5341C35.3666 15.2163 40.1618 16.5096 42.6235 19.4792C45.1108 22.4727 45.2646 27.1187 43.2645 30.5912C41.2644 34.0398 37.0847 36.2909 33.1871 38.2787C29.315 40.2903 25.7507 42.0386 21.9044 42.3499C18.0837 42.6852 14.0065 41.5596 10.8781 39.3324C7.74973 37.1052 5.5701 33.7524 4.36493 30.1602C3.15973 26.5679 2.95459 22.6883 4.21107 19.3355C5.46757 15.9827 8.18567 13.1328 11.4422 10.283C14.6732 7.43313 18.417 4.60722 21.6992 5.22988C24.9558 5.82859 27.7765 9.85193 31.5716 12.5341Z" fill="#E9FAF5"/>
<path d="M23.0797 27.2776C22.1197 24.8082 19.8637 22.9674 17.1277 22.3837C17.4157 21.7102 18.1357 21.3062 18.9037 21.3062H19.1917C19.4797 21.3062 19.6717 21.1266 19.6717 20.8572V18.1633C19.6717 17.8939 19.4797 17.7143 19.1917 17.7143C17.2717 17.7143 15.5917 18.9266 15.0637 20.6327C14.3917 19.9143 13.4797 19.5102 12.4717 19.5102H11.5117C11.2237 19.5102 11.0317 19.6898 11.0317 19.9592C11.0317 21.0368 11.6557 22.0694 12.6637 22.6531C8.39172 24.0449 6.18372 28.4 7.67172 32.3511C9.15972 36.3021 13.8157 38.4123 18.0877 37.0205C22.3117 35.6286 24.5677 31.2735 23.0797 27.2776ZM15.8317 21.7551C15.8317 20.1837 17.0797 18.8817 18.7117 18.6572V20.4082C17.6077 20.4531 16.6477 21.1266 16.2157 22.1143L15.8317 23.0123V21.7551ZM12.0397 20.4082H12.4717C13.6237 20.4082 14.5837 21.1715 14.8237 22.2041H14.3917C13.2397 22.2041 12.2797 21.4409 12.0397 20.4082ZM22.4077 31.2286C21.7357 34.3266 18.7597 36.5715 15.3517 36.5715C11.3677 36.5715 8.15172 33.5633 8.15172 29.8368C8.15172 26.2898 11.0797 23.3715 14.8717 23.1021V24.898C14.2957 24.8531 13.8157 24.6286 13.3837 24.2694L13.2877 24.1796L12.6157 24.8082L12.7117 24.898C13.3357 25.4817 14.1997 25.8409 15.1117 25.8409H15.5917C16.5037 25.8409 17.3197 25.5266 17.9917 24.898L18.0877 24.8082L17.4157 24.1796L17.3197 24.2694C16.9837 24.5837 16.5517 24.8082 16.1197 24.898L16.7917 23.2817C20.6797 24 23.2237 27.547 22.4077 31.2286Z" fill="#676F8F"/>
<path d="M30.7118 25.796C27.2558 25.796 24.4718 28.4001 24.4718 31.6327C24.4718 34.8654 27.2558 37.4695 30.7118 37.4695C34.1678 37.4695 36.9518 34.8654 36.9518 31.6327C36.9518 28.4001 34.1678 25.796 30.7118 25.796ZM30.7118 36.5715C27.7838 36.5715 25.4318 34.3715 25.4318 31.6327C25.4318 28.8939 27.7838 26.6939 30.7118 26.6939C33.6398 26.6939 35.9918 28.8939 35.9918 31.6327C35.9918 34.3715 33.6398 36.5715 30.7118 36.5715Z" fill="#676F8F"/>
<path d="M34.3598 29.4325C34.0238 28.9836 33.5917 28.5346 33.0637 28.2652C32.7757 28.0856 32.5358 27.9958 32.2478 27.8611H32.1997C31.2397 27.5468 30.1837 27.5468 29.2237 27.8611H29.1758C28.8877 27.9509 28.6478 28.0856 28.4078 28.2203H28.3597C26.3437 29.4325 25.7677 31.9468 27.0637 33.7876C27.3997 34.2815 27.8317 34.6856 28.3597 34.9999H28.4078C28.6478 35.1346 28.8877 35.2693 29.1758 35.3591H29.2237C30.1837 35.6733 31.2397 35.6733 32.1997 35.3591H32.2478C32.5358 35.2693 32.7758 35.1346 33.0158 34.9999H33.0637C35.0797 33.7876 35.6558 31.2734 34.3598 29.4325ZM30.7118 28.4897C31.0478 28.4897 31.4318 28.5346 31.7678 28.6693L30.7118 30.6448L29.6558 28.6693C29.9918 28.5346 30.3758 28.4897 30.7118 28.4897ZM28.7918 29.0734L29.9437 31.1836H27.3997C27.5437 30.3305 28.0238 29.5672 28.7918 29.0734ZM28.7918 34.1917C28.0238 33.6978 27.5437 32.9346 27.3997 32.0815H29.9437L28.7918 34.1917ZM30.7118 34.7754C30.3758 34.7754 29.9918 34.7305 29.6558 34.5958L30.7118 32.6203L31.7678 34.5958C31.4318 34.7305 31.0478 34.7754 30.7118 34.7754ZM32.6318 34.1917L31.4797 32.0815H34.0237C33.8797 32.9346 33.3998 33.6978 32.6318 34.1917ZM31.4797 31.1836L32.6318 29.0734C33.3998 29.5672 33.8797 30.3305 34.0237 31.1836H31.4797Z" fill="#676F8F"/>
<path d="M20.6318 29.8368C20.6318 32.5755 18.2798 34.7755 15.3518 34.7755V35.6735C18.8078 35.6735 21.5918 33.0694 21.5918 29.8368H20.6318Z" fill="#676F8F"/>
<path d="M11.0318 27.1429H10.0718V28.0409H11.0318V27.1429Z" fill="#676F8F"/>
<path d="M12.9518 28.0409H11.9918V28.9388H12.9518V28.0409Z" fill="#676F8F"/>
<path d="M10.0718 28.9388H9.11182V29.8368H10.0718V28.9388Z" fill="#676F8F"/>
<path d="M11.9917 30.7347H11.0317V31.6327H11.9917V30.7347Z" fill="#676F8F"/>
<path d="M13.9118 31.6327H12.9518V32.5307H13.9118V31.6327Z" fill="#676F8F"/>
<path d="M11.0318 32.5306H10.0718V33.4286H11.0318V32.5306Z" fill="#676F8F"/>
<path d="M12.9518 33.4286H11.9918V34.3265H12.9518V33.4286Z" fill="#676F8F"/>
<path d="M36.9037 19.1062C36.9037 18.8368 36.7117 18.6572 36.4237 18.6572H34.0237C34.0237 18.5225 34.0237 18.3429 34.0237 18.2082C34.0237 15.2 31.6237 12.7307 28.4078 12.4164C28.8878 11.249 29.9438 10.5306 31.1918 10.5306V9.63269C29.9918 9.63269 28.8398 10.1715 28.1198 11.0694C27.7838 10.2164 26.8718 9.63269 25.9118 9.63269H23.9918C23.7038 9.63269 23.5118 9.81228 23.5118 10.0817C23.5118 11.3388 24.5678 12.3266 25.9118 12.3266H27.4958C24.0398 12.5062 21.3998 15.2898 21.5918 18.4776C21.7838 21.396 24.2318 23.7755 27.3517 24C30.2317 25.7511 34.1197 24.9429 35.9437 22.249C36.5677 21.3062 36.9517 20.2286 36.9037 19.1062ZM25.9118 11.4286C25.2878 11.4286 24.7598 11.0694 24.5678 10.5306H25.9118C26.5358 10.5306 27.0638 10.8898 27.2558 11.4286H25.9118ZM30.7117 20.049L31.7677 22.0245C31.0957 22.249 30.3278 22.249 29.6558 22.0245L30.7117 20.049ZM28.7917 21.6204C28.0237 21.1266 27.4958 20.3633 27.3998 19.5102H29.9438L28.7917 21.6204ZM31.4797 19.5102H34.0237C33.8797 20.3633 33.3997 21.1266 32.6318 21.6204L31.4797 19.5102ZM22.8878 16.3225C23.6558 14.6164 25.3838 13.4041 27.3517 13.2694V15.0204C27.0638 14.9755 26.8238 14.8409 26.6318 14.6613L26.2478 14.3021L25.5758 14.9306L25.9598 15.2898C26.3918 15.6939 27.0158 15.9633 27.6398 15.9633H27.9758C28.5998 15.9633 29.2238 15.7388 29.6558 15.2898L30.0398 14.9306L29.3677 14.3021L28.9838 14.6613C28.7918 14.8409 28.5518 14.9755 28.2638 15.0204V13.2694C30.9997 13.4939 33.0637 15.649 33.0637 18.1633C33.0637 18.298 33.0637 18.4776 33.0637 18.6123H24.9518C24.6638 18.6123 24.4718 18.7919 24.4718 19.0613C24.4718 20.4082 24.9518 21.7102 25.8638 22.7429C23.1758 21.7551 21.8318 18.8817 22.8878 16.3225ZM30.7117 24C27.9757 24 25.7198 22.0694 25.4318 19.5102H26.3918C26.5358 20.7225 27.2558 21.8 28.3117 22.4286H28.3598C28.5998 22.5633 28.8397 22.698 29.1277 22.7878H29.1758C30.1358 23.1021 31.1918 23.1021 32.1518 22.7878H32.1997C32.4877 22.698 32.7277 22.5633 32.9677 22.4286H33.0157C34.1197 21.7551 34.7917 20.6776 34.9357 19.5102H35.8957C35.7037 22.0694 33.4477 24 30.7117 24Z" fill="#676F8F"/>
</svg>
