<svg width="125" height="125" viewBox="0 0 125 125" fill="none" xmlns="http://www.w3.org/2000/svg">
<path d="M80.2411 14.8447H16.7048C8.50758 14.8447 1.8623 21.5313 1.8623 29.7794V104.665C1.8623 112.913 8.50758 119.6 16.7048 119.6H80.2411C88.4383 119.6 95.0836 112.913 95.0836 104.665V29.7794C95.0836 21.5313 88.4383 14.8447 80.2411 14.8447Z" fill="#1ECD96" fill-opacity="0.2"/>
<path d="M16.8351 55.7318C16.8351 40.3463 22.1349 26.1718 31.0441 14.845H16.7048C8.50758 14.8447 1.8623 21.5313 1.8623 29.7794V104.665C1.8623 112.913 8.50758 119.6 16.7048 119.6H41.5556C25.3595 106.987 16.8351 85.4622 16.8351 55.7318Z" fill="#1ECD96" fill-opacity="0.2"/>
<path d="M17.6202 107.238C15.619 107.238 13.9907 105.6 13.9907 103.586V30.8581C13.9907 28.8442 15.619 27.2058 17.6202 27.2058H79.3259C81.3273 27.2058 82.9554 28.8442 82.9554 30.8581V103.586C82.9554 105.6 81.3273 107.238 79.3259 107.238H17.6202Z" fill="white"/>
<path d="M68.0477 9.79394H56.7029C56.4474 5.44288 52.8611 1.99341 48.4727 1.99341C44.0844 1.99341 40.4981 5.44288 40.2426 9.79394H28.8978C25.5684 9.79394 22.8696 12.5095 22.8696 15.8595V24.0104C22.8696 27.3605 25.5684 30.076 28.8978 30.076H68.0474C71.3768 30.076 74.0756 27.3605 74.0756 24.0104V15.8595C74.0758 12.5095 71.377 9.79394 68.0477 9.79394Z" fill="#C7C5CB"/>
<path d="M104.604 72.3805C109.9 67.0521 111.45 59.9724 108.066 56.5676C104.682 53.1629 97.6462 54.7223 92.3506 60.0507C87.0551 65.3792 85.5053 72.4588 88.889 75.8636C92.2728 79.2684 99.3088 77.709 104.604 72.3805Z" fill="#00CD8C"/>
<path d="M92.9063 75.862C96.29 72.4573 94.7402 65.3776 89.4447 60.0492C84.1491 54.7207 77.1131 53.1613 73.7294 56.5661C70.3456 59.9708 71.8954 67.0505 77.191 72.3789C82.4865 77.7074 89.5225 79.2668 92.9063 75.862Z" fill="#60D9A7"/>
<path d="M91.1634 120.397C91.2401 120.439 91.3164 120.48 91.3928 120.521C97.2301 123.628 104.351 122.862 109.571 118.792C135.555 98.5351 121.396 58.8354 90.9143 71.7859C60.4328 58.8356 46.2736 98.5351 72.2573 118.792C77.4773 122.862 84.5987 123.628 90.4358 120.521C90.5122 120.48 90.5885 120.439 90.6652 120.397C90.8201 120.312 91.0082 120.312 91.1634 120.397Z" fill="#FEFCF5"/>
<path d="M16.8352 55.7316C16.8352 45.532 19.167 35.8655 23.3319 27.2061H17.6202C15.619 27.2061 13.9907 28.8442 13.9907 30.8583V103.586C13.9907 105.6 15.619 107.239 17.6202 107.239H29.9925C21.3322 94.5737 16.8352 77.3173 16.8352 55.7316Z" fill="#E5E5E5"/>
<path d="M68.2514 92.6372C68.2514 83.394 70.703 75.0945 76.8563 69.3982C56.7704 71.8179 50.7074 101.991 72.2576 118.792C76.9744 122.47 83.2432 123.448 88.7148 121.311C76.6921 116.601 68.2514 105.536 68.2514 92.6372Z" fill="#FBF99C"/>
<path d="M48.4799 11.4945C49.6094 11.4945 50.5252 10.5733 50.5252 9.43646C50.5252 8.29965 49.6097 7.37842 48.4799 7.37842C47.3501 7.37842 46.4346 8.29965 46.4346 9.43646C46.4346 10.5733 47.3504 11.4945 48.4799 11.4945Z" fill="#535B6C"/>
<path d="M36.2337 21.9181H60.7265C61.7375 21.9181 62.5569 21.0933 62.5569 20.0764C62.5569 19.0591 61.7375 18.2346 60.7265 18.2346H36.2337C35.2227 18.2346 34.4033 19.0591 34.4033 20.0764C34.4033 21.0933 35.223 21.9181 36.2337 21.9181Z" fill="#535B6C"/>
<path d="M70.8467 91.0546V94.5834C70.8467 95.6006 71.6661 96.4251 72.677 96.4251C73.688 96.4251 74.5074 95.6006 74.5074 94.5834V91.0546C74.5074 90.0374 73.688 89.2129 72.677 89.2129C71.6663 89.2129 70.8467 90.0374 70.8467 91.0546Z" fill="#535B6C"/>
<path d="M107.347 91.0546V94.5834C107.347 95.6006 108.167 96.4251 109.178 96.4251C110.188 96.4251 111.008 95.6006 111.008 94.5834V91.0546C111.008 90.0374 110.188 89.2129 109.178 89.2129C108.167 89.2129 107.347 90.0374 107.347 91.0546Z" fill="#535B6C"/>
<path d="M94.359 93.2682C92.5411 95.367 89.3113 95.3643 87.4956 93.2682C86.8312 92.5014 85.6752 92.4213 84.9129 93.0897C84.1509 93.758 84.0716 94.9213 84.7355 95.6881C88.0122 99.4713 93.8451 99.4676 97.1186 95.6881C97.7828 94.9213 97.7033 93.758 96.9412 93.0897C96.1794 92.4213 95.0233 92.5009 94.359 93.2682Z" fill="#535B6C"/>
<path d="M28.5433 52.0959L38.8127 46.7965C39.7122 46.3325 40.0674 45.2224 39.6063 44.3172C39.1451 43.4121 38.0419 43.0544 37.1422 43.5189L29.5382 47.4425V45.1579C29.5382 44.1406 28.7188 43.3161 27.7078 43.3161C26.6968 43.3161 25.8774 44.1406 25.8774 45.1579V50.4569C25.8777 51.8425 27.3381 52.7173 28.5433 52.0959Z" fill="#535B6C"/>
<path d="M47.5569 49.649H63.7181C64.729 49.649 65.5485 48.8245 65.5485 47.8073C65.5485 46.7901 64.729 45.9656 63.7181 45.9656H47.5569C46.546 45.9656 45.7266 46.7901 45.7266 47.8073C45.7266 48.8245 46.5462 49.649 47.5569 49.649Z" fill="#535B6C"/>
<path d="M28.5433 68.9382L38.8127 63.6391C39.7122 63.1748 40.0674 62.0648 39.6063 61.1598C39.1451 60.2548 38.0419 59.897 37.1422 60.3613L29.5382 64.2851V62.0002C29.5382 60.983 28.7188 60.1585 27.7078 60.1585C26.6968 60.1585 25.8774 60.983 25.8774 62.0002V67.2993C25.8777 68.6779 27.331 69.5638 28.5433 68.9382Z" fill="#535B6C"/>
<path d="M47.5569 66.4921H63.7181C64.729 66.4921 65.5485 65.6673 65.5485 64.6503C65.5485 63.6331 64.729 62.8086 63.7181 62.8086H47.5569C46.546 62.8086 45.7266 63.6331 45.7266 64.6503C45.7266 65.6673 46.5462 66.4921 47.5569 66.4921Z" fill="#535B6C"/>
<path d="M27.708 85.9833C28.4989 85.9833 27.9562 86.0025 38.8127 80.4812C39.7122 80.0171 40.0674 78.9071 39.6063 78.0021C39.1451 77.097 38.0419 76.7393 37.1422 77.2036L29.5382 81.1272V78.8423C29.5382 77.8253 28.7188 77.0005 27.7078 77.0005C26.6968 77.0005 25.8774 77.8253 25.8774 78.8423V84.1416C25.8777 85.1566 26.6964 85.9833 27.708 85.9833Z" fill="#535B6C"/>
<path d="M16.707 121.451H72.8697C78.4096 124.87 85.2491 125.207 90.9271 122.354C97.2556 125.532 104.974 124.728 110.708 120.258C114.165 117.562 117.073 114.433 119.352 110.956C119.909 110.107 119.676 108.964 118.832 108.404C117.988 107.844 116.853 108.079 116.296 108.928C114.239 112.067 111.604 114.899 108.466 117.346C103.829 120.961 97.413 121.729 92.0532 118.79C91.3485 118.403 90.5067 118.403 89.8032 118.789C89.7336 118.827 89.6643 118.865 89.5931 118.903C81.5784 123.169 74.3699 118.059 74.3994 118.068C73.6686 117.587 73.0954 117.128 72.3604 116.513C49.4979 97.3602 62.0883 61.5325 90.2153 73.4855C91.2633 73.9309 91.5459 73.3602 94.6022 72.3828C114.892 65.8946 126.026 85.2233 119.434 102.766C119.076 103.718 119.553 104.781 120.499 105.14C121.444 105.5 122.501 105.02 122.858 104.069C128.358 89.4315 122.827 72.96 109.511 68.5434C111.435 64.3495 111.561 59.6377 109.756 55.779C109.575 55.3913 109.265 55.0792 108.88 54.8968C105.182 53.1457 100.862 53.1911 96.9277 54.8116V29.776C96.9277 20.5241 89.4471 12.9974 80.2526 12.9974H75.3843C74.2432 10.0448 71.3902 7.9458 68.0577 7.9458H58.2868C57.2329 3.45405 53.2154 0.144043 48.4801 0.144043C43.7447 0.144043 39.7272 3.45405 38.6736 7.9458H28.9025C25.5697 7.9458 22.7169 10.0448 21.5759 12.9974H16.707C7.51253 12.9974 0.0322266 20.5241 0.0322266 29.776V104.673C0.0322266 113.924 7.51253 121.451 16.707 121.451ZM92.1345 69.3362C91.8792 69.429 91.3178 69.6407 90.9278 69.7973C86.1439 67.8704 81.0208 66.8782 75.988 67.6453C74.4302 64.6842 73.9453 61.0999 75.1481 57.9654C82.4095 55.1475 91.1979 61.3373 92.1345 69.3362ZM106.707 57.9657C107.844 60.93 107.527 64.5052 105.862 67.6632C102.644 67.1778 99.2329 67.3752 95.6817 68.2515C95.3147 65.9538 94.4104 63.6937 93.2262 61.8242C97.0953 57.5974 102.619 56.3786 106.707 57.9657ZM93.267 29.776V56.8706C92.5493 57.3892 91.6504 58.1592 90.9273 58.9066C89.1953 57.1164 87.0799 55.6776 84.7977 54.7598V30.8549C84.7977 27.8252 82.348 25.3604 79.3373 25.3604H75.7996C75.8755 24.9199 75.9172 24.4681 75.9172 24.0062V16.6808H80.2529C87.4286 16.6808 93.267 22.5552 93.267 29.776ZM28.9022 11.6295H40.2487C41.2177 11.6295 42.0188 10.8696 42.0759 9.8963C42.2757 6.49324 45.0887 3.82775 48.4798 3.82775C51.8709 3.82775 54.6839 6.49348 54.884 9.89655C54.9411 10.8696 55.7422 11.6295 56.7112 11.6295H68.0574C70.3775 11.6295 72.2562 13.5388 72.2562 15.8544C72.2277 24.3055 72.5151 24.9208 71.5249 26.385C70.7499 27.525 69.4308 28.2313 68.0574 28.2313C26.4379 28.223 28.707 28.2792 28.0596 28.1459C26.067 27.7192 24.7037 25.9761 24.7037 24.0067C24.712 15.1325 24.6781 15.8018 24.7449 15.2953C25.0182 13.2294 26.7759 11.6295 28.9022 11.6295ZM3.69295 29.776C3.69295 22.5554 9.53102 16.6808 16.707 16.6808H21.0427V24.0062C21.0427 24.4681 21.0844 24.9201 21.1603 25.3604H17.6226C14.6117 25.3604 12.1622 27.8252 12.1622 30.8549V52.9787C12.1622 53.9959 12.9817 54.8204 13.9926 54.8204C15.0036 54.8204 15.823 53.9959 15.823 52.9787V30.8549C15.823 29.8563 16.6304 29.0438 17.6226 29.0438H22.8428C24.3391 30.8733 26.5567 31.9146 28.9022 31.9146C71.2994 31.9101 68.5804 32.0241 70.0291 31.6624C71.6267 31.2497 73.0549 30.3422 74.1168 29.0438H79.3371C80.3292 29.0438 81.1367 29.8563 81.1367 30.8549V53.7585C78.3491 53.3423 75.7203 53.7226 73.4741 54.6736C72.9016 54.9157 72.4053 55.1222 72.0984 55.7787C70.389 59.4352 70.3212 64.1008 72.3368 68.5306C66.6673 70.4514 62.4112 74.488 59.8151 79.6503H47.5572C46.5462 79.6503 45.7268 80.4748 45.7268 81.492C45.7268 82.509 46.5462 83.3337 47.5572 83.3337H58.3024C58.2722 83.4251 58.1002 83.9748 58.0155 84.2655V84.2658C55.9736 91.2798 56.7488 98.8378 59.5242 105.404H17.6226C16.6304 105.404 15.823 104.592 15.823 103.593V60.3459C15.823 59.3286 15.0036 58.5041 13.9926 58.5041C12.9817 58.5041 12.1622 59.3286 12.1622 60.3459V103.593C12.1622 106.623 14.6119 109.088 17.6226 109.088H61.3482C63.0866 112.134 65.3645 115.068 68.2383 117.768H16.707C9.53102 117.768 3.69295 111.893 3.69295 104.673V29.776Z" fill="#535B6C"/>
</svg>
