<svg width="48" height="48" viewBox="0 0 48 48" fill="none" xmlns="http://www.w3.org/2000/svg">
<path d="M38.6629 10.9861C42.8438 12.6996 45.9667 17.9157 44.9593 22.1491C43.952 26.3825 38.8142 29.5826 34.6334 32.5057C30.4527 35.4288 27.2542 38.0494 23.4009 38.6794C19.5475 39.3092 15.0898 37.9485 11.035 35.0256C7.00538 32.1025 3.37873 27.6423 3.42911 23.2074C3.47947 18.7725 7.20687 14.4131 11.2365 12.7248C15.2913 11.0113 19.6483 11.9941 24.4587 11.5657C29.2691 11.1373 34.4823 9.29781 38.6629 10.9861Z" fill="#E9FAF5"/>
<path d="M18.9911 17.5501C18.6759 17.5501 18.4199 17.8015 18.4199 18.1112C18.4199 18.421 18.6759 18.6724 18.9911 18.6724C19.3064 18.6724 19.5622 18.421 19.5622 18.1112C19.5622 17.8015 19.3064 17.5501 18.9911 17.5501Z" fill="#676F8F"/>
<path d="M24.1312 28.0432H22.4179V26.3597C22.4179 26.0498 22.1621 25.7987 21.8466 25.7987C21.5312 25.7987 21.2756 26.0498 21.2756 26.3597V28.0432H19.5621C19.2469 28.0432 18.9911 28.2945 18.9911 28.6042C18.9911 28.9141 19.2469 29.1654 19.5621 29.1654H21.2756V30.8487C21.2756 31.1586 21.5314 31.4099 21.8466 31.4099C22.1621 31.4099 22.4179 31.1586 22.4179 30.8487V29.1654H24.1312C24.4466 29.1654 24.7024 28.9141 24.7024 28.6042C24.7024 28.2943 24.4466 28.0432 24.1312 28.0432Z" fill="#676F8F"/>
<path d="M39.5464 28.5481C38.2838 26.3998 35.4922 25.6644 33.305 26.905L30.985 28.2211V23.3482C30.985 22.7458 30.7822 22.148 30.4139 21.6648L27.5584 17.9241V16.3313C28.223 16.0996 28.7007 15.4759 28.7007 14.7444V12.1632C28.7005 11.235 27.9319 10.4799 26.9872 10.4799H16.7066C15.7618 10.4799 14.9932 11.235 14.9932 12.1632V14.7444C14.9932 15.4759 15.4707 16.0997 16.1354 16.3313V17.9242L13.2796 21.6651C12.9114 22.1481 12.7086 22.7458 12.7086 23.3482V34.2156C12.7086 35.7624 13.9897 37.0211 15.5643 37.0211H24.743C26.0237 39.1301 28.7851 39.8359 30.9495 38.608L37.8742 34.6801C40.042 33.4502 40.8153 30.7083 39.5464 28.5481ZM16.1354 12.1632C16.1354 11.8538 16.3917 11.6021 16.7064 11.6021H26.987C27.302 11.6021 27.5582 11.8538 27.5582 12.1632V14.7444C27.5582 15.0539 27.302 15.3055 26.987 15.3055H16.7066C16.3917 15.3055 16.1355 15.0538 16.1355 14.7444V12.1632H16.1354ZM14.1936 22.3381L17.1634 18.4479C17.2377 18.3508 17.2777 18.2326 17.2777 18.1112V16.4278H26.4159V17.5501H21.2757C20.9602 17.5501 20.7045 17.8014 20.7045 18.1112C20.7045 18.4211 20.9602 18.6724 21.2757 18.6724H26.7016L29.4998 22.338C29.6827 22.5778 29.7963 22.8649 29.8306 23.1614H13.863C13.8973 22.8648 14.0109 22.5778 14.1936 22.3381ZM15.5643 35.8988C14.6196 35.8988 13.8509 35.1438 13.8509 34.2156V33.6488H24.2275C24.0464 34.3763 24.0476 35.1533 24.255 35.8988H15.5643ZM24.6756 32.5321H13.8509V24.2835H29.8427V28.8689L26.3805 30.833C25.6585 31.2427 25.075 31.8259 24.6756 32.5321ZM30.3785 37.6361C28.7395 38.566 26.645 38.0161 25.6979 36.4045C24.7461 34.7775 25.323 32.729 26.9517 31.8048L30.0517 30.0463L33.4787 35.8776L30.3785 37.6361ZM37.303 33.7082L34.4679 35.3164L31.0409 29.4851L33.8762 27.8771C35.5164 26.9468 37.61 27.4977 38.5571 29.1091C39.5083 30.7288 38.9299 32.7851 37.303 33.7082Z" fill="#676F8F"/>
</svg>
