<?xml version="1.0" standalone="no"?>
<!DOCTYPE svg PUBLIC "-//W3C//DTD SVG 20010904//EN"
 "http://www.w3.org/TR/2001/REC-SVG-20010904/DTD/svg10.dtd">
<svg version="1.0" xmlns="http://www.w3.org/2000/svg"
 width="1080.000000pt" height="1080.000000pt" viewBox="0 0 1080.000000 1080.000000"
 preserveAspectRatio="xMidYMid meet">

<g transform="translate(0.000000,1080.000000) scale(0.100000,-0.100000)"
fill="#000000" stroke="none">
<path d="M3982 8104 c-21 -14 -22 -21 -22 -167 l0 -153 -255 -329 -256 -330 3
-188 c3 -173 5 -190 22 -203 16 -11 68 -14 253 -14 l233 0 0 -130 0 -130 -137
0 c-260 0 -406 -43 -573 -169 l-54 -41 -116 0 c-63 0 -132 -5 -152 -10 -61
-17 -77 -72 -33 -116 l25 -25 168 3 167 3 65 54 c81 68 200 126 288 141 45 7
230 10 577 8 l510 -3 72 -26 c107 -39 193 -103 343 -253 l135 -136 -188 0
c-174 0 -188 -1 -207 -20 -27 -27 -26 -81 1 -106 20 -18 51 -19 1000 -19 l979
0 0 -685 0 -685 -163 -163 -162 -162 -1247 0 -1248 0 -2 584 c-3 558 -4 585
-22 605 -28 31 -79 28 -105 -5 -20 -25 -21 -40 -21 -217 l0 -189 -152 5 c-181
6 -235 18 -373 87 l-100 50 -158 0 c-154 0 -158 -1 -182 -25 -44 -43 -28 -98
34 -115 22 -6 93 -9 159 -8 111 2 122 0 163 -24 127 -73 264 -107 466 -115
l142 -6 3 -368 c3 -338 4 -370 21 -386 17 -17 83 -18 1249 -21 l1232 -2 -132
-133 c-150 -152 -173 -190 -180 -304 l-5 -73 -586 0 c-355 0 -611 -4 -650 -10
-114 -19 -200 -81 -248 -178 -23 -48 -28 -70 -28 -137 0 -104 27 -167 101
-234 101 -92 10 -86 1174 -89 564 -2 1041 0 1060 3 29 6 82 53 316 286 l280
279 208 0 c206 0 207 0 231 25 44 43 28 98 -33 114 -29 7 -362 9 -456 2 -11 0
-142 -123 -301 -281 l-281 -280 -1010 0 -1010 0 -44 23 c-115 57 -122 223 -13
297 l37 25 659 3 660 3 59 -40 c33 -22 82 -47 110 -57 67 -22 167 -15 228 16
54 27 558 523 566 556 13 53 -33 102 -83 89 -18 -4 -119 -97 -283 -260 -220
-219 -260 -254 -293 -260 -86 -16 -168 19 -203 87 -25 48 -21 119 9 170 14 24
187 204 384 401 l359 357 455 0 c522 0 502 -3 497 78 -4 69 -14 72 -260 72
l-208 0 0 1135 0 1135 233 0 c185 0 237 3 253 14 17 13 19 30 22 204 3 188 3
189 -21 218 -14 16 -129 164 -256 328 l-231 299 0 153 c0 147 -1 153 -22 168
-20 14 -200 16 -1723 16 -1523 0 -1703 -2 -1723 -16z m3348 -199 l0 -85 -1625
0 -1625 0 0 85 0 85 1625 0 1625 0 0 -85z m206 -432 c92 -120 183 -237 202
-260 l34 -43 -2067 0 -2067 0 29 38 c16 20 107 137 202 260 l172 222 1664 0
1664 0 167 -217z m294 -528 l0 -105 -2130 0 -2130 0 0 98 c0 54 3 102 7 105 3
4 962 7 2130 7 l2123 0 0 -105z m-500 -1360 l0 -1135 -175 0 -174 0 -3 701 -3
701 -24 19 c-22 18 -50 19 -763 19 l-740 0 -222 218 c-213 210 -224 220 -316
264 -157 76 -183 81 -527 85 l-303 5 0 129 0 129 1625 0 1625 0 0 -1135z"/>
<path d="M4275 6045 c-52 -51 -51 -53 284 -390 170 -170 316 -324 325 -342 21
-43 20 -78 -4 -128 -33 -69 -130 -106 -193 -74 -12 6 -146 134 -297 284 -151
150 -285 276 -297 279 -27 8 -43 0 -125 -62 -105 -79 -175 -105 -298 -110 -99
-4 -111 -2 -216 32 -61 20 -120 36 -132 36 -25 0 -62 -45 -62 -75 0 -65 203
-144 367 -145 130 0 296 50 397 120 25 16 46 30 48 30 2 0 116 -112 253 -248
283 -282 303 -296 420 -296 169 0 298 128 298 295 0 116 -18 141 -294 423
-277 282 -400 396 -430 396 -11 0 -31 -11 -44 -25z"/>
<path d="M5120 5590 c-32 -32 -30 -75 6 -107 l25 -23 518 0 c403 0 521 -3 528
-12 6 -7 16 -31 23 -53 33 -105 119 -198 228 -246 37 -17 74 -34 82 -38 12 -7
15 -43 18 -215 l2 -206 -27 -11 c-194 -78 -241 -125 -321 -321 l-12 -28 -769
0 c-603 0 -771 3 -778 13 -5 6 -18 35 -28 62 -10 28 -33 73 -51 101 -52 78
-99 111 -246 172 l-28 12 0 185 c0 204 -9 249 -52 260 -35 9 -77 -11 -88 -40
-15 -40 -13 -484 3 -515 13 -26 27 -32 119 -50 119 -23 193 -105 222 -245 9
-41 22 -74 32 -82 14 -10 193 -13 895 -13 962 0 902 -4 915 58 26 127 45 171
91 213 46 44 80 57 205 83 59 13 58 8 58 355 0 361 4 343 -85 356 -69 9 -133
39 -178 83 -51 48 -65 79 -82 165 -22 117 35 107 -631 107 -561 0 -574 0 -594
-20z"/>
<path d="M5667 4893 c-65 -186 -117 -341 -117 -345 0 -7 130 -12 130 -5 0 2
25 75 56 163 31 87 84 241 119 342 l64 182 -67 0 -68 0 -117 -337z"/>
<path d="M5256 5126 c-88 -33 -130 -90 -123 -169 7 -78 48 -111 182 -146 90
-23 116 -41 95 -66 -20 -25 -141 -17 -196 12 l-42 22 -25 -57 c-14 -31 -24
-59 -21 -63 2 -4 30 -18 62 -30 81 -31 220 -32 278 -1 47 24 91 72 100 108 11
42 -4 95 -33 127 -33 34 -52 43 -152 68 -88 23 -105 34 -91 60 17 30 73 34
147 10 36 -12 66 -20 68 -19 1 2 12 27 24 57 18 44 20 55 9 62 -51 34 -219 48
-282 25z"/>
</g>
</svg>
