<svg width="48" height="48" viewBox="0 0 48 48" fill="none" xmlns="http://www.w3.org/2000/svg">
<path d="M35.9113 10.4844C38.3845 12.6563 39.633 15.8583 40.6175 19.0378C41.5779 22.2397 42.2502 25.4193 41.698 28.5988C41.1457 31.7783 39.3449 34.9579 36.5356 36.682C33.7503 38.4061 29.9565 38.6749 26.3308 38.4733C22.7052 38.2494 19.2716 37.5105 17.0385 35.6072C14.8055 33.7264 13.797 30.6364 11.8281 27.3225C9.83517 23.9863 6.90582 20.3813 6.85777 16.7763C6.80977 13.1937 9.66712 9.58875 13.3648 7.77505C17.0625 5.98376 21.6006 5.96137 25.7066 6.54354C29.8125 7.12569 33.4622 8.29003 35.9113 10.4844Z" fill="#E9FAF5"/>
<path d="M12.9258 23.0349V24.1115C12.9258 24.6826 13.1683 25.2303 13.6 25.6341C14.0318 26.038 14.6174 26.2648 15.2279 26.2648H17.2422V28.4181L16.8393 28.5366C16.725 28.5727 16.6258 28.6415 16.5555 28.7333C16.4853 28.825 16.4477 28.9351 16.448 29.048V30.0331C16.4489 31.0147 16.6582 31.9864 17.0638 32.8916L14.8365 34.9858C14.406 35.3894 14.1642 35.9363 14.1642 36.5065C14.1642 37.0767 14.406 37.6236 14.8365 38.0273L15.6538 38.7971C15.8676 38.9973 16.1215 39.1561 16.4009 39.2645C16.6804 39.3729 16.98 39.4286 17.2825 39.4286C17.585 39.4286 17.8846 39.3729 18.1641 39.2645C18.4435 39.1561 18.6974 38.9973 18.9112 38.7971L21.0521 36.7945C22.1094 37.2683 23.2668 37.5143 24.4391 37.5143C25.6114 37.5143 26.7688 37.2683 27.826 36.7945L29.967 38.7971C30.1808 38.9973 30.4347 39.1561 30.7142 39.2645C30.9936 39.3729 31.2932 39.4286 31.5957 39.4286C31.8982 39.4286 32.1978 39.3729 32.4773 39.2645C32.7567 39.1561 33.0106 38.9973 33.2245 38.7971L34.0359 38.0327C34.4665 37.629 34.7082 37.0821 34.7082 36.5119C34.7082 35.9417 34.4665 35.3948 34.0359 34.9911L31.8086 32.9078C32.2165 31.9975 32.4258 31.0201 32.4244 30.0331V29.2472C32.4248 29.1372 32.3892 29.0297 32.3223 28.9392C32.2554 28.8487 32.1605 28.7796 32.0504 28.7411L31.6302 28.6066V26.2648H33.6446C34.2551 26.2648 34.8407 26.038 35.2724 25.6341C35.7041 25.2303 35.9466 24.6826 35.9466 24.1115V23.0349C35.9466 22.4638 35.7041 21.9161 35.2724 21.5122C34.8407 21.1084 34.2551 20.8816 33.6446 20.8816H28.5627C29.5697 20.3299 30.4075 19.5446 30.9953 18.6016C31.583 17.6586 31.9009 16.5897 31.918 15.4982C31.918 11.9345 28.5627 9.03833 24.4362 9.03833H24.4017C20.2925 9.03833 16.9544 11.9453 16.9544 15.4982C16.9716 16.5897 17.2894 17.6586 17.8772 18.6016C18.4649 19.5446 19.3028 20.3299 20.3097 20.8816H15.2279C14.6174 20.8816 14.0318 21.1084 13.6 21.5122C13.1683 21.9161 12.9258 22.4638 12.9258 23.0349ZM18.1055 38.0327C17.9985 38.1336 17.8712 38.2137 17.7309 38.2683C17.5907 38.323 17.4402 38.3511 17.2883 38.3511C17.1363 38.3511 16.9859 38.323 16.8456 38.2683C16.7053 38.2137 16.578 38.1336 16.471 38.0327L15.6595 37.2682C15.5525 37.1682 15.4676 37.0495 15.4097 36.9188C15.3517 36.7881 15.3219 36.648 15.3219 36.5065C15.3219 36.365 15.3517 36.2249 15.4097 36.0942C15.4676 35.9635 15.5525 35.8448 15.6595 35.7448L18.0249 33.5322L18.1285 33.4461C18.2089 33.3812 18.2956 33.3235 18.3875 33.2738L18.4911 33.2308C18.5527 33.2021 18.6161 33.177 18.681 33.1554L18.8076 33.1231L18.9803 33.0855H19.1126H19.2853H19.4695H19.6076L19.7917 33.1339L19.9184 33.1716C19.9837 33.1984 20.0471 33.2289 20.1083 33.2631L20.2119 33.3169C20.4196 33.4473 20.5946 33.6183 20.7246 33.8181C20.8547 34.0179 20.9368 34.2418 20.9653 34.4742C20.9937 34.7067 20.9679 34.9421 20.8895 35.1643C20.8111 35.3864 20.682 35.59 20.5112 35.7609L20.4766 35.7986L18.1055 38.0327ZM21.7831 35.9547C21.8291 35.874 21.8636 35.7932 21.9039 35.7125V35.6748C21.9605 35.5367 22.0047 35.3944 22.0363 35.2495V35.1473C22.1184 34.7243 22.089 34.2889 21.9506 33.879C21.8122 33.4691 21.569 33.0969 21.2421 32.7947C21.1215 32.6835 20.9906 32.5826 20.8507 32.4933L20.7068 32.4125C20.614 32.359 20.5179 32.3104 20.4191 32.2672L20.2694 32.1864L19.9932 32.1003L19.786 32.0519L19.527 32.0195H19.2968H19.1069C18.9128 32.0264 18.72 32.0517 18.5314 32.0949H18.4105C18.307 32.1199 18.2052 32.1505 18.1055 32.1864L17.9961 32.2241C17.7274 31.5212 17.593 30.7796 17.599 30.0331V29.4248C18.0652 29.2848 18.5371 29.1664 19.0091 29.0587L19.5328 28.9457C21.0445 28.6317 22.5884 28.4728 24.137 28.472C25.6186 28.4751 27.0959 28.6212 28.5455 28.908L28.9886 29.0049C29.6159 29.1395 30.2547 29.3118 30.8936 29.5056H30.9223L31.2907 29.6186V30.0331C31.2926 30.7842 31.1522 31.5296 30.8763 32.2349C30.813 32.208 30.7497 32.1918 30.6806 32.1649L30.5252 32.1111C30.3952 32.0736 30.2625 32.0448 30.1281 32.0249H30.0476C29.8867 32.0123 29.725 32.0123 29.5641 32.0249H29.4317C29.3139 32.0326 29.1966 32.0469 29.0807 32.068L28.9138 32.1057C28.8084 32.1307 28.7047 32.1612 28.603 32.1972L28.4418 32.2618C28.3369 32.308 28.235 32.3601 28.1368 32.4179L28.0045 32.4933C27.6183 32.7329 27.301 33.0574 27.0802 33.4385C26.8595 33.8196 26.7421 34.2455 26.7383 34.6789C26.74 34.8305 26.7554 34.9819 26.7843 35.1311V35.2334C26.8156 35.3801 26.8599 35.5242 26.9167 35.664C26.9523 35.7502 26.9927 35.8347 27.0376 35.917C25.359 36.5733 23.4722 36.5868 21.7831 35.9547ZM33.5582 36.4931C33.5585 36.7774 33.4385 37.0502 33.2245 37.2521L32.4187 38.0111C32.3117 38.112 32.1844 38.1921 32.0441 38.2468C31.9039 38.3015 31.7534 38.3296 31.6015 38.3296C31.4495 38.3296 31.2991 38.3015 31.1588 38.2468C31.0185 38.1921 30.8912 38.112 30.7842 38.0111L28.4246 35.804L28.3843 35.7609C28.2135 35.59 28.0844 35.3864 28.006 35.1643C27.9276 34.9421 27.9017 34.7067 27.9302 34.4742C27.9587 34.2418 28.0407 34.0179 28.1708 33.8181C28.3009 33.6183 28.4759 33.4473 28.6836 33.3169L28.7584 33.2792C28.8284 33.2385 28.9015 33.2025 28.9771 33.1716H29.0519C29.1305 33.1427 29.2113 33.1193 29.2936 33.1016H29.3454C29.4393 33.0944 29.5336 33.0944 29.6274 33.1016C30.0503 33.1034 30.4586 33.2466 30.7785 33.5053L30.8533 33.5699L33.2187 35.7825C33.4226 35.9714 33.5438 36.2249 33.5582 36.4931ZM18.1055 15.4982C18.1349 14.4329 18.5018 13.3997 19.1595 12.5296C19.8173 11.6594 20.7364 10.9914 21.8003 10.6103C21.6049 10.9748 21.5212 11.3829 21.5586 11.7892C21.6082 12.1372 21.7365 12.4713 21.935 12.7693C22.1335 13.0672 22.3976 13.3222 22.7097 13.5172C23.1043 13.7779 23.5733 13.9222 24.0564 13.9317C24.2275 13.9316 24.3979 13.9098 24.5629 13.8672C24.8791 13.7766 25.1721 13.6262 25.4236 13.4252C25.6751 13.2243 25.8797 12.977 26.0246 12.699C26.1265 12.5177 26.1849 12.3179 26.1959 12.1133C26.2068 11.9088 26.1699 11.7045 26.088 11.5146C25.9586 11.2603 25.7605 11.0421 25.5131 10.8816C25.2658 10.7211 24.9779 10.6238 24.678 10.5995C24.3822 10.6023 24.0943 10.6886 23.852 10.8471C23.6096 11.0056 23.4241 11.2289 23.3197 11.4877C23.2573 11.6148 23.2502 11.7597 23.3 11.8916C23.3498 12.0236 23.4526 12.1322 23.5865 12.1944C23.7204 12.2568 23.875 12.2678 24.0175 12.2253C24.16 12.1828 24.2792 12.0901 24.3499 11.9668C24.3844 11.8968 24.5225 11.6761 24.6492 11.6707C24.7304 11.687 24.8069 11.7194 24.8735 11.7658C24.94 11.8123 24.995 11.8717 25.0347 11.9399C25.0475 11.988 25.05 12.0379 25.0421 12.0869C25.0342 12.1358 25.0161 12.1828 24.9887 12.2252C24.8401 12.496 24.587 12.7038 24.2809 12.8066C24.1233 12.8332 23.9616 12.8287 23.806 12.7935C23.6504 12.7583 23.5044 12.6931 23.3773 12.6021C23.2036 12.498 23.0547 12.3616 22.9398 12.2014C22.825 12.0412 22.7466 11.8605 22.7097 11.6707C22.6984 11.5002 22.7242 11.3292 22.7856 11.1682C22.8469 11.0072 22.9424 10.8596 23.0665 10.7341C23.2393 10.5508 23.4494 10.4017 23.6846 10.2953C23.9198 10.189 24.1754 10.1277 24.4362 10.115C27.9181 10.115 30.767 12.5321 30.767 15.4982C30.767 18.4644 27.9296 20.8816 24.4362 20.8816C20.9428 20.8816 18.1055 18.4644 18.1055 15.4982ZM33.6446 21.9582C33.9498 21.9582 34.2426 22.0716 34.4585 22.2735C34.6743 22.4754 34.7956 22.7493 34.7956 23.0349V24.1115C34.7956 24.3971 34.6743 24.6709 34.4585 24.8728C34.2426 25.0747 33.9498 25.1882 33.6446 25.1882H31.0547C30.9021 25.1882 30.7557 25.2449 30.6478 25.3459C30.5398 25.4468 30.4792 25.5837 30.4792 25.7265V28.262C29.9535 28.1185 29.4202 27.9911 28.8793 27.8798C25.941 27.2006 22.8752 27.1619 19.9184 27.7668C19.4081 27.8565 18.8997 27.9642 18.3933 28.0897V25.7265C18.3933 25.5837 18.3326 25.4468 18.2247 25.3459C18.1167 25.2449 17.9703 25.1882 17.8177 25.1882H15.2279C14.9226 25.1882 14.6298 25.0747 14.414 24.8728C14.1981 24.6709 14.0768 24.3971 14.0768 24.1115V23.0349C14.0768 22.7493 14.1981 22.4754 14.414 22.2735C14.6298 22.0716 14.9226 21.9582 15.2279 21.9582H33.6446Z" fill="#676F8F"/>
<path d="M21.5585 16.0366C22.1942 16.0366 22.7096 15.5546 22.7096 14.96C22.7096 14.3653 22.1942 13.8833 21.5585 13.8833C20.9228 13.8833 20.4075 14.3653 20.4075 14.96C20.4075 15.5546 20.9228 16.0366 21.5585 16.0366Z" fill="#676F8F"/>
<path d="M27.3138 16.0366C27.9495 16.0366 28.4648 15.5546 28.4648 14.96C28.4648 14.3653 27.9495 13.8833 27.3138 13.8833C26.678 13.8833 26.1627 14.3653 26.1627 14.96C26.1627 15.5546 26.678 16.0366 27.3138 16.0366Z" fill="#676F8F"/>
<path d="M21.1212 17.5652C21.1212 17.5652 22.814 18.7013 24.0678 18.7711C25.5216 18.8519 27.567 17.5652 27.567 17.5652" stroke="#676F8F" stroke-width="0.5"/>
</svg>
