<svg width="42" height="45" viewBox="0 0 42 45" fill="none" xmlns="http://www.w3.org/2000/svg">
<path d="M9.0675 25.9746C6.84265 25.9746 4.70893 26.9267 3.13573 28.6214C1.56253 30.3161 0.678711 32.6146 0.678711 35.0113C0.678711 37.408 1.56253 39.7065 3.13573 41.4012C4.70893 43.0959 6.84265 44.048 9.0675 44.048H20.9516V25.9746H9.0675Z" fill="#DEF4EC"/>
<path d="M10.1089 21.8642C9.03176 23.0226 8.26804 24.4754 7.8999 26.0663H7.94464C8.31657 26.0091 8.69165 25.9789 9.06734 25.9759H30.2987L30.5217 25.7425L18.5187 12.8125L10.1089 21.8642Z" fill="#DEF4EC"/>
<path d="M32.8356 25.2224H31.7052L39.2789 17.0645C40.1355 16.1585 40.817 15.0787 41.2841 13.8874C41.7511 12.6961 41.9944 11.417 41.9999 10.1238C42.0054 8.83062 41.773 7.5491 41.3162 6.35322C40.8593 5.15735 40.1871 4.07083 39.3382 3.15641C38.4894 2.242 37.4808 1.51781 36.3706 1.02568C35.2605 0.533548 34.0708 0.283224 32.8704 0.289166C31.6699 0.295108 30.4825 0.557198 29.3766 1.0603C28.2707 1.5634 27.2683 2.29754 26.4273 3.22032L9.61477 21.3313C8.56124 22.468 7.7834 23.8663 7.3498 25.4031C5.13413 25.8682 3.15844 27.2049 1.80742 29.153C0.456392 31.101 -0.173255 33.521 0.0410777 35.9417C0.25541 38.3624 1.29838 40.6105 2.96691 42.2483C4.63543 43.8861 6.81008 44.7964 9.0674 44.8019H32.8356C35.2459 44.8019 37.5574 43.7705 39.2617 41.9345C40.966 40.0986 41.9235 37.6085 41.9235 35.0121C41.9235 32.4157 40.966 29.9257 39.2617 28.0897C37.5574 26.2538 35.2459 25.2224 32.8356 25.2224ZM27.4158 4.2874C28.8675 2.78709 30.8073 1.95942 32.819 1.98191C34.8307 2.00439 36.7541 2.87524 38.1767 4.40768C39.5992 5.94011 40.4077 8.01207 40.4285 10.1791C40.4494 12.3462 39.6811 14.4358 38.2883 15.9997L30.3819 24.5266L19.5037 12.8082L27.4158 4.2874ZM10.6053 22.3969L18.5153 13.8731L29.0509 25.2224H9.0674C9.00519 25.2224 8.94507 25.2314 8.88285 25.2322C9.26953 24.1693 9.85596 23.2041 10.6053 22.3969ZM1.37769 35.0121C1.38009 32.816 2.19103 30.7105 3.63261 29.1576C5.07419 27.6047 7.0287 26.7311 9.0674 26.7285H20.2524V43.2958H9.0674C7.0287 43.2932 5.07419 42.4196 3.63261 40.8667C2.19103 39.3138 1.38009 37.2083 1.37769 35.0121ZM32.8356 43.2958H21.6506V26.7285H32.8356C34.8751 26.7285 36.831 27.6012 38.2731 29.1547C39.7152 30.7082 40.5253 32.8152 40.5253 35.0121C40.5253 37.2091 39.7152 39.3161 38.2731 40.8695C36.831 42.423 34.8751 43.2958 32.8356 43.2958Z" fill="#1ECD96"/>
<path d="M4.17377 35.0117H2.77563C2.77749 36.8086 3.44094 38.5313 4.62044 39.8019C5.79994 41.0725 7.39916 41.7872 9.06722 41.7892V40.2831C7.76985 40.2815 6.52604 39.7256 5.60866 38.7374C4.69128 37.7492 4.17525 36.4093 4.17377 35.0117Z" fill="#1ECD96"/>
<path d="M32.8354 28.2344V29.7405C34.1328 29.7421 35.3766 30.298 36.294 31.2862C37.2114 32.2744 37.7274 33.6143 37.7289 35.0119H39.127C39.1252 33.215 38.4617 31.4923 37.2822 30.2217C36.1027 28.9511 34.5035 28.2364 32.8354 28.2344Z" fill="#1ECD96"/>
<path d="M32.8522 4.87511C33.4941 4.87266 34.1302 5.00714 34.7236 5.27081C35.317 5.53448 35.8561 5.92211 36.3098 6.41135L37.2969 5.34502C36.1153 4.07875 34.5162 3.36829 32.8496 3.36914C31.1829 3.36999 29.5845 4.08207 28.4041 5.34954L29.3925 6.41436C29.8462 5.92434 30.3856 5.53602 30.9794 5.27182C31.5732 5.00763 32.2097 4.87279 32.8522 4.87511Z" fill="#1ECD96"/>
</svg>
