<svg width="42" height="45" viewBox="0 0 42 45" fill="none" xmlns="http://www.w3.org/2000/svg">
<path d="M4.07444 41.0937C8.28024 45.2202 14.8291 45.0191 18.8028 40.642C22.7765 36.2644 22.7133 29.321 18.6606 25.0257C14.6079 20.7304 8.05671 20.6634 3.92679 24.875C-0.203478 29.0866 -0.393174 36.0275 3.50022 40.4855C3.68103 40.6992 3.87244 40.9021 4.07444 41.0937Z" fill="#DEF4EC"/>
<path d="M41.2999 6.96567C41.2999 5.32681 40.0462 3.99805 38.4999 3.99805H6.29999C4.75371 3.99805 3.5 5.32681 3.5 6.96567V11.4171H41.2999V6.96567Z" fill="#DEF4EC"/>
<path d="M38.5 3.25668H37.1V1.03097C37.1 0.621253 36.7866 0.289062 36.4 0.289062C36.0134 0.289062 35.7 0.621253 35.7 1.03097V3.25668H30.1V1.03097C30.1 0.621253 29.7866 0.289062 29.4 0.289062C29.0135 0.289062 28.7 0.621253 28.7 1.03097V3.25668H23.1V1.03097C23.1 0.621253 22.7866 0.289062 22.4001 0.289062C22.0135 0.289062 21.7001 0.621253 21.7001 1.03097V3.25668H16.1001V1.03097C16.1001 0.621253 15.7866 0.289062 15.4001 0.289062C15.0135 0.289062 14.7001 0.621253 14.7001 1.03097V3.25668H9.10009V1.03097C9.10009 0.621253 8.78666 0.289062 8.40009 0.289062C8.01352 0.289062 7.70009 0.621253 7.70009 1.03097V3.25668H6.3001C4.36826 3.25922 2.8025 4.91836 2.8001 6.96621V25.1088C-1.00067 29.6606 -0.923421 36.5257 2.97852 40.9804C3.173 41.2105 3.37911 41.4293 3.59615 41.6354L3.6023 41.6423H3.6064C7.80844 45.7796 14.2865 45.8637 18.5822 41.8357H38.5C40.4322 41.8332 41.9976 40.174 42 38.1262V6.96621C41.9976 4.91836 40.4322 3.25922 38.5 3.25668ZM4.2001 6.96621C4.2001 5.73706 5.14038 4.74049 6.3001 4.74049H7.70009V6.96621C7.70009 7.37592 8.01352 7.70811 8.40009 7.70811C8.78666 7.70811 9.10009 7.37592 9.10009 6.96621V4.74049H14.7001V6.96621C14.7001 7.37592 15.0135 7.70811 15.4001 7.70811C15.7866 7.70811 16.1001 7.37592 16.1001 6.96621V4.74049H21.7001V6.96621C21.7001 7.37592 22.0135 7.70811 22.4001 7.70811C22.7866 7.70811 23.1 7.37592 23.1 6.96621V4.74049H28.7V6.96621C28.7 7.37592 29.0135 7.70811 29.4 7.70811C29.7866 7.70811 30.1 7.37592 30.1 6.96621V4.74049H35.7V6.96621C35.7 7.37592 36.0134 7.70811 36.4 7.70811C36.7866 7.70811 37.1 7.37592 37.1 6.96621V4.74049H38.5C39.6597 4.74049 40.6 5.73706 40.6 6.96621V10.6757H4.2001V6.96621ZM4.5419 40.5417C4.35562 40.3646 4.17857 40.1769 4.01177 39.9795C0.378138 35.8168 0.557239 29.3367 4.41475 25.4066C8.2726 21.4765 14.3887 21.5424 18.17 25.5555C21.9509 29.5682 22.0053 36.0505 18.292 40.1338C14.5787 44.2176 8.46469 44.3987 4.5419 40.5417ZM40.6 38.1262C40.6 39.3553 39.6597 40.3519 38.5 40.3519H19.936C20.0215 40.24 20.0963 40.1204 20.177 40.0056C20.2573 39.8904 20.3267 39.7962 20.3975 39.6879C20.5537 39.4499 20.6993 39.2043 20.8377 38.9543C20.8784 38.8801 20.9238 38.8123 20.9625 38.7391C21.1351 38.4135 21.2926 38.0798 21.4348 37.7382C21.4711 37.6513 21.5004 37.5618 21.535 37.4741C21.6365 37.2159 21.7315 36.9547 21.8149 36.6898C21.8549 36.5652 21.8891 36.4392 21.9243 36.3131C21.994 36.0747 22.0521 35.8346 22.1047 35.5918C22.1335 35.4593 22.1615 35.327 22.1868 35.1926C22.2329 34.9391 22.2698 34.6822 22.3006 34.4243C22.3146 34.3055 22.3331 34.1874 22.344 34.0682C22.3785 33.6918 22.4001 33.3136 22.4001 32.9329C22.3929 26.3803 17.3828 21.0704 11.2001 21.0624C10.8412 21.0624 10.484 21.0856 10.1292 21.1218C10.0164 21.1338 9.90502 21.153 9.79257 21.1678C9.54955 21.2011 9.3079 21.2421 9.06796 21.2888C8.94115 21.3153 8.81606 21.345 8.69062 21.3754C8.4623 21.4315 8.23671 21.4949 8.01386 21.5663C7.89321 21.604 7.77289 21.6402 7.65395 21.6826C7.4082 21.7702 7.16381 21.8695 6.92729 21.9742C6.83911 22.013 6.75024 22.0485 6.66342 22.0861C6.34419 22.2347 6.03349 22.4017 5.7269 22.5832C5.64932 22.6292 5.57549 22.6828 5.49858 22.7317C5.27266 22.874 5.04981 23.0218 4.83311 23.1769C4.72578 23.2555 4.6229 23.3399 4.51797 23.4225C4.41304 23.5047 4.30298 23.5848 4.2001 23.6739V12.1595H40.6V38.1262Z" fill="#1ECD96"/>
<path d="M11.2 24.7715C10.8135 24.7715 10.5 25.1037 10.5 25.5134V32.1905H7.00005C6.61348 32.1905 6.30005 32.5227 6.30005 32.9324C6.30005 33.3422 6.61348 33.6743 7.00005 33.6743H11.2C11.5866 33.6743 11.9 33.3422 11.9 32.9324V25.5134C11.9 25.1037 11.5866 24.7715 11.2 24.7715Z" fill="#1ECD96"/>
</svg>
