<svg width="25" height="27" viewBox="0 0 25 27" fill="none" xmlns="http://www.w3.org/2000/svg">
<path d="M21.1933 17.7457V5.54839C21.1933 5.33419 21.1051 5.13163 20.9611 4.98778L16.2056 0.232295C16.0606 0.0873281 15.8593 0 15.6449 0H1.37761C0.939863 0 0.584961 0.354902 0.584961 0.79265V24.5715C0.584961 25.0093 0.939863 25.3642 1.37761 25.3642H10.5231C11.7586 27.4945 14.8324 27.4711 16.0352 25.3222C17.8581 27.4681 21.0865 27.5467 23.0238 25.6094C25.5187 23.1144 24.5064 18.8677 21.1933 17.7457ZM16.9295 23.857C15.6902 21.7544 17.2011 19.0775 19.6609 19.0775C20.2187 19.0775 20.7765 19.2233 21.2714 19.515L16.9295 23.857ZM14.8523 19.8157H11.6818V17.4378C11.6818 16.5637 12.3929 15.8526 13.2671 15.8526C14.1412 15.8526 14.8523 16.5637 14.8523 17.4378V19.8157ZM16.4376 2.70622L18.4872 4.7558H16.4376V2.70622ZM2.17026 23.7789V1.58525H14.8524V5.54839C14.8524 5.98614 15.2073 6.34104 15.645 6.34104H19.6081V17.4942C18.4679 17.5068 17.3319 17.9257 16.4377 18.7511V17.4379C16.4377 15.6897 15.0154 14.2674 13.2672 14.2674C11.519 14.2674 10.0967 15.6897 10.0967 17.4379V23.7789H2.17026V23.7789ZM13.2671 25.3641C12.3929 25.3641 11.6818 24.653 11.6818 23.7789V21.401H14.8523V23.7789C14.8523 24.653 14.1412 25.3641 13.2671 25.3641ZM21.9028 24.4884C20.8601 25.5311 19.2658 25.6942 18.0504 24.9779L22.3924 20.636C23.1087 21.8513 22.9456 23.4457 21.9028 24.4884Z" fill="#1ECD96"/>
<path d="M4.54753 7.92514H12.4738C12.9116 7.92514 13.2665 7.57024 13.2665 7.13249C13.2665 6.69475 12.9116 6.33984 12.4738 6.33984H4.54753C4.10979 6.33984 3.75488 6.69475 3.75488 7.13249C3.75494 7.57029 4.10979 7.92514 4.54753 7.92514Z" fill="#1ECD96"/>
<path d="M4.54851 11.097H12.4748C12.9125 11.097 13.2675 10.7421 13.2675 10.3044C13.2675 9.86662 12.9125 9.51172 12.4748 9.51172H4.54851C4.11076 9.51172 3.75586 9.86662 3.75586 10.3044C3.75586 10.7421 4.11076 11.097 4.54851 11.097Z" fill="#1ECD96"/>
<path d="M9.33067 12.707H4.57488C4.13713 12.707 3.78223 13.0619 3.78223 13.4997C3.78223 13.9374 4.13713 14.2923 4.57488 14.2923H9.33067C9.76842 14.2923 10.1233 13.9374 10.1233 13.4997C10.1233 13.0619 9.76842 12.707 9.33067 12.707Z" fill="#1ECD96"/>
<path d="M7.71906 19.0234H4.54851C4.11076 19.0234 3.75586 19.3783 3.75586 19.8161C3.75586 20.2538 4.11076 20.6087 4.54851 20.6087H7.71901C8.15675 20.6087 8.51166 20.2538 8.51166 19.8161C8.51166 19.3783 8.15681 19.0234 7.71906 19.0234Z" fill="white"/>
</svg>
