<svg width="48" height="48" viewBox="0 0 48 48" fill="none" xmlns="http://www.w3.org/2000/svg">
<path d="M3.5921 31.7278C4.91001 35.5465 8.56544 38.5901 12.4769 39.2573C16.3638 39.9182 20.5067 38.2025 25.0898 38.4288C29.6663 38.6789 34.7138 40.8536 37.8831 39.6281C41.0278 38.3962 42.3249 33.7466 43.1893 29.2406C44.0537 24.7344 44.4786 20.3959 43.1608 16.5771C41.8674 12.7647 38.7755 9.48322 35.1535 8.42902C31.5315 7.37481 27.3617 8.51751 23.4895 9.14677C19.6173 9.77603 16.0429 9.89188 12.8995 11.4071C9.75609 12.9223 7.03712 15.8609 5.17769 19.5912C3.31167 23.3454 2.27417 27.909 3.5921 31.7278Z" fill="#E9FAF5"/>
<path d="M36.5724 24.8955L34.8629 22.9311V21.4C34.8629 15.6511 30.1977 11 24.4314 11C18.6652 11 14 15.6511 14 21.4C14 22.8733 14.3187 24.3467 14.9272 25.6755C15.3619 26.6578 16.0283 27.4378 16.6658 28.1888C16.8976 28.4488 17.1294 28.7379 17.3322 29.0267C18.1436 30.0667 18.7231 31.1645 19.0418 32.2621C19.3026 33.1579 19.4475 34.14 19.5055 35.3245C19.5344 36.2488 20.3168 37 21.244 37H27.0682C28.0244 37 28.8069 36.22 28.8069 35.2667V34.1112C28.8069 33.7933 29.0676 33.5333 29.3863 33.5333H31.9941C33.5878 33.5333 34.8918 32.2333 34.8918 30.6445V27.7555H35.2683C35.9638 27.7555 36.5724 27.38 36.8621 26.7445C37.1228 26.1378 37.0071 25.4155 36.5724 24.8955ZM35.7901 26.2533C35.7612 26.34 35.6162 26.6 35.2683 26.6H34.3122C33.9935 26.6 33.7328 26.86 33.7328 27.1778V30.6445C33.7328 31.5979 32.9505 32.3779 31.9941 32.3779H29.3863C28.4301 32.3779 27.6478 33.1579 27.6478 34.1112V35.2667C27.6478 35.5845 27.3871 35.8445 27.0682 35.8445H21.244C20.9253 35.8445 20.6645 35.6133 20.6645 35.2955C20.6066 33.9955 20.4617 32.9267 20.1719 31.9445C19.7952 30.7021 19.1578 29.4888 18.2595 28.3333C18.0277 28.0445 17.7959 27.7555 17.5641 27.4667C16.9556 26.7445 16.376 26.0511 15.9994 25.2133C15.4488 24.0289 15.188 22.7 15.188 21.4C15.188 16.3155 19.3606 12.1555 24.4604 12.1555C29.5602 12.1555 33.7328 16.3155 33.7328 21.4V23.1333C33.7328 23.2778 33.7907 23.3933 33.8775 23.5089L35.703 25.6467C35.9059 25.9067 35.8191 26.1955 35.7901 26.2533ZM27.3289 15.9111C27.2421 15.9111 27.1842 15.9111 27.0971 15.9111C26.0541 15.9111 25.0689 16.3155 24.3445 17.0378C23.5621 16.2578 22.461 15.8533 21.3599 15.9111C19.9401 15.9978 18.6941 17.0378 18.2015 18.54C17.622 20.3311 18.3464 22.2667 20.114 23.7111L23.9968 26.7733C24.1127 26.86 24.2286 26.8889 24.3445 26.8889C24.4604 26.8889 24.6053 26.86 24.6922 26.7733L28.5751 23.7111C30.3425 22.2667 31.0668 20.3311 30.4874 18.54C30.0238 17.0667 28.7487 15.9978 27.3289 15.9111ZM27.8507 22.8155L24.3445 25.5889L20.8384 22.8155C19.4185 21.66 18.868 20.2445 19.3026 18.8867C19.6214 17.8755 20.5196 17.1245 21.4179 17.0667C21.4759 17.0667 21.5338 17.0667 21.5918 17.0667C22.49 17.0667 23.3593 17.5 23.8809 18.2511C23.9968 18.3955 24.1706 18.4822 24.3445 18.4822C24.5183 18.4822 24.7212 18.3955 24.8081 18.2511C25.3297 17.5 26.199 17.0667 27.0971 17.0667C27.1553 17.0667 27.2132 17.0667 27.271 17.0667C28.1983 17.1245 29.0676 17.8755 29.3863 18.8867C29.821 20.2445 29.2705 21.66 27.8507 22.8155Z" fill="#676F8F"/>
</svg>
