<svg width="76" height="64" viewBox="0 0 76 64" fill="none" xmlns="http://www.w3.org/2000/svg">
<g clip-path="url(#clip0)">
<path d="M52.3034 9.35435C58.8605 13.9619 66.5393 16.941 70.5944 22.3828C74.6063 27.8245 75.0377 35.8084 70.8101 40.694C66.5824 45.5797 57.6958 47.4068 50.9229 51.1405C44.1932 54.8345 39.5342 60.4352 34.3575 61.1104C29.1809 61.8254 23.4865 57.5753 18.1804 53.4444C12.8743 49.3134 7.99962 45.2221 6.87801 40.416C5.75641 35.6097 8.38789 30.0489 10.1134 23.9319C11.8821 17.8546 12.7449 11.261 16.7137 5.85898C20.7256 0.456957 27.8004 -3.71372 34.0987 -2.64126C40.3538 -1.5688 45.7462 4.70706 52.3034 9.35435Z" fill="#DEF4EC" fill-opacity="0.6"/>
<g clip-path="url(#clip1)">
<path d="M52.5323 29.7815H28.9049C28.459 29.7815 28.0977 30.1435 28.0977 30.5902C28.0977 31.0369 28.4591 31.3989 28.9049 31.3989H52.5323C52.9781 31.3989 53.3396 31.0369 53.3396 30.5902C53.3396 30.1435 52.9781 29.7815 52.5323 29.7815Z" fill="#535B6C"/>
<path d="M25.12 29.7815H22.3668C21.921 29.7815 21.5596 30.1435 21.5596 30.5902C21.5596 31.0369 21.921 31.3989 22.3668 31.3989H25.12C25.5659 31.3989 25.9273 31.0369 25.9273 30.5902C25.9273 30.1435 25.5659 29.7815 25.12 29.7815Z" fill="#535B6C"/>
<path d="M52.5326 37.6455H22.3668C21.921 37.6455 21.5596 38.0075 21.5596 38.4542C21.5596 38.9009 21.921 39.2629 22.3668 39.2629H52.5326C52.9784 39.2629 53.3398 38.9009 53.3398 38.4542C53.3398 38.0075 52.9784 37.6455 52.5326 37.6455Z" fill="#535B6C"/>
<path d="M52.5321 46.5207H48.1442C47.6983 46.5207 47.3369 46.8827 47.3369 47.3294C47.3369 47.7761 47.6983 48.1381 48.1442 48.1381H52.5321C52.978 48.1381 53.3394 47.7761 53.3394 47.3294C53.3394 46.8827 52.978 46.5207 52.5321 46.5207Z" fill="#535B6C"/>
<path d="M44.3505 46.5207H22.3668C21.921 46.5207 21.5596 46.8827 21.5596 47.3294C21.5596 47.7761 21.921 48.1381 22.3668 48.1381H44.3505C44.7964 48.1381 45.1578 47.7761 45.1578 47.3294C45.1578 46.8827 44.7964 46.5207 44.3505 46.5207Z" fill="#535B6C"/>
<path d="M58.481 17.1081C58.4791 17.0886 58.4757 17.0694 58.4724 17.0503C58.4712 17.0434 58.4706 17.0364 58.4693 17.0296C58.4647 17.0067 58.4588 16.9842 58.4523 16.962C58.4514 16.959 58.4509 16.9561 58.45 16.9532C58.4432 16.9306 58.4351 16.9085 58.4263 16.8868C58.4252 16.8843 58.4244 16.8815 58.4234 16.8789C58.4149 16.8584 58.4053 16.8387 58.3952 16.8192C58.3931 16.8152 58.3915 16.8111 58.3895 16.8072C58.3801 16.7897 58.3696 16.7727 58.3589 16.756C58.3554 16.7504 58.3524 16.7447 58.3487 16.7392C58.3383 16.7236 58.3268 16.7087 58.3153 16.6939C58.3106 16.6878 58.3064 16.6815 58.3016 16.6756C58.2867 16.6574 58.2707 16.6401 58.2543 16.6233C58.2523 16.6213 58.2507 16.6191 58.2488 16.6171L46.8032 5.15064C46.8016 5.14902 46.7998 5.14773 46.7982 5.14612C46.781 5.1292 46.7633 5.11293 46.7447 5.09752C46.7396 5.09331 46.7342 5.08987 46.7291 5.08577C46.7134 5.07349 46.6977 5.06131 46.6811 5.05021C46.6767 5.04719 46.672 5.04482 46.6674 5.04191C46.6497 5.03049 46.6318 5.01939 46.6132 5.00937C46.6099 5.00765 46.6065 5.00624 46.6031 5.00452C46.5831 4.99407 46.5628 4.98415 46.5417 4.97543C46.5394 4.97446 46.5371 4.97381 46.5348 4.97295C46.5128 4.964 46.4904 4.95581 46.4675 4.94881C46.4648 4.94795 46.4619 4.94752 46.4592 4.94665C46.4368 4.94008 46.4142 4.93415 46.3911 4.92952C46.3847 4.92823 46.378 4.92769 46.3715 4.9265C46.3521 4.92306 46.3327 4.91971 46.3128 4.91777C46.2862 4.91519 46.2593 4.91379 46.2323 4.91379H18.7798C17.4747 4.91379 16.4131 5.97747 16.4131 7.2848V57.7152C16.4131 59.0225 17.4748 60.0862 18.7799 60.0862H56.1184C57.4235 60.0862 58.4852 59.0225 58.4852 57.7152V17.1888C58.485 17.1617 58.4836 17.1348 58.481 17.1081ZM47.0395 7.67489L55.7289 16.3801H47.6399C47.3088 16.3801 47.0395 16.1102 47.0395 15.7786V7.67489ZM56.8706 57.7152C56.8706 58.1307 56.533 58.4687 56.1183 58.4687H18.7798C18.365 58.4687 18.0275 58.1307 18.0275 57.7152V7.2848C18.0275 6.86928 18.365 6.53124 18.7798 6.53124H45.4251V15.7786C45.4251 17.002 46.4186 17.9974 47.6399 17.9974H56.8706V57.7152Z" fill="#535B6C"/>
<path d="M35.9756 15.2507H31.8644V11.132C31.8644 10.5293 31.3749 10.039 30.7735 10.039H27.8529C27.2513 10.039 26.7619 10.5293 26.7619 11.132V15.2507H22.6506C22.049 15.2507 21.5596 15.741 21.5596 16.3437V19.2696C21.5595 19.8723 22.0489 20.3626 22.6506 20.3626H26.7619V24.4814C26.7619 25.084 27.2513 25.5743 27.8529 25.5743H30.7735C31.3749 25.5743 31.8644 25.084 31.8644 24.4814V20.3626H35.9756C36.5772 20.3626 37.0667 19.8723 37.0667 19.2696V16.3437C37.0667 15.741 36.5772 15.2507 35.9756 15.2507ZM35.4525 18.7453H31.0573C30.6115 18.7453 30.25 19.1073 30.25 19.554V23.957H28.3764V19.554C28.3764 19.1073 28.015 18.7453 27.5691 18.7453H23.174V16.8682H27.5691C28.015 16.8682 28.3764 16.5061 28.3764 16.0595V11.6564H30.25V16.0595C30.25 16.5061 30.6115 16.8682 31.0573 16.8682H35.4525V18.7453Z" fill="#535B6C"/>
</g>
</g>
<defs>
<clipPath id="clip0">
<rect width="76" height="64" fill="white"/>
</clipPath>
<clipPath id="clip1">
<rect width="55.0725" height="55.1724" fill="white" transform="translate(9.91309 4.91379)"/>
</clipPath>
</defs>
</svg>
