<svg width="100" height="84" viewBox="0 0 100 84" fill="none" xmlns="http://www.w3.org/2000/svg">
<rect width="100" height="84" fill="white"/>
<path d="M79.2751 68.9919C73.8329 74.7795 65.8099 77.7014 57.843 80.0052C49.8199 82.2528 41.853 83.8262 33.8861 82.5338C25.9192 81.2414 17.9523 77.0271 13.6322 70.4528C9.31207 63.9347 8.6388 55.0566 9.14374 46.5719C9.70479 38.0871 11.5563 30.0519 16.3252 24.8262C21.038 19.6004 28.7805 17.2404 37.0841 12.6328C45.4438 7.96901 54.4767 1.11378 63.5096 1.00139C72.4864 0.889014 81.5193 7.57568 86.0638 16.229C90.5523 24.8824 90.6084 35.5024 89.1496 45.1109C87.6909 54.7195 84.7734 63.2605 79.2751 68.9919Z" fill="#DEF4EC" fill-opacity="0.6"/>
<path d="M60.7534 37.4516C61.1539 36.7015 61.4472 35.8887 61.6044 35.0302C62.0826 32.4111 61.3611 29.7825 59.6261 27.8179C59.1065 27.2293 58.6401 26.6003 58.2353 25.9405C59.1108 25.1479 59.625 24.0216 59.625 22.8125C59.625 20.8362 58.2692 19.1703 56.4375 18.6964V11.125C56.4375 10.5385 55.9626 10.0625 55.375 10.0625H42.625C42.0374 10.0625 41.5625 10.5385 41.5625 11.125V19.8024C41.5625 22.6234 40.4469 25.4496 38.4196 27.768C38.4026 27.7839 38.3877 27.7999 38.3729 27.8169C37.0044 29.3692 36.25 31.3656 36.25 33.4375C36.25 34.8846 36.6155 36.2478 37.2562 37.4421C35.9174 38.9837 35.1875 40.9271 35.1875 43C35.1875 45.0623 35.9238 47.0077 37.2594 48.5505C36.6166 49.7469 36.25 51.1122 36.25 52.5625C36.25 54.4357 36.862 56.2303 37.9893 57.705C37.5484 58.3839 37.3125 59.1723 37.3125 60C37.3125 62.2812 39.1188 64.1491 41.3766 64.2457C41.4998 64.9109 41.5625 65.5643 41.5625 66.1976V74.875C41.5625 75.4615 42.0374 75.9375 42.625 75.9375H55.375C55.9626 75.9375 56.4375 75.4615 56.4375 74.875V66.1976C56.4375 63.3564 57.5691 60.5089 59.6239 58.1831C61.3611 56.2175 62.0815 53.5889 61.6034 50.9698C61.4472 50.1113 61.1539 49.2985 60.7523 48.5484C62.0858 47.0078 62.8125 45.0676 62.8125 43C62.8125 40.9313 62.0868 38.9912 60.7534 37.4516V37.4516ZM39.9252 29.2714C39.9401 29.2566 39.9539 29.2406 39.9688 29.2257C42.3668 26.51 43.6875 23.1631 43.6875 19.8035V12.1875H54.3125V19.625C54.3125 20.2115 54.7874 20.6875 55.375 20.6875C56.5469 20.6875 57.5 21.6406 57.5 22.8125C57.5 23.5977 57.058 24.3159 56.3472 24.6867C55.8276 24.9577 55.6247 25.5984 55.8956 26.119C56.4715 27.2261 57.1908 28.2716 58.0323 29.2247C59.3349 30.6984 59.8736 32.6757 59.5145 34.6487C59.0555 37.1605 57.0644 39.1835 54.5611 39.6807C53.2883 39.9368 52.0122 39.8136 50.8573 39.3439C52.3384 37.8139 53.25 35.7304 53.25 33.4375H51.125C51.125 36.9533 48.2658 39.8125 44.75 39.8125C41.2342 39.8125 38.375 36.9533 38.375 33.4375C38.375 31.9054 38.9254 30.4274 39.9252 29.2714V29.2714ZM37.3125 43C37.3125 41.6188 37.7481 40.3172 38.5492 39.2324C40.1016 40.892 42.3041 41.9375 44.75 41.9375C46.2981 41.9375 47.7494 41.521 49.0011 40.7964C50.7946 41.8355 52.8856 42.1808 54.9755 41.7664C56.7254 41.4179 58.2777 40.5063 59.4582 39.243C60.254 40.3246 60.6875 41.623 60.6875 43C60.6875 44.377 60.254 45.6743 59.4582 46.7581C58.2777 45.4947 56.7254 44.5821 54.9755 44.2346C52.8909 43.8202 50.7956 44.1645 49.0011 45.2047C47.7494 44.4779 46.2981 44.0625 44.75 44.0625C42.3041 44.0625 40.1026 45.1069 38.5514 46.7655C37.7513 45.6796 37.3125 44.3749 37.3125 43V43ZM58.0312 56.7753C55.6332 59.4911 54.3125 62.8379 54.3125 66.1976V73.8125H43.6875V66.1976C43.6875 65.1128 43.5377 63.9876 43.2423 62.8528C43.169 62.5681 42.9746 62.329 42.7164 62.1888C42.4933 62.0676 42.2319 62.0326 41.9854 62.0846C41.8473 62.1112 41.7049 62.125 41.5625 62.125C40.3906 62.125 39.4375 61.1719 39.4375 60C39.4375 59.4178 39.6744 58.8716 40.1048 58.4626C40.3088 58.2681 40.4288 58.0004 40.4363 57.7188C40.4426 57.4362 40.3374 57.1631 40.143 56.9591C39.0029 55.7649 38.375 54.2041 38.375 52.5625C38.375 49.0467 41.2342 46.1875 44.75 46.1875C48.2658 46.1875 51.125 49.0467 51.125 52.5625H53.25C53.25 50.2696 52.3373 48.1861 50.8562 46.655C52.0111 46.1854 53.2872 46.0643 54.5601 46.3182C57.0633 46.8165 59.0544 48.8395 59.5134 51.3513C59.8736 53.3243 59.3339 55.3016 58.0312 56.7753V56.7753Z" fill="#535B6C"/>
<path d="M44.75 38.75V36.625C42.9926 36.625 41.5625 35.1949 41.5625 33.4375H39.4375C39.4375 36.3668 41.8207 38.75 44.75 38.75Z" fill="#535B6C"/>
<path d="M39.4375 52.5625H41.5625C41.5625 50.8051 42.9926 49.375 44.75 49.375V47.25C41.8207 47.25 39.4375 49.6332 39.4375 52.5625Z" fill="#535B6C"/>
<path d="M30.1836 31.0017L31.6862 29.4991L34.874 32.6869L33.3714 34.1895L30.1836 31.0017Z" fill="#535B6C"/>
<path d="M30.1836 54.9951L33.3714 51.8073L34.874 53.3099L31.6862 56.4977L30.1836 54.9951Z" fill="#535B6C"/>
<path d="M28.3242 38.6379L29.2741 36.7382L33.5219 38.8621L32.5721 40.7619L28.3242 38.6379Z" fill="#535B6C"/>
<path d="M28.3242 47.3494L32.5721 45.2254L33.5219 47.1252L29.2741 49.2491L28.3242 47.3494Z" fill="#535B6C"/>
<path d="M63.1172 32.689L66.305 29.5012L67.8076 31.0038L64.6198 34.1916L63.1172 32.689Z" fill="#535B6C"/>
<path d="M63.1172 53.3152L64.6198 51.8126L67.8076 55.0004L66.305 56.503L63.1172 53.3152Z" fill="#535B6C"/>
<path d="M64.4375 38.8611L68.6853 36.7372L69.6352 38.6369L65.3874 40.7608L64.4375 38.8611Z" fill="#535B6C"/>
<path d="M64.4375 47.1519L65.3874 45.2521L69.6352 47.376L68.6853 49.2758L64.4375 47.1519Z" fill="#535B6C"/>
</svg>
