<svg width="48" height="48" viewBox="0 0 48 48" fill="none" xmlns="http://www.w3.org/2000/svg">
<path d="M38.4684 36.9561C35.8239 39.7342 31.9253 41.1367 28.054 42.2425C24.1554 43.3214 20.2841 44.0766 16.4127 43.4562C12.5414 42.8359 8.6701 40.813 6.57086 37.6574C4.47159 34.5287 4.14443 30.2672 4.3898 26.1945C4.66243 22.1218 5.56212 18.2649 7.87945 15.7566C10.1695 13.2482 13.9318 12.1154 17.9667 9.90375C22.0289 7.66513 26.4183 4.37462 30.8076 4.32068C35.1696 4.26674 39.5589 7.47634 41.7672 11.6299C43.9483 15.7836 43.9756 20.8812 43.2667 25.4932C42.5579 30.1054 41.1402 34.2051 38.4684 36.9561Z" fill="#E9FAF5"/>
<path fill-rule="evenodd" clip-rule="evenodd" d="M29.4683 21.8168C29.6629 21.4567 29.8054 21.0666 29.8818 20.6545C30.1142 19.3973 29.7636 18.1356 28.9205 17.1926C28.668 16.9101 28.4414 16.6082 28.2447 16.2915C28.6701 15.911 28.92 15.3704 28.92 14.79C28.92 13.8414 28.2612 13.0418 27.3711 12.8143V9.18001C27.3711 8.89849 27.1403 8.67001 26.8548 8.67001H20.6592C20.3737 8.67001 20.143 8.89849 20.143 9.18001V13.3452C20.143 14.6992 19.6009 16.0558 18.6157 17.1687C18.6075 17.1763 18.6002 17.184 18.593 17.1921C17.9281 17.9372 17.5615 18.8955 17.5615 19.89C17.5615 20.5846 17.7391 21.239 18.0504 21.8122C17.3998 22.5522 17.0452 23.485 17.0452 24.48C17.0452 25.4699 17.403 26.4037 18.052 27.1443C17.7396 27.7185 17.5615 28.3739 17.5615 29.07C17.5615 29.9692 17.8589 30.8306 18.4066 31.5384C18.1924 31.8643 18.0778 32.2427 18.0778 32.64C18.0778 33.735 18.9555 34.6316 20.0526 34.6779C20.1125 34.9972 20.143 35.3109 20.143 35.6149V39.78C20.143 40.0615 20.3737 40.29 20.6592 40.29H26.8548C27.1403 40.29 27.3711 40.0615 27.3711 39.78V35.6149C27.3711 34.2511 27.921 32.8843 28.9194 31.7679C29.7636 30.8244 30.1137 29.5627 29.8813 28.3055C29.8054 27.8934 29.6629 27.5033 29.4678 27.1432C30.1157 26.4038 30.4689 25.4725 30.4689 24.48C30.4689 23.487 30.1162 22.5558 29.4683 21.8168ZM19.3473 17.8903C19.351 17.8867 19.3546 17.8829 19.3582 17.8791L19.3582 17.8791L19.3582 17.879C19.3616 17.8754 19.365 17.8718 19.3685 17.8684C20.5338 16.5648 21.1755 14.9583 21.1755 13.3457V9.69001H26.3385V13.26C26.3385 13.5415 26.5693 13.77 26.8548 13.77C27.4243 13.77 27.8874 14.2275 27.8874 14.79C27.8874 15.1669 27.6726 15.5116 27.3272 15.6896C27.0747 15.8197 26.9761 16.1272 27.1078 16.3771C27.3876 16.9085 27.7371 17.4104 28.146 17.8679C28.779 18.5752 29.0408 19.5244 28.8663 20.4714C28.6432 21.6771 27.6757 22.6481 26.4593 22.8867C25.8408 23.0097 25.2207 22.9505 24.6595 22.7251C25.3792 21.9907 25.8222 20.9906 25.8222 19.89H24.7896C24.7896 21.5776 23.4003 22.95 21.6918 22.95C19.9834 22.95 18.5941 21.5776 18.5941 19.89C18.5941 19.1546 18.8615 18.4452 19.3473 17.8903ZM18.0778 24.48C18.0778 23.817 18.2894 23.1923 18.6787 22.6716C19.4331 23.4682 20.5033 23.97 21.6918 23.97C22.4441 23.97 23.1493 23.7701 23.7576 23.4223C24.6291 23.9211 25.6451 24.0868 26.6607 23.8879C27.511 23.7206 28.2653 23.283 28.8389 22.6767C29.2256 23.1958 29.4363 23.8191 29.4363 24.48C29.4363 25.141 29.2256 25.7637 28.8389 26.2839C28.2653 25.6775 27.511 25.2394 26.6607 25.0726C25.6477 24.8737 24.6296 25.039 23.7576 25.5383C23.1493 25.1894 22.4441 24.99 21.6918 24.99C20.5033 24.99 19.4335 25.4913 18.6798 26.2875C18.291 25.7662 18.0778 25.14 18.0778 24.48ZM28.1455 31.0922C26.9803 32.3957 26.3385 34.0022 26.3385 35.6149V39.27H21.1755V35.6149C21.1755 35.0942 21.1027 34.5541 20.9592 34.0094C20.9236 33.8727 20.8291 33.7579 20.7037 33.6906C20.5953 33.6325 20.4682 33.6157 20.3484 33.6406C20.2813 33.6534 20.2121 33.66 20.143 33.66C19.5735 33.66 19.1104 33.2025 19.1104 32.64C19.1104 32.3606 19.2255 32.0984 19.4346 31.9021C19.5337 31.8087 19.5921 31.6802 19.5957 31.545C19.5988 31.4094 19.5476 31.2783 19.4532 31.1804C18.8992 30.6072 18.5941 29.858 18.5941 29.07C18.5941 27.3824 19.9834 26.01 21.6918 26.01C23.4003 26.01 24.7896 27.3824 24.7896 29.07H25.8222C25.8222 27.9694 25.3787 26.9693 24.659 26.2344C25.2202 26.009 25.8403 25.9509 26.4588 26.0728C27.6752 26.3119 28.6427 27.283 28.8658 28.4886C29.0408 29.4357 28.7785 30.3848 28.1455 31.0922ZM21.6918 22.44V21.42C20.8379 21.42 20.1429 20.7336 20.1429 19.89H19.1103C19.1103 21.2961 20.2684 22.44 21.6918 22.44ZM20.1429 29.07H19.1103C19.1103 27.664 20.2684 26.52 21.6918 26.52V27.54C20.8379 27.54 20.1429 28.2265 20.1429 29.07ZM14.6136 18.7208L15.3438 17.9996L16.8928 19.5297L16.1627 20.251L14.6136 18.7208ZM16.1627 28.7075L14.6136 30.2377L15.3438 30.9589L16.8928 29.4288L16.1627 28.7075ZM13.7101 22.3862L14.1717 21.4744L16.2358 22.4938L15.7742 23.4057L13.7101 22.3862ZM15.7742 25.5482L13.7101 26.5677L14.1717 27.4796L16.2358 26.4601L15.7742 25.5482ZM30.6169 19.5307L32.1659 18.0006L32.8961 18.7218L31.3471 20.252L30.6169 19.5307ZM31.3471 28.7101L30.6169 29.4313L32.1659 30.9614L32.8961 30.2402L31.3471 28.7101ZM31.2584 22.4933L33.3226 21.4739L33.7841 22.3857L31.72 23.4052L31.2584 22.4933ZM31.72 25.561L31.2584 26.4729L33.3226 27.4924L33.7841 26.5805L31.72 25.561Z" fill="#676F8F"/>
</svg>
