<svg width="42" height="46" viewBox="0 0 42 46" fill="none" xmlns="http://www.w3.org/2000/svg">
<path d="M6.16699 12.5352L8.38594 33.4318H33.2438C33.8689 33.4318 34.4182 32.9898 34.5898 32.3488L39.8999 12.5352H6.16699Z" fill="#DEF4EC"/>
<path d="M39.8999 12.5341C40.673 12.5341 41.2999 11.8657 41.2999 11.0414C41.2999 10.2172 40.673 9.54883 39.8999 9.54883H24.4999L24.5201 9.57033L24.4999 9.54883H5.85181L6.16694 12.5341H39.8999Z" fill="#DEF4EC"/>
<path d="M39.9007 9.92189H35.9905H29.0505C28.2192 9.92189 18.7253 9.90425 18.2878 9.92189H21.4816L22.8105 10.1026C22.5371 9.82058 16.5815 9.92189 16.5815 9.92189H13.0104H6.47579L5.73579 3.17782C5.62095 2.07676 4.71927 1.24293 3.64703 1.2461H0.700012C0.313433 1.2461 0 1.56982 0 1.96909C0 2.36835 0.313433 2.69207 0.700012 2.69207H3.64703C4.00627 2.68995 4.30876 2.96883 4.34705 3.33774L8.26718 39.0784C8.38203 40.1784 9.28199 41.0116 10.3532 41.0101H11.2631C11.6028 43.0965 13.3518 44.6244 15.4003 44.6244C17.4487 44.6244 19.1977 43.0965 19.5374 41.0101H23.8633C24.2273 43.2338 26.18 44.7984 28.356 44.6099C30.5319 44.4214 32.2047 42.5422 32.2047 40.2872C32.2047 38.0321 30.5319 36.153 28.356 35.9644C26.18 35.7759 24.2273 37.3405 23.8633 39.5642H19.5374C19.1977 37.4778 17.4487 35.95 15.4003 35.95C13.3518 35.95 11.6028 37.4778 11.2631 39.5642H10.3532C9.99397 39.5663 9.69147 39.2874 9.65319 38.9185L9.17022 34.5033H33.2444C34.181 34.5001 35.0033 33.8594 35.2638 32.9302L40.4523 14.1744C41.4668 13.8909 42.121 12.8745 41.9812 11.7985C41.8418 10.7225 40.9517 9.91978 39.9007 9.92189ZM28.0005 37.3952C29.5468 37.3952 30.8005 38.6901 30.8005 40.2872C30.8005 41.8842 29.5468 43.1791 28.0005 43.1791C26.4542 43.1791 25.2004 41.8842 25.2004 40.2872C25.2004 38.6901 26.4542 37.3952 28.0005 37.3952ZM15.4003 37.3952C16.9466 37.3952 18.2003 38.6901 18.2003 40.2872C18.2003 41.8842 16.9466 43.1791 15.4003 43.1791C13.8539 43.1791 12.6002 41.8842 12.6002 40.2872C12.6002 38.6901 13.8539 37.3952 15.4003 37.3952ZM26.8055 9.92189H34.0107H24.7903H27.7954H26.8055ZM18.4054 10.5997L22.8105 9.92189H14.9901L18.4054 10.5997ZM33.9178 32.5324C33.832 32.8431 33.5572 33.0573 33.2444 33.0573H9.01265L6.95124 14.2598H38.9723L33.9178 32.5324ZM39.9007 12.8138H6.79025L6.63268 11.3679H39.9007C40.2873 11.3679 40.6007 11.6916 40.6007 12.0908C40.6007 12.4901 40.2873 12.8138 39.9007 12.8138Z" fill="#1ECD96"/>
<path d="M10.5 31.1918H28C28.3866 31.1918 28.7001 30.8577 28.7001 30.4455C28.7001 30.0334 28.3866 29.6992 28 29.6992H10.5C10.1135 29.6992 9.80005 30.0334 9.80005 30.4455C9.80005 30.8577 10.1135 31.1918 10.5 31.1918Z" fill="#1ECD96"/>
<path d="M30.8001 31.1918H32.2001C32.5867 31.1918 32.9001 30.8577 32.9001 30.4455C32.9001 30.0334 32.5867 29.6992 32.2001 29.6992H30.8001C30.4135 29.6992 30.1001 30.0334 30.1001 30.4455C30.1001 30.8577 30.4135 31.1918 30.8001 31.1918Z" fill="#1ECD96"/>
</svg>
