<svg width="25" height="25" viewBox="0 0 25 25" fill="none" xmlns="http://www.w3.org/2000/svg">
<path d="M22.1045 19.7602L20.3131 21.5516V18.75H18.7506V21.5516L16.9592 19.7602L15.8545 20.8648L19.5318 24.5422L23.2092 20.8648L22.1045 19.7602Z" fill="#1ECD96"/>
<path d="M18.75 7.8125V10.9375H20.3125V7.8125C20.3078 3.49976 16.8127 0.00473633 12.5 0V1.5625C15.9502 1.56636 18.7461 4.3623 18.75 7.8125Z" fill="#1ECD96"/>
<path d="M6.25 17.1875V14.0625H4.6875V17.1875C4.69224 21.5002 8.18726 24.9953 12.5 25V23.4375C9.0498 23.4336 6.25386 20.6377 6.25 17.1875Z" fill="#1ECD96"/>
<path d="M6.25 10.9375H4.6875V12.5H6.25V10.9375Z" fill="#1ECD96"/>
<path d="M6.25 7.8125H4.6875V9.375H6.25V7.8125Z" fill="#1ECD96"/>
<path d="M4.68809 6.24922H6.25059V3.44766L8.04199 5.23906L9.14668 4.13438L5.46934 0.457031L1.79199 4.13438L2.89668 5.23906L4.68809 3.44766V6.24922Z" fill="#1ECD96"/>
<path d="M20.3125 12.5H18.75V14.0625H20.3125V12.5Z" fill="#1ECD96"/>
<path d="M20.3125 15.625H18.75V17.1875H20.3125V15.625Z" fill="#1ECD96"/>
</svg>
