<svg xmlns="http://www.w3.org/2000/svg" width="44" height="42" viewBox="0 0 44 42" fill="none">
<path d="M21.5245 0.463525C21.6741 0.00287008 22.3259 0.00287008 22.4755 0.463525L27.2761 15.2381C27.343 15.4441 27.535 15.5836 27.7516 15.5836H43.2865C43.7709 15.5836 43.9723 16.2034 43.5804 16.4881L31.0124 25.6193C30.8372 25.7466 30.7638 25.9723 30.8308 26.1783L35.6313 40.9529C35.781 41.4135 35.2538 41.7966 34.8619 41.5119L22.2939 32.3807C22.1186 32.2534 21.8814 32.2534 21.7061 32.3807L9.1381 41.5119C8.74625 41.7966 8.21901 41.4135 8.36868 40.9529L13.1692 26.1783C13.2362 25.9723 13.1628 25.7466 12.9876 25.6193L0.419593 16.4881C0.0277367 16.2034 0.229124 15.5836 0.713486 15.5836H16.2484C16.465 15.5836 16.657 15.4441 16.7239 15.2381L21.5245 0.463525Z" fill="#FACD40"/>
</svg>