<svg xmlns="http://www.w3.org/2000/svg" width="24" height="24" viewBox="0 0 24 24" fill="none">
<path fill-rule="evenodd" clip-rule="evenodd" d="M5.95324 2C5.55537 2 5.23291 2.32676 5.23291 2.72992V2.77856H3.72033C3.32246 2.77856 3 3.10532 3 3.50849V6.98782C3 9.93541 5.16619 12.3798 7.97021 12.7722V16.8907C7.97021 19.708 10.232 22.0002 13.0125 22.0002C15.7928 22.0002 18.0549 19.708 18.0549 16.8907V14.0163C19.1757 13.6971 19.9997 12.652 19.9999 11.4158C19.9999 9.92653 18.8042 8.71509 17.3347 8.71509C15.8647 8.71509 14.6692 9.92653 14.6692 11.4158C14.6692 12.6521 15.4933 13.6972 16.6142 14.0164V16.8907C16.6142 18.9031 14.9985 20.5403 13.0125 20.5403C11.0266 20.5403 9.41087 18.9031 9.41087 16.8907V12.7905C12.2845 12.4631 14.5253 9.98575 14.5253 6.98782V3.50849C14.5253 3.10532 14.2028 2.77856 13.805 2.77856H12.2441V2.72992C12.2441 2.32676 11.9217 2 11.5238 2C11.1259 2 10.8035 2.32676 10.8035 2.72992V4.28711C10.8035 4.69027 11.1259 5.01703 11.5238 5.01703C11.9217 5.01703 12.2441 4.69027 12.2441 4.28711V4.23841H13.0846V6.98778C13.0846 9.40262 11.1457 11.3673 8.76262 11.3673C6.37952 11.3673 4.44065 9.40266 4.44065 6.98782V4.23841H5.23291V4.28711C5.23291 4.69027 5.55537 5.01703 5.95324 5.01703C6.3511 5.01703 6.67356 4.69027 6.67356 4.28711V2.72992C6.67356 2.32676 6.3511 2 5.95324 2ZM16.1096 11.4159C16.1096 12.1 16.659 12.6567 17.3344 12.6567C18.0096 12.6567 18.559 12.1 18.559 11.4159C18.559 10.7317 18.0096 10.175 17.3344 10.175C16.659 10.175 16.1096 10.7317 16.1096 11.4159Z" fill="#A3ABCC"/>
</svg>