<svg width="47" height="47" viewBox="0 0 47 47" fill="none" xmlns="http://www.w3.org/2000/svg">
<path d="M29.375 2.20312V7.34375H26.4375V4.40625H22.0312V1.46875H28.6406C29.0445 1.46875 29.375 1.79922 29.375 2.20312Z" fill="white"/>
<path d="M24.9688 11.6252V35.9844C24.9688 38.5547 25.9822 40.8827 27.6272 42.5938H9.23109C9.07687 42.5938 8.93 42.5497 8.8125 42.4616V41.7345C8.8125 40.4053 9.34125 39.1275 10.2812 38.1875L4.44297 35.2647C4.42094 35.1912 4.40625 35.1178 4.40625 35.0444V4.40625H8.8125V5.14062C8.8125 5.54453 9.14297 5.875 9.54688 5.875H21.2969C21.7008 5.875 22.0312 5.54453 22.0312 5.14062V4.40625H26.4375V7.34375H25.7031C25.0936 7.34375 24.5428 7.59344 24.1463 7.99C23.7497 8.38656 23.5 8.93734 23.5 9.54688C23.5 10.5089 24.1095 11.3241 24.9688 11.6178V11.6252Z" fill="white"/>
<path d="M7.34375 8.8125H13.9531C12.7341 8.8125 11.75 9.79656 11.75 11.0156C11.75 12.2347 12.7341 13.2188 13.9531 13.2188C11.9262 13.2188 10.2812 14.8637 10.2812 16.8906V17.625H7.34375V8.8125Z" fill="white"/>
<path d="M20.5625 8.8125V17.625H17.625V16.8906C17.625 15.8772 17.2138 14.9592 16.5528 14.2909C15.8845 13.63 14.9666 13.2188 13.9531 13.2188C15.1722 13.2188 16.1562 12.2347 16.1562 11.0156C16.1562 9.79656 15.1722 8.8125 13.9531 8.8125H20.5625Z" fill="white"/>
<path d="M17.625 16.8906V17.625H10.2812V16.8906C10.2812 14.8637 11.9262 13.2188 13.9531 13.2188C14.9666 13.2188 15.8845 13.63 16.5528 14.2909C17.2138 14.9592 17.625 15.8772 17.625 16.8906Z" fill="#DEF4EC"/>
<path d="M13.9531 13.2188C15.1699 13.2188 16.1562 12.2324 16.1562 11.0156C16.1562 9.79887 15.1699 8.8125 13.9531 8.8125C12.7364 8.8125 11.75 9.79887 11.75 11.0156C11.75 12.2324 12.7364 13.2188 13.9531 13.2188Z" fill="#DEF4EC"/>
<path d="M4.44336 35.2645L10.2816 38.1873C9.34164 39.1273 8.81289 40.4051 8.81289 41.7344V42.4614C8.72476 42.4026 8.65133 42.3292 8.59992 42.2337L4.50945 35.4261C4.48008 35.3747 4.45805 35.3233 4.44336 35.2645Z" fill="white"/>
<path d="M22.0312 4.40625V5.14062C22.0312 5.54453 21.7008 5.875 21.2969 5.875H9.54688C9.14297 5.875 8.8125 5.54453 8.8125 5.14062V4.40625V1.46875H22.0312V4.40625Z" fill="#DEF4EC"/>
<path d="M43.3281 7.34375C44.5472 7.34375 45.5312 8.32781 45.5312 9.54688C45.5312 10.1564 45.2816 10.7072 44.885 11.1037C44.6573 11.3314 44.3783 11.515 44.0625 11.6178C43.8348 11.7059 43.5852 11.75 43.3281 11.75H25.7031C25.4461 11.75 25.1964 11.7059 24.9688 11.6178C24.1095 11.3241 23.5 10.5089 23.5 9.54688C23.5 8.93734 23.7497 8.38656 24.1463 7.99C24.5428 7.59344 25.0936 7.34375 25.7031 7.34375H26.4375H29.375H43.3281Z" fill="#DEF4EC"/>
<path d="M24.9688 35.9845V11.6253V11.6179C25.1964 11.706 25.4461 11.7501 25.7031 11.7501H43.3281C43.5852 11.7501 43.8348 11.706 44.0625 11.6179V11.6253V14.6876V17.6251V20.5626V35.9845C44.0625 41.2573 39.7884 45.5314 34.5156 45.5314C31.8792 45.5314 29.4925 44.4592 27.7667 42.7334C27.7227 42.6893 27.6786 42.6453 27.6272 42.5939C25.9822 40.8828 24.9688 38.5548 24.9688 35.9845Z" fill="white"/>
<path d="M32.3859 30.8878C32.7531 32.9514 34.5523 34.5156 36.7188 34.5156C37.1373 34.5156 37.5412 34.4569 37.9231 34.3467C38.092 34.8608 38.1875 35.4116 38.1875 35.9844C38.1875 38.8264 35.8889 41.125 33.0469 41.125C30.2048 41.125 27.9062 38.8264 27.9062 35.9844C27.9062 33.37 29.8597 31.2109 32.3786 30.8878H32.3859Z" fill="#DEF4EC"/>
<path d="M32.3713 29.375C34.523 29.3456 36.3075 27.7667 36.6527 25.7031H36.66H36.7188C39.1495 25.7031 41.125 27.6786 41.125 30.1094C41.125 32.1216 39.7664 33.8253 37.9231 34.3467C37.5412 34.4569 37.1373 34.5156 36.7188 34.5156C34.5523 34.5156 32.7531 32.9514 32.3859 30.8878C32.3345 30.6381 32.3125 30.3738 32.3125 30.1094C32.3125 29.8597 32.3345 29.61 32.3713 29.375Z" fill="#DEF4EC"/>
<path d="M36.7188 24.9688C36.7188 25.2184 36.6967 25.4681 36.6527 25.7031C36.3075 27.7667 34.523 29.3456 32.3713 29.375C32.3492 29.375 32.3345 29.375 32.3125 29.375C29.8817 29.375 27.9062 27.3995 27.9062 24.9688C27.9062 22.538 29.8817 20.5625 32.3125 20.5625C34.7433 20.5625 36.7188 22.538 36.7188 24.9688Z" fill="#EBFDF5"/>
<path d="M32.3125 26.4375C33.1237 26.4375 33.7812 25.7799 33.7812 24.9688C33.7812 24.1576 33.1237 23.5 32.3125 23.5C31.5013 23.5 30.8438 24.1576 30.8438 24.9688C30.8438 25.7799 31.5013 26.4375 32.3125 26.4375Z" fill="white"/>
<path d="M36.7188 31.5781C37.5299 31.5781 38.1875 30.9205 38.1875 30.1094C38.1875 29.2982 37.5299 28.6406 36.7188 28.6406C35.9076 28.6406 35.25 29.2982 35.25 30.1094C35.25 30.9205 35.9076 31.5781 36.7188 31.5781Z" fill="white"/>
<path d="M33.0469 38.1875C34.2636 38.1875 35.25 37.2011 35.25 35.9844C35.25 34.7676 34.2636 33.7812 33.0469 33.7812C31.8301 33.7812 30.8438 34.7676 30.8438 35.9844C30.8438 37.2011 31.8301 38.1875 33.0469 38.1875Z" fill="white"/>
<path d="M34.5156 24.9688C34.5156 23.7541 33.5272 22.7656 32.3125 22.7656C31.0978 22.7656 30.1094 23.7541 30.1094 24.9688C30.1094 26.1834 31.0978 27.1719 32.3125 27.1719C33.5272 27.1719 34.5156 26.1834 34.5156 24.9688ZM31.5781 24.9688C31.5781 24.5634 31.9071 24.2344 32.3125 24.2344C32.7179 24.2344 33.0469 24.5634 33.0469 24.9688C33.0469 25.3741 32.7179 25.7031 32.3125 25.7031C31.9071 25.7031 31.5781 25.3741 31.5781 24.9688Z" fill="#1ECD96"/>
<path d="M27.1719 35.9844C27.1719 39.2237 29.8075 41.8594 33.0469 41.8594C36.2862 41.8594 38.9219 39.2237 38.9219 35.9844C38.9219 35.5863 38.8683 35.1957 38.7904 34.8101C40.5948 34.0118 41.8594 32.2067 41.8594 30.1094C41.8594 27.5244 39.9382 25.3837 37.4502 25.0268C37.4502 25.0077 37.4531 24.9886 37.4531 24.9688C37.4531 22.1348 35.1465 19.8281 32.3125 19.8281C29.4785 19.8281 27.1719 22.1348 27.1719 24.9688C27.1719 27.5545 29.0937 29.6952 31.5833 30.0514C31.5825 30.0712 31.5781 30.0903 31.5781 30.1094C31.5781 30.1733 31.5855 30.235 31.5877 30.2974C29.0276 30.9532 27.1719 33.2811 27.1719 35.9844ZM40.3906 30.1094C40.3906 32.134 38.7434 33.7812 36.7188 33.7812C34.6941 33.7812 33.0469 32.134 33.0469 30.1094C33.0469 30.0895 33.0513 30.0697 33.052 30.0499C33.5969 29.9706 34.1139 29.8068 34.5905 29.5703C34.5465 29.7437 34.5156 29.9221 34.5156 30.1094C34.5156 31.324 35.5041 32.3125 36.7188 32.3125C37.9334 32.3125 38.9219 31.324 38.9219 30.1094C38.9219 28.8947 37.9334 27.9062 36.7188 27.9062C36.6468 27.9062 36.5792 27.9209 36.5087 27.9275C36.8164 27.4921 37.0617 27.0088 37.2233 26.4889C39.0078 26.7371 40.3906 28.258 40.3906 30.1094ZM34.5156 35.9844C34.5156 36.7944 33.8569 37.4531 33.0469 37.4531C32.2369 37.4531 31.5781 36.7944 31.5781 35.9844C31.5781 35.1744 32.2369 34.5156 33.0469 34.5156C33.8569 34.5156 34.5156 35.1744 34.5156 35.9844ZM36.7188 29.375C37.1241 29.375 37.4531 29.704 37.4531 30.1094C37.4531 30.5147 37.1241 30.8438 36.7188 30.8438C36.3134 30.8438 35.9844 30.5147 35.9844 30.1094C35.9844 29.704 36.3134 29.375 36.7188 29.375ZM28.6406 24.9688C28.6406 22.9441 30.2878 21.2969 32.3125 21.2969C34.3372 21.2969 35.9844 22.9441 35.9844 24.9688C35.9844 26.9934 34.3372 28.6406 32.3125 28.6406C30.2878 28.6406 28.6406 26.9934 28.6406 24.9688ZM31.8535 31.7551C32.018 32.2391 32.2523 32.69 32.5446 33.0975C31.1639 33.3377 30.1094 34.5362 30.1094 35.9844C30.1094 37.6044 31.4268 38.9219 33.0469 38.9219C34.6669 38.9219 35.9844 37.6044 35.9844 35.9844C35.9844 35.7002 35.9315 35.4314 35.8559 35.1714C36.1371 35.2192 36.4243 35.25 36.7188 35.25C36.9427 35.25 37.1623 35.2309 37.379 35.203C37.4245 35.4593 37.4531 35.72 37.4531 35.9844C37.4531 38.4144 35.4769 40.3906 33.0469 40.3906C30.6168 40.3906 28.6406 38.4144 28.6406 35.9844C28.6406 33.9928 29.986 32.2809 31.8535 31.7551Z" fill="#1ECD96"/>
<path d="M46.2656 9.54688C46.2656 7.92684 44.9482 6.60938 43.3281 6.60938H30.1094V2.20312C30.1094 1.39311 29.4506 0.734375 28.6406 0.734375H2.20312C1.39311 0.734375 0.734375 1.39311 0.734375 2.20312V44.7969C0.734375 45.6069 1.39311 46.2656 2.20312 46.2656H34.5156C40.185 46.2656 44.7969 41.6538 44.7969 35.9844V12.0761C45.6708 11.5664 46.2656 10.6293 46.2656 9.54688ZM28.6406 6.60938H27.1719V3.67188H22.7656V2.20312H28.6406V6.60938ZM24.2344 12.0761V35.9844C24.2344 38.1684 24.924 40.1923 26.0901 41.8594H9.54688V41.7331C9.54688 40.6065 10.0037 39.5035 10.8005 38.7067L11.5209 37.9863L5.14062 34.7962V5.14062H8.07812C8.07812 5.95064 8.73686 6.60938 9.54688 6.60938H21.2969C22.1069 6.60938 22.7656 5.95064 22.7656 5.14062H25.7031V6.60938C24.0831 6.60938 22.7656 7.92684 22.7656 9.54688C22.7656 10.6293 23.3605 11.5664 24.2344 12.0761ZM8.28228 40.2819L6.33398 37.0353L9.12387 38.4298C8.73245 38.9902 8.45633 39.6217 8.28228 40.2819ZM9.54688 2.20312H21.2969V5.14062H9.54688V2.20312ZM2.20312 44.7969V2.20312H8.07812V3.67188H3.67188V35.0466C3.67188 35.3139 3.74458 35.5761 3.88117 35.8022L7.9687 42.615C8.23308 43.0549 8.71556 43.3281 9.22816 43.3281H27.3334C27.9085 43.8907 28.5532 44.3805 29.2465 44.7969H2.20312ZM43.3281 13.9531H40.3906V15.4219H43.3281V16.8906H37.4531V18.3594H43.3281V19.8281H40.3906V21.2969H43.3281V35.9844C43.3281 40.8437 39.375 44.7969 34.5156 44.7969C29.6563 44.7969 25.7031 40.8437 25.7031 35.9844V12.4844H43.3281V13.9531ZM43.3281 11.0156H25.7031C24.8931 11.0156 24.2344 10.3569 24.2344 9.54688C24.2344 8.73686 24.8931 8.07812 25.7031 8.07812H43.3281C44.1381 8.07812 44.7969 8.73686 44.7969 9.54688C44.7969 10.3569 44.1381 11.0156 43.3281 11.0156Z" fill="#1ECD96"/>
<path d="M21.2969 8.07812H6.60938V18.3594H21.2969V8.07812ZM15.4219 11.0156C15.4219 11.8256 14.7631 12.4844 13.9531 12.4844C13.1431 12.4844 12.4844 11.8256 12.4844 11.0156C12.4844 10.2056 13.1431 9.54688 13.9531 9.54688C14.7631 9.54688 15.4219 10.2056 15.4219 11.0156ZM8.07812 9.54688H11.4239C11.1713 9.98089 11.0156 10.4781 11.0156 11.0156C11.0156 11.7985 11.3277 12.5057 11.8286 13.033C10.4693 13.7842 9.54688 15.2309 9.54688 16.8906H8.07812V9.54688ZM13.9531 13.9531C15.5732 13.9531 16.8906 15.2706 16.8906 16.8906H11.0156C11.0156 15.2706 12.3331 13.9531 13.9531 13.9531ZM19.8281 16.8906H18.3594C18.3594 15.2309 17.437 13.7842 16.0777 13.033C16.5785 12.5057 16.8906 11.7985 16.8906 11.0156C16.8906 10.4781 16.7349 9.98089 16.4823 9.54688H19.8281V16.8906Z" fill="#1ECD96"/>
<path d="M8.77619 26.0975L7.12825 24.4496L6.08984 25.488L8.84816 28.2463L14.5058 21.7802L13.3998 20.8137L8.77619 26.0975Z" fill="#1ECD96"/>
<path d="M15.4219 25.7031H22.7656V27.1719H15.4219V25.7031Z" fill="#1ECD96"/>
<path d="M15.4219 22.7656H22.7656V24.2344H15.4219V22.7656Z" fill="#1ECD96"/>
<path d="M8.77619 33.4413L7.12825 31.7934L6.08984 32.8318L8.84816 35.5901L14.5058 29.1239L13.3998 28.1575L8.77619 33.4413Z" fill="#1ECD96"/>
<path d="M15.4219 33.0469H22.7656V34.5156H15.4219V33.0469Z" fill="#1ECD96"/>
<path d="M15.4219 30.1094H22.7656V31.5781H15.4219V30.1094Z" fill="#1ECD96"/>
<path d="M15.4219 37.4531H16.8906V38.9219H15.4219V37.4531Z" fill="#1ECD96"/>
<path d="M18.3594 37.4531H19.8281V38.9219H18.3594V37.4531Z" fill="#1ECD96"/>
<path d="M21.2969 37.4531H22.7656V38.9219H21.2969V37.4531Z" fill="#1ECD96"/>
</svg>
