<svg enable-background="new 0 0 36 36" height="512" viewBox="0 0 36 36" width="512" xmlns="http://www.w3.org/2000/svg"><path d="m34.928 20.591c-3.693-5.848-3.199-11.778-4.979-14.596s-7.138-7.714-20.103.473-9.84 17.35-7.882 20.45c9.166 14.515 39.504 4.031 32.964-6.327z" fill="#efefef"/><circle cx="22.5" cy="12.5" fill="#2fdf84" r="5.75"/><path d="m19 12.5c0-2.79 1.988-5.115 4.625-5.638-.364-.073-.74-.112-1.125-.112-3.176 0-5.75 2.574-5.75 5.75s2.574 5.75 5.75 5.75c.385 0 .761-.039 1.125-.112-2.637-.523-4.625-2.848-4.625-5.638z" fill="#00b871"/><g fill="#a4afc1"><path d="m4.305 3.718h1v2h-1z" transform="matrix(.707 -.707 .707 .707 -1.928 4.78)"/><path d="m8.371 7.783h1v2h-1z" transform="matrix(.707 -.707 .707 .707 -3.612 8.845)"/><path d="m3.629 8.283h2v1h-2z" transform="matrix(.707 -.707 .707 .707 -4.855 5.845)"/><path d="m7.695 4.218h2v1h-2z" transform="matrix(.707 -.707 .707 .707 -.789 7.53)"/></g><path d="m6.75 18.75v8.5h2.75l2-7.386s-1.458-1.114-4.75-1.114z" fill="#2fdf84"/><path d="m29.25 25.25s-7.25 4-10.25 4c-2.39 0-7.31-2.22-9.22-3.12l1.49-5.42 9.63 1.97c.93.19 1.6 1.01 1.6 1.96v.43c1.44-.44 2.95-1.07 4.25-1.07 2 0 2.5 1.25 2.5 1.25z" fill="#f3f3f1"/><path d="m24.75 24.64v.43c1.015-.31 2.063-.71 3.049-.922-.295-.086-.633-.148-1.049-.148-.636 0-1.322.152-2.025.357.014.093.025.187.025.283z" fill="#d5dbe1"/><path d="m12.03 26.13 1.37-4.984-2.13-.436-1.49 5.42c1.91.9 6.83 3.12 9.22 3.12.314 0 .683-.052 1.077-.131-2.571-.483-6.411-2.218-8.047-2.989z" fill="#d5dbe1"/><path d="m21.75 25.09v-.02h1.5z"/><path d="m31.371 31.5c-.827 0-1.5-.673-1.5-1.5s.673-1.5 1.5-1.5 1.5.673 1.5 1.5-.673 1.5-1.5 1.5zm0-2c-.276 0-.5.225-.5.5s.224.5.5.5.5-.225.5-.5-.224-.5-.5-.5z" fill="#a4afc1"/><path d="m22.5 19c-3.584 0-6.5-2.916-6.5-6.5s2.916-6.5 6.5-6.5 6.5 2.916 6.5 6.5-2.916 6.5-6.5 6.5zm0-11.5c-2.757 0-5 2.243-5 5s2.243 5 5 5 5-2.243 5-5-2.243-5-5-5z"/><path d="m23.72 14.78-1.75-1.75c-.141-.141-.22-.331-.22-.53v-2.75h1.5v2.439l1.53 1.53z"/><path d="m9.5 28h-2.75c-.414 0-.75-.336-.75-.75v-8.5c0-.414.336-.75.75-.75 3.505 0 5.138 1.217 5.205 1.269.242.185.349.498.269.792l-2 7.386c-.089.326-.385.553-.724.553zm-2-1.5h1.426l1.698-6.271c-.523-.247-1.546-.615-3.125-.707v6.978z"/><path d="m19 30c-2.409 0-7.011-2-9.54-3.191l.64-1.357c4.11 1.938 7.354 3.049 8.9 3.049 2.028 0 6.632-2.19 9.044-3.454-.278-.159-.692-.296-1.294-.296-.878 0-1.963.361-3.013.712-1.163.388-2.366.788-3.487.788-2.108 0-4.889-1.003-5.006-1.045l.512-1.41c.026.01 2.652.955 4.494.955.878 0 1.963-.361 3.013-.712 1.163-.388 2.366-.788 3.487-.788 2.479 0 3.168 1.651 3.196 1.722.141.352-.002.752-.334.935-.302.166-7.455 4.092-10.612 4.092z"/><path d="m23.25 25.09h-1.5v-.45c0-.592-.42-1.107-1-1.225l-9.63-1.972.301-1.469 9.63 1.971c1.274.259 2.2 1.393 2.2 2.694v.451z"/></svg>