<svg width="48" height="48" viewBox="0 0 48 48" fill="none" xmlns="http://www.w3.org/2000/svg">
<path d="M36.5385 9.30027C40.695 11.5443 44.5455 15.4203 44.979 19.6533C45.387 23.8863 42.4035 28.4253 39.471 32.5818C36.513 36.7128 33.657 40.4103 30.036 41.4813C26.415 42.5523 22.029 40.9458 17.5665 39.4158C13.104 37.8858 8.565 36.3813 5.47949 33.0663C2.41949 29.7513 0.812994 24.6258 2.24099 20.6223C3.69449 16.6443 8.157 13.7883 12.186 11.5443C16.215 9.27477 19.785 7.61727 23.814 7.05627C27.8685 6.49527 32.3565 7.08177 36.5385 9.30027Z" fill="#E9FAF5"/>
<path d="M35.238 14.614C29.604 15.1008 25.6706 17.0775 25.2305 17.2451C25.0511 17.3134 24.5353 17.1772 24.3623 17.1273C21.9289 16.4266 19.6941 17.561 18.2168 19.2635C16.1398 21.6574 16.7039 25.0364 16.7039 25.0364C16.7039 25.0364 16.7919 25.4675 16.7039 25.6491C15.1832 28.7874 15.2635 32.6985 16.7784 36.0023C17.0356 36.563 17.0236 37.2332 16.4126 37.2332C16.0916 37.2332 15.7847 37.0502 15.6425 36.7402C14.0312 33.2264 13.9538 29.0953 15.6357 25.4099C14.3093 19.3369 19.56 14.8049 25.0385 16.1664C28.2067 14.6602 31.6123 13.7347 35.1106 13.4325C35.5761 13.3921 35.9542 13.5217 35.9945 13.9857C36.0349 14.4497 35.7035 14.5738 35.238 14.614ZM29.6803 35.3955C29.4141 35.2406 28.7522 34.9225 28.5152 34.73C27.2219 33.6802 26.5953 32.9265 26.4803 32.7094C26.1609 30.0532 26.717 27.3367 25.8675 25.0364C25.7061 24.5994 25.6688 24.2791 25.2305 24.44C24.792 24.601 24.5674 25.0858 24.7289 25.5228C25.9732 28.8922 25.8455 32.6458 24.105 36.0023C23.8904 36.4161 24.053 36.9249 24.468 37.1388C24.8831 37.3527 25.3935 37.1906 25.6081 36.7769C25.9523 36.1132 26.243 35.4294 26.4803 34.73C27.1123 35.5984 27.5915 36.0117 28.5152 36.549C28.9189 36.7838 29.4449 36.9512 29.6803 36.549C29.9157 36.1467 30.0839 35.6302 29.6803 35.3955ZM11.7654 24.0426L10.4434 24.4643C9.99835 24.6062 9.75307 25.081 9.89545 25.5246C10.0105 25.8827 10.2272 25.9236 10.5852 25.9236C10.7606 25.9236 10.7225 25.87 12.1649 25.4099C12.6099 25.2679 12.9714 25.0324 12.829 24.5888C12.6866 24.1452 12.2105 23.9006 11.7654 24.0426ZM13.0481 17.2451L11.7261 16.5599C11.3115 16.345 10.8007 16.5058 10.5852 16.9191C10.3696 17.3323 10.5309 17.8415 10.9454 18.0564C12.3769 18.7984 12.388 18.8369 12.657 18.8369C13.5355 18.8369 13.834 17.6525 13.0481 17.2451ZM15.9928 14.1388C16.1484 14.4132 16.435 14.5673 16.7301 14.5673C17.3709 14.5673 17.7863 13.8739 17.4658 13.3088L16.7784 12.0964C16.5485 11.6909 16.0323 11.548 15.6256 11.7772C15.2188 12.0064 15.0754 12.5209 15.3053 12.9265L15.9928 14.1388ZM22.8819 13.6087C23.2475 13.6087 23.53 13.4735 23.6384 13.1061L24.1427 12.0964C24.2746 11.6496 24.2376 11.2539 23.7893 11.1225C23.341 10.991 23.0137 11.277 22.8819 11.7238L22.4746 12.5897C22.3154 13.129 22.3165 13.6087 22.8819 13.6087Z" fill="#676F8F"/>
</svg>
