<svg xmlns="http://www.w3.org/2000/svg" width="48" height="48" viewBox="0 0 48 48" fill="none">
<path d="M24 48C37.2548 48 48 37.2548 48 24C48 10.7452 37.2548 0 24 0C10.7452 0 0 10.7452 0 24C0 37.2548 10.7452 48 24 48Z" fill="#F0F2FA"/>
<path d="M18 19.875C19.3462 19.875 20.4375 18.7837 20.4375 17.4375C20.4375 16.0913 19.3462 15 18 15C16.6538 15 15.5625 16.0913 15.5625 17.4375C15.5625 18.7837 16.6538 19.875 18 19.875Z" fill="#676F8F"/>
<path d="M30 19.875C31.3462 19.875 32.4375 18.7837 32.4375 17.4375C32.4375 16.0913 31.3462 15 30 15C28.6538 15 27.5625 16.0913 27.5625 17.4375C27.5625 18.7837 28.6538 19.875 30 19.875Z" fill="#676F8F"/>
<rect x="16" y="26" width="16" height="2" rx="1" fill="#676F8F"/>
</svg>