<svg xmlns="http://www.w3.org/2000/svg" width="48" height="48" viewBox="0 0 48 48" fill="none">
<path d="M24 48C37.2548 48 48 37.2548 48 24C48 10.7452 37.2548 0 24 0C10.7452 0 0 10.7452 0 24C0 37.2548 10.7452 48 24 48Z" fill="#FACD40"/>
<path d="M19.2385 14.1665C19.1619 14.2484 19.0726 14.3174 18.9741 14.3708L11.1512 18.8523C10.8925 19.0008 10.5855 19.0404 10.2976 18.9626C10.0097 18.8847 9.76452 18.6958 9.61589 18.4372C9.54174 18.3086 9.4938 18.1666 9.4748 18.0193C9.4558 17.8721 9.4661 17.7226 9.50516 17.5793C9.54423 17.4361 9.61128 17.302 9.70241 17.1848C9.79354 17.0676 9.90695 16.9696 10.0361 16.8964L17.859 12.4149C18.1177 12.2665 18.4247 12.2268 18.7126 12.3047C19.0005 12.3825 19.2457 12.5715 19.3943 12.83C19.5135 13.0405 19.5626 13.2834 19.5346 13.5237C19.5066 13.7639 19.4029 13.9891 19.2385 14.1665Z" fill="#676F8F"/>
<path d="M36.4215 19.1075C36.3131 19.0789 36.21 19.0329 36.1163 18.9714L28.4646 14.2035C28.2114 14.046 28.031 13.7944 27.9633 13.504C27.8955 13.2135 27.9458 12.9081 28.1031 12.6547C28.1813 12.5285 28.2837 12.419 28.4044 12.3326C28.5251 12.2461 28.6617 12.1844 28.8063 12.1509C28.951 12.1175 29.1008 12.1131 29.2472 12.1378C29.3936 12.1626 29.5336 12.2161 29.6592 12.2952L37.3109 17.0631C37.5642 17.2206 37.7445 17.4722 37.8123 17.7627C37.88 18.0531 37.8297 18.3586 37.6724 18.6119C37.5434 18.8165 37.3527 18.9749 37.1279 19.064C36.903 19.1531 36.6556 19.1683 36.4215 19.1075Z" fill="#676F8F"/>
<path d="M33.9368 24.2422C33.6937 24.241 33.4574 24.1616 33.2629 24.0157C33.0684 23.8699 32.926 23.6653 32.8568 23.4322C32.8568 23.3347 32.2943 21.6172 30.9368 21.6172C30.3551 21.5893 29.7801 21.7512 29.2985 22.0786C28.8169 22.406 28.4548 22.8811 28.2668 23.4322C28.1768 23.7153 27.9799 23.9521 27.7179 24.0922C27.456 24.2323 27.1497 24.2646 26.8643 24.1822C26.5829 24.0971 26.3464 23.9045 26.206 23.6462C26.0656 23.3879 26.0326 23.0847 26.1143 22.8022C26.4396 21.7838 27.0859 20.898 27.9566 20.2775C28.8272 19.6569 29.8754 19.335 30.9443 19.3597C33.3893 19.3597 34.6568 21.5197 35.0243 22.8022C35.1082 23.0857 35.0764 23.3908 34.9358 23.6509C34.7953 23.9109 34.5574 24.1047 34.2743 24.1897C34.1651 24.2242 34.0513 24.2419 33.9368 24.2422Z" fill="#676F8F"/>
<path d="M19.8665 24.2422C19.6234 24.241 19.3871 24.1616 19.1926 24.0157C18.9981 23.8699 18.8557 23.6653 18.7865 23.4322C18.7865 23.3347 18.224 21.6172 16.8665 21.6172C16.2848 21.5893 15.7098 21.7512 15.2282 22.0786C14.7466 22.406 14.3845 22.8811 14.1965 23.4322C14.1065 23.7153 13.9096 23.9521 13.6476 24.0922C13.3857 24.2323 13.0794 24.2646 12.794 24.1822C12.5126 24.0971 12.276 23.9045 12.1356 23.6462C11.9953 23.3879 11.9623 23.0847 12.044 22.8022C12.3693 21.7838 13.0156 20.898 13.8863 20.2775C14.7569 19.6569 15.8051 19.335 16.874 19.3597C19.319 19.3597 20.5865 21.5197 20.954 22.8022C21.0379 23.0857 21.0061 23.3908 20.8655 23.6509C20.725 23.9109 20.4871 24.1047 20.204 24.1897C20.0948 24.2242 19.981 24.2419 19.8665 24.2422Z" fill="#676F8F"/>
<path d="M13.1341 37C13.431 37 19.6024 35.8566 23.9111 35.9158C27.9067 35.9707 33.6856 37.0005 33.8652 37C34.0449 36.9995 34.222 36.9656 34.3822 36.9008C34.5424 36.8361 34.6812 36.7424 34.7876 36.6273C34.8929 36.5116 34.9616 36.3774 34.9879 36.2361C35.0142 36.0949 34.9974 35.9506 34.9389 35.8156C34.8103 35.491 31.5744 28 24.0365 28C16.8086 28 12.5444 34.986 12.1285 35.6954C12.0436 35.8254 11.9995 35.9698 12 36.1162C12.0059 36.3523 12.1281 36.577 12.3401 36.7423C12.5521 36.9075 12.8372 37 13.1341 37Z" fill="#676F8F"/>
<path d="M43 30.967C43 32.6421 41.6569 34 40 34C38.3431 34 37 32.6421 37 30.967C37 27.4066 39.2174 22 40 22C40.7826 22 43 27.2747 43 30.967Z" fill="#FDECB6"/>
</svg>